M48
; DRILL file {KiCad 8.0.3} date 2024-09-09T20:42:56-0500
; FORMAT={-:-/ absolute / metric / decimal}
; #@! TF.CreationDate,2024-09-09T20:42:56-05:00
; #@! TF.GenerationSoftware,Kicad,Pcbnew,8.0.3
; #@! TF.FileFunction,MixedPlating,1,2
FMAT,2
METRIC
; #@! TA.AperFunction,Plated,PTH,ViaDrill
T1C0.300
; #@! TA.AperFunction,Plated,PTH,ComponentDrill
T2C0.300
; #@! TA.AperFunction,Plated,PTH,ComponentDrill
T3C1.000
; #@! TA.AperFunction,NonPlated,NPTH,ComponentDrill
T4C3.200
%
G90
G05
T1
X73.65Y-133.84
X73.65Y-139.55
X79.85Y-136.45
X80.25Y-139.55
X81.06Y-133.44
X81.15Y-134.75
X81.15Y-140.45
X81.16Y-132.54
X81.76Y-134.04
X82.35Y-138.65
X83.95Y-133.95
X84.15Y-135.2
X84.35Y-136.5
X84.85Y-135.85
X86.1Y-131.8
X86.36Y-141.94
X91.56Y-131.84
X92.85Y-136.5
X93.075Y-138.45
X93.6Y-135.25
X93.65Y-136.5
X93.96Y-131.249
X94.1Y-138.45
X94.2Y-137.2
X94.55Y-135.25
X95.0Y-137.2
X96.46Y-131.24
X98.06Y-132.44
X99.15Y-129.95
X99.85Y-142.65
X100.85Y-136.35
X100.85Y-137.35
X100.85Y-138.35
X101.75Y-142.65
X101.85Y-137.35
X101.85Y-138.35
X103.55Y-134.55
X106.55Y-136.85
T2
X87.65Y-132.65
X87.65Y-133.85
X87.65Y-135.05
X87.65Y-136.25
X87.65Y-137.45
X87.65Y-138.65
X87.65Y-139.85
X87.65Y-141.05
X88.85Y-132.65
X88.85Y-133.85
X88.85Y-135.05
X88.85Y-136.25
X88.85Y-137.45
X88.85Y-138.65
X88.85Y-139.85
X88.85Y-141.05
X90.05Y-132.65
X90.05Y-133.85
X90.05Y-135.05
X90.05Y-136.25
X90.05Y-137.45
X90.05Y-138.65
X90.05Y-139.85
X90.05Y-141.05
T3
X79.96Y-127.96
X79.96Y-145.74
X82.5Y-127.96
X82.5Y-145.74
X85.04Y-127.96
X85.04Y-145.74
X87.58Y-127.96
X87.58Y-145.74
X90.12Y-127.96
X90.12Y-145.74
X92.66Y-127.96
X92.66Y-145.74
X95.2Y-127.96
X95.2Y-145.74
X97.74Y-127.96
X97.74Y-145.74
T4
X72.85Y-128.85
X72.85Y-144.85
X104.85Y-128.85
X104.85Y-144.85
M30
