M48
; DRILL file {KiCad 8.0.3} date 2024-09-09T15:31:59-0500
; FORMAT={-:-/ absolute / metric / decimal}
; #@! TF.CreationDate,2024-09-09T15:31:59-05:00
; #@! TF.GenerationSoftware,Kicad,Pcbnew,8.0.3
; #@! TF.FileFunction,MixedPlating,1,2
FMAT,2
METRIC
; #@! TA.AperFunction,Plated,PTH,ViaDrill
T1C0.300
; #@! TA.AperFunction,Plated,PTH,ComponentDrill
T2C1.000
; #@! TA.AperFunction,Plated,PTH,ViaDrill
T3C1.200
; #@! TA.AperFunction,Plated,PTH,ViaDrill
T4C3.000
; #@! TA.AperFunction,Plated,PTH,ViaDrill
T5C4.100
; #@! TA.AperFunction,NonPlated,NPTH,ComponentDrill
T6C3.200
%
G90
G05
T1
X138.024Y-100.876
X138.024Y-101.987
X138.024Y-103.099
X138.024Y-106.909
X138.024Y-108.02
X138.024Y-109.131
X138.182Y-94.685
X138.182Y-115.322
X138.401Y-97.304
X138.401Y-98.704
X138.401Y-111.304
X138.401Y-112.704
X139.101Y-96.104
X139.101Y-99.904
X139.101Y-113.904
X139.135Y-101.987
X139.135Y-103.099
X139.135Y-106.909
X139.135Y-108.02
X139.135Y-110.084
X140.301Y-95.304
X140.301Y-100.704
X140.301Y-109.304
X140.301Y-114.704
X141.901Y-95.304
X141.901Y-100.704
X141.901Y-109.304
X141.901Y-114.704
X143.101Y-96.104
X143.101Y-99.904
X143.101Y-110.104
X143.104Y-113.894
X143.801Y-97.304
X143.801Y-98.704
X143.801Y-111.304
X143.801Y-112.704
X144.215Y-94.685
X144.215Y-115.322
X146.201Y-96.304
X146.201Y-100.904
X146.201Y-109.104
X146.201Y-113.704
X146.395Y-101.956
X146.395Y-102.718
X146.395Y-103.48
X146.395Y-104.242
X146.395Y-105.766
X146.395Y-106.528
X146.395Y-107.29
X146.395Y-108.052
X146.776Y-102.337
X146.776Y-103.099
X146.776Y-103.861
X146.776Y-106.147
X146.776Y-106.909
X146.776Y-107.671
X147.157Y-101.956
X147.157Y-102.718
X147.157Y-103.48
X147.157Y-104.242
X147.157Y-105.766
X147.157Y-106.528
X147.157Y-107.29
X147.157Y-108.052
X147.701Y-97.004
X147.701Y-100.204
X147.701Y-109.804
X147.701Y-113.004
X147.919Y-101.575
X147.919Y-102.337
X147.919Y-103.734
X147.919Y-106.274
X147.919Y-107.671
X147.919Y-108.433
X148.401Y-98.604
X148.401Y-111.404
X148.554Y-101.575
X148.554Y-102.337
X148.554Y-103.734
X148.554Y-106.274
X148.554Y-107.671
X148.554Y-108.433
X149.136Y-94.685
X149.136Y-115.322
X149.189Y-101.575
X149.189Y-102.337
X149.189Y-103.734
X149.189Y-106.274
X149.189Y-107.671
X149.189Y-108.433
X154.057Y-107.702
X154.692Y-101.987
X155.486Y-104.369
T2
X158.026Y-102.464
X158.026Y-105.004
X158.026Y-107.544
T3
X141.061Y-102.464
X141.061Y-107.544
X142.966Y-103.254
X142.966Y-106.754
X144.871Y-103.734
X144.871Y-106.274
T4
X146.201Y-98.604
X146.201Y-111.404
T5
X141.101Y-98.004
X141.101Y-112.004
T6
X157.251Y-96.254
X157.251Y-113.754
M30
