<!DOCTYPE svg PUBLIC "-//W3C//DTD SVG 1.1//EN" "http://www.w3.org/Graphics/SVG/1.1/DTD/svg11.dtd">
<svg xmlns:svg="http://www.w3.org/2000/svg" xmlns="http://www.w3.org/2000/svg" xmlns:xlink="http://www.w3.org/1999/xlink" version="1.1" width="3.0mm" height="1.2mm" viewBox="0.0000 0.0000 3.0 1.2">
<title>SVG Image created as 0603.svg date 2024/09/04 14:49:46 </title>
  <desc>Image generated by PCBNEW </desc>
<g style="fill:#000000; fill-opacity:1.0000;stroke:#000000; stroke-opacity:1.0000; stroke-linecap:round; stroke-linejoin:round;" transform="translate(0 0) scale(1 1)">
<path style="fill:#000000; fill-opacity:1.0000; stroke:none;fill-rule:evenodd;" d="M 0.1,0.15080000000000002 0.10390000000000002,0.1314 0.11490000000000003,0.11490000000000003 0.1314,0.10390000000000002 0.15080000000000002,0.1 1.1492,0.1 1.1686,0.10390000000000002 1.1851,0.11490000000000003 1.1961,0.1314 1.2,0.15080000000000002 1.2,1.0492000000000001 1.1961,1.0686 1.1851,1.0851 1.1686,1.0961 1.1492,1.1 0.15080000000000002,1.1 0.1314,1.0961 0.11490000000000003,1.0851 0.10390000000000002,1.0686 0.1,1.0492000000000001 Z"/> 
<path style="fill:#000000; fill-opacity:1.0000; stroke:none;fill-rule:evenodd;" d="M 1.8,0.15080000000000002 1.8039,0.1314 1.8149,0.11490000000000003 1.8314000000000001,0.10390000000000002 1.8508,0.1 2.8492,0.1 2.8686000000000003,0.10390000000000002 2.8851,0.11490000000000003 2.8961,0.1314 2.9,0.15080000000000002 2.9,1.0492000000000001 2.8961,1.0686 2.8851,1.0851 2.8686000000000003,1.0961 2.8492,1.1 1.8508,1.1 1.8314000000000001,1.0961 1.8149,1.0851 1.8039,1.0686 1.8,1.0492000000000001 Z"/> 
</g> 
</svg>