<!DOCTYPE svg PUBLIC "-//W3C//DTD SVG 1.1//EN" "http://www.w3.org/Graphics/SVG/1.1/DTD/svg11.dtd">
<svg xmlns:svg="http://www.w3.org/2000/svg" xmlns="http://www.w3.org/2000/svg" xmlns:xlink="http://www.w3.org/1999/xlink" version="1.1" width="18.7563mm" height="10.359999999999998mm" viewBox="0.0000 0.0000 18.7563 10.359999999999998">
<title>SVG Image created as 2sc4213.svg date 2024/09/17 22:08:45 </title>
  <desc>Image generated by Eeschema-SVG </desc>
<g style="fill:#000000; fill-opacity:1.0000;stroke:#000000; stroke-opacity:1.0000; stroke-linecap:round; stroke-linejoin:round;" transform="translate(0 0) scale(1 1)">
<path style="fill:none;  stroke:#840000; stroke-width:0.1524; stroke-opacity:1;  stroke-linecap:round; stroke-linejoin:round;fill:none" d="M 5.814999999999999,4.544999999999998 7.72,2.639999999999999 "/> 
<path style="fill:none;  stroke:#840000; stroke-width:0.1524; stroke-opacity:1;  stroke-linecap:round; stroke-linejoin:round;fill:none" d="M 5.814999999999999,5.8149999999999995 7.72,7.719999999999999 7.72,7.719999999999999 "/> 
<path style="fill:none;  stroke:#840000; stroke-width:0.5080; stroke-opacity:1;  stroke-linecap:round; stroke-linejoin:round;fill:none" d="M 5.814999999999999,3.2749999999999986 5.814999999999999,7.084999999999999 5.814999999999999,7.084999999999999 "/> 
<path style="fill:#840000; fill-opacity:1.0000;  stroke:#840000; stroke-width:0.1524; stroke-opacity:1;  stroke-linecap:round; stroke-linejoin:round;fill-rule:evenodd;" d="M 6.449999999999998,6.957999999999998 6.957999999999999,6.449999999999999 7.465999999999998,7.465999999999999 6.449999999999998,6.957999999999998 Z"/> 
</g>
<g style="fill:none;  stroke:#840000; stroke-width:0.2540; stroke-opacity:1;  stroke-linecap:round; stroke-linejoin:round;">
<circle cx="6.449999999999998" cy="5.18" r="2.8194"/> 
</g>
<g style="fill:none;  stroke:#840000; stroke-width:0.1524; stroke-opacity:1;  stroke-linecap:round; stroke-linejoin:round;">
<path d="M5.814999999999999 5.18 L0.09999999999999964 5.18 "/>
</g>
<g style="fill:none;  stroke:#A90000; stroke-width:0.1524; stroke-opacity:1;  stroke-linecap:round; stroke-linejoin:round;">
<text x="9.4004" y="13.0429" textLength="1.4127" font-size="1.6933" lengthAdjust="spacingAndGlyphs" text-anchor="middle" opacity="0">1</text>
<g class="stroked-text"><desc>1</desc>
<path d="M3.3203999999999985 4.762499999999999 L2.5946999999999987 4.762499999999999 "/>
<path d="M2.9574999999999987 4.762499999999999 L2.9574999999999987 3.4924999999999997 "/>
<path d="M2.9574999999999987 3.4924999999999997 L2.8366 3.6739999999999995 "/>
<path d="M2.8366 3.6739999999999995 L2.7155999999999993 3.7948999999999984 "/>
<path d="M2.7155999999999993 3.7948999999999984 L2.5946999999999987 3.8553999999999995 "/>
</g></g>
<g style="fill:none;  stroke:#840000; stroke-width:0.1524; stroke-opacity:1;  stroke-linecap:round; stroke-linejoin:round;">
<path d="M7.72 7.719999999999999 L7.72 10.259999999999998 "/>
</g>
<g style="fill:none;  stroke:#A90000; stroke-width:0.1524; stroke-opacity:1;  stroke-linecap:round; stroke-linejoin:round;">
<g transform="rotate(-90.000000 13.9089 17.1069)">
<text x="13.9089" y="17.1069" textLength="1.4127" font-size="1.6933" lengthAdjust="spacingAndGlyphs" text-anchor="middle" opacity="0">2</text>
</g>
<g class="stroked-text"><desc>2</desc>
<path d="M6.153499999999998 9.352699999999999 L6.092999999999999 9.292299999999997 "/>
<path d="M6.092999999999999 9.292299999999997 L6.0325 9.171299999999999 "/>
<path d="M6.0325 9.171299999999999 L6.0325 8.8689 "/>
<path d="M6.0325 8.8689 L6.092999999999999 8.747999999999998 "/>
<path d="M6.092999999999999 8.747999999999998 L6.153499999999998 8.6875 "/>
<path d="M6.153499999999998 8.6875 L6.274399999999999 8.626999999999999 "/>
<path d="M6.274399999999999 8.626999999999999 L6.3953999999999995 8.626999999999999 "/>
<path d="M6.3953999999999995 8.626999999999999 L6.5767999999999995 8.6875 "/>
<path d="M6.5767999999999995 8.6875 L7.302499999999999 9.4132 "/>
<path d="M7.302499999999999 9.4132 L7.302499999999999 8.626999999999999 "/>
</g></g>
<g style="fill:none;  stroke:#840000; stroke-width:0.1524; stroke-opacity:1;  stroke-linecap:round; stroke-linejoin:round;">
<path d="M7.72 2.639999999999999 L7.72 0.09999999999999964 "/>
</g>
<g style="fill:none;  stroke:#A90000; stroke-width:0.1524; stroke-opacity:1;  stroke-linecap:round; stroke-linejoin:round;">
<g transform="rotate(-90.000000 13.9089 9.4869)">
<text x="13.9089" y="9.4869" textLength="1.4127" font-size="1.6933" lengthAdjust="spacingAndGlyphs" text-anchor="middle" opacity="0">3</text>
</g>
<g class="stroked-text"><desc>3</desc>
<path d="M6.0325 1.7931999999999988 L6.0325 1.0069999999999997 "/>
<path d="M6.0325 1.0069999999999997 L6.516299999999998 1.4303999999999988 "/>
<path d="M6.516299999999998 1.4303999999999988 L6.516299999999998 1.248899999999999 "/>
<path d="M6.516299999999998 1.248899999999999 L6.5767999999999995 1.1279999999999983 "/>
<path d="M6.5767999999999995 1.1279999999999983 L6.637299999999999 1.067499999999999 "/>
<path d="M6.637299999999999 1.067499999999999 L6.7581999999999995 1.0069999999999997 "/>
<path d="M6.7581999999999995 1.0069999999999997 L7.0606 1.0069999999999997 "/>
<path d="M7.0606 1.0069999999999997 L7.181599999999999 1.067499999999999 "/>
<path d="M7.181599999999999 1.067499999999999 L7.2421 1.1279999999999983 "/>
<path d="M7.2421 1.1279999999999983 L7.302499999999999 1.248899999999999 "/>
<path d="M7.302499999999999 1.248899999999999 L7.302499999999999 1.6117999999999988 "/>
<path d="M7.302499999999999 1.6117999999999988 L7.2421 1.7326999999999995 "/>
<path d="M7.2421 1.7326999999999995 L7.181599999999999 1.7931999999999988 "/>
</g></g>
<g style="fill:none;  stroke:#006464; stroke-width:0.1588; stroke-opacity:1;  stroke-linecap:round; stroke-linejoin:round;">
<text x="18.0236" y="12.0270" textLength="2.6415" font-size="1.6933" lengthAdjust="spacingAndGlyphs" text-anchor="middle" opacity="0">Q?</text>
<g class="stroked-text"><desc>Q?</desc>
<path d="M11.520199999999999 3.975299999999999 L11.399199999999997 3.9147999999999996 "/>
<path d="M11.399199999999997 3.9147999999999996 L11.278299999999998 3.793899999999999 "/>
<path d="M11.278299999999998 3.793899999999999 L11.096899999999998 3.612399999999999 "/>
<path d="M11.096899999999998 3.612399999999999 L10.9759 3.551899999999998 "/>
<path d="M10.9759 3.551899999999998 L10.854999999999997 3.551899999999998 "/>
<path d="M10.915399999999998 3.8542999999999985 L10.7945 3.793899999999999 "/>
<path d="M10.7945 3.793899999999999 L10.673499999999997 3.6728999999999985 "/>
<path d="M10.673499999999997 3.6728999999999985 L10.6131 3.430999999999999 "/>
<path d="M10.6131 3.430999999999999 L10.6131 3.007699999999998 "/>
<path d="M10.6131 3.007699999999998 L10.673499999999997 2.7657999999999987 "/>
<path d="M10.673499999999997 2.7657999999999987 L10.7945 2.6447999999999983 "/>
<path d="M10.7945 2.6447999999999983 L10.915399999999998 2.584299999999999 "/>
<path d="M10.915399999999998 2.584299999999999 L11.1573 2.584299999999999 "/>
<path d="M11.1573 2.584299999999999 L11.278299999999998 2.6447999999999983 "/>
<path d="M11.278299999999998 2.6447999999999983 L11.399199999999997 2.7657999999999987 "/>
<path d="M11.399199999999997 2.7657999999999987 L11.459699999999998 3.007699999999998 "/>
<path d="M11.459699999999998 3.007699999999998 L11.459699999999998 3.430999999999999 "/>
<path d="M11.459699999999998 3.430999999999999 L11.399199999999997 3.6728999999999985 "/>
<path d="M11.399199999999997 3.6728999999999985 L11.278299999999998 3.793899999999999 "/>
<path d="M11.278299999999998 3.793899999999999 L11.1573 3.8542999999999985 "/>
<path d="M11.1573 3.8542999999999985 L10.915399999999998 3.8542999999999985 "/>
<path d="M12.185499999999998 3.7333999999999996 L12.245899999999999 3.793899999999999 "/>
<path d="M12.245899999999999 3.793899999999999 L12.185499999999998 3.8542999999999985 "/>
<path d="M12.185499999999998 3.8542999999999985 L12.125 3.793899999999999 "/>
<path d="M12.125 3.793899999999999 L12.185499999999998 3.7333999999999996 "/>
<path d="M12.185499999999998 3.7333999999999996 L12.185499999999998 3.8542999999999985 "/>
<path d="M11.9436 2.6447999999999983 L12.064499999999999 2.584299999999999 "/>
<path d="M12.064499999999999 2.584299999999999 L12.366899999999998 2.584299999999999 "/>
<path d="M12.366899999999998 2.584299999999999 L12.4878 2.6447999999999983 "/>
<path d="M12.4878 2.6447999999999983 L12.548299999999998 2.7657999999999987 "/>
<path d="M12.548299999999998 2.7657999999999987 L12.548299999999998 2.8866999999999994 "/>
<path d="M12.548299999999998 2.8866999999999994 L12.4878 3.007699999999998 "/>
<path d="M12.4878 3.007699999999998 L12.427399999999999 3.0680999999999994 "/>
<path d="M12.427399999999999 3.0680999999999994 L12.3064 3.1285999999999987 "/>
<path d="M12.3064 3.1285999999999987 L12.245899999999999 3.189099999999998 "/>
<path d="M12.245899999999999 3.189099999999998 L12.185499999999998 3.3099999999999987 "/>
<path d="M12.185499999999998 3.3099999999999987 L12.185499999999998 3.370499999999998 "/>
</g><text x="21.0776" y="13.9320" textLength="8.7494" font-size="1.6933" lengthAdjust="spacingAndGlyphs" text-anchor="middle" opacity="0">2SC4213</text>
<g class="stroked-text"><desc>2SC4213</desc>
<path d="M10.6131 4.610299999999999 L10.673499999999997 4.549799999999999 "/>
<path d="M10.673499999999997 4.549799999999999 L10.7945 4.489299999999998 "/>
<path d="M10.7945 4.489299999999998 L11.096899999999998 4.489299999999998 "/>
<path d="M11.096899999999998 4.489299999999998 L11.217799999999997 4.549799999999999 "/>
<path d="M11.217799999999997 4.549799999999999 L11.278299999999998 4.610299999999999 "/>
<path d="M11.278299999999998 4.610299999999999 L11.338799999999999 4.731199999999999 "/>
<path d="M11.338799999999999 4.731199999999999 L11.338799999999999 4.852199999999998 "/>
<path d="M11.338799999999999 4.852199999999998 L11.278299999999998 5.033599999999998 "/>
<path d="M11.278299999999998 5.033599999999998 L10.552599999999998 5.7593 "/>
<path d="M10.552599999999998 5.7593 L11.338799999999999 5.7593 "/>
<path d="M11.822599999999998 5.698899999999998 L12.003999999999998 5.7593 "/>
<path d="M12.003999999999998 5.7593 L12.3064 5.7593 "/>
<path d="M12.3064 5.7593 L12.427299999999999 5.698899999999998 "/>
<path d="M12.427299999999999 5.698899999999998 L12.4878 5.638399999999999 "/>
<path d="M12.4878 5.638399999999999 L12.548299999999998 5.5173999999999985 "/>
<path d="M12.548299999999998 5.5173999999999985 L12.548299999999998 5.3965 "/>
<path d="M12.548299999999998 5.3965 L12.4878 5.275499999999999 "/>
<path d="M12.4878 5.275499999999999 L12.427299999999999 5.214999999999998 "/>
<path d="M12.427299999999999 5.214999999999998 L12.3064 5.1545999999999985 "/>
<path d="M12.3064 5.1545999999999985 L12.064499999999999 5.094099999999999 "/>
<path d="M12.064499999999999 5.094099999999999 L11.943499999999997 5.033599999999998 "/>
<path d="M11.943499999999997 5.033599999999998 L11.883 4.973099999999999 "/>
<path d="M11.883 4.973099999999999 L11.822599999999998 4.852199999999998 "/>
<path d="M11.822599999999998 4.852199999999998 L11.822599999999998 4.731199999999999 "/>
<path d="M11.822599999999998 4.731199999999999 L11.883 4.610299999999999 "/>
<path d="M11.883 4.610299999999999 L11.943499999999997 4.549799999999999 "/>
<path d="M11.943499999999997 4.549799999999999 L12.064499999999999 4.489299999999998 "/>
<path d="M12.064499999999999 4.489299999999998 L12.366799999999998 4.489299999999998 "/>
<path d="M12.366799999999998 4.489299999999998 L12.548299999999998 4.549799999999999 "/>
<path d="M13.818199999999997 5.638399999999999 L13.7578 5.698899999999998 "/>
<path d="M13.7578 5.698899999999998 L13.5763 5.7593 "/>
<path d="M13.5763 5.7593 L13.455399999999997 5.7593 "/>
<path d="M13.455399999999997 5.7593 L13.273999999999997 5.698899999999998 "/>
<path d="M13.273999999999997 5.698899999999998 L13.152999999999999 5.5779 "/>
<path d="M13.152999999999999 5.5779 L13.092499999999998 5.456899999999999 "/>
<path d="M13.092499999999998 5.456899999999999 L13.0321 5.214999999999998 "/>
<path d="M13.0321 5.214999999999998 L13.0321 5.033599999999998 "/>
<path d="M13.0321 5.033599999999998 L13.092499999999998 4.791699999999999 "/>
<path d="M13.092499999999998 4.791699999999999 L13.152999999999999 4.670799999999998 "/>
<path d="M13.152999999999999 4.670799999999998 L13.273999999999997 4.549799999999999 "/>
<path d="M13.273999999999997 4.549799999999999 L13.455399999999997 4.489299999999998 "/>
<path d="M13.455399999999997 4.489299999999998 L13.5763 4.489299999999998 "/>
<path d="M13.5763 4.489299999999998 L13.7578 4.549799999999999 "/>
<path d="M13.7578 4.549799999999999 L13.818199999999997 4.610299999999999 "/>
<path d="M14.906799999999997 4.912699999999999 L14.906799999999997 5.7593 "/>
<path d="M14.604399999999998 4.428899999999999 L14.3021 5.3359999999999985 "/>
<path d="M14.3021 5.3359999999999985 L15.088199999999997 5.3359999999999985 "/>
<path d="M15.511599999999998 4.610299999999999 L15.572 4.549799999999999 "/>
<path d="M15.572 4.549799999999999 L15.692999999999998 4.489299999999998 "/>
<path d="M15.692999999999998 4.489299999999998 L15.9954 4.489299999999998 "/>
<path d="M15.9954 4.489299999999998 L16.1163 4.549799999999999 "/>
<path d="M16.1163 4.549799999999999 L16.1768 4.610299999999999 "/>
<path d="M16.1768 4.610299999999999 L16.237299999999998 4.731199999999999 "/>
<path d="M16.237299999999998 4.731199999999999 L16.237299999999998 4.852199999999998 "/>
<path d="M16.237299999999998 4.852199999999998 L16.1768 5.033599999999998 "/>
<path d="M16.1768 5.033599999999998 L15.451099999999997 5.7593 "/>
<path d="M15.451099999999997 5.7593 L16.237299999999998 5.7593 "/>
<path d="M17.4468 5.7593 L16.7211 5.7593 "/>
<path d="M17.0839 5.7593 L17.0839 4.489299999999998 "/>
<path d="M17.0839 4.489299999999998 L16.962999999999997 4.670799999999998 "/>
<path d="M16.962999999999997 4.670799999999998 L16.842 4.791699999999999 "/>
<path d="M16.842 4.791699999999999 L16.7211 4.852199999999998 "/>
<path d="M17.870099999999997 4.489299999999998 L18.656299999999998 4.489299999999998 "/>
<path d="M18.656299999999998 4.489299999999998 L18.232899999999997 4.973099999999999 "/>
<path d="M18.232899999999997 4.973099999999999 L18.414399999999997 4.973099999999999 "/>
<path d="M18.414399999999997 4.973099999999999 L18.5353 5.033599999999998 "/>
<path d="M18.5353 5.033599999999998 L18.595799999999997 5.094099999999999 "/>
<path d="M18.595799999999997 5.094099999999999 L18.656299999999998 5.214999999999998 "/>
<path d="M18.656299999999998 5.214999999999998 L18.656299999999998 5.5173999999999985 "/>
<path d="M18.656299999999998 5.5173999999999985 L18.595799999999997 5.638399999999999 "/>
<path d="M18.595799999999997 5.638399999999999 L18.5353 5.698899999999998 "/>
<path d="M18.5353 5.698899999999998 L18.414399999999997 5.7593 "/>
<path d="M18.414399999999997 5.7593 L18.051499999999997 5.7593 "/>
<path d="M18.051499999999997 5.7593 L17.9306 5.698899999999998 "/>
<path d="M17.9306 5.698899999999998 L17.870099999999997 5.638399999999999 "/>
</g></g> 
</svg>