<?xml version="1.0" standalone="no"?>
 <!DOCTYPE svg PUBLIC "-//W3C//DTD SVG 1.1//EN" 
 "http://www.w3.org/Graphics/SVG/1.1/DTD/svg11.dtd"> 
<svg
  xmlns:svg="http://www.w3.org/2000/svg"
  xmlns="http://www.w3.org/2000/svg"
  xmlns:xlink="http://www.w3.org/1999/xlink"
  version="1.1"
  width="15.5956mm" height="10.8966mm" viewBox="0.0000 0.0000 15.5956 10.8966">
<title>SVG Image created as 4UCONN_20329_V2.svg date 2024/09/11 20:38:35 </title>
  <desc>Image generated by PCBNEW </desc>
<g style="fill:#000000; fill-opacity:1.0000;stroke:#000000; stroke-opacity:1.0000;
stroke-linecap:round; stroke-linejoin:round;"
 transform="translate(0 0) scale(1 1)">
<path style="fill:#000000; fill-opacity:1.0000; stroke:none;fill-rule:evenodd;"
d="M 10.2374,8.5840
9.2374,8.5840
9.2374,6.5840
10.2374,6.5840
Z" /> 
<path style="fill:#000000; fill-opacity:1.0000; stroke:none;fill-rule:evenodd;"
d="M 11.7374,8.5840
10.7374,8.5840
10.7374,6.5840
11.7374,6.5840
Z" /> 
<path style="fill:#000000; fill-opacity:1.0000; stroke:none;fill-rule:evenodd;"
d="M 10.2874,5.4840
10.2874,4.1340
10.6874,4.1340
10.6874,5.4840
Z" /> 
<path style="fill:#000000; fill-opacity:1.0000; stroke:none;fill-rule:evenodd;"
d="M 9.6374,5.4840
9.6374,4.1340
10.0374,4.1340
10.0374,5.4840
Z" /> 
<path style="fill:#000000; fill-opacity:1.0000; stroke:none;fill-rule:evenodd;"
d="M 11.5874,5.4840
11.5874,4.1340
11.9874,4.1340
11.9874,5.4840
Z" /> 
<path style="fill:#000000; fill-opacity:1.0000; stroke:none;fill-rule:evenodd;"
d="M 10.9374,5.4840
10.9374,4.1340
11.3374,4.1340
11.3374,5.4840
Z" /> 
</g>
<g style="fill:none; 
stroke:#000000; stroke-width:1.2000; stroke-opacity:1; 
stroke-linecap:round; stroke-linejoin:round;">
<path d="M7.1874 4.6840
L5.9874 4.6840
" />
<path d="M13.7874 4.6840
L14.9874 4.6840
" />
<path style="fill:#000000; fill-opacity:1.0000; stroke:none;fill-rule:evenodd;"
d="M 8.1374,8.7340
5.6374,8.7340
5.6374,6.2340
8.1374,6.2340
Z" /> 
<path style="fill:#000000; fill-opacity:1.0000; stroke:none;fill-rule:evenodd;"
d="M 15.3374,8.7340
12.8374,8.7340
12.8374,6.2340
15.3374,6.2340
Z" /> 
<path style="fill:#000000; fill-opacity:1.0000; stroke:none;fill-rule:evenodd;"
d="M 8.9874,5.4840
8.9874,4.1340
9.3874,4.1340
9.3874,5.4840
Z" /> 
</g> 
</svg>
