M48
; DRILL file {KiCad 8.0.3} date 2024-11-22T14:26:52-0600
; FORMAT={-:-/ absolute / metric / decimal}
; #@! TF.CreationDate,2024-11-22T14:26:52-06:00
; #@! TF.GenerationSoftware,Kicad,Pcbnew,8.0.3
; #@! TF.FileFunction,MixedPlating,1,2
FMAT,2
METRIC
; #@! TA.AperFunction,Plated,PTH,ViaDrill
T1C0.330
; #@! TA.AperFunction,Plated,PTH,ComponentDrill
T2C0.600
; #@! TA.AperFunction,Plated,PTH,ComponentDrill
T3C0.800
; #@! TA.AperFunction,Plated,PTH,ComponentDrill
T4C1.000
; #@! TA.AperFunction,NonPlated,NPTH,ComponentDrill
T5C0.650
; #@! TA.AperFunction,NonPlated,NPTH,ComponentDrill
T6C0.900
; #@! TA.AperFunction,NonPlated,NPTH,ComponentDrill
T7C1.200
%
G90
G05
T1
X129.54Y-104.14
X130.81Y-100.33
X133.35Y-87.63
X133.985Y-108.585
X134.62Y-93.345
X134.62Y-107.315
X138.43Y-82.55
X138.43Y-93.345
X144.78Y-86.995
X146.05Y-92.71
X146.685Y-90.17
X146.685Y-118.11
X148.59Y-79.375
X148.59Y-120.65
X148.59Y-124.46
X149.86Y-78.74
X150.495Y-87.63
X150.495Y-88.9
X152.4Y-85.09
X153.67Y-82.55
X153.67Y-85.725
X153.67Y-92.075
X154.305Y-97.79
X155.575Y-97.79
X155.575Y-124.46
X156.21Y-79.375
X156.21Y-86.36
X156.21Y-92.71
X156.845Y-97.79
X157.48Y-92.71
X158.115Y-94.615
X158.115Y-97.155
X158.115Y-104.775
X158.75Y-83.82
X158.75Y-92.075
X158.75Y-96.52
X158.75Y-97.79
X160.02Y-116.205
X160.655Y-104.14
X161.925Y-86.995
X163.195Y-88.265
X165.735Y-82.55
X165.735Y-91.44
X168.91Y-95.25
X170.18Y-107.315
X170.18Y-109.855
X170.71Y-109.115
X171.45Y-87.63
X172.085Y-110.49
X174.625Y-97.155
X174.625Y-106.045
X175.26Y-96.52
X175.895Y-105.41
T3
X143.383Y-92.71
X143.383Y-95.25
X143.383Y-97.79
X143.383Y-100.33
X143.383Y-102.87
X143.383Y-105.41
X143.383Y-107.95
X143.383Y-110.49
X161.417Y-92.71
X161.417Y-95.25
X161.417Y-97.79
X161.417Y-100.33
X161.417Y-102.87
X161.417Y-105.41
X161.417Y-107.95
X161.417Y-110.49
T4
X149.86Y-106.68
X152.4Y-106.68
X154.94Y-106.68
X164.46Y-99.045
X164.46Y-101.585
X164.46Y-104.125
X167.0Y-99.045
X167.0Y-101.585
X167.0Y-104.125
T5
X164.264Y-117.551
X168.351Y-113.464
T6
X129.667Y-108.981
X130.815Y-111.753
X173.989Y-111.737
X175.137Y-108.965
T7
X131.222Y-115.707
X132.989Y-113.939
X138.293Y-122.778
X140.061Y-113.939
X140.061Y-121.011
T2
X162.511Y-117.82G85X163.289Y-118.598
G05
X165.572Y-120.882G85X166.138Y-121.448
G05
X168.62Y-111.711G85X169.398Y-112.489
G05
X171.682Y-114.772G85X172.248Y-115.338
G05
T3
X136.278Y-110.651G85X136.772Y-110.156
G05
X136.772Y-117.722G85X136.278Y-117.228
G05
X143.349Y-117.722G85X143.844Y-117.228
G05
M30
