<!DOCTYPE svg PUBLIC "-//W3C//DTD SVG 1.1//EN" "http://www.w3.org/Graphics/SVG/1.1/DTD/svg11.dtd">
<svg xmlns:svg="http://www.w3.org/2000/svg" xmlns="http://www.w3.org/2000/svg" xmlns:xlink="http://www.w3.org/1999/xlink" version="1.1" width="5.0948mm" height="7.82mm" viewBox="0.0000 0.0000 5.0948 7.82">
<title>SVG Image created as c.svg date 2024/08/23 10:02:47 </title>
  <desc>Image generated by Eeschema-SVG </desc>
<g style="fill:#000000; fill-opacity:1.0000;stroke:#000000; stroke-opacity:1.0000; stroke-linecap:round; stroke-linejoin:round;" transform="translate(0 0) scale(1 1)">
<path style="fill:none;  stroke:#840000; stroke-width:0.5080; stroke-opacity:1;  stroke-linecap:round; stroke-linejoin:round;fill:none" d="M 0.09999999999999998,4.672 4.164,4.672 "/> 
<path style="fill:none;  stroke:#840000; stroke-width:0.5080; stroke-opacity:1;  stroke-linecap:round; stroke-linejoin:round;fill:none" d="M 0.09999999999999998,3.147999999999999 4.164,3.147999999999999 "/> 
</g>
<g style="fill:none;  stroke:#840000; stroke-width:0.1524; stroke-opacity:1;  stroke-linecap:round; stroke-linejoin:round;">
<path d="M2.1319999999999997 2.8939999999999992 L2.1319999999999997 0.09999999999999964 "/>
<path d="M2.1319999999999997 4.925999999999999 L2.1319999999999997 7.72 "/>
</g>
<g style="fill:none;  stroke:#006464; stroke-width:0.1588; stroke-opacity:1;  stroke-linecap:round; stroke-linejoin:round;">
<text x="4.6687" y="9.8680" textLength="2.5810" font-size="1.6933" lengthAdjust="spacingAndGlyphs" text-anchor="middle" opacity="0">C?</text>
<g class="stroked-text"><desc>C?</desc>
<path d="M3.9062 1.8283999999999994 L3.8457999999999997 1.8888999999999987 "/>
<path d="M3.8457999999999997 1.8888999999999987 L3.6643 1.9493 "/>
<path d="M3.6643 1.9493 L3.5434 1.9493 "/>
<path d="M3.5434 1.9493 L3.3619999999999997 1.8888999999999987 "/>
<path d="M3.3619999999999997 1.8888999999999987 L3.2409999999999997 1.7679 "/>
<path d="M3.2409999999999997 1.7679 L3.1805 1.6468999999999996 "/>
<path d="M3.1805 1.6468999999999996 L3.1201 1.4049999999999985 "/>
<path d="M3.1201 1.4049999999999985 L3.1201 1.2235999999999985 "/>
<path d="M3.1201 1.2235999999999985 L3.1805 0.9816999999999991 "/>
<path d="M3.1805 0.9816999999999991 L3.2409999999999997 0.8607999999999985 "/>
<path d="M3.2409999999999997 0.8607999999999985 L3.3619999999999997 0.7397999999999998 "/>
<path d="M3.3619999999999997 0.7397999999999998 L3.5434 0.6792999999999987 "/>
<path d="M3.5434 0.6792999999999987 L3.6643 0.6792999999999987 "/>
<path d="M3.6643 0.6792999999999987 L3.8457999999999997 0.7397999999999998 "/>
<path d="M3.8457999999999997 0.7397999999999998 L3.9062 0.8002999999999991 "/>
<path d="M4.632 1.8283999999999994 L4.6924 1.8888999999999987 "/>
<path d="M4.6924 1.8888999999999987 L4.632 1.9493 "/>
<path d="M4.632 1.9493 L4.5714999999999995 1.8888999999999987 "/>
<path d="M4.5714999999999995 1.8888999999999987 L4.632 1.8283999999999994 "/>
<path d="M4.632 1.8283999999999994 L4.632 1.9493 "/>
<path d="M4.3900999999999994 0.7397999999999998 L4.511 0.6792999999999987 "/>
<path d="M4.511 0.6792999999999987 L4.8134 0.6792999999999987 "/>
<path d="M4.8134 0.6792999999999987 L4.9342999999999995 0.7397999999999998 "/>
<path d="M4.9342999999999995 0.7397999999999998 L4.9948 0.8607999999999985 "/>
<path d="M4.9948 0.8607999999999985 L4.9948 0.9816999999999991 "/>
<path d="M4.9948 0.9816999999999991 L4.9342999999999995 1.1026999999999996 "/>
<path d="M4.9342999999999995 1.1026999999999996 L4.8739 1.1630999999999991 "/>
<path d="M4.8739 1.1630999999999991 L4.7528999999999995 1.2235999999999985 "/>
<path d="M4.7528999999999995 1.2235999999999985 L4.6924 1.2840999999999996 "/>
<path d="M4.6924 1.2840999999999996 L4.632 1.4049999999999985 "/>
<path d="M4.632 1.4049999999999985 L4.632 1.4654999999999996 "/>
</g><text x="4.1244" y="14.9480" textLength="1.4924" font-size="1.6933" lengthAdjust="spacingAndGlyphs" text-anchor="middle" opacity="0">C</text>
<g class="stroked-text"><desc>C</desc>
<path d="M3.9062 6.908399999999999 L3.8457999999999997 6.968899999999999 "/>
<path d="M3.8457999999999997 6.968899999999999 L3.6643 7.0293 "/>
<path d="M3.6643 7.0293 L3.5434 7.0293 "/>
<path d="M3.5434 7.0293 L3.3619999999999997 6.968899999999999 "/>
<path d="M3.3619999999999997 6.968899999999999 L3.2409999999999997 6.8479 "/>
<path d="M3.2409999999999997 6.8479 L3.1805 6.7269 "/>
<path d="M3.1805 6.7269 L3.1201 6.4849999999999985 "/>
<path d="M3.1201 6.4849999999999985 L3.1201 6.3035999999999985 "/>
<path d="M3.1201 6.3035999999999985 L3.1805 6.061699999999999 "/>
<path d="M3.1805 6.061699999999999 L3.2409999999999997 5.9407999999999985 "/>
<path d="M3.2409999999999997 5.9407999999999985 L3.3619999999999997 5.8198 "/>
<path d="M3.3619999999999997 5.8198 L3.5434 5.759299999999999 "/>
<path d="M3.5434 5.759299999999999 L3.6643 5.759299999999999 "/>
<path d="M3.6643 5.759299999999999 L3.8457999999999997 5.8198 "/>
<path d="M3.8457999999999997 5.8198 L3.9062 5.880299999999999 "/>
</g></g> 
</svg>