<!DOCTYPE svg PUBLIC "-//W3C//DTD SVG 1.1//EN" "http://www.w3.org/Graphics/SVG/1.1/DTD/svg11.dtd">
<svg xmlns:svg="http://www.w3.org/2000/svg" xmlns="http://www.w3.org/2000/svg" xmlns:xlink="http://www.w3.org/1999/xlink" version="1.1" width="0.95mm" height="1.8999999999999997mm" viewBox="0.0000 0.0000 0.95 1.8999999999999997">
<title>SVG Image created as C0402.svg date 2024/09/06 22:50:11 </title>
  <desc>Image generated by PCBNEW </desc>
<g style="fill:#000000; fill-opacity:1.0000;stroke:#000000; stroke-opacity:1.0000; stroke-linecap:round; stroke-linejoin:round;" transform="translate(0 0) scale(1 1)">
<path style="fill:#000000; fill-opacity:1.0000; stroke:none;fill-rule:evenodd;" d="M 0.1,0.16999999999999993 0.1053,0.14319999999999988 0.12050000000000001,0.12049999999999994 0.1432,0.10539999999999994 0.17,0.09999999999999998 0.78,0.09999999999999998 0.8068,0.10539999999999994 0.8295,0.12049999999999994 0.8447,0.14319999999999988 0.85,0.16999999999999993 0.85,0.73 0.8447,0.7567999999999999 0.8295,0.7794999999999999 0.8068,0.7947 0.78,0.7999999999999998 0.17,0.7999999999999998 0.1432,0.7947 0.12050000000000001,0.7794999999999999 0.1053,0.7567999999999999 0.1,0.73 Z"/> 
<path style="fill:#000000; fill-opacity:1.0000; stroke:none;fill-rule:evenodd;" d="M 0.1,1.17 0.1053,1.1432 0.12050000000000001,1.1204999999999998 0.1432,1.1054 0.17,1.0999999999999999 0.78,1.0999999999999999 0.8068,1.1054 0.8295,1.1204999999999998 0.8447,1.1432 0.85,1.17 0.85,1.73 0.8447,1.7568000000000001 0.8295,1.7795 0.8068,1.7946999999999997 0.78,1.7999999999999998 0.17,1.7999999999999998 0.1432,1.7946999999999997 0.12050000000000001,1.7795 0.1053,1.7568000000000001 0.1,1.73 Z"/> 
</g> 
</svg>