<!DOCTYPE svg PUBLIC "-//W3C//DTD SVG 1.1//EN" "http://www.w3.org/Graphics/SVG/1.1/DTD/svg11.dtd">
<svg xmlns:svg="http://www.w3.org/2000/svg" xmlns="http://www.w3.org/2000/svg" xmlns:xlink="http://www.w3.org/1999/xlink" version="1.1" width="1.2mm" height="2.7500000000000004mm" viewBox="0.0000 0.0000 1.2 2.7500000000000004">
<title>SVG Image created as C0603.svg date 2024/09/06 22:50:46 </title>
  <desc>Image generated by PCBNEW </desc>
<g style="fill:#000000; fill-opacity:1.0000;stroke:#000000; stroke-opacity:1.0000; stroke-linecap:round; stroke-linejoin:round;" transform="translate(0 0) scale(1 1)">
<path style="fill:#000000; fill-opacity:1.0000; stroke:none;fill-rule:evenodd;" d="M 0.10000000000000009,0.19499999999999998 0.10730000000000017,0.15869999999999998 0.12790000000000012,0.1278 0.15870000000000029,0.10729999999999998 0.19500000000000028,0.1 1.0050000000000003,0.1 1.0414000000000003,0.10729999999999998 1.0722,0.1278 1.0928,0.15869999999999998 1.1,0.19499999999999998 1.1,0.9550000000000001 1.0928,0.9914000000000001 1.0722,1.0222 1.0414000000000003,1.0428 1.0050000000000003,1.05 0.19500000000000028,1.05 0.15870000000000029,1.0428 0.12790000000000012,1.0222 0.10730000000000017,0.9914000000000001 0.10000000000000009,0.9550000000000001 Z"/> 
<path style="fill:#000000; fill-opacity:1.0000; stroke:none;fill-rule:evenodd;" d="M 0.10000000000000009,1.7950000000000002 0.10730000000000017,1.7587 0.12790000000000012,1.7278 0.15870000000000029,1.7073 0.19500000000000028,1.7 1.0050000000000003,1.7 1.0414000000000003,1.7073 1.0722,1.7278 1.0928,1.7587 1.1,1.7950000000000002 1.1,2.555 1.0928,2.5914 1.0722,2.6222000000000003 1.0414000000000003,2.6428000000000003 1.0050000000000003,2.6500000000000004 0.19500000000000028,2.6500000000000004 0.15870000000000029,2.6428000000000003 0.12790000000000012,2.6222000000000003 0.10730000000000017,2.5914 0.10000000000000009,2.555 Z"/> 
</g> 
</svg>