<!DOCTYPE svg PUBLIC "-//W3C//DTD SVG 1.1//EN" "http://www.w3.org/Graphics/SVG/1.1/DTD/svg11.dtd">
<svg xmlns:svg="http://www.w3.org/2000/svg" xmlns="http://www.w3.org/2000/svg" xmlns:xlink="http://www.w3.org/1999/xlink" version="1.1" width="3.45mm" height="1.6499000000000001mm" viewBox="0.0000 0.0000 3.45 1.6499000000000001">
<title>SVG Image created as C_0805_2012Metric_Pad1.18x1.45mm_HandSolder.svg date 2024/09/10 20:54:20 </title>
  <desc>Image generated by PCBNEW </desc>
<g style="fill:#000000; fill-opacity:1.0000;stroke:#000000; stroke-opacity:1.0000; stroke-linecap:round; stroke-linejoin:round;" transform="translate(0 0) scale(1 1)">
<path style="fill:#000000; fill-opacity:1.0000; stroke:none;fill-rule:evenodd;" d="M 0.10000000000000142,0.3499000000000001 0.11909999999999954,0.2543000000000002 0.17330000000000112,0.17320000000000024 0.2544000000000004,0.11900000000000022 0.3500000000000014,0.10000000000000009 1.0249999999999986,0.10000000000000009 1.1206999999999994,0.11900000000000022 1.2017999999999986,0.17320000000000024 1.2560000000000002,0.2543000000000002 1.2749999999999986,0.3499000000000001 1.2749999999999986,1.2999000000000003 1.2560000000000002,1.3956000000000002 1.2017999999999986,1.4767000000000003 1.1206999999999994,1.5309000000000001 1.0249999999999986,1.5499000000000003 0.3500000000000014,1.5499000000000003 0.2544000000000004,1.5309000000000001 0.17330000000000112,1.4767000000000003 0.11909999999999954,1.3956000000000002 0.10000000000000142,1.2999000000000003 Z"/> 
<path style="fill:#000000; fill-opacity:1.0000; stroke:none;fill-rule:evenodd;" d="M 2.1750000000000007,0.3499000000000001 2.194099999999999,0.2543000000000002 2.2483000000000004,0.17320000000000024 2.3293999999999997,0.11900000000000022 2.4250000000000007,0.10000000000000009 3.1000000000000014,0.10000000000000009 3.1956999999999987,0.11900000000000022 3.2768000000000015,0.17320000000000024 3.3309999999999995,0.2543000000000002 3.3500000000000014,0.3499000000000001 3.3500000000000014,1.2999000000000003 3.3309999999999995,1.3956000000000002 3.2768000000000015,1.4767000000000003 3.1956999999999987,1.5309000000000001 3.1000000000000014,1.5499000000000003 2.4250000000000007,1.5499000000000003 2.3293999999999997,1.5309000000000001 2.2483000000000004,1.4767000000000003 2.194099999999999,1.3956000000000002 2.1750000000000007,1.2999000000000003 Z"/> 
</g> 
</svg>