<!DOCTYPE svg PUBLIC "-//W3C//DTD SVG 1.1//EN" "http://www.w3.org/Graphics/SVG/1.1/DTD/svg11.dtd">
<svg xmlns:svg="http://www.w3.org/2000/svg" xmlns="http://www.w3.org/2000/svg" xmlns:xlink="http://www.w3.org/1999/xlink" version="1.1" width="3.1000000000000005mm" height="1.6499000000000001mm" viewBox="0.0000 0.0000 3.1000000000000005 1.6499000000000001">
<title>SVG Image created as C_0805_2012Metric.svg date 2024/08/23 10:02:48 </title>
  <desc>Image generated by PCBNEW </desc>
<g style="fill:#000000; fill-opacity:1.0000;stroke:#000000; stroke-opacity:1.0000; stroke-linecap:round; stroke-linejoin:round;" transform="translate(0 0) scale(1 1)">
<path style="fill:#000000; fill-opacity:1.0000; stroke:none;fill-rule:evenodd;" d="M 0.09999999999999964,0.3499000000000001 0.11909999999999954,0.2543000000000002 0.17329999999999934,0.17320000000000024 0.2543999999999995,0.11900000000000022 0.34999999999999964,0.10000000000000009 0.8499999999999996,0.10000000000000009 0.9456999999999995,0.11900000000000022 1.0267999999999997,0.17320000000000024 1.0809999999999995,0.2543000000000002 1.0999999999999996,0.3499000000000001 1.0999999999999996,1.2999000000000003 1.0809999999999995,1.3956000000000002 1.0267999999999997,1.4767000000000003 0.9456999999999995,1.5309000000000001 0.8499999999999996,1.5499000000000003 0.34999999999999964,1.5499000000000003 0.2543999999999995,1.5309000000000001 0.17329999999999934,1.4767000000000003 0.11909999999999954,1.3956000000000002 0.09999999999999964,1.2999000000000003 Z"/> 
<path style="fill:#000000; fill-opacity:1.0000; stroke:none;fill-rule:evenodd;" d="M 1.9999999999999991,0.3499000000000001 2.019099999999999,0.2543000000000002 2.0732999999999997,0.17320000000000024 2.154399999999999,0.11900000000000022 2.25,0.10000000000000009 2.75,0.10000000000000009 2.845699999999999,0.11900000000000022 2.9268,0.17320000000000024 2.981,0.2543000000000002 3.0,0.3499000000000001 3.0,1.2999000000000003 2.981,1.3956000000000002 2.9268,1.4767000000000003 2.845699999999999,1.5309000000000001 2.75,1.5499000000000003 2.25,1.5499000000000003 2.154399999999999,1.5309000000000001 2.0732999999999997,1.4767000000000003 2.019099999999999,1.3956000000000002 1.9999999999999991,1.2999000000000003 Z"/> 
</g> 
</svg>