M48
; DRILL file {KiCad 8.0.3} date 2024-09-09T23:00:30-0500
; FORMAT={-:-/ absolute / metric / decimal}
; #@! TF.CreationDate,2024-09-09T23:00:30-05:00
; #@! TF.GenerationSoftware,Kicad,Pcbnew,8.0.3
; #@! TF.FileFunction,MixedPlating,1,2
FMAT,2
METRIC
; #@! TA.AperFunction,Plated,PTH,ViaDrill
T1C0.330
; #@! TA.AperFunction,Plated,PTH,ComponentDrill
T2C0.650
; #@! TA.AperFunction,Plated,PTH,ComponentDrill
T3C0.800
; #@! TA.AperFunction,Plated,PTH,ComponentDrill
T4C0.810
; #@! TA.AperFunction,Plated,PTH,ComponentDrill
T5C0.900
; #@! TA.AperFunction,Plated,PTH,ComponentDrill
T6C0.990
; #@! TA.AperFunction,Plated,PTH,ComponentDrill
T7C1.000
; #@! TA.AperFunction,Plated,PTH,ComponentDrill
T8C1.168
; #@! TA.AperFunction,Plated,PTH,ComponentDrill
T9C1.300
; #@! TA.AperFunction,Plated,PTH,ComponentDrill
T10C2.300
; #@! TA.AperFunction,Plated,PTH,ComponentDrill
T11C3.100
; #@! TA.AperFunction,NonPlated,NPTH,ComponentDrill
T12C3.200
%
G90
G05
T1
X120.72Y-112.683
X124.386Y-90.203
X127.22Y-112.933
X132.26Y-85.885
X132.26Y-91.219
X134.038Y-88.679
X137.594Y-103.157
X140.642Y-109.507
X140.642Y-111.793
X141.47Y-119.933
X142.166Y-116.873
X142.674Y-100.363
X144.22Y-119.933
X144.96Y-84.361
X145.976Y-85.885
X146.23Y-91.219
X146.744Y-119.159
X146.97Y-116.183
X148.5Y-121.5
X149.786Y-102.395
X150.0Y-120.5
X150.47Y-112.183
X150.548Y-90.203
X150.548Y-101.379
X151.056Y-91.727
X151.31Y-113.317
X151.31Y-114.333
X151.616Y-118.079
X155.628Y-107.983
X155.72Y-85.283
X157.66Y-90.457
X159.184Y-120.429
X159.438Y-84.107
X159.742Y-100.059
X159.946Y-125.763
X160.2Y-107.983
X160.92Y-87.883
X162.32Y-108.683
X162.32Y-119.483
X162.639Y-120.429
X162.994Y-83.345
X163.248Y-93.505
X163.248Y-100.871
X164.518Y-106.713
X165.026Y-90.457
X165.534Y-86.647
X165.72Y-104.883
X167.566Y-88.679
X168.582Y-82.329
X168.582Y-109.773
X168.582Y-111.273
X168.582Y-120.175
X171.63Y-120.175
X171.63Y-124.371
X171.92Y-105.083
X173.662Y-108.999
X175.5Y-121.5
T2
X178.67Y-102.0
X178.67Y-103.27
X179.94Y-102.0
X179.94Y-103.27
X181.21Y-102.0
X181.21Y-103.27
X182.48Y-102.0
X182.48Y-103.27
X183.75Y-102.0
X183.75Y-103.27
T3
X107.72Y-92.683
X114.48Y-106.713
X120.72Y-92.683
X127.22Y-104.183
X135.22Y-109.183
X137.594Y-89.821
X142.674Y-89.741
X147.72Y-89.695
X164.72Y-102.683
X165.22Y-92.183
X167.22Y-102.683
X167.72Y-92.183
X169.72Y-102.683
X170.22Y-92.183
X172.22Y-102.683
X172.72Y-92.183
T4
X117.66Y-117.983
X117.66Y-119.983
X120.2Y-117.983
X120.2Y-119.983
T5
X121.72Y-76.7
X123.09Y-74.16
X124.46Y-76.7
X125.83Y-74.16
X127.2Y-76.7
X128.57Y-74.16
X129.94Y-76.7
X131.31Y-74.16
X132.68Y-76.7
X159.02Y-76.7
X160.39Y-74.16
X161.76Y-76.7
X163.13Y-74.16
X164.5Y-76.7
X165.87Y-74.16
X167.24Y-76.7
X168.61Y-74.16
X169.98Y-76.7
T6
X130.25Y-126.1
X134.75Y-126.1
T7
X115.72Y-93.603
X115.72Y-96.143
X115.72Y-98.683
X115.72Y-101.223
T8
X155.73Y-124.676
X158.27Y-124.676
X164.73Y-124.676
X167.27Y-124.676
X173.73Y-124.676
X176.27Y-124.676
X182.73Y-124.676
X185.27Y-124.676
T9
X128.995Y-123.61
X136.005Y-123.61
T10
X112.93Y-122.683
X124.93Y-122.683
T11
X114.705Y-75.43
X139.695Y-75.43
X152.005Y-75.43
X176.995Y-75.43
T12
X107.876Y-82.202
X107.876Y-117.127
X184.076Y-82.202
X184.076Y-117.127
M30
