<!DOCTYPE svg PUBLIC "-//W3C//DTD SVG 1.1//EN" "http://www.w3.org/Graphics/SVG/1.1/DTD/svg11.dtd">
<svg xmlns:svg="http://www.w3.org/2000/svg" xmlns="http://www.w3.org/2000/svg" xmlns:xlink="http://www.w3.org/1999/xlink" version="1.1" width="73.7292mm" height="44.0706mm" viewBox="0.0000 0.0000 73.7292 44.0706">
<title>SVG Image created as Connectivity Probe - no TP.svg date 2024/09/18 15:46:29 </title>
  <desc>Image generated by Eeschema-SVG </desc>
<g style="fill:#000000; fill-opacity:1.0000;stroke:#000000; stroke-opacity:1.0000; stroke-linecap:round; stroke-linejoin:round;" transform="translate(0 0) scale(1 1)">
<path style="fill:none;  stroke:#840000; stroke-width:0.5080; stroke-opacity:1;  stroke-linecap:round; stroke-linejoin:round;fill:none" d="M 8.228000000000002,37.1126 12.292000000000002,37.1126 "/> 
<path style="fill:none;  stroke:#840000; stroke-width:0.5080; stroke-opacity:1;  stroke-linecap:round; stroke-linejoin:round;fill:none" d="M 8.228000000000002,35.5886 12.292000000000002,35.5886 "/> 
</g>
<g style="fill:none;  stroke:#840000; stroke-width:0.1524; stroke-opacity:1;  stroke-linecap:round; stroke-linejoin:round;">
<path d="M10.260000000000005 35.3346 L10.260000000000005 32.5406 "/>
<path d="M10.260000000000005 37.3666 L10.260000000000005 40.1606 "/>
</g>
<g style="fill:none;  stroke:#006464; stroke-width:0.1524; stroke-opacity:1;  stroke-linecap:round; stroke-linejoin:round;">
<text x="38.1809" y="51.4349" textLength="2.6827" font-size="1.6933" lengthAdjust="spacingAndGlyphs" text-anchor="middle" opacity="0">C1</text>
<g class="stroked-text"><desc>C1</desc>
<path d="M15.209200000000003 35.5391 L15.148800000000001 35.5996 "/>
<path d="M15.148800000000001 35.5996 L14.967300000000002 35.66 "/>
<path d="M14.967300000000002 35.66 L14.846400000000003 35.66 "/>
<path d="M14.846400000000003 35.66 L14.665 35.5996 "/>
<path d="M14.665 35.5996 L14.544000000000004 35.4786 "/>
<path d="M14.544000000000004 35.4786 L14.4835 35.3576 "/>
<path d="M14.4835 35.3576 L14.423100000000005 35.1157 "/>
<path d="M14.423100000000005 35.1157 L14.423100000000005 34.9343 "/>
<path d="M14.423100000000005 34.9343 L14.4835 34.6924 "/>
<path d="M14.4835 34.6924 L14.544000000000004 34.5715 "/>
<path d="M14.544000000000004 34.5715 L14.665 34.4505 "/>
<path d="M14.665 34.4505 L14.846400000000003 34.39 "/>
<path d="M14.846400000000003 34.39 L14.967300000000002 34.39 "/>
<path d="M14.967300000000002 34.39 L15.148800000000001 34.4505 "/>
<path d="M15.148800000000001 34.4505 L15.209200000000003 34.511 "/>
<path d="M16.418800000000005 35.66 L15.693100000000001 35.66 "/>
<path d="M16.0559 35.66 L16.0559 34.39 "/>
<path d="M16.0559 34.39 L15.935000000000002 34.5715 "/>
<path d="M15.935000000000002 34.5715 L15.814 34.6924 "/>
<path d="M15.814 34.6924 L15.693100000000001 34.7529 "/>
</g><text x="37.5762" y="53.9749" textLength="1.4732" font-size="1.6933" lengthAdjust="spacingAndGlyphs" text-anchor="middle" opacity="0">C</text>
<g class="stroked-text"><desc>C</desc>
<path d="M15.209200000000003 38.0791 L15.148800000000001 38.1396 "/>
<path d="M15.148800000000001 38.1396 L14.967300000000002 38.2 "/>
<path d="M14.967300000000002 38.2 L14.846400000000003 38.2 "/>
<path d="M14.846400000000003 38.2 L14.665 38.1396 "/>
<path d="M14.665 38.1396 L14.544000000000004 38.0186 "/>
<path d="M14.544000000000004 38.0186 L14.4835 37.8976 "/>
<path d="M14.4835 37.8976 L14.423100000000005 37.6557 "/>
<path d="M14.423100000000005 37.6557 L14.423100000000005 37.4743 "/>
<path d="M14.423100000000005 37.4743 L14.4835 37.2324 "/>
<path d="M14.4835 37.2324 L14.544000000000004 37.1115 "/>
<path d="M14.544000000000004 37.1115 L14.665 36.9905 "/>
<path d="M14.665 36.9905 L14.846400000000003 36.93 "/>
<path d="M14.846400000000003 36.93 L14.967300000000002 36.93 "/>
<path d="M14.967300000000002 36.93 L15.148800000000001 36.9905 "/>
<path d="M15.148800000000001 36.9905 L15.209200000000003 37.051 "/>
</g></g>
<g style="fill:none;  stroke:#840000; stroke-width:0.2540; stroke-opacity:1;  stroke-linecap:round; stroke-linejoin:round;">
<rect x="9.244" y="14.7606" width="2.032000" height="5.080000" rx="0.000000"/>
</g>
<g style="fill:none;  stroke:#840000; stroke-width:0.1524; stroke-opacity:1;  stroke-linecap:round; stroke-linejoin:round;">
<path d="M10.260000000000005 19.840600000000002 L10.260000000000005 21.110599999999998 "/>
<path d="M10.260000000000005 14.7606 L10.260000000000005 13.4906 "/>
</g>
<g style="fill:none;  stroke:#006464; stroke-width:0.1524; stroke-opacity:1;  stroke-linecap:round; stroke-linejoin:round;">
<text x="36.9109" y="32.3848" textLength="2.6827" font-size="1.6933" lengthAdjust="spacingAndGlyphs" text-anchor="middle" opacity="0">R3</text>
<g class="stroked-text"><desc>R3</desc>
<path d="M13.9392 16.609900000000003 L13.515900000000002 16.0052 "/>
<path d="M13.213500000000003 16.609900000000003 L13.213500000000003 15.3399 "/>
<path d="M13.213500000000003 15.3399 L13.697299999999998 15.3399 "/>
<path d="M13.697299999999998 15.3399 L13.8183 15.400400000000001 "/>
<path d="M13.8183 15.400400000000001 L13.878800000000005 15.460899999999999 "/>
<path d="M13.878800000000005 15.460899999999999 L13.9392 15.581800000000001 "/>
<path d="M13.9392 15.581800000000001 L13.9392 15.763300000000001 "/>
<path d="M13.9392 15.763300000000001 L13.878800000000005 15.8842 "/>
<path d="M13.878800000000005 15.8842 L13.8183 15.944700000000001 "/>
<path d="M13.8183 15.944700000000001 L13.697299999999998 16.0052 "/>
<path d="M13.697299999999998 16.0052 L13.213500000000003 16.0052 "/>
<path d="M14.3626 15.3399 L15.148800000000001 15.3399 "/>
<path d="M15.148800000000001 15.3399 L14.7254 15.823699999999999 "/>
<path d="M14.7254 15.823699999999999 L14.9069 15.823699999999999 "/>
<path d="M14.9069 15.823699999999999 L15.0278 15.8842 "/>
<path d="M15.0278 15.8842 L15.088300000000004 15.944700000000001 "/>
<path d="M15.088300000000004 15.944700000000001 L15.148800000000001 16.0656 "/>
<path d="M15.148800000000001 16.0656 L15.148800000000001 16.368000000000002 "/>
<path d="M15.148800000000001 16.368000000000002 L15.088300000000004 16.488999999999997 "/>
<path d="M15.088300000000004 16.488999999999997 L15.0278 16.549500000000002 "/>
<path d="M15.0278 16.549500000000002 L14.9069 16.609900000000003 "/>
<path d="M14.9069 16.609900000000003 L14.544000000000004 16.609900000000003 "/>
<path d="M14.544000000000004 16.609900000000003 L14.423100000000005 16.549500000000002 "/>
<path d="M14.423100000000005 16.549500000000002 L14.3626 16.488999999999997 "/>
</g><text x="37.5157" y="34.9248" textLength="3.8922" font-size="1.6933" lengthAdjust="spacingAndGlyphs" text-anchor="middle" opacity="0">33K</text>
<g class="stroked-text"><desc>33K</desc>
<path d="M13.092600000000004 17.8799 L13.878800000000005 17.8799 "/>
<path d="M13.878800000000005 17.8799 L13.455400000000004 18.3637 "/>
<path d="M13.455400000000004 18.3637 L13.636900000000004 18.3637 "/>
<path d="M13.636900000000004 18.3637 L13.757800000000003 18.4242 "/>
<path d="M13.757800000000003 18.4242 L13.8183 18.484699999999997 "/>
<path d="M13.8183 18.484699999999997 L13.878800000000005 18.605600000000003 "/>
<path d="M13.878800000000005 18.605600000000003 L13.878800000000005 18.908 "/>
<path d="M13.878800000000005 18.908 L13.8183 19.028999999999996 "/>
<path d="M13.8183 19.028999999999996 L13.757800000000003 19.0895 "/>
<path d="M13.757800000000003 19.0895 L13.636900000000004 19.149900000000002 "/>
<path d="M13.636900000000004 19.149900000000002 L13.274000000000001 19.149900000000002 "/>
<path d="M13.274000000000001 19.149900000000002 L13.153100000000002 19.0895 "/>
<path d="M13.153100000000002 19.0895 L13.092600000000004 19.028999999999996 "/>
<path d="M14.302100000000003 17.8799 L15.088300000000004 17.8799 "/>
<path d="M15.088300000000004 17.8799 L14.664900000000003 18.3637 "/>
<path d="M14.664900000000003 18.3637 L14.846400000000003 18.3637 "/>
<path d="M14.846400000000003 18.3637 L14.967300000000002 18.4242 "/>
<path d="M14.967300000000002 18.4242 L15.0278 18.484699999999997 "/>
<path d="M15.0278 18.484699999999997 L15.088300000000004 18.605600000000003 "/>
<path d="M15.088300000000004 18.605600000000003 L15.088300000000004 18.908 "/>
<path d="M15.088300000000004 18.908 L15.0278 19.028999999999996 "/>
<path d="M15.0278 19.028999999999996 L14.967300000000002 19.0895 "/>
<path d="M14.967300000000002 19.0895 L14.846400000000003 19.149900000000002 "/>
<path d="M14.846400000000003 19.149900000000002 L14.4835 19.149900000000002 "/>
<path d="M14.4835 19.149900000000002 L14.3626 19.0895 "/>
<path d="M14.3626 19.0895 L14.302100000000003 19.028999999999996 "/>
<path d="M15.6325 19.149900000000002 L15.6325 17.8799 "/>
<path d="M16.358200000000004 19.149900000000002 L15.814 18.4242 "/>
<path d="M16.358200000000004 17.8799 L15.6325 18.605600000000003 "/>
</g></g>
<g style="fill:none;  stroke:#840000; stroke-width:0.2540; stroke-opacity:1;  stroke-linecap:round; stroke-linejoin:round;">
<rect x="14.07" y="6.124600000000001" width="5.080000" height="2.032000" rx="0.000000"/>
</g>
<g style="fill:none;  stroke:#840000; stroke-width:0.1524; stroke-opacity:1;  stroke-linecap:round; stroke-linejoin:round;">
<path d="M14.07 7.140599999999999 L12.800000000000004 7.140599999999999 "/>
<path d="M19.15 7.140599999999999 L20.42 7.140599999999999 "/>
</g>
<g style="fill:none;  stroke:#006464; stroke-width:0.1524; stroke-opacity:1;  stroke-linecap:round; stroke-linejoin:round;">
<text x="39.3699" y="17.1449" textLength="2.6827" font-size="1.6933" lengthAdjust="spacingAndGlyphs" text-anchor="middle" opacity="0">R2</text>
<g class="stroked-text"><desc>R2</desc>
<path d="M16.398200000000003 1.370000000000001 L15.974900000000005 0.7652999999999999 "/>
<path d="M15.6725 1.370000000000001 L15.6725 0.09999999999999964 "/>
<path d="M15.6725 0.09999999999999964 L16.1563 0.09999999999999964 "/>
<path d="M16.1563 0.09999999999999964 L16.277300000000004 0.16049999999999898 "/>
<path d="M16.277300000000004 0.16049999999999898 L16.3378 0.22100000000000009 "/>
<path d="M16.3378 0.22100000000000009 L16.398200000000003 0.341899999999999 "/>
<path d="M16.398200000000003 0.341899999999999 L16.398200000000003 0.5233999999999988 "/>
<path d="M16.398200000000003 0.5233999999999988 L16.3378 0.6443000000000012 "/>
<path d="M16.3378 0.6443000000000012 L16.277300000000004 0.7047999999999988 "/>
<path d="M16.277300000000004 0.7047999999999988 L16.1563 0.7652999999999999 "/>
<path d="M16.1563 0.7652999999999999 L15.6725 0.7652999999999999 "/>
<path d="M16.8821 0.22100000000000009 L16.942500000000003 0.16049999999999898 "/>
<path d="M16.942500000000003 0.16049999999999898 L17.063500000000005 0.09999999999999964 "/>
<path d="M17.063500000000005 0.09999999999999964 L17.365900000000003 0.09999999999999964 "/>
<path d="M17.365900000000003 0.09999999999999964 L17.486800000000002 0.16049999999999898 "/>
<path d="M17.486800000000002 0.16049999999999898 L17.5473 0.22100000000000009 "/>
<path d="M17.5473 0.22100000000000009 L17.607800000000005 0.341899999999999 "/>
<path d="M17.607800000000005 0.341899999999999 L17.607800000000005 0.4629000000000012 "/>
<path d="M17.607800000000005 0.4629000000000012 L17.5473 0.6443000000000012 "/>
<path d="M17.5473 0.6443000000000012 L16.821600000000004 1.370000000000001 "/>
<path d="M16.821600000000004 1.370000000000001 L17.607800000000005 1.370000000000001 "/>
</g><text x="39.3700" y="19.6849" textLength="3.8922" font-size="1.6933" lengthAdjust="spacingAndGlyphs" text-anchor="middle" opacity="0">10K</text>
<g class="stroked-text"><desc>10K</desc>
<path d="M15.7331 3.91 L15.007400000000004 3.91 "/>
<path d="M15.370200000000004 3.91 L15.370200000000004 2.6400000000000006 "/>
<path d="M15.370200000000004 2.6400000000000006 L15.249300000000005 2.8215000000000003 "/>
<path d="M15.249300000000005 2.8215000000000003 L15.128300000000003 2.9423999999999992 "/>
<path d="M15.128300000000003 2.9423999999999992 L15.007400000000004 3.0029000000000003 "/>
<path d="M16.519200000000005 2.6400000000000006 L16.6402 2.6400000000000006 "/>
<path d="M16.6402 2.6400000000000006 L16.7611 2.700499999999998 "/>
<path d="M16.7611 2.700499999999998 L16.821600000000004 2.7609999999999992 "/>
<path d="M16.821600000000004 2.7609999999999992 L16.8821 2.881899999999998 "/>
<path d="M16.8821 2.881899999999998 L16.9426 3.1237999999999992 "/>
<path d="M16.9426 3.1237999999999992 L16.9426 3.4262000000000015 "/>
<path d="M16.9426 3.4262000000000015 L16.8821 3.668099999999999 "/>
<path d="M16.8821 3.668099999999999 L16.821600000000004 3.7891000000000012 "/>
<path d="M16.821600000000004 3.7891000000000012 L16.7611 3.849599999999999 "/>
<path d="M16.7611 3.849599999999999 L16.6402 3.91 "/>
<path d="M16.6402 3.91 L16.519200000000005 3.91 "/>
<path d="M16.519200000000005 3.91 L16.3983 3.849599999999999 "/>
<path d="M16.3983 3.849599999999999 L16.3378 3.7891000000000012 "/>
<path d="M16.3378 3.7891000000000012 L16.277300000000004 3.668099999999999 "/>
<path d="M16.277300000000004 3.668099999999999 L16.216900000000003 3.4262000000000015 "/>
<path d="M16.216900000000003 3.4262000000000015 L16.216900000000003 3.1237999999999992 "/>
<path d="M16.216900000000003 3.1237999999999992 L16.277300000000004 2.881899999999998 "/>
<path d="M16.277300000000004 2.881899999999998 L16.3378 2.7609999999999992 "/>
<path d="M16.3378 2.7609999999999992 L16.3983 2.700499999999998 "/>
<path d="M16.3983 2.700499999999998 L16.519200000000005 2.6400000000000006 "/>
<path d="M17.486800000000002 3.91 L17.486800000000002 2.6400000000000006 "/>
<path d="M18.2125 3.91 L17.668300000000002 3.1843000000000004 "/>
<path d="M18.2125 2.6400000000000006 L17.486800000000002 3.3657000000000004 "/>
</g><path style="fill:none;  stroke:#840000; stroke-width:0.1524; stroke-opacity:1;  stroke-linecap:round; stroke-linejoin:round;fill:none" d="M 33.120000000000005,7.140599999999999 33.755,7.140599999999999 "/> 
<path style="fill:none;  stroke:#840000; stroke-width:0.1524; stroke-opacity:1;  stroke-linecap:round; stroke-linejoin:round;fill:none" d="M 35.660000000000004,4.6006 33.755,6.505600000000001 "/> 
<path style="fill:none;  stroke:#840000; stroke-width:0.1524; stroke-opacity:1;  stroke-linecap:round; stroke-linejoin:round;fill:none" d="M 35.660000000000004,9.680599999999998 33.755,7.775600000000001 "/> 
<path style="fill:#840000; fill-opacity:1.0000;  stroke:#840000; stroke-width:0.5080; stroke-opacity:1;  stroke-linecap:round; stroke-linejoin:round;fill-rule:evenodd;" d="M 33.755,9.0456 33.755,5.235599999999998 33.755,5.235599999999998 "/> 
<path style="fill:#840000; fill-opacity:1.0000;  stroke:#840000; stroke-width:0.1524; stroke-opacity:1;  stroke-linecap:round; stroke-linejoin:round;fill-rule:evenodd;" d="M 35.025,4.727599999999999 35.533,5.235599999999998 34.517,5.743600000000001 35.025,4.727599999999999 Z"/> 
</g>
<g style="fill:none;  stroke:#840000; stroke-width:0.2540; stroke-opacity:1;  stroke-linecap:round; stroke-linejoin:round;">
<circle cx="34.39" cy="7.140599999999999" r="2.8194"/> 
</g>
<g style="fill:none;  stroke:#840000; stroke-width:0.1524; stroke-opacity:1;  stroke-linecap:round; stroke-linejoin:round;">
<path d="M33.120000000000005 7.140599999999999 L28.04 7.140599999999999 "/>
</g>
<g style="fill:none;  stroke:#A90000; stroke-width:0.1524; stroke-opacity:1;  stroke-linecap:round; stroke-linejoin:round;">
<text x="53.3400" y="22.6060" textLength="1.4127" font-size="1.6933" lengthAdjust="spacingAndGlyphs" text-anchor="middle" opacity="0">1</text>
<g class="stroked-text"><desc>1</desc>
<path d="M30.9429 6.723099999999999 L30.217200000000005 6.723099999999999 "/>
<path d="M30.580000000000005 6.723099999999999 L30.580000000000005 5.453099999999999 "/>
<path d="M30.580000000000005 5.453099999999999 L30.4591 5.634599999999999 "/>
<path d="M30.4591 5.634599999999999 L30.338100000000004 5.755500000000001 "/>
<path d="M30.338100000000004 5.755500000000001 L30.217200000000005 5.815999999999999 "/>
</g></g>
<g style="fill:none;  stroke:#840000; stroke-width:0.1524; stroke-opacity:1;  stroke-linecap:round; stroke-linejoin:round;">
<path d="M35.660000000000004 4.6006 L35.660000000000004 2.060600000000001 "/>
</g>
<g style="fill:none;  stroke:#A90000; stroke-width:0.1524; stroke-opacity:1;  stroke-linecap:round; stroke-linejoin:round;">
<g transform="rotate(-90.000000 58.1660 19.0500)">
<text x="58.1660" y="19.0500" textLength="1.4127" font-size="1.6933" lengthAdjust="spacingAndGlyphs" text-anchor="middle" opacity="0">2</text>
</g>
<g class="stroked-text"><desc>2</desc>
<path d="M34.0935 3.6933000000000007 L34.033 3.6328999999999994 "/>
<path d="M34.033 3.6328999999999994 L33.972500000000004 3.5119000000000007 "/>
<path d="M33.972500000000004 3.5119000000000007 L33.972500000000004 3.2094999999999985 "/>
<path d="M33.972500000000004 3.2094999999999985 L34.033 3.0885999999999996 "/>
<path d="M34.033 3.0885999999999996 L34.0935 3.0280999999999985 "/>
<path d="M34.0935 3.0280999999999985 L34.214400000000005 2.967600000000001 "/>
<path d="M34.214400000000005 2.967600000000001 L34.3354 2.967600000000001 "/>
<path d="M34.3354 2.967600000000001 L34.5168 3.0280999999999985 "/>
<path d="M34.5168 3.0280999999999985 L35.2425 3.7537999999999982 "/>
<path d="M35.2425 3.7537999999999982 L35.2425 2.967600000000001 "/>
</g></g>
<g style="fill:none;  stroke:#840000; stroke-width:0.1524; stroke-opacity:1;  stroke-linecap:round; stroke-linejoin:round;">
<path d="M35.660000000000004 9.680599999999998 L35.660000000000004 12.220600000000001 "/>
</g>
<g style="fill:none;  stroke:#A90000; stroke-width:0.1524; stroke-opacity:1;  stroke-linecap:round; stroke-linejoin:round;">
<g transform="rotate(-90.000000 58.1660 26.6700)">
<text x="58.1660" y="26.6700" textLength="1.4127" font-size="1.6933" lengthAdjust="spacingAndGlyphs" text-anchor="middle" opacity="0">3</text>
</g>
<g class="stroked-text"><desc>3</desc>
<path d="M33.972500000000004 11.3738 L33.972500000000004 10.587599999999998 "/>
<path d="M33.972500000000004 10.587599999999998 L34.4563 11.011 "/>
<path d="M34.4563 11.011 L34.4563 10.8295 "/>
<path d="M34.4563 10.8295 L34.5168 10.7086 "/>
<path d="M34.5168 10.7086 L34.5773 10.6481 "/>
<path d="M34.5773 10.6481 L34.6982 10.587599999999998 "/>
<path d="M34.6982 10.587599999999998 L35.0006 10.587599999999998 "/>
<path d="M35.0006 10.587599999999998 L35.1216 10.6481 "/>
<path d="M35.1216 10.6481 L35.182100000000005 10.7086 "/>
<path d="M35.182100000000005 10.7086 L35.2425 10.8295 "/>
<path d="M35.2425 10.8295 L35.2425 11.1924 "/>
<path d="M35.2425 11.1924 L35.182100000000005 11.313299999999998 "/>
<path d="M35.182100000000005 11.313299999999998 L35.1216 11.3738 "/>
</g></g>
<g style="fill:none;  stroke:#006464; stroke-width:0.1524; stroke-opacity:1;  stroke-linecap:round; stroke-linejoin:round;">
<text x="62.3412" y="24.1300" textLength="2.7432" font-size="1.6933" lengthAdjust="spacingAndGlyphs" text-anchor="middle" opacity="0">Q1</text>
<g class="stroked-text"><desc>Q1</desc>
<path d="M39.4602 8.476099999999999 L39.339200000000005 8.415600000000001 "/>
<path d="M39.339200000000005 8.415600000000001 L39.2183 8.294699999999999 "/>
<path d="M39.2183 8.294699999999999 L39.0369 8.113199999999999 "/>
<path d="M39.0369 8.113199999999999 L38.9159 8.052699999999998 "/>
<path d="M38.9159 8.052699999999998 L38.795 8.052699999999998 "/>
<path d="M38.8554 8.3551 L38.734500000000004 8.294699999999999 "/>
<path d="M38.734500000000004 8.294699999999999 L38.6135 8.1737 "/>
<path d="M38.6135 8.1737 L38.5531 7.931799999999999 "/>
<path d="M38.5531 7.931799999999999 L38.5531 7.5085000000000015 "/>
<path d="M38.5531 7.5085000000000015 L38.6135 7.2666 "/>
<path d="M38.6135 7.2666 L38.734500000000004 7.145599999999998 "/>
<path d="M38.734500000000004 7.145599999999998 L38.8554 7.085100000000001 "/>
<path d="M38.8554 7.085100000000001 L39.097300000000004 7.085100000000001 "/>
<path d="M39.097300000000004 7.085100000000001 L39.2183 7.145599999999998 "/>
<path d="M39.2183 7.145599999999998 L39.339200000000005 7.2666 "/>
<path d="M39.339200000000005 7.2666 L39.3997 7.5085000000000015 "/>
<path d="M39.3997 7.5085000000000015 L39.3997 7.931799999999999 "/>
<path d="M39.3997 7.931799999999999 L39.339200000000005 8.1737 "/>
<path d="M39.339200000000005 8.1737 L39.2183 8.294699999999999 "/>
<path d="M39.2183 8.294699999999999 L39.097300000000004 8.3551 "/>
<path d="M39.097300000000004 8.3551 L38.8554 8.3551 "/>
<path d="M40.609300000000005 8.3551 L39.8836 8.3551 "/>
<path d="M40.2464 8.3551 L40.2464 7.085100000000001 "/>
<path d="M40.2464 7.085100000000001 L40.1255 7.2666 "/>
<path d="M40.1255 7.2666 L40.0045 7.387499999999999 "/>
<path d="M40.0045 7.387499999999999 L39.8836 7.448 "/>
</g></g>
<g style="fill:none;  stroke:#840000; stroke-width:0.2540; stroke-opacity:1;  stroke-linecap:round; stroke-linejoin:round;">
<rect x="54.964000000000006" y="3.3306000000000004" width="2.032000" height="5.080000" rx="0.000000"/>
</g>
<g style="fill:none;  stroke:#840000; stroke-width:0.1524; stroke-opacity:1;  stroke-linecap:round; stroke-linejoin:round;">
<path d="M55.98 3.3306000000000004 L55.98 2.060600000000001 "/>
<path d="M55.98 8.410599999999999 L55.98 9.680599999999998 "/>
</g>
<g style="fill:none;  stroke:#006464; stroke-width:0.1524; stroke-opacity:1;  stroke-linecap:round; stroke-linejoin:round;">
<text x="82.6309" y="20.9549" textLength="2.6827" font-size="1.6933" lengthAdjust="spacingAndGlyphs" text-anchor="middle" opacity="0">R4</text>
<g class="stroked-text"><desc>R4</desc>
<path d="M59.659200000000006 5.18 L59.23590000000001 4.575299999999999 "/>
<path d="M58.9335 5.18 L58.9335 3.91 "/>
<path d="M58.9335 3.91 L59.417300000000004 3.91 "/>
<path d="M59.417300000000004 3.91 L59.5383 3.9705000000000013 "/>
<path d="M59.5383 3.9705000000000013 L59.598800000000004 4.030999999999999 "/>
<path d="M59.598800000000004 4.030999999999999 L59.659200000000006 4.151900000000001 "/>
<path d="M59.659200000000006 4.151900000000001 L59.659200000000006 4.333400000000001 "/>
<path d="M59.659200000000006 4.333400000000001 L59.598800000000004 4.4543 "/>
<path d="M59.598800000000004 4.4543 L59.5383 4.514800000000001 "/>
<path d="M59.5383 4.514800000000001 L59.417300000000004 4.575299999999999 "/>
<path d="M59.417300000000004 4.575299999999999 L58.9335 4.575299999999999 "/>
<path d="M60.747800000000005 4.333400000000001 L60.747800000000005 5.18 "/>
<path d="M60.4454 3.849599999999999 L60.1431 4.756699999999999 "/>
<path d="M60.1431 4.756699999999999 L60.9292 4.756699999999999 "/>
</g><text x="82.6007" y="23.4949" textLength="2.6222" font-size="1.6933" lengthAdjust="spacingAndGlyphs" text-anchor="middle" opacity="0">39</text>
<g class="stroked-text"><desc>39</desc>
<path d="M58.812599999999996 6.449999999999999 L59.598800000000004 6.449999999999999 "/>
<path d="M59.598800000000004 6.449999999999999 L59.1754 6.933799999999998 "/>
<path d="M59.1754 6.933799999999998 L59.3569 6.933799999999998 "/>
<path d="M59.3569 6.933799999999998 L59.477799999999995 6.994299999999999 "/>
<path d="M59.477799999999995 6.994299999999999 L59.5383 7.0548 "/>
<path d="M59.5383 7.0548 L59.598800000000004 7.175699999999999 "/>
<path d="M59.598800000000004 7.175699999999999 L59.598800000000004 7.478100000000001 "/>
<path d="M59.598800000000004 7.478100000000001 L59.5383 7.5991 "/>
<path d="M59.5383 7.5991 L59.477799999999995 7.659600000000001 "/>
<path d="M59.477799999999995 7.659600000000001 L59.3569 7.719999999999999 "/>
<path d="M59.3569 7.719999999999999 L58.99400000000001 7.719999999999999 "/>
<path d="M58.99400000000001 7.719999999999999 L58.8731 7.659600000000001 "/>
<path d="M58.8731 7.659600000000001 L58.812599999999996 7.5991 "/>
<path d="M60.2035 7.719999999999999 L60.4454 7.719999999999999 "/>
<path d="M60.4454 7.719999999999999 L60.56640000000001 7.659600000000001 "/>
<path d="M60.56640000000001 7.659600000000001 L60.626799999999996 7.5991 "/>
<path d="M60.626799999999996 7.5991 L60.747800000000005 7.4176 "/>
<path d="M60.747800000000005 7.4176 L60.808299999999996 7.175699999999999 "/>
<path d="M60.808299999999996 7.175699999999999 L60.808299999999996 6.6919 "/>
<path d="M60.808299999999996 6.6919 L60.747800000000005 6.5710000000000015 "/>
<path d="M60.747800000000005 6.5710000000000015 L60.6873 6.5105 "/>
<path d="M60.6873 6.5105 L60.56640000000001 6.449999999999999 "/>
<path d="M60.56640000000001 6.449999999999999 L60.32450000000001 6.449999999999999 "/>
<path d="M60.32450000000001 6.449999999999999 L60.2035 6.5105 "/>
<path d="M60.2035 6.5105 L60.14300000000001 6.5710000000000015 "/>
<path d="M60.14300000000001 6.5710000000000015 L60.082600000000006 6.6919 "/>
<path d="M60.082600000000006 6.6919 L60.082600000000006 6.994299999999999 "/>
<path d="M60.082600000000006 6.994299999999999 L60.14300000000001 7.115300000000001 "/>
<path d="M60.14300000000001 7.115300000000001 L60.2035 7.175699999999999 "/>
<path d="M60.2035 7.175699999999999 L60.32450000000001 7.2362 "/>
<path d="M60.32450000000001 7.2362 L60.56640000000001 7.2362 "/>
<path d="M60.56640000000001 7.2362 L60.6873 7.175699999999999 "/>
<path d="M60.6873 7.175699999999999 L60.747800000000005 7.115300000000001 "/>
<path d="M60.747800000000005 7.115300000000001 L60.808299999999996 6.994299999999999 "/>
</g><path style="fill:none;  stroke:#840000; stroke-width:0.1524; stroke-opacity:1;  stroke-linecap:round; stroke-linejoin:round;fill:none" d="M 59.15500000000001,31.9056 61.059999999999995,30.0006 "/> 
<path style="fill:none;  stroke:#840000; stroke-width:0.1524; stroke-opacity:1;  stroke-linecap:round; stroke-linejoin:round;fill:none" d="M 59.15500000000001,33.1756 61.059999999999995,35.0806 61.059999999999995,35.0806 "/> 
<path style="fill:none;  stroke:#840000; stroke-width:0.5080; stroke-opacity:1;  stroke-linecap:round; stroke-linejoin:round;fill:none" d="M 59.15500000000001,30.635599999999997 59.15500000000001,34.4456 59.15500000000001,34.4456 "/> 
<path style="fill:#840000; fill-opacity:1.0000;  stroke:#840000; stroke-width:0.1524; stroke-opacity:1;  stroke-linecap:round; stroke-linejoin:round;fill-rule:evenodd;" d="M 59.79,34.318599999999996 60.29800000000001,33.8106 60.806000000000004,34.8266 59.79,34.318599999999996 Z"/> 
</g>
<g style="fill:none;  stroke:#840000; stroke-width:0.2540; stroke-opacity:1;  stroke-linecap:round; stroke-linejoin:round;">
<circle cx="59.79" cy="32.5406" r="2.8194"/> 
</g>
<g style="fill:none;  stroke:#840000; stroke-width:0.1524; stroke-opacity:1;  stroke-linecap:round; stroke-linejoin:round;">
<path d="M59.15500000000001 32.5406 L53.440000000000005 32.5406 "/>
</g>
<g style="fill:none;  stroke:#A90000; stroke-width:0.1524; stroke-opacity:1;  stroke-linecap:round; stroke-linejoin:round;">
<text x="79.0575" y="48.0060" textLength="1.4127" font-size="1.6933" lengthAdjust="spacingAndGlyphs" text-anchor="middle" opacity="0">1</text>
<g class="stroked-text"><desc>1</desc>
<path d="M56.6604 32.1231 L55.9347 32.1231 "/>
<path d="M56.29750000000001 32.1231 L56.29750000000001 30.853099999999998 "/>
<path d="M56.29750000000001 30.853099999999998 L56.1766 31.034599999999998 "/>
<path d="M56.1766 31.034599999999998 L56.055600000000005 31.155499999999996 "/>
<path d="M56.055600000000005 31.155499999999996 L55.9347 31.216 "/>
</g></g>
<g style="fill:none;  stroke:#840000; stroke-width:0.1524; stroke-opacity:1;  stroke-linecap:round; stroke-linejoin:round;">
<path d="M61.059999999999995 35.0806 L61.059999999999995 37.6206 "/>
</g>
<g style="fill:none;  stroke:#A90000; stroke-width:0.1524; stroke-opacity:1;  stroke-linecap:round; stroke-linejoin:round;">
<g transform="rotate(-90.000000 83.5660 52.0700)">
<text x="83.5660" y="52.0700" textLength="1.4127" font-size="1.6933" lengthAdjust="spacingAndGlyphs" text-anchor="middle" opacity="0">2</text>
</g>
<g class="stroked-text"><desc>2</desc>
<path d="M59.493500000000004 36.7133 L59.433 36.6529 "/>
<path d="M59.433 36.6529 L59.372499999999995 36.5319 "/>
<path d="M59.372499999999995 36.5319 L59.372499999999995 36.2295 "/>
<path d="M59.372499999999995 36.2295 L59.433 36.1086 "/>
<path d="M59.433 36.1086 L59.493500000000004 36.0481 "/>
<path d="M59.493500000000004 36.0481 L59.614399999999996 35.9876 "/>
<path d="M59.614399999999996 35.9876 L59.735400000000006 35.9876 "/>
<path d="M59.735400000000006 35.9876 L59.9168 36.0481 "/>
<path d="M59.9168 36.0481 L60.642500000000005 36.7738 "/>
<path d="M60.642500000000005 36.7738 L60.642500000000005 35.9876 "/>
</g></g>
<g style="fill:none;  stroke:#840000; stroke-width:0.1524; stroke-opacity:1;  stroke-linecap:round; stroke-linejoin:round;">
<path d="M61.059999999999995 30.0006 L61.059999999999995 27.4606 "/>
</g>
<g style="fill:none;  stroke:#A90000; stroke-width:0.1524; stroke-opacity:1;  stroke-linecap:round; stroke-linejoin:round;">
<g transform="rotate(-90.000000 83.5660 44.4500)">
<text x="83.5660" y="44.4500" textLength="1.4127" font-size="1.6933" lengthAdjust="spacingAndGlyphs" text-anchor="middle" opacity="0">3</text>
</g>
<g class="stroked-text"><desc>3</desc>
<path d="M59.372499999999995 29.153799999999997 L59.372499999999995 28.367600000000003 "/>
<path d="M59.372499999999995 28.367600000000003 L59.8563 28.790999999999997 "/>
<path d="M59.8563 28.790999999999997 L59.8563 28.609499999999997 "/>
<path d="M59.8563 28.609499999999997 L59.9168 28.488599999999998 "/>
<path d="M59.9168 28.488599999999998 L59.97730000000001 28.4281 "/>
<path d="M59.97730000000001 28.4281 L60.0982 28.367600000000003 "/>
<path d="M60.0982 28.367600000000003 L60.400600000000004 28.367600000000003 "/>
<path d="M60.400600000000004 28.367600000000003 L60.5216 28.4281 "/>
<path d="M60.5216 28.4281 L60.582100000000004 28.488599999999998 "/>
<path d="M60.582100000000004 28.488599999999998 L60.642500000000005 28.609499999999997 "/>
<path d="M60.642500000000005 28.609499999999997 L60.642500000000005 28.9724 "/>
<path d="M60.642500000000005 28.9724 L60.582100000000004 29.0933 "/>
<path d="M60.582100000000004 29.0933 L60.5216 29.153799999999997 "/>
</g></g>
<g style="fill:none;  stroke:#006464; stroke-width:0.1524; stroke-opacity:1;  stroke-linecap:round; stroke-linejoin:round;">
<text x="87.7412" y="48.2599" textLength="2.7432" font-size="1.6933" lengthAdjust="spacingAndGlyphs" text-anchor="middle" opacity="0">Q2</text>
<g class="stroked-text"><desc>Q2</desc>
<path d="M64.86019999999999 32.606 L64.73920000000001 32.5455 "/>
<path d="M64.73920000000001 32.5455 L64.6183 32.4246 "/>
<path d="M64.6183 32.4246 L64.43690000000001 32.2431 "/>
<path d="M64.43690000000001 32.2431 L64.3159 32.1826 "/>
<path d="M64.3159 32.1826 L64.195 32.1826 "/>
<path d="M64.25540000000001 32.485 L64.1345 32.4246 "/>
<path d="M64.1345 32.4246 L64.0135 32.3036 "/>
<path d="M64.0135 32.3036 L63.9531 32.0617 "/>
<path d="M63.9531 32.0617 L63.9531 31.638399999999997 "/>
<path d="M63.9531 31.638399999999997 L64.0135 31.396500000000003 "/>
<path d="M64.0135 31.396500000000003 L64.1345 31.2755 "/>
<path d="M64.1345 31.2755 L64.25540000000001 31.214999999999996 "/>
<path d="M64.25540000000001 31.214999999999996 L64.4973 31.214999999999996 "/>
<path d="M64.4973 31.214999999999996 L64.6183 31.2755 "/>
<path d="M64.6183 31.2755 L64.73920000000001 31.396500000000003 "/>
<path d="M64.73920000000001 31.396500000000003 L64.7997 31.638399999999997 "/>
<path d="M64.7997 31.638399999999997 L64.7997 32.0617 "/>
<path d="M64.7997 32.0617 L64.73920000000001 32.3036 "/>
<path d="M64.73920000000001 32.3036 L64.6183 32.4246 "/>
<path d="M64.6183 32.4246 L64.4973 32.485 "/>
<path d="M64.4973 32.485 L64.25540000000001 32.485 "/>
<path d="M65.2836 31.336 L65.344 31.2755 "/>
<path d="M65.344 31.2755 L65.465 31.214999999999996 "/>
<path d="M65.465 31.214999999999996 L65.76740000000001 31.214999999999996 "/>
<path d="M65.76740000000001 31.214999999999996 L65.88830000000002 31.2755 "/>
<path d="M65.88830000000002 31.2755 L65.9488 31.336 "/>
<path d="M65.9488 31.336 L66.0093 31.456899999999997 "/>
<path d="M66.0093 31.456899999999997 L66.0093 31.5779 "/>
<path d="M66.0093 31.5779 L65.9488 31.759300000000003 "/>
<path d="M65.9488 31.759300000000003 L65.22309999999999 32.485 "/>
<path d="M65.22309999999999 32.485 L66.0093 32.485 "/>
</g></g>
<g style="fill:#FFFFC2; fill-opacity:1.0000; stroke:none;">
<rect x="26.770000000000003" y="21.110599999999998" width="17.780000" height="15.240000" rx="0.000000"/>
<rect x="26.770000000000003" y="21.110599999999998" width="17.780000" height="15.240000" rx="0.000000"/>
</g>
<g style="fill:none;  stroke:#840000; stroke-width:0.2540; stroke-opacity:1;  stroke-linecap:round; stroke-linejoin:round;">
<rect x="26.770000000000003" y="21.110599999999998" width="17.780000" height="15.240000" rx="0.000000"/>
<rect x="26.770000000000003" y="21.110599999999998" width="17.780000" height="15.240000" rx="0.000000"/>
</g>
<g style="fill:none;  stroke:#840000; stroke-width:0.1524; stroke-opacity:1;  stroke-linecap:round; stroke-linejoin:round;">
<path d="M35.660000000000004 36.3506 L35.660000000000004 38.8906 "/>
</g>
<g style="fill:none;  stroke:#006464; stroke-width:0.1524; stroke-opacity:1;  stroke-linecap:round; stroke-linejoin:round;">
<g transform="rotate(-90.000000 58.4200 51.5620)">
<text x="58.4200" y="52.1970" textLength="4.0737" font-size="1.6933" lengthAdjust="spacingAndGlyphs" text-anchor="start" opacity="0">GND</text>
</g>
<g class="stroked-text"><desc>GND</desc>
<path d="M35.03 34.7747 L34.969500000000004 34.8957 "/>
<path d="M34.969500000000004 34.8957 L34.969500000000004 35.0771 "/>
<path d="M34.969500000000004 35.0771 L35.03 35.2585 "/>
<path d="M35.03 35.2585 L35.151 35.3795 "/>
<path d="M35.151 35.3795 L35.2719 35.44 "/>
<path d="M35.2719 35.44 L35.5138 35.5004 "/>
<path d="M35.5138 35.5004 L35.6952 35.5004 "/>
<path d="M35.6952 35.5004 L35.9371 35.44 "/>
<path d="M35.9371 35.44 L36.0581 35.3795 "/>
<path d="M36.0581 35.3795 L36.179100000000005 35.2585 "/>
<path d="M36.179100000000005 35.2585 L36.2395 35.0771 "/>
<path d="M36.2395 35.0771 L36.2395 34.9562 "/>
<path d="M36.2395 34.9562 L36.179100000000005 34.7747 "/>
<path d="M36.179100000000005 34.7747 L36.1186 34.7143 "/>
<path d="M36.1186 34.7143 L35.6952 34.7143 "/>
<path d="M35.6952 34.7143 L35.6952 34.9562 "/>
<path d="M36.2395 34.17 L34.969500000000004 34.17 "/>
<path d="M34.969500000000004 34.17 L36.2395 33.4443 "/>
<path d="M36.2395 33.4443 L34.969500000000004 33.4443 "/>
<path d="M36.2395 32.8395 L34.969500000000004 32.8395 "/>
<path d="M34.969500000000004 32.8395 L34.969500000000004 32.5371 "/>
<path d="M34.969500000000004 32.5371 L35.03 32.3557 "/>
<path d="M35.03 32.3557 L35.151 32.2347 "/>
<path d="M35.151 32.2347 L35.2719 32.1742 "/>
<path d="M35.2719 32.1742 L35.5138 32.1138 "/>
<path d="M35.5138 32.1138 L35.6952 32.1138 "/>
<path d="M35.6952 32.1138 L35.9371 32.1742 "/>
<path d="M35.9371 32.1742 L36.0581 32.2347 "/>
<path d="M36.0581 32.2347 L36.179100000000005 32.3557 "/>
<path d="M36.179100000000005 32.3557 L36.2395 32.5371 "/>
<path d="M36.2395 32.5371 L36.2395 32.8395 "/>
</g></g>
<g style="fill:none;  stroke:#A90000; stroke-width:0.1524; stroke-opacity:1;  stroke-linecap:round; stroke-linejoin:round;">
<g transform="rotate(-90.000000 58.1660 53.3400)">
<text x="58.1660" y="53.3400" textLength="1.4127" font-size="1.6933" lengthAdjust="spacingAndGlyphs" text-anchor="middle" opacity="0">1</text>
</g>
<g class="stroked-text"><desc>1</desc>
<path d="M35.2425 37.2576 L35.2425 37.9833 "/>
<path d="M35.2425 37.6205 L33.972500000000004 37.6205 "/>
<path d="M33.972500000000004 37.6205 L34.154 37.7414 "/>
<path d="M34.154 37.7414 L34.2749 37.8624 "/>
<path d="M34.2749 37.8624 L34.3354 37.9833 "/>
</g></g>
<g style="fill:none;  stroke:#840000; stroke-width:0.1524; stroke-opacity:1;  stroke-linecap:round; stroke-linejoin:round;">
<path d="M35.660000000000004 21.110599999999998 L35.660000000000004 18.5706 "/>
</g>
<g style="fill:none;  stroke:#006464; stroke-width:0.1524; stroke-opacity:1;  stroke-linecap:round; stroke-linejoin:round;">
<g transform="rotate(-90.000000 58.4200 37.3380)">
<text x="58.4200" y="37.9730" textLength="3.8318" font-size="1.6933" lengthAdjust="spacingAndGlyphs" text-anchor="end" opacity="0">VCC</text>
</g>
<g class="stroked-text"><desc>VCC</desc>
<path d="M34.969500000000004 25.226399999999998 L36.2395 24.8031 "/>
<path d="M36.2395 24.8031 L34.969500000000004 24.3797 "/>
<path d="M36.1186 23.2307 L36.179100000000005 23.2911 "/>
<path d="M36.179100000000005 23.2911 L36.2395 23.4726 "/>
<path d="M36.2395 23.4726 L36.2395 23.5935 "/>
<path d="M36.2395 23.5935 L36.179100000000005 23.774900000000002 "/>
<path d="M36.179100000000005 23.774900000000002 L36.0581 23.895899999999997 "/>
<path d="M36.0581 23.895899999999997 L35.9371 23.956400000000002 "/>
<path d="M35.9371 23.956400000000002 L35.6952 24.016799999999996 "/>
<path d="M35.6952 24.016799999999996 L35.5138 24.016799999999996 "/>
<path d="M35.5138 24.016799999999996 L35.2719 23.956400000000002 "/>
<path d="M35.2719 23.956400000000002 L35.151 23.895899999999997 "/>
<path d="M35.151 23.895899999999997 L35.03 23.774900000000002 "/>
<path d="M35.03 23.774900000000002 L34.969500000000004 23.5935 "/>
<path d="M34.969500000000004 23.5935 L34.969500000000004 23.4726 "/>
<path d="M34.969500000000004 23.4726 L35.03 23.2911 "/>
<path d="M35.03 23.2911 L35.0905 23.2307 "/>
<path d="M36.1186 21.960700000000003 L36.179100000000005 22.021099999999997 "/>
<path d="M36.179100000000005 22.021099999999997 L36.2395 22.202599999999997 "/>
<path d="M36.2395 22.202599999999997 L36.2395 22.323500000000003 "/>
<path d="M36.2395 22.323500000000003 L36.179100000000005 22.5049 "/>
<path d="M36.179100000000005 22.5049 L36.0581 22.6259 "/>
<path d="M36.0581 22.6259 L35.9371 22.6864 "/>
<path d="M35.9371 22.6864 L35.6952 22.7468 "/>
<path d="M35.6952 22.7468 L35.5138 22.7468 "/>
<path d="M35.5138 22.7468 L35.2719 22.6864 "/>
<path d="M35.2719 22.6864 L35.151 22.6259 "/>
<path d="M35.151 22.6259 L35.03 22.5049 "/>
<path d="M35.03 22.5049 L34.969500000000004 22.323500000000003 "/>
<path d="M34.969500000000004 22.323500000000003 L34.969500000000004 22.202599999999997 "/>
<path d="M34.969500000000004 22.202599999999997 L35.03 22.021099999999997 "/>
<path d="M35.03 22.021099999999997 L35.0905 21.960700000000003 "/>
</g></g>
<g style="fill:none;  stroke:#A90000; stroke-width:0.1524; stroke-opacity:1;  stroke-linecap:round; stroke-linejoin:round;">
<g transform="rotate(-90.000000 58.1660 35.5600)">
<text x="58.1660" y="35.5600" textLength="1.4127" font-size="1.6933" lengthAdjust="spacingAndGlyphs" text-anchor="middle" opacity="0">8</text>
</g>
<g class="stroked-text"><desc>8</desc>
<path d="M34.5168 19.961399999999998 L34.4563 20.0824 "/>
<path d="M34.4563 20.0824 L34.395900000000005 20.142899999999997 "/>
<path d="M34.395900000000005 20.142899999999997 L34.2749 20.2033 "/>
<path d="M34.2749 20.2033 L34.214400000000005 20.2033 "/>
<path d="M34.214400000000005 20.2033 L34.0935 20.142899999999997 "/>
<path d="M34.0935 20.142899999999997 L34.033 20.0824 "/>
<path d="M34.033 20.0824 L33.972500000000004 19.961399999999998 "/>
<path d="M33.972500000000004 19.961399999999998 L33.972500000000004 19.719499999999996 "/>
<path d="M33.972500000000004 19.719499999999996 L34.033 19.598599999999998 "/>
<path d="M34.033 19.598599999999998 L34.0935 19.5381 "/>
<path d="M34.0935 19.5381 L34.214400000000005 19.477600000000002 "/>
<path d="M34.214400000000005 19.477600000000002 L34.2749 19.477600000000002 "/>
<path d="M34.2749 19.477600000000002 L34.395900000000005 19.5381 "/>
<path d="M34.395900000000005 19.5381 L34.4563 19.598599999999998 "/>
<path d="M34.4563 19.598599999999998 L34.5168 19.719499999999996 "/>
<path d="M34.5168 19.719499999999996 L34.5168 19.961399999999998 "/>
<path d="M34.5168 19.961399999999998 L34.5773 20.0824 "/>
<path d="M34.5773 20.0824 L34.6378 20.142899999999997 "/>
<path d="M34.6378 20.142899999999997 L34.758700000000005 20.2033 "/>
<path d="M34.758700000000005 20.2033 L35.0006 20.2033 "/>
<path d="M35.0006 20.2033 L35.1216 20.142899999999997 "/>
<path d="M35.1216 20.142899999999997 L35.182100000000005 20.0824 "/>
<path d="M35.182100000000005 20.0824 L35.2425 19.961399999999998 "/>
<path d="M35.2425 19.961399999999998 L35.2425 19.719499999999996 "/>
<path d="M35.2425 19.719499999999996 L35.182100000000005 19.598599999999998 "/>
<path d="M35.182100000000005 19.598599999999998 L35.1216 19.5381 "/>
<path d="M35.1216 19.5381 L35.0006 19.477600000000002 "/>
<path d="M35.0006 19.477600000000002 L34.758700000000005 19.477600000000002 "/>
<path d="M34.758700000000005 19.477600000000002 L34.6378 19.5381 "/>
<path d="M34.6378 19.5381 L34.5773 19.598599999999998 "/>
<path d="M34.5773 19.598599999999998 L34.5168 19.719499999999996 "/>
</g></g>
<g style="fill:none;  stroke:#840000; stroke-width:0.1524; stroke-opacity:1;  stroke-linecap:round; stroke-linejoin:round;">
<path d="M26.770000000000003 23.650599999999997 L22.96 23.650599999999997 "/>
</g>
<g style="fill:none;  stroke:#006464; stroke-width:0.1524; stroke-opacity:1;  stroke-linecap:round; stroke-linejoin:round;">
<text x="50.0380" y="40.0050" textLength="2.4408" font-size="1.6933" lengthAdjust="spacingAndGlyphs" text-anchor="start" opacity="0">TR</text>
<g class="stroked-text"><desc>TR</desc>
<path d="M27.4991 22.960099999999997 L28.224800000000002 22.960099999999997 "/>
<path d="M27.862000000000002 24.2301 L27.862000000000002 22.960099999999997 "/>
<path d="M29.373800000000003 24.2301 L28.950500000000005 23.6254 "/>
<path d="M28.6481 24.2301 L28.6481 22.960099999999997 "/>
<path d="M28.6481 22.960099999999997 L29.1319 22.960099999999997 "/>
<path d="M29.1319 22.960099999999997 L29.252900000000004 23.0206 "/>
<path d="M29.252900000000004 23.0206 L29.3134 23.0811 "/>
<path d="M29.3134 23.0811 L29.373800000000003 23.201999999999998 "/>
<path d="M29.373800000000003 23.201999999999998 L29.373800000000003 23.383499999999998 "/>
<path d="M29.373800000000003 23.383499999999998 L29.3134 23.504399999999997 "/>
<path d="M29.3134 23.504399999999997 L29.252900000000004 23.5649 "/>
<path d="M29.252900000000004 23.5649 L29.1319 23.6254 "/>
<path d="M29.1319 23.6254 L28.6481 23.6254 "/>
</g></g>
<g style="fill:none;  stroke:#A90000; stroke-width:0.1524; stroke-opacity:1;  stroke-linecap:round; stroke-linejoin:round;">
<text x="47.6250" y="39.1160" textLength="1.4127" font-size="1.6933" lengthAdjust="spacingAndGlyphs" text-anchor="middle" opacity="0">2</text>
<g class="stroked-text"><desc>2</desc>
<path d="M24.502200000000002 22.0841 L24.562600000000003 22.023600000000002 "/>
<path d="M24.562600000000003 22.023600000000002 L24.683600000000006 21.963099999999997 "/>
<path d="M24.683600000000006 21.963099999999997 L24.986000000000004 21.963099999999997 "/>
<path d="M24.986000000000004 21.963099999999997 L25.106900000000003 22.023600000000002 "/>
<path d="M25.106900000000003 22.023600000000002 L25.1674 22.0841 "/>
<path d="M25.1674 22.0841 L25.227900000000005 22.205 "/>
<path d="M25.227900000000005 22.205 L25.227900000000005 22.326 "/>
<path d="M25.227900000000005 22.326 L25.1674 22.507399999999997 "/>
<path d="M25.1674 22.507399999999997 L24.441700000000004 23.2331 "/>
<path d="M24.441700000000004 23.2331 L25.227900000000005 23.2331 "/>
</g></g>
<g style="fill:none;  stroke:#840000; stroke-width:0.1524; stroke-opacity:1;  stroke-linecap:round; stroke-linejoin:round;">
<path d="M44.550000000000004 23.650599999999997 L48.36000000000001 23.650599999999997 "/>
</g>
<g style="fill:none;  stroke:#006464; stroke-width:0.1524; stroke-opacity:1;  stroke-linecap:round; stroke-linejoin:round;">
<text x="66.8020" y="40.0050" textLength="1.5337" font-size="1.6933" lengthAdjust="spacingAndGlyphs" text-anchor="end" opacity="0">Q</text>
<g class="stroked-text"><desc>Q</desc>
<path d="M43.76030000000001 24.351100000000002 L43.6393 24.290599999999998 "/>
<path d="M43.6393 24.290599999999998 L43.51840000000001 24.1697 "/>
<path d="M43.51840000000001 24.1697 L43.336999999999996 23.9882 "/>
<path d="M43.336999999999996 23.9882 L43.216 23.9277 "/>
<path d="M43.216 23.9277 L43.095099999999995 23.9277 "/>
<path d="M43.155499999999996 24.2301 L43.034600000000005 24.1697 "/>
<path d="M43.034600000000005 24.1697 L42.913599999999995 24.048699999999997 "/>
<path d="M42.913599999999995 24.048699999999997 L42.85320000000001 23.806800000000003 "/>
<path d="M42.85320000000001 23.806800000000003 L42.85320000000001 23.383499999999998 "/>
<path d="M42.85320000000001 23.383499999999998 L42.913599999999995 23.141599999999997 "/>
<path d="M42.913599999999995 23.141599999999997 L43.034600000000005 23.0206 "/>
<path d="M43.034600000000005 23.0206 L43.155499999999996 22.960099999999997 "/>
<path d="M43.155499999999996 22.960099999999997 L43.3974 22.960099999999997 "/>
<path d="M43.3974 22.960099999999997 L43.51840000000001 23.0206 "/>
<path d="M43.51840000000001 23.0206 L43.6393 23.141599999999997 "/>
<path d="M43.6393 23.141599999999997 L43.6998 23.383499999999998 "/>
<path d="M43.6998 23.383499999999998 L43.6998 23.806800000000003 "/>
<path d="M43.6998 23.806800000000003 L43.6393 24.048699999999997 "/>
<path d="M43.6393 24.048699999999997 L43.51840000000001 24.1697 "/>
<path d="M43.51840000000001 24.1697 L43.3974 24.2301 "/>
<path d="M43.3974 24.2301 L43.155499999999996 24.2301 "/>
</g></g>
<g style="fill:none;  stroke:#A90000; stroke-width:0.1524; stroke-opacity:1;  stroke-linecap:round; stroke-linejoin:round;">
<text x="69.2150" y="39.1160" textLength="1.4127" font-size="1.6933" lengthAdjust="spacingAndGlyphs" text-anchor="middle" opacity="0">3</text>
<g class="stroked-text"><desc>3</desc>
<path d="M46.03170000000001 21.963099999999997 L46.8179 21.963099999999997 "/>
<path d="M46.8179 21.963099999999997 L46.3945 22.4469 "/>
<path d="M46.3945 22.4469 L46.576 22.4469 "/>
<path d="M46.576 22.4469 L46.69690000000001 22.507399999999997 "/>
<path d="M46.69690000000001 22.507399999999997 L46.7574 22.5679 "/>
<path d="M46.7574 22.5679 L46.8179 22.6888 "/>
<path d="M46.8179 22.6888 L46.8179 22.9912 "/>
<path d="M46.8179 22.9912 L46.7574 23.1122 "/>
<path d="M46.7574 23.1122 L46.69690000000001 23.1727 "/>
<path d="M46.69690000000001 23.1727 L46.576 23.2331 "/>
<path d="M46.576 23.2331 L46.213100000000004 23.2331 "/>
<path d="M46.213100000000004 23.2331 L46.0922 23.1727 "/>
<path d="M46.0922 23.1727 L46.03170000000001 23.1122 "/>
</g></g>
<g style="fill:none;  stroke:#840000; stroke-width:0.1524; stroke-opacity:1;  stroke-linecap:round; stroke-linejoin:round;">
<circle cx="26.135000000000005" cy="33.8106" r="0.6350"/> 
<path d="M25.5 33.8106 L22.96 33.8106 "/>
</g>
<g style="fill:none;  stroke:#006464; stroke-width:0.1524; stroke-opacity:1;  stroke-linecap:round; stroke-linejoin:round;">
<text x="50.0380" y="50.1650" textLength="1.4732" font-size="1.6933" lengthAdjust="spacingAndGlyphs" text-anchor="start" opacity="0">R</text>
<g class="stroked-text"><desc>R</desc>
<path d="M28.406200000000005 34.3901 L27.9829 33.7854 "/>
<path d="M27.680500000000002 34.3901 L27.680500000000002 33.1201 "/>
<path d="M27.680500000000002 33.1201 L28.164300000000004 33.1201 "/>
<path d="M28.164300000000004 33.1201 L28.2853 33.1806 "/>
<path d="M28.2853 33.1806 L28.345800000000004 33.2411 "/>
<path d="M28.345800000000004 33.2411 L28.406200000000005 33.362 "/>
<path d="M28.406200000000005 33.362 L28.406200000000005 33.5435 "/>
<path d="M28.406200000000005 33.5435 L28.345800000000004 33.6644 "/>
<path d="M28.345800000000004 33.6644 L28.2853 33.7249 "/>
<path d="M28.2853 33.7249 L28.164300000000004 33.7854 "/>
<path d="M28.164300000000004 33.7854 L27.680500000000002 33.7854 "/>
</g></g>
<g style="fill:none;  stroke:#A90000; stroke-width:0.1524; stroke-opacity:1;  stroke-linecap:round; stroke-linejoin:round;">
<text x="47.6250" y="49.2760" textLength="1.4127" font-size="1.6933" lengthAdjust="spacingAndGlyphs" text-anchor="middle" opacity="0">4</text>
<g class="stroked-text"><desc>4</desc>
<path d="M25.106900000000003 32.5465 L25.106900000000003 33.3931 "/>
<path d="M24.804500000000004 32.0627 L24.502200000000002 32.9698 "/>
<path d="M24.502200000000002 32.9698 L25.2883 32.9698 "/>
</g></g>
<g style="fill:none;  stroke:#840000; stroke-width:0.1524; stroke-opacity:1;  stroke-linecap:round; stroke-linejoin:round;">
<path d="M26.770000000000003 28.730600000000003 L22.96 28.730600000000003 "/>
</g>
<g style="fill:none;  stroke:#006464; stroke-width:0.1524; stroke-opacity:1;  stroke-linecap:round; stroke-linejoin:round;">
<text x="50.0380" y="45.0850" textLength="2.5618" font-size="1.6933" lengthAdjust="spacingAndGlyphs" text-anchor="start" opacity="0">CV</text>
<g class="stroked-text"><desc>CV</desc>
<path d="M28.406200000000005 29.1892 L28.345800000000004 29.249699999999997 "/>
<path d="M28.345800000000004 29.249699999999997 L28.164300000000004 29.3101 "/>
<path d="M28.164300000000004 29.3101 L28.043400000000005 29.3101 "/>
<path d="M28.043400000000005 29.3101 L27.862000000000002 29.249699999999997 "/>
<path d="M27.862000000000002 29.249699999999997 L27.741 29.128700000000002 "/>
<path d="M27.741 29.128700000000002 L27.680500000000002 29.0077 "/>
<path d="M27.680500000000002 29.0077 L27.6201 28.7658 "/>
<path d="M27.6201 28.7658 L27.6201 28.584400000000002 "/>
<path d="M27.6201 28.584400000000002 L27.680500000000002 28.3425 "/>
<path d="M27.680500000000002 28.3425 L27.741 28.221600000000002 "/>
<path d="M27.741 28.221600000000002 L27.862000000000002 28.1006 "/>
<path d="M27.862000000000002 28.1006 L28.043400000000005 28.040100000000002 "/>
<path d="M28.043400000000005 28.040100000000002 L28.164300000000004 28.040100000000002 "/>
<path d="M28.164300000000004 28.040100000000002 L28.345800000000004 28.1006 "/>
<path d="M28.345800000000004 28.1006 L28.406200000000005 28.161099999999998 "/>
<path d="M28.7691 28.040100000000002 L29.1924 29.3101 "/>
<path d="M29.1924 29.3101 L29.6158 28.040100000000002 "/>
</g></g>
<g style="fill:none;  stroke:#A90000; stroke-width:0.1524; stroke-opacity:1;  stroke-linecap:round; stroke-linejoin:round;">
<text x="47.6250" y="44.1960" textLength="1.4127" font-size="1.6933" lengthAdjust="spacingAndGlyphs" text-anchor="middle" opacity="0">5</text>
<g class="stroked-text"><desc>5</desc>
<path d="M25.1674 27.043100000000003 L24.562600000000003 27.043100000000003 "/>
<path d="M24.562600000000003 27.043100000000003 L24.502200000000002 27.6479 "/>
<path d="M24.502200000000002 27.6479 L24.562600000000003 27.587400000000002 "/>
<path d="M24.562600000000003 27.587400000000002 L24.683600000000006 27.526899999999998 "/>
<path d="M24.683600000000006 27.526899999999998 L24.986000000000004 27.526899999999998 "/>
<path d="M24.986000000000004 27.526899999999998 L25.106900000000003 27.587400000000002 "/>
<path d="M25.106900000000003 27.587400000000002 L25.1674 27.6479 "/>
<path d="M25.1674 27.6479 L25.227900000000005 27.7688 "/>
<path d="M25.227900000000005 27.7688 L25.227900000000005 28.071199999999997 "/>
<path d="M25.227900000000005 28.071199999999997 L25.1674 28.1922 "/>
<path d="M25.1674 28.1922 L25.106900000000003 28.252699999999997 "/>
<path d="M25.106900000000003 28.252699999999997 L24.986000000000004 28.3131 "/>
<path d="M24.986000000000004 28.3131 L24.683600000000006 28.3131 "/>
<path d="M24.683600000000006 28.3131 L24.562600000000003 28.252699999999997 "/>
<path d="M24.562600000000003 28.252699999999997 L24.502200000000002 28.1922 "/>
</g></g>
<g style="fill:none;  stroke:#840000; stroke-width:0.1524; stroke-opacity:1;  stroke-linecap:round; stroke-linejoin:round;">
<path d="M44.550000000000004 33.8106 L48.36000000000001 33.8106 "/>
</g>
<g style="fill:none;  stroke:#006464; stroke-width:0.1524; stroke-opacity:1;  stroke-linecap:round; stroke-linejoin:round;">
<text x="66.8020" y="50.1650" textLength="3.7713" font-size="1.6933" lengthAdjust="spacingAndGlyphs" text-anchor="end" opacity="0">THR</text>
<g class="stroked-text"><desc>THR</desc>
<path d="M40.494600000000005 33.1201 L41.2203 33.1201 "/>
<path d="M40.8575 34.3901 L40.8575 33.1201 "/>
<path d="M41.6436 34.3901 L41.6436 33.1201 "/>
<path d="M41.6436 33.7249 L42.3693 33.7249 "/>
<path d="M42.3693 34.3901 L42.3693 33.1201 "/>
<path d="M43.6998 34.3901 L43.276500000000006 33.7854 "/>
<path d="M42.9741 34.3901 L42.9741 33.1201 "/>
<path d="M42.9741 33.1201 L43.4579 33.1201 "/>
<path d="M43.4579 33.1201 L43.5789 33.1806 "/>
<path d="M43.5789 33.1806 L43.6394 33.2411 "/>
<path d="M43.6394 33.2411 L43.6998 33.362 "/>
<path d="M43.6998 33.362 L43.6998 33.5435 "/>
<path d="M43.6998 33.5435 L43.6394 33.6644 "/>
<path d="M43.6394 33.6644 L43.5789 33.7249 "/>
<path d="M43.5789 33.7249 L43.4579 33.7854 "/>
<path d="M43.4579 33.7854 L42.9741 33.7854 "/>
</g></g>
<g style="fill:none;  stroke:#A90000; stroke-width:0.1524; stroke-opacity:1;  stroke-linecap:round; stroke-linejoin:round;">
<text x="69.2150" y="49.2760" textLength="1.4127" font-size="1.6933" lengthAdjust="spacingAndGlyphs" text-anchor="middle" opacity="0">6</text>
<g class="stroked-text"><desc>6</desc>
<path d="M46.69690000000001 32.1231 L46.455000000000005 32.1231 "/>
<path d="M46.455000000000005 32.1231 L46.3341 32.1836 "/>
<path d="M46.3341 32.1836 L46.27360000000001 32.2441 "/>
<path d="M46.27360000000001 32.2441 L46.1526 32.4255 "/>
<path d="M46.1526 32.4255 L46.0922 32.6674 "/>
<path d="M46.0922 32.6674 L46.0922 33.1512 "/>
<path d="M46.0922 33.1512 L46.1526 33.2722 "/>
<path d="M46.1526 33.2722 L46.213100000000004 33.3327 "/>
<path d="M46.213100000000004 33.3327 L46.3341 33.3931 "/>
<path d="M46.3341 33.3931 L46.576 33.3931 "/>
<path d="M46.576 33.3931 L46.69690000000001 33.3327 "/>
<path d="M46.69690000000001 33.3327 L46.7574 33.2722 "/>
<path d="M46.7574 33.2722 L46.8179 33.1512 "/>
<path d="M46.8179 33.1512 L46.8179 32.8488 "/>
<path d="M46.8179 32.8488 L46.7574 32.7279 "/>
<path d="M46.7574 32.7279 L46.69690000000001 32.6674 "/>
<path d="M46.69690000000001 32.6674 L46.576 32.6069 "/>
<path d="M46.576 32.6069 L46.3341 32.6069 "/>
<path d="M46.3341 32.6069 L46.213100000000004 32.6674 "/>
<path d="M46.213100000000004 32.6674 L46.1526 32.7279 "/>
<path d="M46.1526 32.7279 L46.0922 32.8488 "/>
</g></g>
<g style="fill:none;  stroke:#840000; stroke-width:0.1524; stroke-opacity:1;  stroke-linecap:round; stroke-linejoin:round;">
<path d="M44.550000000000004 28.730600000000003 L48.36000000000001 28.730600000000003 "/>
</g>
<g style="fill:none;  stroke:#006464; stroke-width:0.1524; stroke-opacity:1;  stroke-linecap:round; stroke-linejoin:round;">
<text x="66.8020" y="45.0850" textLength="3.2875" font-size="1.6933" lengthAdjust="spacingAndGlyphs" text-anchor="end" opacity="0">DIS</text>
<g class="stroked-text"><desc>DIS</desc>
<path d="M41.159800000000004 29.3101 L41.159800000000004 28.040100000000002 "/>
<path d="M41.159800000000004 28.040100000000002 L41.4622 28.040100000000002 "/>
<path d="M41.4622 28.040100000000002 L41.6436 28.1006 "/>
<path d="M41.6436 28.1006 L41.76460000000001 28.221600000000002 "/>
<path d="M41.76460000000001 28.221600000000002 L41.8251 28.3425 "/>
<path d="M41.8251 28.3425 L41.8855 28.584400000000002 "/>
<path d="M41.8855 28.584400000000002 L41.8855 28.7658 "/>
<path d="M41.8855 28.7658 L41.8251 29.0077 "/>
<path d="M41.8251 29.0077 L41.76460000000001 29.128700000000002 "/>
<path d="M41.76460000000001 29.128700000000002 L41.6436 29.249699999999997 "/>
<path d="M41.6436 29.249699999999997 L41.4622 29.3101 "/>
<path d="M41.4622 29.3101 L41.159800000000004 29.3101 "/>
<path d="M42.42980000000001 29.3101 L42.42980000000001 28.040100000000002 "/>
<path d="M42.9742 29.249699999999997 L43.1556 29.3101 "/>
<path d="M43.1556 29.3101 L43.458000000000006 29.3101 "/>
<path d="M43.458000000000006 29.3101 L43.5789 29.249699999999997 "/>
<path d="M43.5789 29.249699999999997 L43.6394 29.1892 "/>
<path d="M43.6394 29.1892 L43.69990000000001 29.068199999999997 "/>
<path d="M43.69990000000001 29.068199999999997 L43.69990000000001 28.9473 "/>
<path d="M43.69990000000001 28.9473 L43.6394 28.826299999999996 "/>
<path d="M43.6394 28.826299999999996 L43.5789 28.7658 "/>
<path d="M43.5789 28.7658 L43.458000000000006 28.705399999999997 "/>
<path d="M43.458000000000006 28.705399999999997 L43.216100000000004 28.6449 "/>
<path d="M43.216100000000004 28.6449 L43.095099999999995 28.584400000000002 "/>
<path d="M43.095099999999995 28.584400000000002 L43.034600000000005 28.523899999999998 "/>
<path d="M43.034600000000005 28.523899999999998 L42.9742 28.403 "/>
<path d="M42.9742 28.403 L42.9742 28.281999999999996 "/>
<path d="M42.9742 28.281999999999996 L43.034600000000005 28.161099999999998 "/>
<path d="M43.034600000000005 28.161099999999998 L43.095099999999995 28.1006 "/>
<path d="M43.095099999999995 28.1006 L43.216100000000004 28.040100000000002 "/>
<path d="M43.216100000000004 28.040100000000002 L43.51840000000001 28.040100000000002 "/>
<path d="M43.51840000000001 28.040100000000002 L43.69990000000001 28.1006 "/>
</g></g>
<g style="fill:none;  stroke:#A90000; stroke-width:0.1524; stroke-opacity:1;  stroke-linecap:round; stroke-linejoin:round;">
<text x="69.2150" y="44.1960" textLength="1.4127" font-size="1.6933" lengthAdjust="spacingAndGlyphs" text-anchor="middle" opacity="0">7</text>
<g class="stroked-text"><desc>7</desc>
<path d="M46.03170000000001 27.043100000000003 L46.8783 27.043100000000003 "/>
<path d="M46.8783 27.043100000000003 L46.3341 28.3131 "/>
</g></g>
<g style="fill:none;  stroke:#006464; stroke-width:0.1524; stroke-opacity:1;  stroke-linecap:round; stroke-linejoin:round;">
<text x="61.9953" y="32.3850" textLength="2.7432" font-size="1.6933" lengthAdjust="spacingAndGlyphs" text-anchor="middle" opacity="0">U1</text>
<g class="stroked-text"><desc>U1</desc>
<path d="M38.2676 15.3401 L38.2676 16.3682 "/>
<path d="M38.2676 16.3682 L38.3281 16.489199999999997 "/>
<path d="M38.3281 16.489199999999997 L38.388600000000004 16.5497 "/>
<path d="M38.388600000000004 16.5497 L38.5095 16.610100000000003 "/>
<path d="M38.5095 16.610100000000003 L38.751400000000004 16.610100000000003 "/>
<path d="M38.751400000000004 16.610100000000003 L38.8724 16.5497 "/>
<path d="M38.8724 16.5497 L38.932900000000004 16.489199999999997 "/>
<path d="M38.932900000000004 16.489199999999997 L38.993300000000005 16.3682 "/>
<path d="M38.993300000000005 16.3682 L38.993300000000005 15.3401 "/>
<path d="M40.263400000000004 16.610100000000003 L39.5377 16.610100000000003 "/>
<path d="M39.9005 16.610100000000003 L39.9005 15.3401 "/>
<path d="M39.9005 15.3401 L39.7796 15.5216 "/>
<path d="M39.7796 15.5216 L39.6586 15.642499999999998 "/>
<path d="M39.6586 15.642499999999998 L39.5377 15.703 "/>
</g><text x="65.6540" y="34.9250" textLength="10.0607" font-size="1.6933" lengthAdjust="spacingAndGlyphs" text-anchor="middle" opacity="0">LMC555xM</text>
<g class="stroked-text"><desc>LMC555xM</desc>
<path d="M38.8724 19.150100000000002 L38.2676 19.150100000000002 "/>
<path d="M38.2676 19.150100000000002 L38.2676 17.8801 "/>
<path d="M39.295700000000004 19.150100000000002 L39.295700000000004 17.8801 "/>
<path d="M39.295700000000004 17.8801 L39.719100000000005 18.787300000000002 "/>
<path d="M39.719100000000005 18.787300000000002 L40.1424 17.8801 "/>
<path d="M40.1424 17.8801 L40.1424 19.150100000000002 "/>
<path d="M41.4728 19.029200000000003 L41.4124 19.0897 "/>
<path d="M41.4124 19.0897 L41.230900000000005 19.150100000000002 "/>
<path d="M41.230900000000005 19.150100000000002 L41.11 19.150100000000002 "/>
<path d="M41.11 19.150100000000002 L40.9286 19.0897 "/>
<path d="M40.9286 19.0897 L40.8076 18.9687 "/>
<path d="M40.8076 18.9687 L40.7471 18.847700000000003 "/>
<path d="M40.7471 18.847700000000003 L40.6867 18.605800000000002 "/>
<path d="M40.6867 18.605800000000002 L40.6867 18.4244 "/>
<path d="M40.6867 18.4244 L40.7471 18.182499999999997 "/>
<path d="M40.7471 18.182499999999997 L40.8076 18.0616 "/>
<path d="M40.8076 18.0616 L40.9286 17.940599999999996 "/>
<path d="M40.9286 17.940599999999996 L41.11 17.8801 "/>
<path d="M41.11 17.8801 L41.230900000000005 17.8801 "/>
<path d="M41.230900000000005 17.8801 L41.4124 17.940599999999996 "/>
<path d="M41.4124 17.940599999999996 L41.4728 18.0011 "/>
<path d="M42.621900000000004 17.8801 L42.017100000000006 17.8801 "/>
<path d="M42.017100000000006 17.8801 L41.956700000000005 18.484900000000003 "/>
<path d="M41.956700000000005 18.484900000000003 L42.017100000000006 18.4244 "/>
<path d="M42.017100000000006 18.4244 L42.1381 18.3639 "/>
<path d="M42.1381 18.3639 L42.44050000000001 18.3639 "/>
<path d="M42.44050000000001 18.3639 L42.5614 18.4244 "/>
<path d="M42.5614 18.4244 L42.621900000000004 18.484900000000003 "/>
<path d="M42.621900000000004 18.484900000000003 L42.68240000000001 18.605800000000002 "/>
<path d="M42.68240000000001 18.605800000000002 L42.68240000000001 18.9082 "/>
<path d="M42.68240000000001 18.9082 L42.621900000000004 19.029200000000003 "/>
<path d="M42.621900000000004 19.029200000000003 L42.5614 19.0897 "/>
<path d="M42.5614 19.0897 L42.44050000000001 19.150100000000002 "/>
<path d="M42.44050000000001 19.150100000000002 L42.1381 19.150100000000002 "/>
<path d="M42.1381 19.150100000000002 L42.017100000000006 19.0897 "/>
<path d="M42.017100000000006 19.0897 L41.956700000000005 19.029200000000003 "/>
<path d="M43.831399999999995 17.8801 L43.2266 17.8801 "/>
<path d="M43.2266 17.8801 L43.166199999999996 18.484900000000003 "/>
<path d="M43.166199999999996 18.484900000000003 L43.2266 18.4244 "/>
<path d="M43.2266 18.4244 L43.34760000000001 18.3639 "/>
<path d="M43.34760000000001 18.3639 L43.65 18.3639 "/>
<path d="M43.65 18.3639 L43.770900000000005 18.4244 "/>
<path d="M43.770900000000005 18.4244 L43.831399999999995 18.484900000000003 "/>
<path d="M43.831399999999995 18.484900000000003 L43.8919 18.605800000000002 "/>
<path d="M43.8919 18.605800000000002 L43.8919 18.9082 "/>
<path d="M43.8919 18.9082 L43.831399999999995 19.029200000000003 "/>
<path d="M43.831399999999995 19.029200000000003 L43.770900000000005 19.0897 "/>
<path d="M43.770900000000005 19.0897 L43.65 19.150100000000002 "/>
<path d="M43.65 19.150100000000002 L43.34760000000001 19.150100000000002 "/>
<path d="M43.34760000000001 19.150100000000002 L43.2266 19.0897 "/>
<path d="M43.2266 19.0897 L43.166199999999996 19.029200000000003 "/>
<path d="M45.0409 17.8801 L44.4361 17.8801 "/>
<path d="M44.4361 17.8801 L44.3757 18.484900000000003 "/>
<path d="M44.3757 18.484900000000003 L44.4361 18.4244 "/>
<path d="M44.4361 18.4244 L44.5571 18.3639 "/>
<path d="M44.5571 18.3639 L44.859500000000004 18.3639 "/>
<path d="M44.859500000000004 18.3639 L44.980399999999996 18.4244 "/>
<path d="M44.980399999999996 18.4244 L45.0409 18.484900000000003 "/>
<path d="M45.0409 18.484900000000003 L45.101400000000005 18.605800000000002 "/>
<path d="M45.101400000000005 18.605800000000002 L45.101400000000005 18.9082 "/>
<path d="M45.101400000000005 18.9082 L45.0409 19.029200000000003 "/>
<path d="M45.0409 19.029200000000003 L44.980399999999996 19.0897 "/>
<path d="M44.980399999999996 19.0897 L44.859500000000004 19.150100000000002 "/>
<path d="M44.859500000000004 19.150100000000002 L44.5571 19.150100000000002 "/>
<path d="M44.5571 19.150100000000002 L44.4361 19.0897 "/>
<path d="M44.4361 19.0897 L44.3757 19.029200000000003 "/>
<path d="M45.5247 19.150100000000002 L46.1899 18.3035 "/>
<path d="M45.5247 18.3035 L46.1899 19.150100000000002 "/>
<path d="M46.673700000000004 19.150100000000002 L46.673700000000004 17.8801 "/>
<path d="M46.673700000000004 17.8801 L47.097100000000005 18.787300000000002 "/>
<path d="M47.097100000000005 18.787300000000002 L47.5204 17.8801 "/>
<path d="M47.5204 17.8801 L47.5204 19.150100000000002 "/>
</g></g>
<g style="fill:none;  stroke:#840000; stroke-width:0.2540; stroke-opacity:1;  stroke-linecap:round; stroke-linejoin:round;">
<rect x="58.52" y="14.7606" width="3.556000" height="5.080000" rx="0.000000"/>
<path style="fill:none;  stroke:#840000; stroke-width:0.2540; stroke-opacity:1;  stroke-linecap:round; stroke-linejoin:round;fill:none" d="M 62.076,14.7606 64.61600000000001,12.220600000000001 64.61600000000001,22.3806 62.076,19.840600000000002 "/> 
</g>
<g style="fill:none;  stroke:#840000; stroke-width:0.1524; stroke-opacity:1;  stroke-linecap:round; stroke-linejoin:round;">
<path d="M58.52 16.0306 L55.98 16.0306 "/>
</g>
<g style="fill:none;  stroke:#A90000; stroke-width:0.1524; stroke-opacity:1;  stroke-linecap:round; stroke-linejoin:round;">
<text x="80.0100" y="31.4960" textLength="1.4127" font-size="1.6933" lengthAdjust="spacingAndGlyphs" text-anchor="middle" opacity="0">1</text>
<g class="stroked-text"><desc>1</desc>
<path d="M57.6129 15.6131 L56.8872 15.6131 "/>
<path d="M57.25000000000001 15.6131 L57.25000000000001 14.3431 "/>
<path d="M57.25000000000001 14.3431 L57.1291 14.5246 "/>
<path d="M57.1291 14.5246 L57.008100000000006 14.645499999999998 "/>
<path d="M57.008100000000006 14.645499999999998 L56.8872 14.706 "/>
</g></g>
<g style="fill:none;  stroke:#840000; stroke-width:0.1524; stroke-opacity:1;  stroke-linecap:round; stroke-linejoin:round;">
<path d="M58.52 18.5706 L55.98 18.5706 "/>
</g>
<g style="fill:none;  stroke:#A90000; stroke-width:0.1524; stroke-opacity:1;  stroke-linecap:round; stroke-linejoin:round;">
<text x="80.0100" y="34.0360" textLength="1.4127" font-size="1.6933" lengthAdjust="spacingAndGlyphs" text-anchor="middle" opacity="0">2</text>
<g class="stroked-text"><desc>2</desc>
<path d="M56.8872 17.0041 L56.9476 16.943599999999996 "/>
<path d="M56.9476 16.943599999999996 L57.068599999999996 16.8831 "/>
<path d="M57.068599999999996 16.8831 L57.371 16.8831 "/>
<path d="M57.371 16.8831 L57.49190000000001 16.943599999999996 "/>
<path d="M57.49190000000001 16.943599999999996 L57.5524 17.0041 "/>
<path d="M57.5524 17.0041 L57.6129 17.125 "/>
<path d="M57.6129 17.125 L57.6129 17.246000000000002 "/>
<path d="M57.6129 17.246000000000002 L57.5524 17.4274 "/>
<path d="M57.5524 17.4274 L56.826699999999995 18.153100000000002 "/>
<path d="M56.826699999999995 18.153100000000002 L57.6129 18.153100000000002 "/>
</g></g>
<g style="fill:none;  stroke:#006464; stroke-width:0.1524; stroke-opacity:1;  stroke-linecap:round; stroke-linejoin:round;">
<text x="90.7347" y="32.3849" textLength="3.6503" font-size="1.6933" lengthAdjust="spacingAndGlyphs" text-anchor="middle" opacity="0">LS1</text>
<g class="stroked-text"><desc>LS1</desc>
<path d="M67.1583 16.61 L66.55350000000001 16.61 "/>
<path d="M66.55350000000001 16.61 L66.55350000000001 15.34 "/>
<path d="M67.5212 16.549599999999998 L67.70259999999999 16.61 "/>
<path d="M67.70259999999999 16.61 L68.005 16.61 "/>
<path d="M68.005 16.61 L68.1259 16.549599999999998 "/>
<path d="M68.1259 16.549599999999998 L68.18639999999999 16.4891 "/>
<path d="M68.18639999999999 16.4891 L68.24690000000001 16.3681 "/>
<path d="M68.24690000000001 16.3681 L68.24690000000001 16.2472 "/>
<path d="M68.24690000000001 16.2472 L68.18639999999999 16.1262 "/>
<path d="M68.18639999999999 16.1262 L68.1259 16.0657 "/>
<path d="M68.1259 16.0657 L68.005 16.0053 "/>
<path d="M68.005 16.0053 L67.76310000000001 15.9448 "/>
<path d="M67.76310000000001 15.9448 L67.6421 15.8843 "/>
<path d="M67.6421 15.8843 L67.58160000000001 15.823799999999999 "/>
<path d="M67.58160000000001 15.823799999999999 L67.5212 15.7029 "/>
<path d="M67.5212 15.7029 L67.5212 15.581900000000001 "/>
<path d="M67.5212 15.581900000000001 L67.58160000000001 15.460999999999999 "/>
<path d="M67.58160000000001 15.460999999999999 L67.6421 15.400500000000001 "/>
<path d="M67.6421 15.400500000000001 L67.76310000000001 15.34 "/>
<path d="M67.76310000000001 15.34 L68.06540000000001 15.34 "/>
<path d="M68.06540000000001 15.34 L68.24690000000001 15.400500000000001 "/>
<path d="M69.4564 16.61 L68.73070000000001 16.61 "/>
<path d="M69.0935 16.61 L69.0935 15.34 "/>
<path d="M69.0935 15.34 L68.9726 15.5215 "/>
<path d="M68.9726 15.5215 L68.85159999999999 15.642399999999999 "/>
<path d="M68.85159999999999 15.642399999999999 L68.73070000000001 15.7029 "/>
</g><text x="92.7607" y="34.9249" textLength="7.7022" font-size="1.6933" lengthAdjust="spacingAndGlyphs" text-anchor="middle" opacity="0">Speaker</text>
<g class="stroked-text"><desc>Speaker</desc>
<path d="M66.4931 19.089599999999997 L66.6745 19.15 "/>
<path d="M66.6745 19.15 L66.9769 19.15 "/>
<path d="M66.9769 19.15 L67.0978 19.089599999999997 "/>
<path d="M67.0978 19.089599999999997 L67.1583 19.0291 "/>
<path d="M67.1583 19.0291 L67.21880000000002 18.908099999999997 "/>
<path d="M67.21880000000002 18.908099999999997 L67.21880000000002 18.7872 "/>
<path d="M67.21880000000002 18.7872 L67.1583 18.666199999999996 "/>
<path d="M67.1583 18.666199999999996 L67.0978 18.6057 "/>
<path d="M67.0978 18.6057 L66.9769 18.545299999999997 "/>
<path d="M66.9769 18.545299999999997 L66.73500000000001 18.4848 "/>
<path d="M66.73500000000001 18.4848 L66.614 18.424300000000002 "/>
<path d="M66.614 18.424300000000002 L66.55350000000001 18.363799999999998 "/>
<path d="M66.55350000000001 18.363799999999998 L66.4931 18.2429 "/>
<path d="M66.4931 18.2429 L66.4931 18.121899999999997 "/>
<path d="M66.4931 18.121899999999997 L66.55350000000001 18.000999999999998 "/>
<path d="M66.55350000000001 18.000999999999998 L66.614 17.9405 "/>
<path d="M66.614 17.9405 L66.73500000000001 17.880000000000003 "/>
<path d="M66.73500000000001 17.880000000000003 L67.03730000000002 17.880000000000003 "/>
<path d="M67.03730000000002 17.880000000000003 L67.21880000000002 17.9405 "/>
<path d="M67.763 18.303399999999996 L67.763 19.5734 "/>
<path d="M67.763 18.363799999999998 L67.88400000000001 18.303399999999996 "/>
<path d="M67.88400000000001 18.303399999999996 L68.1259 18.303399999999996 "/>
<path d="M68.1259 18.303399999999996 L68.24680000000001 18.363799999999998 "/>
<path d="M68.24680000000001 18.363799999999998 L68.3073 18.424300000000002 "/>
<path d="M68.3073 18.424300000000002 L68.36779999999999 18.545299999999997 "/>
<path d="M68.36779999999999 18.545299999999997 L68.36779999999999 18.908099999999997 "/>
<path d="M68.36779999999999 18.908099999999997 L68.3073 19.0291 "/>
<path d="M68.3073 19.0291 L68.24680000000001 19.089599999999997 "/>
<path d="M68.24680000000001 19.089599999999997 L68.1259 19.15 "/>
<path d="M68.1259 19.15 L67.88400000000001 19.15 "/>
<path d="M67.88400000000001 19.15 L67.763 19.089599999999997 "/>
<path d="M69.39580000000001 19.089599999999997 L69.2749 19.15 "/>
<path d="M69.2749 19.15 L69.03300000000002 19.15 "/>
<path d="M69.03300000000002 19.15 L68.912 19.089599999999997 "/>
<path d="M68.912 19.089599999999997 L68.85159999999999 18.968600000000002 "/>
<path d="M68.85159999999999 18.968600000000002 L68.85159999999999 18.4848 "/>
<path d="M68.85159999999999 18.4848 L68.912 18.363799999999998 "/>
<path d="M68.912 18.363799999999998 L69.03300000000002 18.303399999999996 "/>
<path d="M69.03300000000002 18.303399999999996 L69.2749 18.303399999999996 "/>
<path d="M69.2749 18.303399999999996 L69.39580000000001 18.363799999999998 "/>
<path d="M69.39580000000001 18.363799999999998 L69.4563 18.4848 "/>
<path d="M69.4563 18.4848 L69.4563 18.6057 "/>
<path d="M69.4563 18.6057 L68.85159999999999 18.7267 "/>
<path d="M70.54490000000001 19.15 L70.54490000000001 18.4848 "/>
<path d="M70.54490000000001 18.4848 L70.4844 18.363799999999998 "/>
<path d="M70.4844 18.363799999999998 L70.36350000000002 18.303399999999996 "/>
<path d="M70.36350000000002 18.303399999999996 L70.1216 18.303399999999996 "/>
<path d="M70.1216 18.303399999999996 L70.00059999999999 18.363799999999998 "/>
<path d="M70.54490000000001 19.089599999999997 L70.424 19.15 "/>
<path d="M70.424 19.15 L70.1216 19.15 "/>
<path d="M70.1216 19.15 L70.00059999999999 19.089599999999997 "/>
<path d="M70.00059999999999 19.089599999999997 L69.9402 18.968600000000002 "/>
<path d="M69.9402 18.968600000000002 L69.9402 18.8476 "/>
<path d="M69.9402 18.8476 L70.00059999999999 18.7267 "/>
<path d="M70.00059999999999 18.7267 L70.1216 18.666199999999996 "/>
<path d="M70.1216 18.666199999999996 L70.424 18.666199999999996 "/>
<path d="M70.424 18.666199999999996 L70.54490000000001 18.6057 "/>
<path d="M71.14959999999999 19.15 L71.14959999999999 17.880000000000003 "/>
<path d="M71.2706 18.666199999999996 L71.6334 19.15 "/>
<path d="M71.6334 18.303399999999996 L71.14959999999999 18.7872 "/>
<path d="M72.66149999999999 19.089599999999997 L72.54060000000001 19.15 "/>
<path d="M72.54060000000001 19.15 L72.2987 19.15 "/>
<path d="M72.2987 19.15 L72.17770000000002 19.089599999999997 "/>
<path d="M72.17770000000002 19.089599999999997 L72.1173 18.968600000000002 "/>
<path d="M72.1173 18.968600000000002 L72.1173 18.4848 "/>
<path d="M72.1173 18.4848 L72.17770000000002 18.363799999999998 "/>
<path d="M72.17770000000002 18.363799999999998 L72.2987 18.303399999999996 "/>
<path d="M72.2987 18.303399999999996 L72.54060000000001 18.303399999999996 "/>
<path d="M72.54060000000001 18.303399999999996 L72.66149999999999 18.363799999999998 "/>
<path d="M72.66149999999999 18.363799999999998 L72.72200000000001 18.4848 "/>
<path d="M72.72200000000001 18.4848 L72.72200000000001 18.6057 "/>
<path d="M72.72200000000001 18.6057 L72.1173 18.7267 "/>
<path d="M73.2663 19.15 L73.2663 18.303399999999996 "/>
<path d="M73.2663 18.545299999999997 L73.32679999999999 18.424300000000002 "/>
<path d="M73.32679999999999 18.424300000000002 L73.38730000000001 18.363799999999998 "/>
<path d="M73.38730000000001 18.363799999999998 L73.50819999999999 18.303399999999996 "/>
<path d="M73.50819999999999 18.303399999999996 L73.6292 18.303399999999996 "/>
</g></g>
<g style="fill:none;  stroke:#840000; stroke-width:0.2540; stroke-opacity:1;  stroke-linecap:round; stroke-linejoin:round;">
<rect x="49.88400000000001" y="26.190599999999996" width="2.032000" height="5.080000" rx="0.000000"/>
</g>
<g style="fill:none;  stroke:#840000; stroke-width:0.1524; stroke-opacity:1;  stroke-linecap:round; stroke-linejoin:round;">
<path d="M50.9 26.190599999999996 L50.9 24.9206 "/>
<path d="M50.9 31.2706 L50.9 32.5406 "/>
</g>
<g style="fill:none;  stroke:#006464; stroke-width:0.1524; stroke-opacity:1;  stroke-linecap:round; stroke-linejoin:round;">
<text x="77.5509" y="43.8149" textLength="2.6827" font-size="1.6933" lengthAdjust="spacingAndGlyphs" text-anchor="middle" opacity="0">R1</text>
<g class="stroked-text"><desc>R1</desc>
<path d="M54.57920000000001 28.04 L54.155899999999995 27.435299999999998 "/>
<path d="M53.853500000000004 28.04 L53.853500000000004 26.770000000000003 "/>
<path d="M53.853500000000004 26.770000000000003 L54.337300000000006 26.770000000000003 "/>
<path d="M54.337300000000006 26.770000000000003 L54.4583 26.8305 "/>
<path d="M54.4583 26.8305 L54.518800000000006 26.891 "/>
<path d="M54.518800000000006 26.891 L54.57920000000001 27.011899999999997 "/>
<path d="M54.57920000000001 27.011899999999997 L54.57920000000001 27.193399999999997 "/>
<path d="M54.57920000000001 27.193399999999997 L54.518800000000006 27.314300000000003 "/>
<path d="M54.518800000000006 27.314300000000003 L54.4583 27.3748 "/>
<path d="M54.4583 27.3748 L54.337300000000006 27.435299999999998 "/>
<path d="M54.337300000000006 27.435299999999998 L53.853500000000004 27.435299999999998 "/>
<path d="M55.7888 28.04 L55.0631 28.04 "/>
<path d="M55.425900000000006 28.04 L55.425900000000006 26.770000000000003 "/>
<path d="M55.425900000000006 26.770000000000003 L55.305 26.951500000000003 "/>
<path d="M55.305 26.951500000000003 L55.184000000000005 27.072400000000002 "/>
<path d="M55.184000000000005 27.072400000000002 L55.0631 27.1329 "/>
</g><text x="77.5207" y="46.3549" textLength="2.6222" font-size="1.6933" lengthAdjust="spacingAndGlyphs" text-anchor="middle" opacity="0">39</text>
<g class="stroked-text"><desc>39</desc>
<path d="M53.7326 29.310000000000002 L54.518800000000006 29.310000000000002 "/>
<path d="M54.518800000000006 29.310000000000002 L54.095400000000005 29.793799999999997 "/>
<path d="M54.095400000000005 29.793799999999997 L54.276900000000005 29.793799999999997 "/>
<path d="M54.276900000000005 29.793799999999997 L54.3978 29.854300000000002 "/>
<path d="M54.3978 29.854300000000002 L54.4583 29.9148 "/>
<path d="M54.4583 29.9148 L54.518800000000006 30.0357 "/>
<path d="M54.518800000000006 30.0357 L54.518800000000006 30.338099999999997 "/>
<path d="M54.518800000000006 30.338099999999997 L54.4583 30.4591 "/>
<path d="M54.4583 30.4591 L54.3978 30.519599999999997 "/>
<path d="M54.3978 30.519599999999997 L54.276900000000005 30.58 "/>
<path d="M54.276900000000005 30.58 L53.91400000000001 30.58 "/>
<path d="M53.91400000000001 30.58 L53.7931 30.519599999999997 "/>
<path d="M53.7931 30.519599999999997 L53.7326 30.4591 "/>
<path d="M55.1235 30.58 L55.3654 30.58 "/>
<path d="M55.3654 30.58 L55.486399999999996 30.519599999999997 "/>
<path d="M55.486399999999996 30.519599999999997 L55.5468 30.4591 "/>
<path d="M55.5468 30.4591 L55.66780000000001 30.2776 "/>
<path d="M55.66780000000001 30.2776 L55.7283 30.0357 "/>
<path d="M55.7283 30.0357 L55.7283 29.551899999999996 "/>
<path d="M55.7283 29.551899999999996 L55.66780000000001 29.430999999999997 "/>
<path d="M55.66780000000001 29.430999999999997 L55.6073 29.3705 "/>
<path d="M55.6073 29.3705 L55.486399999999996 29.310000000000002 "/>
<path d="M55.486399999999996 29.310000000000002 L55.244499999999995 29.310000000000002 "/>
<path d="M55.244499999999995 29.310000000000002 L55.1235 29.3705 "/>
<path d="M55.1235 29.3705 L55.062999999999995 29.430999999999997 "/>
<path d="M55.062999999999995 29.430999999999997 L55.00260000000001 29.551899999999996 "/>
<path d="M55.00260000000001 29.551899999999996 L55.00260000000001 29.854300000000002 "/>
<path d="M55.00260000000001 29.854300000000002 L55.062999999999995 29.975299999999997 "/>
<path d="M55.062999999999995 29.975299999999997 L55.1235 30.0357 "/>
<path d="M55.1235 30.0357 L55.244499999999995 30.096200000000003 "/>
<path d="M55.244499999999995 30.096200000000003 L55.486399999999996 30.096200000000003 "/>
<path d="M55.486399999999996 30.096200000000003 L55.6073 30.0357 "/>
<path d="M55.6073 30.0357 L55.66780000000001 29.975299999999997 "/>
<path d="M55.66780000000001 29.975299999999997 L55.7283 29.854300000000002 "/>
</g></g>
<g style="fill:none;  stroke:#009600; stroke-width:0.1524; stroke-opacity:1;  stroke-linecap:round; stroke-linejoin:round;">
<path d="M55.98 18.5706 L55.98 27.4606 "/>
<path d="M50.9 24.9206 L50.9 23.650599999999997 "/>
<path d="M50.9 23.650599999999997 L48.36000000000001 23.650599999999997 "/>
<path d="M55.98 27.4606 L61.059999999999995 27.4606 "/>
<path d="M48.36000000000001 13.4906 L48.36000000000001 23.650599999999997 "/>
<path d="M61.059999999999995 2.060600000000001 L55.98 2.060600000000001 "/>
<path d="M55.98 9.680599999999998 L55.98 16.0306 "/>
<path d="M35.660000000000004 2.060600000000001 L55.98 2.060600000000001 "/>
<path d="M35.660000000000004 18.5706 L35.660000000000004 12.220600000000001 "/>
<path d="M21.690000000000005 18.5706 L35.660000000000004 18.5706 "/>
<path d="M10.260000000000005 13.4906 L48.36000000000001 13.4906 "/>
<path d="M28.04 7.140599999999999 L20.42 7.140599999999999 "/>
<path d="M3.9100000000000037 18.5706 L0.10000000000000142 18.5706 "/>
<path d="M0.10000000000000142 7.140599999999999 L12.800000000000004 7.140599999999999 "/>
<path d="M19.15 41.4306 L48.36000000000001 41.4306 "/>
<path d="M35.660000000000004 38.8906 L35.660000000000004 43.9706 "/>
<path d="M3.9100000000000037 43.9706 L10.260000000000005 43.9706 "/>
<path d="M19.15 23.650599999999997 L19.15 41.4306 "/>
<path d="M10.260000000000005 40.1606 L10.260000000000005 43.9706 "/>
<path d="M3.9100000000000037 18.5706 L3.9100000000000037 43.9706 "/>
<path d="M35.660000000000004 43.9706 L10.260000000000005 43.9706 "/>
<path d="M61.059999999999995 43.9706 L61.059999999999995 37.6206 "/>
<path d="M48.36000000000001 41.4306 L48.36000000000001 33.8106 "/>
<path d="M35.660000000000004 43.9706 L61.059999999999995 43.9706 "/>
<path d="M53.440000000000005 32.5406 L50.9 32.5406 "/>
<path d="M21.690000000000005 33.8106 L21.690000000000005 18.5706 "/>
<path d="M10.260000000000005 23.650599999999997 L10.260000000000005 32.5406 "/>
<path d="M22.96 33.8106 L21.690000000000005 33.8106 "/>
<path d="M19.15 23.650599999999997 L22.96 23.650599999999997 "/>
<path d="M10.260000000000005 23.650599999999997 L19.15 23.650599999999997 "/>
<path d="M10.260000000000005 21.110599999999998 L10.260000000000005 23.650599999999997 "/>
</g>
<g style="fill:none;  stroke:#006464; stroke-width:0.1524; stroke-opacity:1;  stroke-linecap:round; stroke-linejoin:round;">
<text x="77.5509" y="43.8149" textLength="2.6827" font-size="1.6933" lengthAdjust="spacingAndGlyphs" text-anchor="middle" opacity="0">R1</text>
<g class="stroked-text"><desc>R1</desc>
<path d="M54.57920000000001 28.04 L54.155899999999995 27.435299999999998 "/>
<path d="M53.853500000000004 28.04 L53.853500000000004 26.770000000000003 "/>
<path d="M53.853500000000004 26.770000000000003 L54.337300000000006 26.770000000000003 "/>
<path d="M54.337300000000006 26.770000000000003 L54.4583 26.8305 "/>
<path d="M54.4583 26.8305 L54.518800000000006 26.891 "/>
<path d="M54.518800000000006 26.891 L54.57920000000001 27.011899999999997 "/>
<path d="M54.57920000000001 27.011899999999997 L54.57920000000001 27.193399999999997 "/>
<path d="M54.57920000000001 27.193399999999997 L54.518800000000006 27.314300000000003 "/>
<path d="M54.518800000000006 27.314300000000003 L54.4583 27.3748 "/>
<path d="M54.4583 27.3748 L54.337300000000006 27.435299999999998 "/>
<path d="M54.337300000000006 27.435299999999998 L53.853500000000004 27.435299999999998 "/>
<path d="M55.7888 28.04 L55.0631 28.04 "/>
<path d="M55.425900000000006 28.04 L55.425900000000006 26.770000000000003 "/>
<path d="M55.425900000000006 26.770000000000003 L55.305 26.951500000000003 "/>
<path d="M55.305 26.951500000000003 L55.184000000000005 27.072400000000002 "/>
<path d="M55.184000000000005 27.072400000000002 L55.0631 27.1329 "/>
</g><text x="77.5207" y="46.3549" textLength="2.6222" font-size="1.6933" lengthAdjust="spacingAndGlyphs" text-anchor="middle" opacity="0">39</text>
<g class="stroked-text"><desc>39</desc>
<path d="M53.7326 29.310000000000002 L54.518800000000006 29.310000000000002 "/>
<path d="M54.518800000000006 29.310000000000002 L54.095400000000005 29.793799999999997 "/>
<path d="M54.095400000000005 29.793799999999997 L54.276900000000005 29.793799999999997 "/>
<path d="M54.276900000000005 29.793799999999997 L54.3978 29.854300000000002 "/>
<path d="M54.3978 29.854300000000002 L54.4583 29.9148 "/>
<path d="M54.4583 29.9148 L54.518800000000006 30.0357 "/>
<path d="M54.518800000000006 30.0357 L54.518800000000006 30.338099999999997 "/>
<path d="M54.518800000000006 30.338099999999997 L54.4583 30.4591 "/>
<path d="M54.4583 30.4591 L54.3978 30.519599999999997 "/>
<path d="M54.3978 30.519599999999997 L54.276900000000005 30.58 "/>
<path d="M54.276900000000005 30.58 L53.91400000000001 30.58 "/>
<path d="M53.91400000000001 30.58 L53.7931 30.519599999999997 "/>
<path d="M53.7931 30.519599999999997 L53.7326 30.4591 "/>
<path d="M55.1235 30.58 L55.3654 30.58 "/>
<path d="M55.3654 30.58 L55.486399999999996 30.519599999999997 "/>
<path d="M55.486399999999996 30.519599999999997 L55.5468 30.4591 "/>
<path d="M55.5468 30.4591 L55.66780000000001 30.2776 "/>
<path d="M55.66780000000001 30.2776 L55.7283 30.0357 "/>
<path d="M55.7283 30.0357 L55.7283 29.551899999999996 "/>
<path d="M55.7283 29.551899999999996 L55.66780000000001 29.430999999999997 "/>
<path d="M55.66780000000001 29.430999999999997 L55.6073 29.3705 "/>
<path d="M55.6073 29.3705 L55.486399999999996 29.310000000000002 "/>
<path d="M55.486399999999996 29.310000000000002 L55.244499999999995 29.310000000000002 "/>
<path d="M55.244499999999995 29.310000000000002 L55.1235 29.3705 "/>
<path d="M55.1235 29.3705 L55.062999999999995 29.430999999999997 "/>
<path d="M55.062999999999995 29.430999999999997 L55.00260000000001 29.551899999999996 "/>
<path d="M55.00260000000001 29.551899999999996 L55.00260000000001 29.854300000000002 "/>
<path d="M55.00260000000001 29.854300000000002 L55.062999999999995 29.975299999999997 "/>
<path d="M55.062999999999995 29.975299999999997 L55.1235 30.0357 "/>
<path d="M55.1235 30.0357 L55.244499999999995 30.096200000000003 "/>
<path d="M55.244499999999995 30.096200000000003 L55.486399999999996 30.096200000000003 "/>
<path d="M55.486399999999996 30.096200000000003 L55.6073 30.0357 "/>
<path d="M55.6073 30.0357 L55.66780000000001 29.975299999999997 "/>
<path d="M55.66780000000001 29.975299999999997 L55.7283 29.854300000000002 "/>
</g></g>
<g style="fill:none;  stroke:#840000; stroke-width:0.1524; stroke-opacity:1;  stroke-linecap:round; stroke-linejoin:round;">
<path d="M50.9 26.190599999999996 L50.9 24.9206 "/>
<path d="M50.9 31.2706 L50.9 32.5406 "/>
</g>
<g style="fill:none;  stroke:#006464; stroke-width:0.1524; stroke-opacity:1;  stroke-linecap:round; stroke-linejoin:round;">
<text x="87.7412" y="48.2599" textLength="2.7432" font-size="1.6933" lengthAdjust="spacingAndGlyphs" text-anchor="middle" opacity="0">Q2</text>
<g class="stroked-text"><desc>Q2</desc>
<path d="M64.86019999999999 32.606 L64.73920000000001 32.5455 "/>
<path d="M64.73920000000001 32.5455 L64.6183 32.4246 "/>
<path d="M64.6183 32.4246 L64.43690000000001 32.2431 "/>
<path d="M64.43690000000001 32.2431 L64.3159 32.1826 "/>
<path d="M64.3159 32.1826 L64.195 32.1826 "/>
<path d="M64.25540000000001 32.485 L64.1345 32.4246 "/>
<path d="M64.1345 32.4246 L64.0135 32.3036 "/>
<path d="M64.0135 32.3036 L63.9531 32.0617 "/>
<path d="M63.9531 32.0617 L63.9531 31.638399999999997 "/>
<path d="M63.9531 31.638399999999997 L64.0135 31.396500000000003 "/>
<path d="M64.0135 31.396500000000003 L64.1345 31.2755 "/>
<path d="M64.1345 31.2755 L64.25540000000001 31.214999999999996 "/>
<path d="M64.25540000000001 31.214999999999996 L64.4973 31.214999999999996 "/>
<path d="M64.4973 31.214999999999996 L64.6183 31.2755 "/>
<path d="M64.6183 31.2755 L64.73920000000001 31.396500000000003 "/>
<path d="M64.73920000000001 31.396500000000003 L64.7997 31.638399999999997 "/>
<path d="M64.7997 31.638399999999997 L64.7997 32.0617 "/>
<path d="M64.7997 32.0617 L64.73920000000001 32.3036 "/>
<path d="M64.73920000000001 32.3036 L64.6183 32.4246 "/>
<path d="M64.6183 32.4246 L64.4973 32.485 "/>
<path d="M64.4973 32.485 L64.25540000000001 32.485 "/>
<path d="M65.2836 31.336 L65.344 31.2755 "/>
<path d="M65.344 31.2755 L65.465 31.214999999999996 "/>
<path d="M65.465 31.214999999999996 L65.76740000000001 31.214999999999996 "/>
<path d="M65.76740000000001 31.214999999999996 L65.88830000000002 31.2755 "/>
<path d="M65.88830000000002 31.2755 L65.9488 31.336 "/>
<path d="M65.9488 31.336 L66.0093 31.456899999999997 "/>
<path d="M66.0093 31.456899999999997 L66.0093 31.5779 "/>
<path d="M66.0093 31.5779 L65.9488 31.759300000000003 "/>
<path d="M65.9488 31.759300000000003 L65.22309999999999 32.485 "/>
<path d="M65.22309999999999 32.485 L66.0093 32.485 "/>
</g></g>
<g style="fill:none;  stroke:#840000; stroke-width:0.1524; stroke-opacity:1;  stroke-linecap:round; stroke-linejoin:round;">
<path d="M59.15500000000001 32.5406 L53.440000000000005 32.5406 "/>
</g>
<g style="fill:none;  stroke:#A90000; stroke-width:0.1524; stroke-opacity:1;  stroke-linecap:round; stroke-linejoin:round;">
<text x="79.0575" y="48.0060" textLength="1.4127" font-size="1.6933" lengthAdjust="spacingAndGlyphs" text-anchor="middle" opacity="0">1</text>
<g class="stroked-text"><desc>1</desc>
<path d="M56.6604 32.1231 L55.9347 32.1231 "/>
<path d="M56.29750000000001 32.1231 L56.29750000000001 30.853099999999998 "/>
<path d="M56.29750000000001 30.853099999999998 L56.1766 31.034599999999998 "/>
<path d="M56.1766 31.034599999999998 L56.055600000000005 31.155499999999996 "/>
<path d="M56.055600000000005 31.155499999999996 L55.9347 31.216 "/>
</g></g>
<g style="fill:none;  stroke:#840000; stroke-width:0.1524; stroke-opacity:1;  stroke-linecap:round; stroke-linejoin:round;">
<path d="M61.059999999999995 35.0806 L61.059999999999995 37.6206 "/>
</g>
<g style="fill:none;  stroke:#A90000; stroke-width:0.1524; stroke-opacity:1;  stroke-linecap:round; stroke-linejoin:round;">
<g transform="rotate(-90.000000 83.5660 52.0700)">
<text x="83.5660" y="52.0700" textLength="1.4127" font-size="1.6933" lengthAdjust="spacingAndGlyphs" text-anchor="middle" opacity="0">2</text>
</g>
<g class="stroked-text"><desc>2</desc>
<path d="M59.493500000000004 36.7133 L59.433 36.6529 "/>
<path d="M59.433 36.6529 L59.372499999999995 36.5319 "/>
<path d="M59.372499999999995 36.5319 L59.372499999999995 36.2295 "/>
<path d="M59.372499999999995 36.2295 L59.433 36.1086 "/>
<path d="M59.433 36.1086 L59.493500000000004 36.0481 "/>
<path d="M59.493500000000004 36.0481 L59.614399999999996 35.9876 "/>
<path d="M59.614399999999996 35.9876 L59.735400000000006 35.9876 "/>
<path d="M59.735400000000006 35.9876 L59.9168 36.0481 "/>
<path d="M59.9168 36.0481 L60.642500000000005 36.7738 "/>
<path d="M60.642500000000005 36.7738 L60.642500000000005 35.9876 "/>
</g></g>
<g style="fill:none;  stroke:#840000; stroke-width:0.1524; stroke-opacity:1;  stroke-linecap:round; stroke-linejoin:round;">
<path d="M61.059999999999995 30.0006 L61.059999999999995 27.4606 "/>
</g>
<g style="fill:none;  stroke:#A90000; stroke-width:0.1524; stroke-opacity:1;  stroke-linecap:round; stroke-linejoin:round;">
<g transform="rotate(-90.000000 83.5660 44.4500)">
<text x="83.5660" y="44.4500" textLength="1.4127" font-size="1.6933" lengthAdjust="spacingAndGlyphs" text-anchor="middle" opacity="0">3</text>
</g>
<g class="stroked-text"><desc>3</desc>
<path d="M59.372499999999995 29.153799999999997 L59.372499999999995 28.367600000000003 "/>
<path d="M59.372499999999995 28.367600000000003 L59.8563 28.790999999999997 "/>
<path d="M59.8563 28.790999999999997 L59.8563 28.609499999999997 "/>
<path d="M59.8563 28.609499999999997 L59.9168 28.488599999999998 "/>
<path d="M59.9168 28.488599999999998 L59.97730000000001 28.4281 "/>
<path d="M59.97730000000001 28.4281 L60.0982 28.367600000000003 "/>
<path d="M60.0982 28.367600000000003 L60.400600000000004 28.367600000000003 "/>
<path d="M60.400600000000004 28.367600000000003 L60.5216 28.4281 "/>
<path d="M60.5216 28.4281 L60.582100000000004 28.488599999999998 "/>
<path d="M60.582100000000004 28.488599999999998 L60.642500000000005 28.609499999999997 "/>
<path d="M60.642500000000005 28.609499999999997 L60.642500000000005 28.9724 "/>
<path d="M60.642500000000005 28.9724 L60.582100000000004 29.0933 "/>
<path d="M60.582100000000004 29.0933 L60.5216 29.153799999999997 "/>
</g></g>
<g style="fill:#009600; fill-opacity:1.0000;  stroke:#009600; stroke-width:0.1524; stroke-opacity:1;  stroke-linecap:round; stroke-linejoin:round;">
<circle cx="48.36000000000001" cy="23.650599999999997" r="0.4572"/> 
<circle cx="35.660000000000004" cy="18.5706" r="0.4572"/> 
<circle cx="55.98" cy="2.060600000000001" r="0.4572"/> 
<circle cx="10.260000000000005" cy="23.650599999999997" r="0.4572"/> 
<circle cx="10.260000000000005" cy="43.9706" r="0.4572"/> 
<circle cx="35.660000000000004" cy="43.9706" r="0.4572"/> 
<circle cx="19.15" cy="23.650599999999997" r="0.4572"/> 
</g> 
</svg>