<!DOCTYPE svg PUBLIC "-//W3C//DTD SVG 1.1//EN" "http://www.w3.org/Graphics/SVG/1.1/DTD/svg11.dtd">
<svg xmlns:svg="http://www.w3.org/2000/svg" xmlns="http://www.w3.org/2000/svg" xmlns:xlink="http://www.w3.org/1999/xlink" version="1.1" width="7.5mm" height="9.099999999999998mm" viewBox="0.0000 0.0000 7.5 9.099999999999998">
<title>SVG Image created as DRV8825.svg date 2024/09/11 07:50:56 </title>
  <desc>Image generated by PCBNEW </desc>
<g style="fill:#000000; fill-opacity:1.0000;stroke:#000000; stroke-opacity:1.0000; stroke-linecap:round; stroke-linejoin:round;" transform="translate(0 0) scale(1 1)">
<path style="fill:#000000; fill-opacity:1.0000; stroke:none;fill-rule:evenodd;" d="M 0.1,0.5499999999999998 0.1,0.10000000000000009 1.6,0.10000000000000009 1.6,0.5499999999999998 Z"/> 
<path style="fill:#000000; fill-opacity:1.0000; stroke:none;fill-rule:evenodd;" d="M 0.1,1.2000000000000002 0.1,0.75 1.6,0.75 1.6,1.2000000000000002 Z"/> 
<path style="fill:#000000; fill-opacity:1.0000; stroke:none;fill-rule:evenodd;" d="M 0.1,1.85 0.1,1.4 1.6,1.4 1.6,1.85 Z"/> 
<path style="fill:#000000; fill-opacity:1.0000; stroke:none;fill-rule:evenodd;" d="M 0.1,2.4999999999999996 0.1,2.0501 1.6,2.0501 1.6,2.4999999999999996 Z"/> 
<path style="fill:#000000; fill-opacity:1.0000; stroke:none;fill-rule:evenodd;" d="M 0.1,3.15 0.1,2.6999999999999997 1.6,2.6999999999999997 1.6,3.15 Z"/> 
<path style="fill:#000000; fill-opacity:1.0000; stroke:none;fill-rule:evenodd;" d="M 0.1,3.8000000000000003 0.1,3.35 1.6,3.35 1.6,3.8000000000000003 Z"/> 
<path style="fill:#000000; fill-opacity:1.0000; stroke:none;fill-rule:evenodd;" d="M 0.1,4.449999999999999 0.1,3.9999999999999996 1.6,3.9999999999999996 1.6,4.449999999999999 Z"/> 
<path style="fill:#000000; fill-opacity:1.0000; stroke:none;fill-rule:evenodd;" d="M 0.1,5.1 0.1,4.65 1.6,4.65 1.6,5.1 Z"/> 
<path style="fill:#000000; fill-opacity:1.0000; stroke:none;fill-rule:evenodd;" d="M 0.1,5.75 0.1,5.300000000000001 1.6,5.300000000000001 1.6,5.75 Z"/> 
<path style="fill:#000000; fill-opacity:1.0000; stroke:none;fill-rule:evenodd;" d="M 0.1,6.4 0.1,5.950000000000001 1.6,5.950000000000001 1.6,6.4 Z"/> 
<path style="fill:#000000; fill-opacity:1.0000; stroke:none;fill-rule:evenodd;" d="M 0.1,7.0501000000000005 0.1,6.6 1.6,6.6 1.6,7.0501000000000005 Z"/> 
<path style="fill:#000000; fill-opacity:1.0000; stroke:none;fill-rule:evenodd;" d="M 0.1,7.700000000000001 0.1,7.25 1.6,7.25 1.6,7.700000000000001 Z"/> 
<path style="fill:#000000; fill-opacity:1.0000; stroke:none;fill-rule:evenodd;" d="M 0.1,8.35 0.1,7.9 1.6,7.9 1.6,8.35 Z"/> 
<path style="fill:#000000; fill-opacity:1.0000; stroke:none;fill-rule:evenodd;" d="M 0.1,9.0 0.1,8.5501 1.6,8.5501 1.6,9.0 Z"/> 
<path style="fill:#000000; fill-opacity:1.0000; stroke:none;fill-rule:evenodd;" d="M 5.8999999999999995,9.0 5.8999999999999995,8.5501 7.3999999999999995,8.5501 7.3999999999999995,9.0 Z"/> 
<path style="fill:#000000; fill-opacity:1.0000; stroke:none;fill-rule:evenodd;" d="M 5.8999999999999995,8.35 5.8999999999999995,7.9 7.3999999999999995,7.9 7.3999999999999995,8.35 Z"/> 
<path style="fill:#000000; fill-opacity:1.0000; stroke:none;fill-rule:evenodd;" d="M 5.8999999999999995,7.700000000000001 5.8999999999999995,7.25 7.3999999999999995,7.25 7.3999999999999995,7.700000000000001 Z"/> 
<path style="fill:#000000; fill-opacity:1.0000; stroke:none;fill-rule:evenodd;" d="M 5.8999999999999995,7.0501000000000005 5.8999999999999995,6.6 7.3999999999999995,6.6 7.3999999999999995,7.0501000000000005 Z"/> 
<path style="fill:#000000; fill-opacity:1.0000; stroke:none;fill-rule:evenodd;" d="M 5.8999999999999995,6.4 5.8999999999999995,5.950000000000001 7.3999999999999995,5.950000000000001 7.3999999999999995,6.4 Z"/> 
<path style="fill:#000000; fill-opacity:1.0000; stroke:none;fill-rule:evenodd;" d="M 5.8999999999999995,5.75 5.8999999999999995,5.300000000000001 7.3999999999999995,5.300000000000001 7.3999999999999995,5.75 Z"/> 
<path style="fill:#000000; fill-opacity:1.0000; stroke:none;fill-rule:evenodd;" d="M 5.8999999999999995,5.1 5.8999999999999995,4.65 7.3999999999999995,4.65 7.3999999999999995,5.1 Z"/> 
<path style="fill:#000000; fill-opacity:1.0000; stroke:none;fill-rule:evenodd;" d="M 5.8999999999999995,4.449999999999999 5.8999999999999995,3.9999999999999996 7.3999999999999995,3.9999999999999996 7.3999999999999995,4.449999999999999 Z"/> 
<path style="fill:#000000; fill-opacity:1.0000; stroke:none;fill-rule:evenodd;" d="M 5.8999999999999995,3.8000000000000003 5.8999999999999995,3.35 7.3999999999999995,3.35 7.3999999999999995,3.8000000000000003 Z"/> 
<path style="fill:#000000; fill-opacity:1.0000; stroke:none;fill-rule:evenodd;" d="M 5.8999999999999995,3.15 5.8999999999999995,2.6999999999999997 7.3999999999999995,2.6999999999999997 7.3999999999999995,3.15 Z"/> 
<path style="fill:#000000; fill-opacity:1.0000; stroke:none;fill-rule:evenodd;" d="M 5.8999999999999995,2.4999999999999996 5.8999999999999995,2.0501 7.3999999999999995,2.0501 7.3999999999999995,2.4999999999999996 Z"/> 
<path style="fill:#000000; fill-opacity:1.0000; stroke:none;fill-rule:evenodd;" d="M 5.8999999999999995,1.85 5.8999999999999995,1.4 7.3999999999999995,1.4 7.3999999999999995,1.85 Z"/> 
<path style="fill:#000000; fill-opacity:1.0000; stroke:none;fill-rule:evenodd;" d="M 5.8999999999999995,1.2000000000000002 5.8999999999999995,0.75 7.3999999999999995,0.75 7.3999999999999995,1.2000000000000002 Z"/> 
<path style="fill:#000000; fill-opacity:1.0000; stroke:none;fill-rule:evenodd;" d="M 5.8999999999999995,0.5499999999999998 5.8999999999999995,0.10000000000000009 7.3999999999999995,0.10000000000000009 7.3999999999999995,0.5499999999999998 Z"/> 
</g>
<g style="fill:#000000; fill-opacity:1.0000; stroke:none;">
<circle cx="2.5500000000000003" cy="0.3500000000000001" r="0.2500"/> 
</g>
<g style="fill:#000000; fill-opacity:1.0000; stroke:none;">
<circle cx="2.5500000000000003" cy="1.5499999999999998" r="0.2500"/> 
</g>
<g style="fill:#000000; fill-opacity:1.0000; stroke:none;">
<circle cx="2.5500000000000003" cy="2.7499999999999996" r="0.2500"/> 
</g>
<g style="fill:#000000; fill-opacity:1.0000; stroke:none;">
<circle cx="2.5500000000000003" cy="3.9499999999999997" r="0.2500"/> 
</g>
<g style="fill:#000000; fill-opacity:1.0000; stroke:none;">
<circle cx="2.5500000000000003" cy="5.15" r="0.2500"/> 
</g>
<g style="fill:#000000; fill-opacity:1.0000; stroke:none;">
<circle cx="2.5500000000000003" cy="6.35" r="0.2500"/> 
</g>
<g style="fill:#000000; fill-opacity:1.0000; stroke:none;">
<circle cx="2.5500000000000003" cy="7.5501000000000005" r="0.2500"/> 
</g>
<g style="fill:#000000; fill-opacity:1.0000; stroke:none;">
<circle cx="2.5500000000000003" cy="8.75" r="0.2500"/> 
</g>
<g style="fill:#000000; fill-opacity:1.0000; stroke:none;">
<circle cx="3.75" cy="0.3500000000000001" r="0.2500"/> 
</g>
<g style="fill:#000000; fill-opacity:1.0000; stroke:none;">
<circle cx="3.75" cy="1.5499999999999998" r="0.2500"/> 
</g>
<g style="fill:#000000; fill-opacity:1.0000; stroke:none;">
<circle cx="3.75" cy="2.7499999999999996" r="0.2500"/> 
</g>
<g style="fill:#000000; fill-opacity:1.0000; stroke:none;">
<circle cx="3.75" cy="3.9499999999999997" r="0.2500"/> 
<path style="fill:#000000; fill-opacity:1.0000; stroke:none;fill-rule:evenodd;" d="M 2.2,7.1401 2.2,1.9600000000000004 5.3,1.9600000000000004 5.3,7.1401 Z"/> 
</g>
<g style="fill:#000000; fill-opacity:1.0000; stroke:none;">
<circle cx="3.75" cy="5.15" r="0.2500"/> 
</g>
<g style="fill:#000000; fill-opacity:1.0000; stroke:none;">
<circle cx="3.75" cy="6.35" r="0.2500"/> 
</g>
<g style="fill:#000000; fill-opacity:1.0000; stroke:none;">
<circle cx="3.75" cy="7.5501000000000005" r="0.2500"/> 
</g>
<g style="fill:#000000; fill-opacity:1.0000; stroke:none;">
<circle cx="3.75" cy="8.75" r="0.2500"/> 
</g>
<g style="fill:#000000; fill-opacity:1.0000; stroke:none;">
<circle cx="4.949999999999999" cy="0.3500000000000001" r="0.2500"/> 
</g>
<g style="fill:#000000; fill-opacity:1.0000; stroke:none;">
<circle cx="4.949999999999999" cy="1.5499999999999998" r="0.2500"/> 
</g>
<g style="fill:#000000; fill-opacity:1.0000; stroke:none;">
<circle cx="4.949999999999999" cy="2.7499999999999996" r="0.2500"/> 
</g>
<g style="fill:#000000; fill-opacity:1.0000; stroke:none;">
<circle cx="4.949999999999999" cy="3.9499999999999997" r="0.2500"/> 
</g>
<g style="fill:#000000; fill-opacity:1.0000; stroke:none;">
<circle cx="4.949999999999999" cy="5.15" r="0.2500"/> 
</g>
<g style="fill:#000000; fill-opacity:1.0000; stroke:none;">
<circle cx="4.949999999999999" cy="6.35" r="0.2500"/> 
</g>
<g style="fill:#000000; fill-opacity:1.0000; stroke:none;">
<circle cx="4.949999999999999" cy="7.5501000000000005" r="0.2500"/> 
</g>
<g style="fill:#000000; fill-opacity:1.0000; stroke:none;">
<circle cx="4.949999999999999" cy="8.75" r="0.2500"/> 
</g> 
</svg>