<!DOCTYPE svg PUBLIC "-//W3C//DTD SVG 1.1//EN" "http://www.w3.org/Graphics/SVG/1.1/DTD/svg11.dtd">
<svg xmlns:svg="http://www.w3.org/2000/svg" xmlns="http://www.w3.org/2000/svg" xmlns:xlink="http://www.w3.org/1999/xlink" version="1.1" width="19.2mm" height="24.650100000000002mm" viewBox="0.0000 0.0000 19.2 24.650100000000002">
<title>SVG Image created as ESP32-S2-WROOM.svg date 2024/09/05 15:25:22 </title>
  <desc>Image generated by PCBNEW </desc>
<g style="fill:#000000; fill-opacity:1.0000;stroke:#000000; stroke-opacity:1.0000; stroke-linecap:round; stroke-linejoin:round;" transform="translate(0 0) scale(1 1)">
<path style="fill:#000000; fill-opacity:1.0000; stroke:none;fill-rule:evenodd;" d="M 0.09999999999999998,0.9999999999999982 0.09999999999999998,0.09999999999999964 1.6,0.09999999999999964 1.6,0.9999999999999982 Z"/> 
<path style="fill:#000000; fill-opacity:1.0000; stroke:none;fill-rule:evenodd;" d="M 0.09999999999999998,2.4999999999999982 0.09999999999999998,1.5999999999999996 1.6,1.5999999999999996 1.6,2.4999999999999982 Z"/> 
<path style="fill:#000000; fill-opacity:1.0000; stroke:none;fill-rule:evenodd;" d="M 0.09999999999999998,3.9999999999999982 0.09999999999999998,3.0999999999999996 1.6,3.0999999999999996 1.6,3.9999999999999982 Z"/> 
<path style="fill:#000000; fill-opacity:1.0000; stroke:none;fill-rule:evenodd;" d="M 0.09999999999999998,5.499999999999998 0.09999999999999998,4.6 1.6,4.6 1.6,5.499999999999998 Z"/> 
<path style="fill:#000000; fill-opacity:1.0000; stroke:none;fill-rule:evenodd;" d="M 0.09999999999999998,7.000099999999998 0.09999999999999998,6.1 1.6,6.1 1.6,7.000099999999998 Z"/> 
<path style="fill:#000000; fill-opacity:1.0000; stroke:none;fill-rule:evenodd;" d="M 0.09999999999999998,8.500099999999998 0.09999999999999998,7.6 1.6,7.6 1.6,8.500099999999998 Z"/> 
<path style="fill:#000000; fill-opacity:1.0000; stroke:none;fill-rule:evenodd;" d="M 0.09999999999999998,10.000099999999998 0.09999999999999998,9.1 1.6,9.1 1.6,10.000099999999998 Z"/> 
<path style="fill:#000000; fill-opacity:1.0000; stroke:none;fill-rule:evenodd;" d="M 0.09999999999999998,11.499999999999998 0.09999999999999998,10.6 1.6,10.6 1.6,11.499999999999998 Z"/> 
<path style="fill:#000000; fill-opacity:1.0000; stroke:none;fill-rule:evenodd;" d="M 0.09999999999999998,12.999999999999998 0.09999999999999998,12.1 1.6,12.1 1.6,12.999999999999998 Z"/> 
<path style="fill:#000000; fill-opacity:1.0000; stroke:none;fill-rule:evenodd;" d="M 0.09999999999999998,14.499999999999998 0.09999999999999998,13.6 1.6,13.6 1.6,14.499999999999998 Z"/> 
<path style="fill:#000000; fill-opacity:1.0000; stroke:none;fill-rule:evenodd;" d="M 0.09999999999999998,15.999999999999998 0.09999999999999998,15.1 1.6,15.1 1.6,15.999999999999998 Z"/> 
<path style="fill:#000000; fill-opacity:1.0000; stroke:none;fill-rule:evenodd;" d="M 0.09999999999999998,17.5 0.09999999999999998,16.6 1.6,16.6 1.6,17.5 Z"/> 
<path style="fill:#000000; fill-opacity:1.0000; stroke:none;fill-rule:evenodd;" d="M 0.09999999999999998,19.0 0.09999999999999998,18.1 1.6,18.1 1.6,19.0 Z"/> 
<path style="fill:#000000; fill-opacity:1.0000; stroke:none;fill-rule:evenodd;" d="M 0.09999999999999998,20.5 0.09999999999999998,19.6 1.6,19.6 1.6,20.5 Z"/> 
<path style="fill:#000000; fill-opacity:1.0000; stroke:none;fill-rule:evenodd;" d="M 0.09999999999999998,22.0 0.09999999999999998,21.1 1.6,21.1 1.6,22.0 Z"/> 
<path style="fill:#000000; fill-opacity:1.0000; stroke:none;fill-rule:evenodd;" d="M 0.09999999999999998,23.5 0.09999999999999998,22.6 1.6,22.6 1.6,23.5 Z"/> 
<path style="fill:#000000; fill-opacity:1.0000; stroke:none;fill-rule:evenodd;" d="M 3.3,24.5501 2.4000000000000004,24.5501 2.4000000000000004,23.0501 3.3,23.0501 Z"/> 
<path style="fill:#000000; fill-opacity:1.0000; stroke:none;fill-rule:evenodd;" d="M 4.8,24.5501 3.9000000000000004,24.5501 3.9000000000000004,23.0501 4.8,23.0501 Z"/> 
<path style="fill:#000000; fill-opacity:1.0000; stroke:none;fill-rule:evenodd;" d="M 6.3,24.5501 5.4,24.5501 5.4,23.0501 6.3,23.0501 Z"/> 
<path style="fill:#000000; fill-opacity:1.0000; stroke:none;fill-rule:evenodd;" d="M 7.800000000000001,24.5501 6.9,24.5501 6.9,23.0501 7.800000000000001,23.0501 Z"/> 
<path style="fill:#000000; fill-opacity:1.0000; stroke:none;fill-rule:evenodd;" d="M 9.3,24.5501 8.4,24.5501 8.4,23.0501 9.3,23.0501 Z"/> 
<path style="fill:#000000; fill-opacity:1.0000; stroke:none;fill-rule:evenodd;" d="M 10.8,24.5501 9.9,24.5501 9.9,23.0501 10.8,23.0501 Z"/> 
<path style="fill:#000000; fill-opacity:1.0000; stroke:none;fill-rule:evenodd;" d="M 12.3,24.5501 11.4,24.5501 11.4,23.0501 12.3,23.0501 Z"/> 
<path style="fill:#000000; fill-opacity:1.0000; stroke:none;fill-rule:evenodd;" d="M 13.8,24.5501 12.9,24.5501 12.9,23.0501 13.8,23.0501 Z"/> 
<path style="fill:#000000; fill-opacity:1.0000; stroke:none;fill-rule:evenodd;" d="M 15.3,24.5501 14.4,24.5501 14.4,23.0501 15.3,23.0501 Z"/> 
<path style="fill:#000000; fill-opacity:1.0000; stroke:none;fill-rule:evenodd;" d="M 16.799999999999997,24.5501 15.9,24.5501 15.9,23.0501 16.799999999999997,23.0501 Z"/> 
<path style="fill:#000000; fill-opacity:1.0000; stroke:none;fill-rule:evenodd;" d="M 19.099999999999998,22.6 19.099999999999998,23.5 17.599999999999998,23.5 17.599999999999998,22.6 Z"/> 
<path style="fill:#000000; fill-opacity:1.0000; stroke:none;fill-rule:evenodd;" d="M 19.099999999999998,21.1 19.099999999999998,22.0 17.599999999999998,22.0 17.599999999999998,21.1 Z"/> 
<path style="fill:#000000; fill-opacity:1.0000; stroke:none;fill-rule:evenodd;" d="M 19.099999999999998,19.6 19.099999999999998,20.5 17.599999999999998,20.5 17.599999999999998,19.6 Z"/> 
<path style="fill:#000000; fill-opacity:1.0000; stroke:none;fill-rule:evenodd;" d="M 19.099999999999998,18.1 19.099999999999998,19.0 17.599999999999998,19.0 17.599999999999998,18.1 Z"/> 
<path style="fill:#000000; fill-opacity:1.0000; stroke:none;fill-rule:evenodd;" d="M 19.099999999999998,16.6 19.099999999999998,17.5 17.599999999999998,17.5 17.599999999999998,16.6 Z"/> 
<path style="fill:#000000; fill-opacity:1.0000; stroke:none;fill-rule:evenodd;" d="M 19.099999999999998,15.1 19.099999999999998,15.999999999999998 17.599999999999998,15.999999999999998 17.599999999999998,15.1 Z"/> 
<path style="fill:#000000; fill-opacity:1.0000; stroke:none;fill-rule:evenodd;" d="M 19.099999999999998,13.6 19.099999999999998,14.499999999999998 17.599999999999998,14.499999999999998 17.599999999999998,13.6 Z"/> 
<path style="fill:#000000; fill-opacity:1.0000; stroke:none;fill-rule:evenodd;" d="M 19.099999999999998,12.1 19.099999999999998,12.999999999999998 17.599999999999998,12.999999999999998 17.599999999999998,12.1 Z"/> 
<path style="fill:#000000; fill-opacity:1.0000; stroke:none;fill-rule:evenodd;" d="M 19.099999999999998,10.6 19.099999999999998,11.499999999999998 17.599999999999998,11.499999999999998 17.599999999999998,10.6 Z"/> 
<path style="fill:#000000; fill-opacity:1.0000; stroke:none;fill-rule:evenodd;" d="M 19.099999999999998,9.1 19.099999999999998,10.000099999999998 17.599999999999998,10.000099999999998 17.599999999999998,9.1 Z"/> 
<path style="fill:#000000; fill-opacity:1.0000; stroke:none;fill-rule:evenodd;" d="M 19.099999999999998,7.6 19.099999999999998,8.500099999999998 17.599999999999998,8.500099999999998 17.599999999999998,7.6 Z"/> 
<path style="fill:#000000; fill-opacity:1.0000; stroke:none;fill-rule:evenodd;" d="M 19.099999999999998,6.1 19.099999999999998,7.000099999999998 17.599999999999998,7.000099999999998 17.599999999999998,6.1 Z"/> 
<path style="fill:#000000; fill-opacity:1.0000; stroke:none;fill-rule:evenodd;" d="M 19.099999999999998,4.6 19.099999999999998,5.499999999999998 17.599999999999998,5.499999999999998 17.599999999999998,4.6 Z"/> 
<path style="fill:#000000; fill-opacity:1.0000; stroke:none;fill-rule:evenodd;" d="M 19.099999999999998,3.0999999999999996 19.099999999999998,3.9999999999999982 17.599999999999998,3.9999999999999982 17.599999999999998,3.0999999999999996 Z"/> 
<path style="fill:#000000; fill-opacity:1.0000; stroke:none;fill-rule:evenodd;" d="M 19.099999999999998,1.5999999999999996 19.099999999999998,2.4999999999999982 17.599999999999998,2.4999999999999982 17.599999999999998,1.5999999999999996 Z"/> 
<path style="fill:#000000; fill-opacity:1.0000; stroke:none;fill-rule:evenodd;" d="M 19.099999999999998,0.09999999999999964 19.099999999999998,0.9999999999999982 17.599999999999998,0.9999999999999982 17.599999999999998,0.09999999999999964 Z"/> 
<path style="fill:#000000; fill-opacity:1.0000; stroke:none;fill-rule:evenodd;" d="M 7.46,6.549999999999999 7.46,7.65 6.36,7.65 6.36,6.549999999999999 Z"/> 
<path style="fill:#000000; fill-opacity:1.0000; stroke:none;fill-rule:evenodd;" d="M 7.46,8.049999999999999 7.46,9.15 6.36,9.15 6.36,8.049999999999999 Z"/> 
<path style="fill:#000000; fill-opacity:1.0000; stroke:none;fill-rule:evenodd;" d="M 7.46,9.549999999999999 7.46,10.65 6.36,10.65 6.36,9.549999999999999 Z"/> 
<path style="fill:#000000; fill-opacity:1.0000; stroke:none;fill-rule:evenodd;" d="M 8.96,6.549999999999999 8.96,7.65 7.859999999999999,7.65 7.859999999999999,6.549999999999999 Z"/> 
<path style="fill:#000000; fill-opacity:1.0000; stroke:none;fill-rule:evenodd;" d="M 8.96,8.049999999999999 8.96,9.15 7.859999999999999,9.15 7.859999999999999,8.049999999999999 Z"/> 
<path style="fill:#000000; fill-opacity:1.0000; stroke:none;fill-rule:evenodd;" d="M 8.96,9.549999999999999 8.96,10.65 7.859999999999999,10.65 7.859999999999999,9.549999999999999 Z"/> 
<path style="fill:#000000; fill-opacity:1.0000; stroke:none;fill-rule:evenodd;" d="M 10.46,6.549999999999999 10.46,7.65 9.36,7.65 9.36,6.549999999999999 Z"/> 
<path style="fill:#000000; fill-opacity:1.0000; stroke:none;fill-rule:evenodd;" d="M 10.46,8.049999999999999 10.46,9.15 9.36,9.15 9.36,8.049999999999999 Z"/> 
<path style="fill:#000000; fill-opacity:1.0000; stroke:none;fill-rule:evenodd;" d="M 10.46,9.549999999999999 10.46,10.65 9.36,10.65 9.36,9.549999999999999 Z"/> 
</g> 
</svg>