M48
; DRILL file {KiCad 8.0.3} date 2024-09-10T12:04:55-0500
; FORMAT={-:-/ absolute / metric / decimal}
; #@! TF.CreationDate,2024-09-10T12:04:55-05:00
; #@! TF.GenerationSoftware,Kicad,Pcbnew,8.0.3
; #@! TF.FileFunction,MixedPlating,1,2
FMAT,2
METRIC
; #@! TA.AperFunction,Plated,PTH,ViaDrill
T1C0.300
; #@! TA.AperFunction,Plated,PTH,ComponentDrill
T2C0.450
; #@! TA.AperFunction,Plated,PTH,ComponentDrill
T3C1.000
; #@! TA.AperFunction,Plated,PTH,ComponentDrill
T4C1.100
%
G90
G05
T1
X132.537Y-53.731
X132.537Y-81.731
X133.148Y-83.231
X133.887Y-80.52
X134.537Y-83.231
X135.537Y-84.231
X136.537Y-66.231
X136.537Y-72.231
X137.537Y-58.231
X137.537Y-61.231
X137.537Y-82.231
X137.537Y-88.231
X138.214Y-78.031
X138.537Y-75.231
X138.537Y-84.231
X139.537Y-81.231
X140.537Y-111.231
X142.537Y-57.231
X142.537Y-62.231
X142.537Y-81.231
X142.537Y-107.231
X143.537Y-80.231
X143.537Y-83.231
X144.058Y-72.751
X144.537Y-75.231
X144.537Y-86.306
X144.537Y-89.731
X145.537Y-76.231
X146.537Y-60.231
X146.537Y-74.231
X146.537Y-87.231
X146.563Y-82.257
X147.537Y-60.231
X147.537Y-69.231
X147.537Y-76.961
X147.537Y-80.221
X147.537Y-81.521
X147.537Y-89.231
X147.537Y-102.231
X147.537Y-105.231
X147.537Y-110.231
X148.537Y-113.231
X149.537Y-67.231
X149.537Y-81.521
X150.537Y-81.521
X150.537Y-102.231
X150.998Y-109.231
X151.537Y-60.231
X151.537Y-65.231
X151.537Y-71.231
X151.537Y-77.231
X151.537Y-89.231
X151.537Y-102.231
X152.537Y-73.231
X152.537Y-77.231
X152.537Y-102.231
X152.537Y-110.231
X152.537Y-111.231
X153.537Y-72.231
X153.537Y-75.231
X153.537Y-77.231
X153.537Y-87.231
X153.537Y-102.231
X154.537Y-57.231
X154.537Y-71.231
X154.537Y-108.231
X155.537Y-59.231
X155.537Y-60.231
X155.537Y-67.231
X155.537Y-69.231
X155.537Y-70.231
X155.537Y-102.231
X155.537Y-107.231
X156.537Y-98.231
X156.537Y-100.231
X156.537Y-111.231
X158.537Y-67.231
X158.537Y-76.231
X158.537Y-88.231
X158.592Y-79.286
X159.537Y-63.381
X159.537Y-66.231
X159.537Y-85.231
X159.537Y-95.231
X160.348Y-61.042
X160.537Y-63.231
X160.537Y-64.231
X160.537Y-103.231
X160.537Y-108.231
X160.537Y-110.231
X161.537Y-62.231
X161.537Y-110.231
X162.537Y-72.231
T3
X134.537Y-56.231
X134.537Y-58.771
X134.537Y-61.311
X134.537Y-63.851
X134.537Y-66.391
X134.537Y-68.931
X134.537Y-71.471
X134.537Y-74.011
X134.537Y-76.551
X134.537Y-79.091
X134.998Y-97.231
X134.998Y-99.771
X134.998Y-102.311
X134.998Y-104.851
X137.537Y-97.231
X137.537Y-99.771
X137.537Y-102.311
X137.537Y-104.851
X141.998Y-97.231
X141.998Y-99.771
X141.998Y-102.311
X141.998Y-104.851
X144.537Y-97.231
X144.537Y-99.771
X144.537Y-102.311
X144.537Y-104.851
X148.537Y-91.691
X148.537Y-94.231
X151.537Y-113.231
X154.077Y-113.231
X162.537Y-57.231
X162.537Y-59.771
X162.537Y-62.311
X162.537Y-64.851
X162.537Y-67.391
X162.537Y-69.931
X162.537Y-75.611
X162.537Y-78.151
X162.537Y-80.691
X162.537Y-83.231
T4
X138.457Y-93.231
X140.998Y-93.231
X143.537Y-93.231
T2
X157.088Y-115.631G85X157.088Y-114.831
G05
X164.237Y-114.831G85X164.237Y-115.631
G05
M30
