<!DOCTYPE svg PUBLIC "-//W3C//DTD SVG 1.1//EN" "http://www.w3.org/Graphics/SVG/1.1/DTD/svg11.dtd">
<svg xmlns:svg="http://www.w3.org/2000/svg" xmlns="http://www.w3.org/2000/svg" xmlns:xlink="http://www.w3.org/1999/xlink" version="1.1" width="10.099999999999998mm" height="3.5mm" viewBox="0.0000 0.0000 10.099999999999998 3.5">
<title>SVG Image created as FPC_16_0.5MM.svg date 2024/09/04 12:07:52 </title>
  <desc>Image generated by PCBNEW </desc>
<g style="fill:#000000; fill-opacity:1.0000;stroke:#000000; stroke-opacity:1.0000; stroke-linecap:round; stroke-linejoin:round;" transform="translate(0 0) scale(1 1)">
<path style="fill:#000000; fill-opacity:1.0000; stroke:none;fill-rule:evenodd;" d="M 1.15,0.15080000000000002 1.1539,0.1314 1.1649,0.11490000000000003 1.1814,0.10390000000000002 1.2008,0.1 1.3992,0.1 1.4186,0.10390000000000002 1.4351,0.11490000000000003 1.4461,0.1314 1.45,0.15080000000000002 1.45,0.8492000000000001 1.4461,0.8686000000000001 1.4351,0.8851000000000001 1.4186,0.8961 1.3992,0.9 1.2008,0.9 1.1814,0.8961 1.1649,0.8851000000000001 1.1539,0.8686000000000001 1.15,0.8492000000000001 Z"/> 
<path style="fill:#000000; fill-opacity:1.0000; stroke:none;fill-rule:evenodd;" d="M 1.65,0.15080000000000002 1.6539,0.1314 1.6649,0.11490000000000003 1.6814,0.10390000000000002 1.7008,0.1 1.8992,0.1 1.9186,0.10390000000000002 1.9351,0.11490000000000003 1.9461,0.1314 1.95,0.15080000000000002 1.95,0.8492000000000001 1.9461,0.8686000000000001 1.9351,0.8851000000000001 1.9186,0.8961 1.8992,0.9 1.7008,0.9 1.6814,0.8961 1.6649,0.8851000000000001 1.6539,0.8686000000000001 1.65,0.8492000000000001 Z"/> 
<path style="fill:#000000; fill-opacity:1.0000; stroke:none;fill-rule:evenodd;" d="M 2.1500000000000004,0.15080000000000002 2.1539,0.1314 2.1649000000000003,0.11490000000000003 2.1814,0.10390000000000002 2.2008,0.1 2.3991999999999996,0.1 2.4185999999999996,0.10390000000000002 2.4351000000000003,0.11490000000000003 2.4461000000000004,0.1314 2.45,0.15080000000000002 2.45,0.8492000000000001 2.4461000000000004,0.8686000000000001 2.4351000000000003,0.8851000000000001 2.4185999999999996,0.8961 2.3991999999999996,0.9 2.2008,0.9 2.1814,0.8961 2.1649000000000003,0.8851000000000001 2.1539,0.8686000000000001 2.1500000000000004,0.8492000000000001 Z"/> 
<path style="fill:#000000; fill-opacity:1.0000; stroke:none;fill-rule:evenodd;" d="M 2.6500000000000004,0.15080000000000002 2.6539,0.1314 2.6649000000000003,0.11490000000000003 2.6814,0.10390000000000002 2.7008,0.1 2.8991999999999996,0.1 2.9185999999999996,0.10390000000000002 2.9351000000000003,0.11490000000000003 2.9461000000000004,0.1314 2.95,0.15080000000000002 2.95,0.8492000000000001 2.9461000000000004,0.8686000000000001 2.9351000000000003,0.8851000000000001 2.9185999999999996,0.8961 2.8991999999999996,0.9 2.7008,0.9 2.6814,0.8961 2.6649000000000003,0.8851000000000001 2.6539,0.8686000000000001 2.6500000000000004,0.8492000000000001 Z"/> 
<path style="fill:#000000; fill-opacity:1.0000; stroke:none;fill-rule:evenodd;" d="M 3.1500000000000004,0.15080000000000002 3.1539,0.1314 3.1649000000000003,0.11490000000000003 3.1814,0.10390000000000002 3.2008,0.1 3.3991999999999996,0.1 3.4185999999999996,0.10390000000000002 3.4351000000000003,0.11490000000000003 3.4461000000000004,0.1314 3.45,0.15080000000000002 3.45,0.8492000000000001 3.4461000000000004,0.8686000000000001 3.4351000000000003,0.8851000000000001 3.4185999999999996,0.8961 3.3991999999999996,0.9 3.2008,0.9 3.1814,0.8961 3.1649000000000003,0.8851000000000001 3.1539,0.8686000000000001 3.1500000000000004,0.8492000000000001 Z"/> 
<path style="fill:#000000; fill-opacity:1.0000; stroke:none;fill-rule:evenodd;" d="M 3.6500000000000004,0.15080000000000002 3.6539,0.1314 3.6649000000000003,0.11490000000000003 3.6814,0.10390000000000002 3.7008,0.1 3.8991999999999996,0.1 3.9185999999999996,0.10390000000000002 3.9351000000000003,0.11490000000000003 3.9461000000000004,0.1314 3.95,0.15080000000000002 3.95,0.8492000000000001 3.9461000000000004,0.8686000000000001 3.9351000000000003,0.8851000000000001 3.9185999999999996,0.8961 3.8991999999999996,0.9 3.7008,0.9 3.6814,0.8961 3.6649000000000003,0.8851000000000001 3.6539,0.8686000000000001 3.6500000000000004,0.8492000000000001 Z"/> 
<path style="fill:#000000; fill-opacity:1.0000; stroke:none;fill-rule:evenodd;" d="M 4.1499999999999995,0.15080000000000002 4.1539,0.1314 4.164899999999999,0.11490000000000003 4.1814,0.10390000000000002 4.2008,0.1 4.3991999999999996,0.1 4.4186,0.10390000000000002 4.435099999999999,0.11490000000000003 4.4460999999999995,0.1314 4.45,0.15080000000000002 4.45,0.8492000000000001 4.4460999999999995,0.8686000000000001 4.435099999999999,0.8851000000000001 4.4186,0.8961 4.3991999999999996,0.9 4.2008,0.9 4.1814,0.8961 4.164899999999999,0.8851000000000001 4.1539,0.8686000000000001 4.1499999999999995,0.8492000000000001 Z"/> 
<path style="fill:#000000; fill-opacity:1.0000; stroke:none;fill-rule:evenodd;" d="M 4.6499999999999995,0.15080000000000002 4.6539,0.1314 4.664899999999999,0.11490000000000003 4.6814,0.10390000000000002 4.7008,0.1 4.8991999999999996,0.1 4.9186,0.10390000000000002 4.935099999999999,0.11490000000000003 4.9460999999999995,0.1314 4.95,0.15080000000000002 4.95,0.8492000000000001 4.9460999999999995,0.8686000000000001 4.935099999999999,0.8851000000000001 4.9186,0.8961 4.8991999999999996,0.9 4.7008,0.9 4.6814,0.8961 4.664899999999999,0.8851000000000001 4.6539,0.8686000000000001 4.6499999999999995,0.8492000000000001 Z"/> 
<path style="fill:#000000; fill-opacity:1.0000; stroke:none;fill-rule:evenodd;" d="M 5.1499999999999995,0.15080000000000002 5.1539,0.1314 5.164899999999999,0.11490000000000003 5.1814,0.10390000000000002 5.2008,0.1 5.3991999999999996,0.1 5.4186,0.10390000000000002 5.435099999999999,0.11490000000000003 5.4460999999999995,0.1314 5.45,0.15080000000000002 5.45,0.8492000000000001 5.4460999999999995,0.8686000000000001 5.435099999999999,0.8851000000000001 5.4186,0.8961 5.3991999999999996,0.9 5.2008,0.9 5.1814,0.8961 5.164899999999999,0.8851000000000001 5.1539,0.8686000000000001 5.1499999999999995,0.8492000000000001 Z"/> 
<path style="fill:#000000; fill-opacity:1.0000; stroke:none;fill-rule:evenodd;" d="M 5.6499999999999995,0.15080000000000002 5.6539,0.1314 5.664899999999999,0.11490000000000003 5.6814,0.10390000000000002 5.7008,0.1 5.8991999999999996,0.1 5.9186,0.10390000000000002 5.935099999999999,0.11490000000000003 5.9460999999999995,0.1314 5.95,0.15080000000000002 5.95,0.8492000000000001 5.9460999999999995,0.8686000000000001 5.935099999999999,0.8851000000000001 5.9186,0.8961 5.8991999999999996,0.9 5.7008,0.9 5.6814,0.8961 5.664899999999999,0.8851000000000001 5.6539,0.8686000000000001 5.6499999999999995,0.8492000000000001 Z"/> 
<path style="fill:#000000; fill-opacity:1.0000; stroke:none;fill-rule:evenodd;" d="M 6.1499999999999995,0.15080000000000002 6.1539,0.1314 6.164899999999999,0.11490000000000003 6.1814,0.10390000000000002 6.2008,0.1 6.3991999999999996,0.1 6.4186,0.10390000000000002 6.435099999999999,0.11490000000000003 6.4460999999999995,0.1314 6.45,0.15080000000000002 6.45,0.8492000000000001 6.4460999999999995,0.8686000000000001 6.435099999999999,0.8851000000000001 6.4186,0.8961 6.3991999999999996,0.9 6.2008,0.9 6.1814,0.8961 6.164899999999999,0.8851000000000001 6.1539,0.8686000000000001 6.1499999999999995,0.8492000000000001 Z"/> 
<path style="fill:#000000; fill-opacity:1.0000; stroke:none;fill-rule:evenodd;" d="M 6.6499999999999995,0.15080000000000002 6.6539,0.1314 6.664899999999999,0.11490000000000003 6.6814,0.10390000000000002 6.7008,0.1 6.8991999999999996,0.1 6.9186,0.10390000000000002 6.935099999999999,0.11490000000000003 6.9460999999999995,0.1314 6.95,0.15080000000000002 6.95,0.8492000000000001 6.9460999999999995,0.8686000000000001 6.935099999999999,0.8851000000000001 6.9186,0.8961 6.8991999999999996,0.9 6.7008,0.9 6.6814,0.8961 6.664899999999999,0.8851000000000001 6.6539,0.8686000000000001 6.6499999999999995,0.8492000000000001 Z"/> 
<path style="fill:#000000; fill-opacity:1.0000; stroke:none;fill-rule:evenodd;" d="M 7.1499999999999995,0.15080000000000002 7.1539,0.1314 7.164899999999999,0.11490000000000003 7.1814,0.10390000000000002 7.2008,0.1 7.3991999999999996,0.1 7.4186,0.10390000000000002 7.435099999999999,0.11490000000000003 7.4460999999999995,0.1314 7.45,0.15080000000000002 7.45,0.8492000000000001 7.4460999999999995,0.8686000000000001 7.435099999999999,0.8851000000000001 7.4186,0.8961 7.3991999999999996,0.9 7.2008,0.9 7.1814,0.8961 7.164899999999999,0.8851000000000001 7.1539,0.8686000000000001 7.1499999999999995,0.8492000000000001 Z"/> 
<path style="fill:#000000; fill-opacity:1.0000; stroke:none;fill-rule:evenodd;" d="M 7.6499999999999995,0.15080000000000002 7.6539,0.1314 7.664899999999999,0.11490000000000003 7.6814,0.10390000000000002 7.7008,0.1 7.8991999999999996,0.1 7.9186,0.10390000000000002 7.935099999999999,0.11490000000000003 7.9460999999999995,0.1314 7.95,0.15080000000000002 7.95,0.8492000000000001 7.9460999999999995,0.8686000000000001 7.935099999999999,0.8851000000000001 7.9186,0.8961 7.8991999999999996,0.9 7.7008,0.9 7.6814,0.8961 7.664899999999999,0.8851000000000001 7.6539,0.8686000000000001 7.6499999999999995,0.8492000000000001 Z"/> 
<path style="fill:#000000; fill-opacity:1.0000; stroke:none;fill-rule:evenodd;" d="M 8.15,0.15080000000000002 8.1539,0.1314 8.164900000000001,0.11490000000000003 8.1814,0.10390000000000002 8.200800000000001,0.1 8.3992,0.1 8.418600000000001,0.10390000000000002 8.4351,0.11490000000000003 8.446100000000001,0.1314 8.450000000000001,0.15080000000000002 8.450000000000001,0.8492000000000001 8.446100000000001,0.8686000000000001 8.4351,0.8851000000000001 8.418600000000001,0.8961 8.3992,0.9 8.200800000000001,0.9 8.1814,0.8961 8.164900000000001,0.8851000000000001 8.1539,0.8686000000000001 8.15,0.8492000000000001 Z"/> 
<path style="fill:#000000; fill-opacity:1.0000; stroke:none;fill-rule:evenodd;" d="M 8.65,0.15080000000000002 8.6539,0.1314 8.664900000000001,0.11490000000000003 8.6814,0.10390000000000002 8.700800000000001,0.1 8.8992,0.1 8.918600000000001,0.10390000000000002 8.9351,0.11490000000000003 8.946100000000001,0.1314 8.950000000000001,0.15080000000000002 8.950000000000001,0.8492000000000001 8.946100000000001,0.8686000000000001 8.9351,0.8851000000000001 8.918600000000001,0.8961 8.8992,0.9 8.700800000000001,0.9 8.6814,0.8961 8.664900000000001,0.8851000000000001 8.6539,0.8686000000000001 8.65,0.8492000000000001 Z"/> 
<path style="fill:#000000; fill-opacity:1.0000; stroke:none;fill-rule:evenodd;" d="M 0.1,2.6508 0.10389999999999999,2.6313999999999997 0.1149,2.6149 0.1314,2.6039 0.1508,2.6 0.4492,2.6 0.4686,2.6039 0.4851,2.6149 0.4961,2.6313999999999997 0.5,2.6508 0.5,3.3491999999999997 0.4961,3.3686 0.4851,3.3851 0.4686,3.3961 0.4492,3.4 0.1508,3.4 0.1314,3.3961 0.1149,3.3851 0.10389999999999999,3.3686 0.1,3.3491999999999997 Z"/> 
<path style="fill:#000000; fill-opacity:1.0000; stroke:none;fill-rule:evenodd;" d="M 9.600000000000001,2.6508 9.603900000000001,2.6313999999999997 9.6149,2.6149 9.631400000000001,2.6039 9.6508,2.6 9.949200000000001,2.6 9.9686,2.6039 9.985100000000001,2.6149 9.9961,2.6313999999999997 10.0,2.6508 10.0,3.3491999999999997 9.9961,3.3686 9.985100000000001,3.3851 9.9686,3.3961 9.949200000000001,3.4 9.6508,3.4 9.631400000000001,3.3961 9.6149,3.3851 9.603900000000001,3.3686 9.600000000000001,3.3491999999999997 Z"/> 
</g> 
</svg>