M48
; DRILL file {KiCad (7.0.0-0)} date Friday, June 14, 2024 at 02:09:16 PM
; FORMAT={-:-/ absolute / inch / decimal}
; #@! TF.CreationDate,2024-06-14T14:09:16-05:00
; #@! TF.GenerationSoftware,Kicad,Pcbnew,(7.0.0-0)
; #@! TF.FileFunction,MixedPlating,1,2
FMAT,2
INCH
; #@! TA.AperFunction,Plated,PTH,ViaDrill
T1C0.0130
; #@! TA.AperFunction,Plated,PTH,ViaDrill
T2C0.0157
; #@! TA.AperFunction,Plated,PTH,ComponentDrill
T3C0.0157
; #@! TA.AperFunction,Plated,PTH,ComponentDrill
T4C0.0236
; #@! TA.AperFunction,Plated,PTH,ComponentDrill
T5C0.0394
; #@! TA.AperFunction,NonPlated,NPTH,ComponentDrill
T6C0.0354
; #@! TA.AperFunction,NonPlated,NPTH,ComponentDrill
T7C0.0390
; #@! TA.AperFunction,NonPlated,NPTH,ComponentDrill
T8C0.0935
%
G90
G05
T1
X4.005Y-3.48
X4.005Y-3.655
X4.08Y-3.74
X4.16Y-3.82
X4.32Y-3.88
X4.36Y-3.66
X4.39Y-4.27
X4.42Y-4.66
X4.42Y-4.8
X4.44Y-3.84
X4.46Y-3.64
X4.52Y-3.52
X4.54Y-4.18
X4.54Y-4.74
X4.5697Y-3.94
X4.5701Y-3.9973
X4.58Y-3.82
X4.5945Y-4.2008
X4.62Y-3.58
X4.6417Y-4.2008
X4.695Y-3.295
X4.7Y-4.375
X4.7091Y-4.5841
X4.7362Y-3.4803
X4.8419Y-4.2
X4.875Y-3.725
X4.875Y-4.375
X4.8751Y-3.5275
X4.88Y-4.66
X4.9Y-3.46
X4.9Y-4.22
X4.9Y-4.72
X4.92Y-3.7
X4.94Y-4.66
X4.95Y-3.675
X4.98Y-3.7
X4.98Y-3.76
X4.98Y-4.51
X5.0118Y-3.8368
X5.02Y-3.24
X5.075Y-4.175
X5.1Y-5.0
X5.12Y-4.7365
X5.12Y-4.8
X5.14Y-3.54
X5.15Y-3.45
X5.16Y-4.68
X5.22Y-3.6
X5.225Y-3.55
X5.225Y-3.85
X5.24Y-4.8
X5.36Y-4.7835
X5.38Y-4.96
X5.525Y-4.025
X5.54Y-4.4
X5.58Y-4.98
T2
X4.59Y-4.29
X4.7Y-3.88
X4.76Y-3.88
X4.76Y-3.97
X4.76Y-4.05
X4.83Y-3.88
X4.83Y-3.97
X4.83Y-4.05
X5.0118Y-4.0
T3
X4.6631Y-3.36
X4.6631Y-3.4131
X4.6965Y-3.36
X4.6965Y-3.4131
X4.73Y-3.36
X4.73Y-3.4131
X4.7635Y-3.36
X4.7635Y-3.4131
X4.7969Y-3.36
X4.7969Y-3.4131
X4.8304Y-3.36
X4.8304Y-3.4131
X4.8639Y-3.36
X4.8639Y-3.4131
X4.8973Y-3.36
X4.8973Y-3.4131
T5
X4.64Y-4.88
X4.74Y-4.88
X4.84Y-4.88
X4.94Y-4.88
T6
X5.5979Y-3.3516
X5.5979Y-3.4697
T7
X4.1Y-4.7
X4.3Y-4.66
X4.3Y-4.74
X5.32Y-4.86
X5.52Y-4.82
X5.52Y-4.9
T8
X4.1Y-4.6
X4.1Y-4.8
X4.225Y-4.6
X4.225Y-4.8
T4
X4.6099Y-3.2572G85X4.6099Y-3.2257
G05
X4.6099Y-3.4041G85X4.6099Y-3.345
G05
X4.9505Y-3.2572G85X4.9505Y-3.2257
G05
X4.9505Y-3.4041G85X4.9505Y-3.345
G05
T0
M30
