<!DOCTYPE svg PUBLIC "-//W3C//DTD SVG 1.1//EN" "http://www.w3.org/Graphics/SVG/1.1/DTD/svg11.dtd">
<svg xmlns:svg="http://www.w3.org/2000/svg" xmlns="http://www.w3.org/2000/svg" xmlns:xlink="http://www.w3.org/1999/xlink" version="1.1" width="8.582mm" height="6.550000000000001mm" viewBox="0.0000 0.0000 8.582 6.550000000000001">
<title>SVG Image created as led.svg date 2024/08/23 09:06:01 </title>
  <desc>Image generated by Eeschema-SVG </desc>
<g style="fill:#000000; fill-opacity:1.0000;stroke:#000000; stroke-opacity:1.0000; stroke-linecap:round; stroke-linejoin:round;" transform="translate(0 0) scale(1 1)">
<path style="fill:none;  stroke:#840000; stroke-width:0.2540; stroke-opacity:1;  stroke-linecap:round; stroke-linejoin:round;fill:none" d="M 3.402,4.6007 3.402,2.0607 "/> 
<path style="fill:none;  stroke:#840000; stroke-width:0.1524; stroke-opacity:1;  stroke-linecap:round; stroke-linejoin:round;fill:none" d="M 3.402,3.3306999999999998 5.941999999999999,3.3306999999999998 "/> 
<path style="fill:none;  stroke:#840000; stroke-width:0.2540; stroke-opacity:1;  stroke-linecap:round; stroke-linejoin:round;fill:none" d="M 5.941999999999999,4.6007 5.941999999999999,2.0607 3.402,3.3306999999999998 Z"/> 
<path style="fill:none;  stroke:#840000; stroke-width:0.1524; stroke-opacity:1;  stroke-linecap:round; stroke-linejoin:round;fill:none" d="M 1.6239999999999997,4.0927 0.09999999999999964,5.6167 0.8620000000000001,5.6167 0.09999999999999964,5.6167 0.09999999999999964,4.854699999999999 "/> 
<path style="fill:none;  stroke:#840000; stroke-width:0.1524; stroke-opacity:1;  stroke-linecap:round; stroke-linejoin:round;fill:none" d="M 2.8939999999999992,4.0927 1.37,5.6167 2.1320000000000006,5.6167 1.37,5.6167 1.37,4.854699999999999 "/> 
</g>
<g style="fill:none;  stroke:#840000; stroke-width:0.1524; stroke-opacity:1;  stroke-linecap:round; stroke-linejoin:round;">
<path d="M3.402 3.3306999999999998 L0.8620000000000001 3.3306999999999998 "/>
<path d="M5.941999999999999 3.3306999999999998 L8.482 3.3306999999999998 "/>
</g>
<g style="fill:none;  stroke:#006464; stroke-width:0.1588; stroke-opacity:1;  stroke-linecap:round; stroke-linejoin:round;">
<text x="11.7729" y="2.3750" textLength="2.5810" font-size="1.6933" lengthAdjust="spacingAndGlyphs" text-anchor="middle" opacity="0">D?</text>
<g class="stroked-text"><desc>D?</desc>
<path d="M3.794999999999999 1.37 L3.794999999999999 0.09999999999999998 "/>
<path d="M3.794999999999999 0.09999999999999998 L4.0973999999999995 0.09999999999999998 "/>
<path d="M4.0973999999999995 0.09999999999999998 L4.2787999999999995 0.16049999999999998 "/>
<path d="M4.2787999999999995 0.16049999999999998 L4.3998 0.2815 "/>
<path d="M4.3998 0.2815 L4.460299999999999 0.4024 "/>
<path d="M4.460299999999999 0.4024 L4.520700000000001 0.6443 "/>
<path d="M4.520700000000001 0.6443 L4.520700000000001 0.8257 "/>
<path d="M4.520700000000001 0.8257 L4.460299999999999 1.0676 "/>
<path d="M4.460299999999999 1.0676 L4.3998 1.1886 "/>
<path d="M4.3998 1.1886 L4.2787999999999995 1.3096 "/>
<path d="M4.2787999999999995 1.3096 L4.0973999999999995 1.37 "/>
<path d="M4.0973999999999995 1.37 L3.794999999999999 1.37 "/>
<path d="M5.2465 1.2491000000000003 L5.3069 1.3096 "/>
<path d="M5.3069 1.3096 L5.2465 1.37 "/>
<path d="M5.2465 1.37 L5.185999999999999 1.3096 "/>
<path d="M5.185999999999999 1.3096 L5.2465 1.2491000000000003 "/>
<path d="M5.2465 1.2491000000000003 L5.2465 1.37 "/>
<path d="M5.004599999999999 0.16049999999999998 L5.1255 0.09999999999999998 "/>
<path d="M5.1255 0.09999999999999998 L5.4279 0.09999999999999998 "/>
<path d="M5.4279 0.09999999999999998 L5.548799999999999 0.16049999999999998 "/>
<path d="M5.548799999999999 0.16049999999999998 L5.6093 0.2815 "/>
<path d="M5.6093 0.2815 L5.6093 0.4024 "/>
<path d="M5.6093 0.4024 L5.548799999999999 0.5234 "/>
<path d="M5.548799999999999 0.5234 L5.4883999999999995 0.5838 "/>
<path d="M5.4883999999999995 0.5838 L5.367399999999999 0.6443 "/>
<path d="M5.367399999999999 0.6443 L5.3069 0.7048 "/>
<path d="M5.3069 0.7048 L5.2465 0.8257 "/>
<path d="M5.2465 0.8257 L5.2465 0.8862 "/>
</g><text x="11.7729" y="7.4550" textLength="3.6695" font-size="1.6933" lengthAdjust="spacingAndGlyphs" text-anchor="middle" opacity="0">LED</text>
<g class="stroked-text"><desc>LED</desc>
<path d="M3.8556 6.45 L3.250799999999999 6.45 "/>
<path d="M3.250799999999999 6.45 L3.250799999999999 5.18 "/>
<path d="M4.278899999999999 5.7848 L4.7023 5.7848 "/>
<path d="M4.8837 6.45 L4.278899999999999 6.45 "/>
<path d="M4.278899999999999 6.45 L4.278899999999999 5.18 "/>
<path d="M4.278899999999999 5.18 L4.8837 5.18 "/>
<path d="M5.4279 6.45 L5.4279 5.18 "/>
<path d="M5.4279 5.18 L5.730300000000001 5.18 "/>
<path d="M5.730300000000001 5.18 L5.911700000000001 5.2405 "/>
<path d="M5.911700000000001 5.2405 L6.032699999999999 5.3614999999999995 "/>
<path d="M6.032699999999999 5.3614999999999995 L6.0932 5.4824 "/>
<path d="M6.0932 5.4824 L6.1536 5.7242999999999995 "/>
<path d="M6.1536 5.7242999999999995 L6.1536 5.9056999999999995 "/>
<path d="M6.1536 5.9056999999999995 L6.0932 6.1476 "/>
<path d="M6.0932 6.1476 L6.032699999999999 6.2686 "/>
<path d="M6.032699999999999 6.2686 L5.911700000000001 6.3896 "/>
<path d="M5.911700000000001 6.3896 L5.730300000000001 6.45 "/>
<path d="M5.730300000000001 6.45 L5.4279 6.45 "/>
</g></g> 
</svg>