<!DOCTYPE svg PUBLIC "-//W3C//DTD SVG 1.1//EN" "http://www.w3.org/Graphics/SVG/1.1/DTD/svg11.dtd">
<svg xmlns:svg="http://www.w3.org/2000/svg" xmlns="http://www.w3.org/2000/svg" xmlns:xlink="http://www.w3.org/1999/xlink" version="1.1" width="3.0500000000000007mm" height="1.5999999999999999mm" viewBox="0.0000 0.0000 3.0500000000000007 1.5999999999999999">
<title>SVG Image created as LED_0805_2012Metric.svg date 2024/08/23 09:06:02 </title>
  <desc>Image generated by PCBNEW </desc>
<g style="fill:#000000; fill-opacity:1.0000;stroke:#000000; stroke-opacity:1.0000; stroke-linecap:round; stroke-linejoin:round;" transform="translate(0 0) scale(1 1)">
<path style="fill:#000000; fill-opacity:1.0000; stroke:none;fill-rule:evenodd;" d="M 0.09999999999999964,0.3437999999999999 0.11849999999999916,0.25050000000000017 0.17139999999999933,0.1714 0.25039999999999907,0.11860000000000004 0.34369999999999923,0.10000000000000009 0.831199999999999,0.10000000000000009 0.9244999999999992,0.11860000000000004 1.0035999999999996,0.1714 1.0563999999999991,0.25050000000000017 1.0749999999999993,0.3437999999999999 1.0749999999999993,1.2563 1.0563999999999991,1.3496000000000001 1.0035999999999996,1.4287 0.9244999999999992,1.4815 0.831199999999999,1.5 0.34369999999999923,1.5 0.25039999999999907,1.4815 0.17139999999999933,1.4287 0.11849999999999916,1.3496000000000001 0.09999999999999964,1.2563 Z"/> 
<path style="fill:#000000; fill-opacity:1.0000; stroke:none;fill-rule:evenodd;" d="M 1.9749999999999988,0.3437999999999999 1.9935,0.25050000000000017 2.0463999999999993,0.1714 2.1254,0.11860000000000004 2.2186999999999992,0.10000000000000009 2.7062,0.10000000000000009 2.799499999999999,0.11860000000000004 2.8785999999999996,0.1714 2.931399999999999,0.25050000000000017 2.95,0.3437999999999999 2.95,1.2563 2.931399999999999,1.3496000000000001 2.8785999999999996,1.4287 2.799499999999999,1.4815 2.7062,1.5 2.2186999999999992,1.5 2.1254,1.4815 2.0463999999999993,1.4287 1.9935,1.3496000000000001 1.9749999999999988,1.2563 Z"/> 
</g> 
</svg>