<!DOCTYPE svg PUBLIC "-//W3C//DTD SVG 1.1//EN" "http://www.w3.org/Graphics/SVG/1.1/DTD/svg11.dtd">
<svg xmlns:svg="http://www.w3.org/2000/svg" xmlns="http://www.w3.org/2000/svg" xmlns:xlink="http://www.w3.org/1999/xlink" version="1.1" width="3.4mm" height="3.4000000000000004mm" viewBox="0.0000 0.0000 3.4 3.4000000000000004">
<title>SVG Image created as LGA16_3X3MM.svg date 2024/09/11 11:43:46 </title>
  <desc>Image generated by PCBNEW </desc>
<g style="fill:#000000; fill-opacity:1.0000;stroke:#000000; stroke-opacity:1.0000; stroke-linecap:round; stroke-linejoin:round;" transform="translate(0 0) scale(1 1)">
<path style="fill:#000000; fill-opacity:1.0000; stroke:none;fill-rule:evenodd;" d="M 0.10000000000000009,0.8249999999999998 0.10000000000000009,0.5749999999999998 0.6000000000000001,0.5749999999999998 0.6000000000000001,0.8249999999999998 Z"/> 
<path style="fill:#000000; fill-opacity:1.0000; stroke:none;fill-rule:evenodd;" d="M 0.10000000000000009,1.3249999999999997 0.10000000000000009,1.0749999999999997 0.6000000000000001,1.0749999999999997 0.6000000000000001,1.3249999999999997 Z"/> 
<path style="fill:#000000; fill-opacity:1.0000; stroke:none;fill-rule:evenodd;" d="M 0.10000000000000009,1.8249999999999997 0.10000000000000009,1.5749999999999997 0.6000000000000001,1.5749999999999997 0.6000000000000001,1.8249999999999997 Z"/> 
<path style="fill:#000000; fill-opacity:1.0000; stroke:none;fill-rule:evenodd;" d="M 0.10000000000000009,2.3249999999999997 0.10000000000000009,2.0749999999999997 0.6000000000000001,2.0749999999999997 0.6000000000000001,2.3249999999999997 Z"/> 
<path style="fill:#000000; fill-opacity:1.0000; stroke:none;fill-rule:evenodd;" d="M 0.10000000000000009,2.8249999999999997 0.10000000000000009,2.5749999999999997 0.6000000000000001,2.5749999999999997 0.6000000000000001,2.8249999999999997 Z"/> 
<path style="fill:#000000; fill-opacity:1.0000; stroke:none;fill-rule:evenodd;" d="M 1.3250000000000002,3.3 1.0750000000000002,3.3 1.0750000000000002,2.8 1.3250000000000002,2.8 Z"/> 
<path style="fill:#000000; fill-opacity:1.0000; stroke:none;fill-rule:evenodd;" d="M 1.8250000000000002,3.3 1.5750000000000002,3.3 1.5750000000000002,2.8 1.8250000000000002,2.8 Z"/> 
<path style="fill:#000000; fill-opacity:1.0000; stroke:none;fill-rule:evenodd;" d="M 2.325,3.3 2.075,3.3 2.075,2.8 2.325,2.8 Z"/> 
<path style="fill:#000000; fill-opacity:1.0000; stroke:none;fill-rule:evenodd;" d="M 3.3,2.5749999999999997 3.3,2.8249999999999997 2.8,2.8249999999999997 2.8,2.5749999999999997 Z"/> 
<path style="fill:#000000; fill-opacity:1.0000; stroke:none;fill-rule:evenodd;" d="M 3.3,2.0749999999999997 3.3,2.3249999999999997 2.8,2.3249999999999997 2.8,2.0749999999999997 Z"/> 
<path style="fill:#000000; fill-opacity:1.0000; stroke:none;fill-rule:evenodd;" d="M 3.3,1.5749999999999997 3.3,1.8249999999999997 2.8,1.8249999999999997 2.8,1.5749999999999997 Z"/> 
<path style="fill:#000000; fill-opacity:1.0000; stroke:none;fill-rule:evenodd;" d="M 3.3,1.0749999999999997 3.3,1.3249999999999997 2.8,1.3249999999999997 2.8,1.0749999999999997 Z"/> 
<path style="fill:#000000; fill-opacity:1.0000; stroke:none;fill-rule:evenodd;" d="M 3.3,0.5749999999999998 3.3,0.8249999999999998 2.8,0.8249999999999998 2.8,0.5749999999999998 Z"/> 
<path style="fill:#000000; fill-opacity:1.0000; stroke:none;fill-rule:evenodd;" d="M 2.075,0.09999999999999998 2.325,0.09999999999999998 2.325,0.6 2.075,0.6 Z"/> 
<path style="fill:#000000; fill-opacity:1.0000; stroke:none;fill-rule:evenodd;" d="M 1.5750000000000002,0.09999999999999998 1.8250000000000002,0.09999999999999998 1.8250000000000002,0.6 1.5750000000000002,0.6 Z"/> 
<path style="fill:#000000; fill-opacity:1.0000; stroke:none;fill-rule:evenodd;" d="M 1.0750000000000002,0.09999999999999998 1.3250000000000002,0.09999999999999998 1.3250000000000002,0.6 1.0750000000000002,0.6 Z"/> 
</g> 
</svg>