<!DOCTYPE svg PUBLIC "-//W3C//DTD SVG 1.1//EN" "http://www.w3.org/Graphics/SVG/1.1/DTD/svg11.dtd">
<svg xmlns:svg="http://www.w3.org/2000/svg" xmlns="http://www.w3.org/2000/svg" xmlns:xlink="http://www.w3.org/1999/xlink" version="1.1" width="3.500000000000001mm" height="2.99mm" viewBox="0.0000 0.0000 3.500000000000001 2.99">
<title>SVG Image created as LGA24_3.5X3.1MM.svg date 2024/09/05 15:19:21 </title>
  <desc>Image generated by PCBNEW </desc>
<g style="fill:#000000; fill-opacity:1.0000;stroke:#000000; stroke-opacity:1.0000; stroke-linecap:round; stroke-linejoin:round;" transform="translate(0 0) scale(1 1)">
<path style="fill:#000000; fill-opacity:1.0000; stroke:none;fill-rule:evenodd;" d="M 0.1299999999999999,0.09999999999999998 0.35999999999999943,0.09999999999999998 0.35999999999999943,0.45000000000000007 0.1299999999999999,0.45000000000000007 Z"/> 
<path style="fill:#000000; fill-opacity:1.0000; stroke:none;fill-rule:evenodd;" d="M 0.4499999999999993,0.7350000000000001 0.4499999999999993,0.9650000000000001 0.09999999999999964,0.9650000000000001 0.09999999999999964,0.7350000000000001 Z"/> 
<path style="fill:#000000; fill-opacity:1.0000; stroke:none;fill-rule:evenodd;" d="M 0.4499999999999993,1.165 0.4499999999999993,1.395 0.09999999999999964,1.395 0.09999999999999964,1.165 Z"/> 
<path style="fill:#000000; fill-opacity:1.0000; stroke:none;fill-rule:evenodd;" d="M 0.4499999999999993,1.595 0.4499999999999993,1.825 0.09999999999999964,1.825 0.09999999999999964,1.595 Z"/> 
<path style="fill:#000000; fill-opacity:1.0000; stroke:none;fill-rule:evenodd;" d="M 0.4499999999999993,2.0250000000000004 0.4499999999999993,2.255 0.09999999999999964,2.255 0.09999999999999964,2.0250000000000004 Z"/> 
<path style="fill:#000000; fill-opacity:1.0000; stroke:none;fill-rule:evenodd;" d="M 0.35999999999999943,2.8899999999999997 0.1299999999999999,2.8899999999999997 0.1299999999999999,2.54 0.35999999999999943,2.54 Z"/> 
<path style="fill:#000000; fill-opacity:1.0000; stroke:none;fill-rule:evenodd;" d="M 0.7899999999999991,2.8899999999999997 0.5599999999999996,2.8899999999999997 0.5599999999999996,2.54 0.7899999999999991,2.54 Z"/> 
<path style="fill:#000000; fill-opacity:1.0000; stroke:none;fill-rule:evenodd;" d="M 1.2199999999999998,2.8899999999999997 0.9899999999999993,2.8899999999999997 0.9899999999999993,2.54 1.2199999999999998,2.54 Z"/> 
<path style="fill:#000000; fill-opacity:1.0000; stroke:none;fill-rule:evenodd;" d="M 1.6499999999999995,2.8899999999999997 1.42,2.8899999999999997 1.42,2.54 1.6499999999999995,2.54 Z"/> 
<path style="fill:#000000; fill-opacity:1.0000; stroke:none;fill-rule:evenodd;" d="M 2.08,2.8899999999999997 1.8499999999999996,2.8899999999999997 1.8499999999999996,2.54 2.08,2.54 Z"/> 
<path style="fill:#000000; fill-opacity:1.0000; stroke:none;fill-rule:evenodd;" d="M 2.51,2.8899999999999997 2.2799999999999994,2.8899999999999997 2.2799999999999994,2.54 2.51,2.54 Z"/> 
<path style="fill:#000000; fill-opacity:1.0000; stroke:none;fill-rule:evenodd;" d="M 2.9399999999999995,2.8899999999999997 2.709999999999999,2.8899999999999997 2.709999999999999,2.54 2.9399999999999995,2.54 Z"/> 
<path style="fill:#000000; fill-opacity:1.0000; stroke:none;fill-rule:evenodd;" d="M 3.369999999999999,2.8899999999999997 3.139999999999999,2.8899999999999997 3.139999999999999,2.54 3.369999999999999,2.54 Z"/> 
<path style="fill:#000000; fill-opacity:1.0000; stroke:none;fill-rule:evenodd;" d="M 3.4000000000000004,2.0250000000000004 3.4000000000000004,2.255 3.049999999999999,2.255 3.049999999999999,2.0250000000000004 Z"/> 
<path style="fill:#000000; fill-opacity:1.0000; stroke:none;fill-rule:evenodd;" d="M 3.4000000000000004,1.595 3.4000000000000004,1.825 3.049999999999999,1.825 3.049999999999999,1.595 Z"/> 
<path style="fill:#000000; fill-opacity:1.0000; stroke:none;fill-rule:evenodd;" d="M 3.4000000000000004,1.165 3.4000000000000004,1.395 3.049999999999999,1.395 3.049999999999999,1.165 Z"/> 
<path style="fill:#000000; fill-opacity:1.0000; stroke:none;fill-rule:evenodd;" d="M 3.4000000000000004,0.7350000000000001 3.4000000000000004,0.9650000000000001 3.049999999999999,0.9650000000000001 3.049999999999999,0.7350000000000001 Z"/> 
<path style="fill:#000000; fill-opacity:1.0000; stroke:none;fill-rule:evenodd;" d="M 3.139999999999999,0.09999999999999998 3.369999999999999,0.09999999999999998 3.369999999999999,0.45000000000000007 3.139999999999999,0.45000000000000007 Z"/> 
<path style="fill:#000000; fill-opacity:1.0000; stroke:none;fill-rule:evenodd;" d="M 2.709999999999999,0.09999999999999998 2.9399999999999995,0.09999999999999998 2.9399999999999995,0.45000000000000007 2.709999999999999,0.45000000000000007 Z"/> 
<path style="fill:#000000; fill-opacity:1.0000; stroke:none;fill-rule:evenodd;" d="M 2.2799999999999994,0.09999999999999998 2.51,0.09999999999999998 2.51,0.45000000000000007 2.2799999999999994,0.45000000000000007 Z"/> 
<path style="fill:#000000; fill-opacity:1.0000; stroke:none;fill-rule:evenodd;" d="M 1.8499999999999996,0.09999999999999998 2.08,0.09999999999999998 2.08,0.45000000000000007 1.8499999999999996,0.45000000000000007 Z"/> 
<path style="fill:#000000; fill-opacity:1.0000; stroke:none;fill-rule:evenodd;" d="M 1.42,0.09999999999999998 1.6499999999999995,0.09999999999999998 1.6499999999999995,0.45000000000000007 1.42,0.45000000000000007 Z"/> 
<path style="fill:#000000; fill-opacity:1.0000; stroke:none;fill-rule:evenodd;" d="M 0.9899999999999993,0.09999999999999998 1.2199999999999998,0.09999999999999998 1.2199999999999998,0.45000000000000007 0.9899999999999993,0.45000000000000007 Z"/> 
<path style="fill:#000000; fill-opacity:1.0000; stroke:none;fill-rule:evenodd;" d="M 0.5599999999999996,0.09999999999999998 0.7899999999999991,0.09999999999999998 0.7899999999999991,0.45000000000000007 0.5599999999999996,0.45000000000000007 Z"/> 
</g> 
</svg>