<!DOCTYPE svg PUBLIC "-//W3C//DTD SVG 1.1//EN" "http://www.w3.org/Graphics/SVG/1.1/DTD/svg11.dtd">
<svg xmlns:svg="http://www.w3.org/2000/svg" xmlns="http://www.w3.org/2000/svg" xmlns:xlink="http://www.w3.org/1999/xlink" version="1.1" width="25.599999999999998mm" height="20.520000000000003mm" viewBox="0.0000 0.0000 25.599999999999998 20.520000000000003">
<title>SVG Image created as lmc555xm.svg date 2024/11/22 14:26:51 </title>
  <desc>Image generated by Eeschema-SVG </desc>
<g style="fill:#000000; fill-opacity:1.0000;stroke:#000000; stroke-opacity:1.0000; stroke-linecap:round; stroke-linejoin:round;" transform="translate(0 0) scale(1 1)">
</g>
<g style="fill:#FFFFC2; fill-opacity:1.0000; stroke:none;">
<rect x="3.91" y="2.6400000000000006" width="17.780000" height="15.240000" rx="0.000000"/>
<rect x="3.91" y="2.6400000000000006" width="17.780000" height="15.240000" rx="0.000000"/>
</g>
<g style="fill:none;  stroke:#840000; stroke-width:0.2540; stroke-opacity:1;  stroke-linecap:round; stroke-linejoin:round;">
<rect x="3.91" y="2.6400000000000006" width="17.780000" height="15.240000" rx="0.000000"/>
<rect x="3.91" y="2.6400000000000006" width="17.780000" height="15.240000" rx="0.000000"/>
</g>
<g style="fill:none;  stroke:#840000; stroke-width:0.1524; stroke-opacity:1;  stroke-linecap:round; stroke-linejoin:round;">
<path d="M12.8 17.880000000000003 L12.8 20.42 "/>
</g>
<g style="fill:none;  stroke:#006464; stroke-width:0.1524; stroke-opacity:1;  stroke-linecap:round; stroke-linejoin:round;">
<g transform="rotate(-90.000000 20.4234 30.3149)">
<text x="20.4234" y="30.9499" textLength="4.0737" font-size="1.6933" lengthAdjust="spacingAndGlyphs" text-anchor="start" opacity="0">GND</text>
</g>
<g class="stroked-text"><desc>GND</desc>
<path d="M12.169999999999998 16.3041 L12.1095 16.4251 "/>
<path d="M12.1095 16.4251 L12.1095 16.606499999999997 "/>
<path d="M12.1095 16.606499999999997 L12.169999999999998 16.7879 "/>
<path d="M12.169999999999998 16.7879 L12.291 16.908900000000003 "/>
<path d="M12.291 16.908900000000003 L12.4119 16.9694 "/>
<path d="M12.4119 16.9694 L12.6538 17.0298 "/>
<path d="M12.6538 17.0298 L12.8352 17.0298 "/>
<path d="M12.8352 17.0298 L13.077100000000002 16.9694 "/>
<path d="M13.077100000000002 16.9694 L13.1981 16.908900000000003 "/>
<path d="M13.1981 16.908900000000003 L13.319099999999999 16.7879 "/>
<path d="M13.319099999999999 16.7879 L13.3795 16.606499999999997 "/>
<path d="M13.3795 16.606499999999997 L13.3795 16.485599999999998 "/>
<path d="M13.3795 16.485599999999998 L13.319099999999999 16.3041 "/>
<path d="M13.319099999999999 16.3041 L13.258600000000001 16.243699999999997 "/>
<path d="M13.258600000000001 16.243699999999997 L12.8352 16.243699999999997 "/>
<path d="M12.8352 16.243699999999997 L12.8352 16.485599999999998 "/>
<path d="M13.3795 15.699399999999999 L12.1095 15.699399999999999 "/>
<path d="M12.1095 15.699399999999999 L13.3795 14.9737 "/>
<path d="M13.3795 14.9737 L12.1095 14.9737 "/>
<path d="M13.3795 14.368900000000002 L12.1095 14.368900000000002 "/>
<path d="M12.1095 14.368900000000002 L12.1095 14.0665 "/>
<path d="M12.1095 14.0665 L12.169999999999998 13.8851 "/>
<path d="M12.169999999999998 13.8851 L12.291 13.764100000000001 "/>
<path d="M12.291 13.764100000000001 L12.4119 13.7036 "/>
<path d="M12.4119 13.7036 L12.6538 13.643199999999998 "/>
<path d="M12.6538 13.643199999999998 L12.8352 13.643199999999998 "/>
<path d="M12.8352 13.643199999999998 L13.077100000000002 13.7036 "/>
<path d="M13.077100000000002 13.7036 L13.1981 13.764100000000001 "/>
<path d="M13.1981 13.764100000000001 L13.319099999999999 13.8851 "/>
<path d="M13.319099999999999 13.8851 L13.3795 14.0665 "/>
<path d="M13.3795 14.0665 L13.3795 14.368900000000002 "/>
</g></g>
<g style="fill:none;  stroke:#A90000; stroke-width:0.1524; stroke-opacity:1;  stroke-linecap:round; stroke-linejoin:round;">
<g transform="rotate(-90.000000 20.1694 32.0929)">
<text x="20.1694" y="32.0929" textLength="1.4127" font-size="1.6933" lengthAdjust="spacingAndGlyphs" text-anchor="middle" opacity="0">1</text>
</g>
<g class="stroked-text"><desc>1</desc>
<path d="M12.3825 18.787 L12.3825 19.512699999999995 "/>
<path d="M12.3825 19.149899999999995 L11.1125 19.149899999999995 "/>
<path d="M11.1125 19.149899999999995 L11.294 19.2708 "/>
<path d="M11.294 19.2708 L11.4149 19.391799999999996 "/>
<path d="M11.4149 19.391799999999996 L11.4754 19.512699999999995 "/>
</g></g>
<g style="fill:none;  stroke:#840000; stroke-width:0.1524; stroke-opacity:1;  stroke-linecap:round; stroke-linejoin:round;">
<path d="M12.8 2.6400000000000006 L12.8 0.09999999999999964 "/>
</g>
<g style="fill:none;  stroke:#006464; stroke-width:0.1524; stroke-opacity:1;  stroke-linecap:round; stroke-linejoin:round;">
<g transform="rotate(-90.000000 20.4234 16.0909)">
<text x="20.4234" y="16.7259" textLength="3.8318" font-size="1.6933" lengthAdjust="spacingAndGlyphs" text-anchor="end" opacity="0">VCC</text>
</g>
<g class="stroked-text"><desc>VCC</desc>
<path d="M12.1095 6.755799999999999 L13.3795 6.332500000000001 "/>
<path d="M13.3795 6.332500000000001 L12.1095 5.9091000000000005 "/>
<path d="M13.258600000000001 4.7600999999999996 L13.319099999999999 4.820500000000001 "/>
<path d="M13.319099999999999 4.820500000000001 L13.3795 5.002000000000001 "/>
<path d="M13.3795 5.002000000000001 L13.3795 5.1229 "/>
<path d="M13.3795 5.1229 L13.319099999999999 5.3043 "/>
<path d="M13.319099999999999 5.3043 L13.1981 5.425300000000002 "/>
<path d="M13.1981 5.425300000000002 L13.077100000000002 5.485799999999999 "/>
<path d="M13.077100000000002 5.485799999999999 L12.8352 5.546200000000001 "/>
<path d="M12.8352 5.546200000000001 L12.6538 5.546200000000001 "/>
<path d="M12.6538 5.546200000000001 L12.4119 5.485799999999999 "/>
<path d="M12.4119 5.485799999999999 L12.291 5.425300000000002 "/>
<path d="M12.291 5.425300000000002 L12.169999999999998 5.3043 "/>
<path d="M12.169999999999998 5.3043 L12.1095 5.1229 "/>
<path d="M12.1095 5.1229 L12.1095 5.002000000000001 "/>
<path d="M12.1095 5.002000000000001 L12.169999999999998 4.820500000000001 "/>
<path d="M12.169999999999998 4.820500000000001 L12.2305 4.7600999999999996 "/>
<path d="M13.258600000000001 3.4901 L13.319099999999999 3.5505000000000013 "/>
<path d="M13.319099999999999 3.5505000000000013 L13.3795 3.732000000000001 "/>
<path d="M13.3795 3.732000000000001 L13.3795 3.8529 "/>
<path d="M13.3795 3.8529 L13.319099999999999 4.0343 "/>
<path d="M13.319099999999999 4.0343 L13.1981 4.155299999999999 "/>
<path d="M13.1981 4.155299999999999 L13.077100000000002 4.2158 "/>
<path d="M13.077100000000002 4.2158 L12.8352 4.276200000000001 "/>
<path d="M12.8352 4.276200000000001 L12.6538 4.276200000000001 "/>
<path d="M12.6538 4.276200000000001 L12.4119 4.2158 "/>
<path d="M12.4119 4.2158 L12.291 4.155299999999999 "/>
<path d="M12.291 4.155299999999999 L12.169999999999998 4.0343 "/>
<path d="M12.169999999999998 4.0343 L12.1095 3.8529 "/>
<path d="M12.1095 3.8529 L12.1095 3.732000000000001 "/>
<path d="M12.1095 3.732000000000001 L12.169999999999998 3.5505000000000013 "/>
<path d="M12.169999999999998 3.5505000000000013 L12.2305 3.4901 "/>
</g></g>
<g style="fill:none;  stroke:#A90000; stroke-width:0.1524; stroke-opacity:1;  stroke-linecap:round; stroke-linejoin:round;">
<g transform="rotate(-90.000000 20.1694 14.3129)">
<text x="20.1694" y="14.3129" textLength="1.4127" font-size="1.6933" lengthAdjust="spacingAndGlyphs" text-anchor="middle" opacity="0">8</text>
</g>
<g class="stroked-text"><desc>8</desc>
<path d="M11.6568 1.4908000000000001 L11.5963 1.6118000000000006 "/>
<path d="M11.5963 1.6118000000000006 L11.535900000000002 1.6723 "/>
<path d="M11.535900000000002 1.6723 L11.4149 1.7326999999999995 "/>
<path d="M11.4149 1.7326999999999995 L11.354399999999998 1.7326999999999995 "/>
<path d="M11.354399999999998 1.7326999999999995 L11.2335 1.6723 "/>
<path d="M11.2335 1.6723 L11.172999999999998 1.6118000000000006 "/>
<path d="M11.172999999999998 1.6118000000000006 L11.1125 1.4908000000000001 "/>
<path d="M11.1125 1.4908000000000001 L11.1125 1.2489000000000008 "/>
<path d="M11.1125 1.2489000000000008 L11.172999999999998 1.1280000000000001 "/>
<path d="M11.172999999999998 1.1280000000000001 L11.2335 1.0675000000000008 "/>
<path d="M11.2335 1.0675000000000008 L11.354399999999998 1.0069999999999997 "/>
<path d="M11.354399999999998 1.0069999999999997 L11.4149 1.0069999999999997 "/>
<path d="M11.4149 1.0069999999999997 L11.535900000000002 1.0675000000000008 "/>
<path d="M11.535900000000002 1.0675000000000008 L11.5963 1.1280000000000001 "/>
<path d="M11.5963 1.1280000000000001 L11.6568 1.2489000000000008 "/>
<path d="M11.6568 1.2489000000000008 L11.6568 1.4908000000000001 "/>
<path d="M11.6568 1.4908000000000001 L11.717299999999998 1.6118000000000006 "/>
<path d="M11.717299999999998 1.6118000000000006 L11.7778 1.6723 "/>
<path d="M11.7778 1.6723 L11.898699999999998 1.7326999999999995 "/>
<path d="M11.898699999999998 1.7326999999999995 L12.1406 1.7326999999999995 "/>
<path d="M12.1406 1.7326999999999995 L12.261600000000001 1.6723 "/>
<path d="M12.261600000000001 1.6723 L12.322099999999999 1.6118000000000006 "/>
<path d="M12.322099999999999 1.6118000000000006 L12.3825 1.4908000000000001 "/>
<path d="M12.3825 1.4908000000000001 L12.3825 1.2489000000000008 "/>
<path d="M12.3825 1.2489000000000008 L12.322099999999999 1.1280000000000001 "/>
<path d="M12.322099999999999 1.1280000000000001 L12.261600000000001 1.0675000000000008 "/>
<path d="M12.261600000000001 1.0675000000000008 L12.1406 1.0069999999999997 "/>
<path d="M12.1406 1.0069999999999997 L11.898699999999998 1.0069999999999997 "/>
<path d="M11.898699999999998 1.0069999999999997 L11.7778 1.0675000000000008 "/>
<path d="M11.7778 1.0675000000000008 L11.717299999999998 1.1280000000000001 "/>
<path d="M11.717299999999998 1.1280000000000001 L11.6568 1.2489000000000008 "/>
</g></g>
<g style="fill:none;  stroke:#840000; stroke-width:0.1524; stroke-opacity:1;  stroke-linecap:round; stroke-linejoin:round;">
<path d="M3.91 5.1800000000000015 L0.09999999999999964 5.1800000000000015 "/>
</g>
<g style="fill:none;  stroke:#006464; stroke-width:0.1524; stroke-opacity:1;  stroke-linecap:round; stroke-linejoin:round;">
<text x="12.0414" y="18.7579" textLength="2.4408" font-size="1.6933" lengthAdjust="spacingAndGlyphs" text-anchor="start" opacity="0">TR</text>
<g class="stroked-text"><desc>TR</desc>
<path d="M4.639099999999999 4.489500000000001 L5.364800000000001 4.489500000000001 "/>
<path d="M5.002000000000001 5.759500000000001 L5.002000000000001 4.489500000000001 "/>
<path d="M6.5138 5.759500000000001 L6.0905000000000005 5.1548 "/>
<path d="M5.7881 5.759500000000001 L5.7881 4.489500000000001 "/>
<path d="M5.7881 4.489500000000001 L6.2719000000000005 4.489500000000001 "/>
<path d="M6.2719000000000005 4.489500000000001 L6.392899999999999 4.549999999999999 "/>
<path d="M6.392899999999999 4.549999999999999 L6.4534 4.6105 "/>
<path d="M6.4534 4.6105 L6.5138 4.731399999999999 "/>
<path d="M6.5138 4.731399999999999 L6.5138 4.912899999999999 "/>
<path d="M6.5138 4.912899999999999 L6.4534 5.033800000000001 "/>
<path d="M6.4534 5.033800000000001 L6.392899999999999 5.094299999999999 "/>
<path d="M6.392899999999999 5.094299999999999 L6.2719000000000005 5.1548 "/>
<path d="M6.2719000000000005 5.1548 L5.7881 5.1548 "/>
</g></g>
<g style="fill:none;  stroke:#A90000; stroke-width:0.1524; stroke-opacity:1;  stroke-linecap:round; stroke-linejoin:round;">
<text x="9.6284" y="17.8689" textLength="1.4127" font-size="1.6933" lengthAdjust="spacingAndGlyphs" text-anchor="middle" opacity="0">2</text>
<g class="stroked-text"><desc>2</desc>
<path d="M1.642199999999999 3.6135 L1.7026000000000003 3.552999999999999 "/>
<path d="M1.7026000000000003 3.552999999999999 L1.823599999999999 3.4925000000000015 "/>
<path d="M1.823599999999999 3.4925000000000015 L2.1259999999999994 3.4925000000000015 "/>
<path d="M2.1259999999999994 3.4925000000000015 L2.2469 3.552999999999999 "/>
<path d="M2.2469 3.552999999999999 L2.3073999999999995 3.6135 "/>
<path d="M2.3073999999999995 3.6135 L2.3679000000000006 3.734399999999999 "/>
<path d="M2.3679000000000006 3.734399999999999 L2.3679000000000006 3.8554000000000013 "/>
<path d="M2.3679000000000006 3.8554000000000013 L2.3073999999999995 4.036800000000001 "/>
<path d="M2.3073999999999995 4.036800000000001 L1.5816999999999997 4.762500000000001 "/>
<path d="M1.5816999999999997 4.762500000000001 L2.3679000000000006 4.762500000000001 "/>
</g></g>
<g style="fill:none;  stroke:#840000; stroke-width:0.1524; stroke-opacity:1;  stroke-linecap:round; stroke-linejoin:round;">
<path d="M21.69 5.1800000000000015 L25.499999999999996 5.1800000000000015 "/>
</g>
<g style="fill:none;  stroke:#006464; stroke-width:0.1524; stroke-opacity:1;  stroke-linecap:round; stroke-linejoin:round;">
<text x="28.8054" y="18.7579" textLength="1.5337" font-size="1.6933" lengthAdjust="spacingAndGlyphs" text-anchor="end" opacity="0">Q</text>
<g class="stroked-text"><desc>Q</desc>
<path d="M20.9003 5.8805 L20.7793 5.8199999999999985 "/>
<path d="M20.7793 5.8199999999999985 L20.6584 5.6991 "/>
<path d="M20.6584 5.6991 L20.477 5.5176 "/>
<path d="M20.477 5.5176 L20.355999999999998 5.457099999999999 "/>
<path d="M20.355999999999998 5.457099999999999 L20.2351 5.457099999999999 "/>
<path d="M20.2955 5.759500000000001 L20.174599999999998 5.6991 "/>
<path d="M20.174599999999998 5.6991 L20.0536 5.578100000000001 "/>
<path d="M20.0536 5.578100000000001 L19.993199999999998 5.3362 "/>
<path d="M19.993199999999998 5.3362 L19.993199999999998 4.912899999999999 "/>
<path d="M19.993199999999998 4.912899999999999 L20.0536 4.671000000000001 "/>
<path d="M20.0536 4.671000000000001 L20.174599999999998 4.549999999999999 "/>
<path d="M20.174599999999998 4.549999999999999 L20.2955 4.489500000000001 "/>
<path d="M20.2955 4.489500000000001 L20.537399999999998 4.489500000000001 "/>
<path d="M20.537399999999998 4.489500000000001 L20.6584 4.549999999999999 "/>
<path d="M20.6584 4.549999999999999 L20.7793 4.671000000000001 "/>
<path d="M20.7793 4.671000000000001 L20.8398 4.912899999999999 "/>
<path d="M20.8398 4.912899999999999 L20.8398 5.3362 "/>
<path d="M20.8398 5.3362 L20.7793 5.578100000000001 "/>
<path d="M20.7793 5.578100000000001 L20.6584 5.6991 "/>
<path d="M20.6584 5.6991 L20.537399999999998 5.759500000000001 "/>
<path d="M20.537399999999998 5.759500000000001 L20.2955 5.759500000000001 "/>
</g></g>
<g style="fill:none;  stroke:#A90000; stroke-width:0.1524; stroke-opacity:1;  stroke-linecap:round; stroke-linejoin:round;">
<text x="31.2184" y="17.8689" textLength="1.4127" font-size="1.6933" lengthAdjust="spacingAndGlyphs" text-anchor="middle" opacity="0">3</text>
<g class="stroked-text"><desc>3</desc>
<path d="M23.1717 3.4925000000000015 L23.9579 3.4925000000000015 "/>
<path d="M23.9579 3.4925000000000015 L23.5345 3.9763 "/>
<path d="M23.5345 3.9763 L23.716 3.9763 "/>
<path d="M23.716 3.9763 L23.8369 4.036800000000001 "/>
<path d="M23.8369 4.036800000000001 L23.8974 4.097299999999999 "/>
<path d="M23.8974 4.097299999999999 L23.9579 4.218200000000001 "/>
<path d="M23.9579 4.218200000000001 L23.9579 4.5206 "/>
<path d="M23.9579 4.5206 L23.8974 4.641599999999999 "/>
<path d="M23.8974 4.641599999999999 L23.8369 4.7021 "/>
<path d="M23.8369 4.7021 L23.716 4.762500000000001 "/>
<path d="M23.716 4.762500000000001 L23.3531 4.762500000000001 "/>
<path d="M23.3531 4.762500000000001 L23.2322 4.7021 "/>
<path d="M23.2322 4.7021 L23.1717 4.641599999999999 "/>
</g></g>
<g style="fill:none;  stroke:#840000; stroke-width:0.1524; stroke-opacity:1;  stroke-linecap:round; stroke-linejoin:round;">
<circle cx="3.2750000000000004" cy="15.340000000000002" r="0.6350"/> 
<path d="M2.6400000000000006 15.340000000000002 L0.09999999999999964 15.340000000000002 "/>
</g>
<g style="fill:none;  stroke:#006464; stroke-width:0.1524; stroke-opacity:1;  stroke-linecap:round; stroke-linejoin:round;">
<text x="12.0414" y="28.9179" textLength="1.4732" font-size="1.6933" lengthAdjust="spacingAndGlyphs" text-anchor="start" opacity="0">R</text>
<g class="stroked-text"><desc>R</desc>
<path d="M5.546200000000001 15.919500000000001 L5.1229 15.3148 "/>
<path d="M4.820499999999999 15.919500000000001 L4.820499999999999 14.649500000000002 "/>
<path d="M4.820499999999999 14.649500000000002 L5.3043 14.649500000000002 "/>
<path d="M5.3043 14.649500000000002 L5.4253 14.709999999999999 "/>
<path d="M5.4253 14.709999999999999 L5.485799999999999 14.7705 "/>
<path d="M5.485799999999999 14.7705 L5.546200000000001 14.891399999999999 "/>
<path d="M5.546200000000001 14.891399999999999 L5.546200000000001 15.072899999999999 "/>
<path d="M5.546200000000001 15.072899999999999 L5.485799999999999 15.193800000000001 "/>
<path d="M5.485799999999999 15.193800000000001 L5.4253 15.254299999999999 "/>
<path d="M5.4253 15.254299999999999 L5.3043 15.3148 "/>
<path d="M5.3043 15.3148 L4.820499999999999 15.3148 "/>
</g></g>
<g style="fill:none;  stroke:#A90000; stroke-width:0.1524; stroke-opacity:1;  stroke-linecap:round; stroke-linejoin:round;">
<text x="9.6284" y="28.0289" textLength="1.4127" font-size="1.6933" lengthAdjust="spacingAndGlyphs" text-anchor="middle" opacity="0">4</text>
<g class="stroked-text"><desc>4</desc>
<path d="M2.2469 14.075899999999999 L2.2469 14.922500000000001 "/>
<path d="M1.9444999999999997 13.5921 L1.642199999999999 14.4992 "/>
<path d="M1.642199999999999 14.4992 L2.4283 14.4992 "/>
</g></g>
<g style="fill:none;  stroke:#840000; stroke-width:0.1524; stroke-opacity:1;  stroke-linecap:round; stroke-linejoin:round;">
<path d="M3.91 10.26 L0.09999999999999964 10.26 "/>
</g>
<g style="fill:none;  stroke:#006464; stroke-width:0.1524; stroke-opacity:1;  stroke-linecap:round; stroke-linejoin:round;">
<text x="12.0414" y="23.8379" textLength="2.5618" font-size="1.6933" lengthAdjust="spacingAndGlyphs" text-anchor="start" opacity="0">CV</text>
<g class="stroked-text"><desc>CV</desc>
<path d="M5.546200000000001 10.7186 L5.485799999999999 10.779100000000001 "/>
<path d="M5.485799999999999 10.779100000000001 L5.3043 10.8395 "/>
<path d="M5.3043 10.8395 L5.183400000000001 10.8395 "/>
<path d="M5.183400000000001 10.8395 L5.002000000000001 10.779100000000001 "/>
<path d="M5.002000000000001 10.779100000000001 L4.881 10.6581 "/>
<path d="M4.881 10.6581 L4.820499999999999 10.5371 "/>
<path d="M4.820499999999999 10.5371 L4.7600999999999996 10.2952 "/>
<path d="M4.7600999999999996 10.2952 L4.7600999999999996 10.1138 "/>
<path d="M4.7600999999999996 10.1138 L4.820499999999999 9.871900000000002 "/>
<path d="M4.820499999999999 9.871900000000002 L4.881 9.751 "/>
<path d="M4.881 9.751 L5.002000000000001 9.63 "/>
<path d="M5.002000000000001 9.63 L5.183400000000001 9.5695 "/>
<path d="M5.183400000000001 9.5695 L5.3043 9.5695 "/>
<path d="M5.3043 9.5695 L5.485799999999999 9.63 "/>
<path d="M5.485799999999999 9.63 L5.546200000000001 9.690500000000002 "/>
<path d="M5.9091000000000005 9.5695 L6.3324 10.8395 "/>
<path d="M6.3324 10.8395 L6.755800000000001 9.5695 "/>
</g></g>
<g style="fill:none;  stroke:#A90000; stroke-width:0.1524; stroke-opacity:1;  stroke-linecap:round; stroke-linejoin:round;">
<text x="9.6284" y="22.9489" textLength="1.4127" font-size="1.6933" lengthAdjust="spacingAndGlyphs" text-anchor="middle" opacity="0">5</text>
<g class="stroked-text"><desc>5</desc>
<path d="M2.3073999999999995 8.5725 L1.7026000000000003 8.5725 "/>
<path d="M1.7026000000000003 8.5725 L1.642199999999999 9.1773 "/>
<path d="M1.642199999999999 9.1773 L1.7026000000000003 9.1168 "/>
<path d="M1.7026000000000003 9.1168 L1.823599999999999 9.056299999999998 "/>
<path d="M1.823599999999999 9.056299999999998 L2.1259999999999994 9.056299999999998 "/>
<path d="M2.1259999999999994 9.056299999999998 L2.2469 9.1168 "/>
<path d="M2.2469 9.1168 L2.3073999999999995 9.1773 "/>
<path d="M2.3073999999999995 9.1773 L2.3679000000000006 9.2982 "/>
<path d="M2.3679000000000006 9.2982 L2.3679000000000006 9.600600000000002 "/>
<path d="M2.3679000000000006 9.600600000000002 L2.3073999999999995 9.7216 "/>
<path d="M2.3073999999999995 9.7216 L2.2469 9.782100000000002 "/>
<path d="M2.2469 9.782100000000002 L2.1259999999999994 9.8425 "/>
<path d="M2.1259999999999994 9.8425 L1.823599999999999 9.8425 "/>
<path d="M1.823599999999999 9.8425 L1.7026000000000003 9.782100000000002 "/>
<path d="M1.7026000000000003 9.782100000000002 L1.642199999999999 9.7216 "/>
</g></g>
<g style="fill:none;  stroke:#840000; stroke-width:0.1524; stroke-opacity:1;  stroke-linecap:round; stroke-linejoin:round;">
<path d="M21.69 15.340000000000002 L25.499999999999996 15.340000000000002 "/>
</g>
<g style="fill:none;  stroke:#006464; stroke-width:0.1524; stroke-opacity:1;  stroke-linecap:round; stroke-linejoin:round;">
<text x="28.8054" y="28.9179" textLength="3.7713" font-size="1.6933" lengthAdjust="spacingAndGlyphs" text-anchor="end" opacity="0">THR</text>
<g class="stroked-text"><desc>THR</desc>
<path d="M17.6346 14.649500000000002 L18.3603 14.649500000000002 "/>
<path d="M17.9975 15.919500000000001 L17.9975 14.649500000000002 "/>
<path d="M18.7836 15.919500000000001 L18.7836 14.649500000000002 "/>
<path d="M18.7836 15.254299999999999 L19.5093 15.254299999999999 "/>
<path d="M19.5093 15.919500000000001 L19.5093 14.649500000000002 "/>
<path d="M20.8398 15.919500000000001 L20.4165 15.3148 "/>
<path d="M20.1141 15.919500000000001 L20.1141 14.649500000000002 "/>
<path d="M20.1141 14.649500000000002 L20.5979 14.649500000000002 "/>
<path d="M20.5979 14.649500000000002 L20.7189 14.709999999999999 "/>
<path d="M20.7189 14.709999999999999 L20.7794 14.7705 "/>
<path d="M20.7794 14.7705 L20.8398 14.891399999999999 "/>
<path d="M20.8398 14.891399999999999 L20.8398 15.072899999999999 "/>
<path d="M20.8398 15.072899999999999 L20.7794 15.193800000000001 "/>
<path d="M20.7794 15.193800000000001 L20.7189 15.254299999999999 "/>
<path d="M20.7189 15.254299999999999 L20.5979 15.3148 "/>
<path d="M20.5979 15.3148 L20.1141 15.3148 "/>
</g></g>
<g style="fill:none;  stroke:#A90000; stroke-width:0.1524; stroke-opacity:1;  stroke-linecap:round; stroke-linejoin:round;">
<text x="31.2184" y="28.0289" textLength="1.4127" font-size="1.6933" lengthAdjust="spacingAndGlyphs" text-anchor="middle" opacity="0">6</text>
<g class="stroked-text"><desc>6</desc>
<path d="M23.8369 13.652500000000002 L23.595 13.652500000000002 "/>
<path d="M23.595 13.652500000000002 L23.4741 13.713 "/>
<path d="M23.4741 13.713 L23.4136 13.7735 "/>
<path d="M23.4136 13.7735 L23.2926 13.9549 "/>
<path d="M23.2926 13.9549 L23.2322 14.196800000000001 "/>
<path d="M23.2322 14.196800000000001 L23.2322 14.6806 "/>
<path d="M23.2322 14.6806 L23.2926 14.801599999999999 "/>
<path d="M23.2926 14.801599999999999 L23.3531 14.8621 "/>
<path d="M23.3531 14.8621 L23.4741 14.922500000000001 "/>
<path d="M23.4741 14.922500000000001 L23.716 14.922500000000001 "/>
<path d="M23.716 14.922500000000001 L23.8369 14.8621 "/>
<path d="M23.8369 14.8621 L23.8974 14.801599999999999 "/>
<path d="M23.8974 14.801599999999999 L23.9579 14.6806 "/>
<path d="M23.9579 14.6806 L23.9579 14.378200000000001 "/>
<path d="M23.9579 14.378200000000001 L23.8974 14.257299999999999 "/>
<path d="M23.8974 14.257299999999999 L23.8369 14.196800000000001 "/>
<path d="M23.8369 14.196800000000001 L23.716 14.1363 "/>
<path d="M23.716 14.1363 L23.4741 14.1363 "/>
<path d="M23.4741 14.1363 L23.3531 14.196800000000001 "/>
<path d="M23.3531 14.196800000000001 L23.2926 14.257299999999999 "/>
<path d="M23.2926 14.257299999999999 L23.2322 14.378200000000001 "/>
</g></g>
<g style="fill:none;  stroke:#840000; stroke-width:0.1524; stroke-opacity:1;  stroke-linecap:round; stroke-linejoin:round;">
<path d="M21.69 10.26 L25.499999999999996 10.26 "/>
</g>
<g style="fill:none;  stroke:#006464; stroke-width:0.1524; stroke-opacity:1;  stroke-linecap:round; stroke-linejoin:round;">
<text x="28.8054" y="23.8379" textLength="3.2875" font-size="1.6933" lengthAdjust="spacingAndGlyphs" text-anchor="end" opacity="0">DIS</text>
<g class="stroked-text"><desc>DIS</desc>
<path d="M18.2998 10.8395 L18.2998 9.5695 "/>
<path d="M18.2998 9.5695 L18.6022 9.5695 "/>
<path d="M18.6022 9.5695 L18.7836 9.63 "/>
<path d="M18.7836 9.63 L18.9046 9.751 "/>
<path d="M18.9046 9.751 L18.9651 9.871900000000002 "/>
<path d="M18.9651 9.871900000000002 L19.0255 10.1138 "/>
<path d="M19.0255 10.1138 L19.0255 10.2952 "/>
<path d="M19.0255 10.2952 L18.9651 10.5371 "/>
<path d="M18.9651 10.5371 L18.9046 10.6581 "/>
<path d="M18.9046 10.6581 L18.7836 10.779100000000001 "/>
<path d="M18.7836 10.779100000000001 L18.6022 10.8395 "/>
<path d="M18.6022 10.8395 L18.2998 10.8395 "/>
<path d="M19.5698 10.8395 L19.5698 9.5695 "/>
<path d="M20.1142 10.779100000000001 L20.2956 10.8395 "/>
<path d="M20.2956 10.8395 L20.598 10.8395 "/>
<path d="M20.598 10.8395 L20.7189 10.779100000000001 "/>
<path d="M20.7189 10.779100000000001 L20.7794 10.7186 "/>
<path d="M20.7794 10.7186 L20.8399 10.597600000000002 "/>
<path d="M20.8399 10.597600000000002 L20.8399 10.4767 "/>
<path d="M20.8399 10.4767 L20.7794 10.3557 "/>
<path d="M20.7794 10.3557 L20.7189 10.2952 "/>
<path d="M20.7189 10.2952 L20.598 10.234800000000002 "/>
<path d="M20.598 10.234800000000002 L20.3561 10.1743 "/>
<path d="M20.3561 10.1743 L20.2351 10.1138 "/>
<path d="M20.2351 10.1138 L20.174599999999998 10.053300000000002 "/>
<path d="M20.174599999999998 10.053300000000002 L20.1142 9.9324 "/>
<path d="M20.1142 9.9324 L20.1142 9.8114 "/>
<path d="M20.1142 9.8114 L20.174599999999998 9.690500000000002 "/>
<path d="M20.174599999999998 9.690500000000002 L20.2351 9.63 "/>
<path d="M20.2351 9.63 L20.3561 9.5695 "/>
<path d="M20.3561 9.5695 L20.6584 9.5695 "/>
<path d="M20.6584 9.5695 L20.8399 9.63 "/>
</g></g>
<g style="fill:none;  stroke:#A90000; stroke-width:0.1524; stroke-opacity:1;  stroke-linecap:round; stroke-linejoin:round;">
<text x="31.2184" y="22.9489" textLength="1.4127" font-size="1.6933" lengthAdjust="spacingAndGlyphs" text-anchor="middle" opacity="0">7</text>
<g class="stroked-text"><desc>7</desc>
<path d="M23.1717 8.5725 L24.0183 8.5725 "/>
<path d="M24.0183 8.5725 L23.4741 9.8425 "/>
</g></g>
<g style="fill:none;  stroke:#006464; stroke-width:0.1588; stroke-opacity:1;  stroke-linecap:round; stroke-linejoin:round;">
<text x="11.5841" y="14.9480" textLength="2.6415" font-size="1.6933" lengthAdjust="spacingAndGlyphs" text-anchor="middle" opacity="0">U?</text>
<g class="stroked-text"><desc>U?</desc>
<path d="M3.0534999999999997 0.6792999999999996 L3.0534999999999997 1.7073999999999998 "/>
<path d="M3.0534999999999997 1.7073999999999998 L3.113999999999999 1.8284000000000002 "/>
<path d="M3.113999999999999 1.8284000000000002 L3.1745 1.8888999999999996 "/>
<path d="M3.1745 1.8888999999999996 L3.295399999999999 1.949300000000001 "/>
<path d="M3.295399999999999 1.949300000000001 L3.5373 1.949300000000001 "/>
<path d="M3.5373 1.949300000000001 L3.6583000000000006 1.8888999999999996 "/>
<path d="M3.6583000000000006 1.8888999999999996 L3.7188 1.8284000000000002 "/>
<path d="M3.7188 1.8284000000000002 L3.7791999999999994 1.7073999999999998 "/>
<path d="M3.7791999999999994 1.7073999999999998 L3.7791999999999994 0.6792999999999996 "/>
<path d="M4.5655 1.8284000000000002 L4.6259 1.8888999999999996 "/>
<path d="M4.6259 1.8888999999999996 L4.5655 1.949300000000001 "/>
<path d="M4.5655 1.949300000000001 L4.504999999999999 1.8888999999999996 "/>
<path d="M4.504999999999999 1.8888999999999996 L4.5655 1.8284000000000002 "/>
<path d="M4.5655 1.8284000000000002 L4.5655 1.949300000000001 "/>
<path d="M4.323599999999999 0.7398000000000007 L4.4445 0.6792999999999996 "/>
<path d="M4.4445 0.6792999999999996 L4.7469 0.6792999999999996 "/>
<path d="M4.7469 0.6792999999999996 L4.867799999999999 0.7398000000000007 "/>
<path d="M4.867799999999999 0.7398000000000007 L4.9283 0.8607999999999993 "/>
<path d="M4.9283 0.8607999999999993 L4.9283 0.9817 "/>
<path d="M4.9283 0.9817 L4.867799999999999 1.1027000000000005 "/>
<path d="M4.867799999999999 1.1027000000000005 L4.8073999999999995 1.1631 "/>
<path d="M4.8073999999999995 1.1631 L4.686399999999999 1.2235999999999994 "/>
<path d="M4.686399999999999 1.2235999999999994 L4.6259 1.2841000000000005 "/>
<path d="M4.6259 1.2841000000000005 L4.5655 1.4049999999999994 "/>
<path d="M4.5655 1.4049999999999994 L4.5655 1.4655000000000005 "/>
</g><text x="28.0033" y="14.9480" textLength="10.0799" font-size="1.6933" lengthAdjust="spacingAndGlyphs" text-anchor="middle" opacity="0">LMC555xM</text>
<g class="stroked-text"><desc>LMC555xM</desc>
<path d="M16.3583 1.949300000000001 L15.753499999999999 1.949300000000001 "/>
<path d="M15.753499999999999 1.949300000000001 L15.753499999999999 0.6792999999999996 "/>
<path d="M16.7816 1.949300000000001 L16.7816 0.6792999999999996 "/>
<path d="M16.7816 0.6792999999999996 L17.205 1.586500000000001 "/>
<path d="M17.205 1.586500000000001 L17.6283 0.6792999999999996 "/>
<path d="M17.6283 0.6792999999999996 L17.6283 1.949300000000001 "/>
<path d="M18.9587 1.8284000000000002 L18.8983 1.8888999999999996 "/>
<path d="M18.8983 1.8888999999999996 L18.7168 1.949300000000001 "/>
<path d="M18.7168 1.949300000000001 L18.5959 1.949300000000001 "/>
<path d="M18.5959 1.949300000000001 L18.4145 1.8888999999999996 "/>
<path d="M18.4145 1.8888999999999996 L18.293499999999998 1.767900000000001 "/>
<path d="M18.293499999999998 1.767900000000001 L18.233 1.6469000000000005 "/>
<path d="M18.233 1.6469000000000005 L18.1726 1.4049999999999994 "/>
<path d="M18.1726 1.4049999999999994 L18.1726 1.2235999999999994 "/>
<path d="M18.1726 1.2235999999999994 L18.233 0.9817 "/>
<path d="M18.233 0.9817 L18.293499999999998 0.8607999999999993 "/>
<path d="M18.293499999999998 0.8607999999999993 L18.4145 0.7398000000000007 "/>
<path d="M18.4145 0.7398000000000007 L18.5959 0.6792999999999996 "/>
<path d="M18.5959 0.6792999999999996 L18.7168 0.6792999999999996 "/>
<path d="M18.7168 0.6792999999999996 L18.8983 0.7398000000000007 "/>
<path d="M18.8983 0.7398000000000007 L18.9587 0.8003 "/>
<path d="M20.1078 0.6792999999999996 L19.503 0.6792999999999996 "/>
<path d="M19.503 0.6792999999999996 L19.4426 1.2841000000000005 "/>
<path d="M19.4426 1.2841000000000005 L19.503 1.2235999999999994 "/>
<path d="M19.503 1.2235999999999994 L19.624 1.1631 "/>
<path d="M19.624 1.1631 L19.9264 1.1631 "/>
<path d="M19.9264 1.1631 L20.0473 1.2235999999999994 "/>
<path d="M20.0473 1.2235999999999994 L20.1078 1.2841000000000005 "/>
<path d="M20.1078 1.2841000000000005 L20.1683 1.4049999999999994 "/>
<path d="M20.1683 1.4049999999999994 L20.1683 1.7073999999999998 "/>
<path d="M20.1683 1.7073999999999998 L20.1078 1.8284000000000002 "/>
<path d="M20.1078 1.8284000000000002 L20.0473 1.8888999999999996 "/>
<path d="M20.0473 1.8888999999999996 L19.9264 1.949300000000001 "/>
<path d="M19.9264 1.949300000000001 L19.624 1.949300000000001 "/>
<path d="M19.624 1.949300000000001 L19.503 1.8888999999999996 "/>
<path d="M19.503 1.8888999999999996 L19.4426 1.8284000000000002 "/>
<path d="M21.3173 0.6792999999999996 L20.7125 0.6792999999999996 "/>
<path d="M20.7125 0.6792999999999996 L20.6521 1.2841000000000005 "/>
<path d="M20.6521 1.2841000000000005 L20.7125 1.2235999999999994 "/>
<path d="M20.7125 1.2235999999999994 L20.8335 1.1631 "/>
<path d="M20.8335 1.1631 L21.1359 1.1631 "/>
<path d="M21.1359 1.1631 L21.2568 1.2235999999999994 "/>
<path d="M21.2568 1.2235999999999994 L21.3173 1.2841000000000005 "/>
<path d="M21.3173 1.2841000000000005 L21.3778 1.4049999999999994 "/>
<path d="M21.3778 1.4049999999999994 L21.3778 1.7073999999999998 "/>
<path d="M21.3778 1.7073999999999998 L21.3173 1.8284000000000002 "/>
<path d="M21.3173 1.8284000000000002 L21.2568 1.8888999999999996 "/>
<path d="M21.2568 1.8888999999999996 L21.1359 1.949300000000001 "/>
<path d="M21.1359 1.949300000000001 L20.8335 1.949300000000001 "/>
<path d="M20.8335 1.949300000000001 L20.7125 1.8888999999999996 "/>
<path d="M20.7125 1.8888999999999996 L20.6521 1.8284000000000002 "/>
<path d="M22.5268 0.6792999999999996 L21.922 0.6792999999999996 "/>
<path d="M21.922 0.6792999999999996 L21.8616 1.2841000000000005 "/>
<path d="M21.8616 1.2841000000000005 L21.922 1.2235999999999994 "/>
<path d="M21.922 1.2235999999999994 L22.043 1.1631 "/>
<path d="M22.043 1.1631 L22.3454 1.1631 "/>
<path d="M22.3454 1.1631 L22.4663 1.2235999999999994 "/>
<path d="M22.4663 1.2235999999999994 L22.5268 1.2841000000000005 "/>
<path d="M22.5268 1.2841000000000005 L22.5873 1.4049999999999994 "/>
<path d="M22.5873 1.4049999999999994 L22.5873 1.7073999999999998 "/>
<path d="M22.5873 1.7073999999999998 L22.5268 1.8284000000000002 "/>
<path d="M22.5268 1.8284000000000002 L22.4663 1.8888999999999996 "/>
<path d="M22.4663 1.8888999999999996 L22.3454 1.949300000000001 "/>
<path d="M22.3454 1.949300000000001 L22.043 1.949300000000001 "/>
<path d="M22.043 1.949300000000001 L21.922 1.8888999999999996 "/>
<path d="M21.922 1.8888999999999996 L21.8616 1.8284000000000002 "/>
<path d="M23.0106 1.949300000000001 L23.6758 1.1027000000000005 "/>
<path d="M23.0106 1.1027000000000005 L23.6758 1.949300000000001 "/>
<path d="M24.1596 1.949300000000001 L24.1596 0.6792999999999996 "/>
<path d="M24.1596 0.6792999999999996 L24.583000000000002 1.586500000000001 "/>
<path d="M24.583000000000002 1.586500000000001 L25.0063 0.6792999999999996 "/>
<path d="M25.0063 0.6792999999999996 L25.0063 1.949300000000001 "/>
</g></g> 
</svg>