<!DOCTYPE svg PUBLIC "-//W3C//DTD SVG 1.1//EN" "http://www.w3.org/Graphics/SVG/1.1/DTD/svg11.dtd">
<svg xmlns:svg="http://www.w3.org/2000/svg" xmlns="http://www.w3.org/2000/svg" xmlns:xlink="http://www.w3.org/1999/xlink" version="1.1" width="17.5mm" height="17.5mm" viewBox="0.0000 0.0000 17.5 17.5">
<title>SVG Image created as LQFP-100_14x14mm_Pitch0.5mm.svg date 2024/09/11 16:37:03 </title>
  <desc>Image generated by PCBNEW </desc>
<g style="fill:#000000; fill-opacity:1.0000;stroke:#000000; stroke-opacity:1.0000; stroke-linecap:round; stroke-linejoin:round;" transform="translate(0 0) scale(1 1)">
<path style="fill:#000000; fill-opacity:1.0000; stroke:none;fill-rule:evenodd;" d="M 0.09999999999999998,2.89 0.09999999999999998,2.6100000000000003 1.5999999999999999,2.6100000000000003 1.5999999999999999,2.89 Z"/> 
<path style="fill:#000000; fill-opacity:1.0000; stroke:none;fill-rule:evenodd;" d="M 0.09999999999999998,3.39 0.09999999999999998,3.1100000000000003 1.5999999999999999,3.1100000000000003 1.5999999999999999,3.39 Z"/> 
<path style="fill:#000000; fill-opacity:1.0000; stroke:none;fill-rule:evenodd;" d="M 0.09999999999999998,3.8900000000000006 0.09999999999999998,3.6100000000000003 1.5999999999999999,3.6100000000000003 1.5999999999999999,3.8900000000000006 Z"/> 
<path style="fill:#000000; fill-opacity:1.0000; stroke:none;fill-rule:evenodd;" d="M 0.09999999999999998,4.390000000000001 0.09999999999999998,4.11 1.5999999999999999,4.11 1.5999999999999999,4.390000000000001 Z"/> 
<path style="fill:#000000; fill-opacity:1.0000; stroke:none;fill-rule:evenodd;" d="M 0.09999999999999998,4.890000000000001 0.09999999999999998,4.61 1.5999999999999999,4.61 1.5999999999999999,4.890000000000001 Z"/> 
<path style="fill:#000000; fill-opacity:1.0000; stroke:none;fill-rule:evenodd;" d="M 0.09999999999999998,5.390000000000001 0.09999999999999998,5.11 1.5999999999999999,5.11 1.5999999999999999,5.390000000000001 Z"/> 
<path style="fill:#000000; fill-opacity:1.0000; stroke:none;fill-rule:evenodd;" d="M 0.09999999999999998,5.890000000000001 0.09999999999999998,5.61 1.5999999999999999,5.61 1.5999999999999999,5.890000000000001 Z"/> 
<path style="fill:#000000; fill-opacity:1.0000; stroke:none;fill-rule:evenodd;" d="M 0.09999999999999998,6.390000000000001 0.09999999999999998,6.11 1.5999999999999999,6.11 1.5999999999999999,6.390000000000001 Z"/> 
<path style="fill:#000000; fill-opacity:1.0000; stroke:none;fill-rule:evenodd;" d="M 0.09999999999999998,6.890000000000001 0.09999999999999998,6.61 1.5999999999999999,6.61 1.5999999999999999,6.890000000000001 Z"/> 
<path style="fill:#000000; fill-opacity:1.0000; stroke:none;fill-rule:evenodd;" d="M 0.09999999999999998,7.390000000000001 0.09999999999999998,7.11 1.5999999999999999,7.11 1.5999999999999999,7.390000000000001 Z"/> 
<path style="fill:#000000; fill-opacity:1.0000; stroke:none;fill-rule:evenodd;" d="M 0.09999999999999998,7.89 0.09999999999999998,7.61 1.5999999999999999,7.61 1.5999999999999999,7.89 Z"/> 
<path style="fill:#000000; fill-opacity:1.0000; stroke:none;fill-rule:evenodd;" d="M 0.09999999999999998,8.389999999999999 0.09999999999999998,8.11 1.5999999999999999,8.11 1.5999999999999999,8.389999999999999 Z"/> 
<path style="fill:#000000; fill-opacity:1.0000; stroke:none;fill-rule:evenodd;" d="M 0.09999999999999998,8.889999999999999 0.09999999999999998,8.61 1.5999999999999999,8.61 1.5999999999999999,8.889999999999999 Z"/> 
<path style="fill:#000000; fill-opacity:1.0000; stroke:none;fill-rule:evenodd;" d="M 0.09999999999999998,9.389999999999999 0.09999999999999998,9.11 1.5999999999999999,9.11 1.5999999999999999,9.389999999999999 Z"/> 
<path style="fill:#000000; fill-opacity:1.0000; stroke:none;fill-rule:evenodd;" d="M 0.09999999999999998,9.889999999999999 0.09999999999999998,9.61 1.5999999999999999,9.61 1.5999999999999999,9.889999999999999 Z"/> 
<path style="fill:#000000; fill-opacity:1.0000; stroke:none;fill-rule:evenodd;" d="M 0.09999999999999998,10.389999999999999 0.09999999999999998,10.11 1.5999999999999999,10.11 1.5999999999999999,10.389999999999999 Z"/> 
<path style="fill:#000000; fill-opacity:1.0000; stroke:none;fill-rule:evenodd;" d="M 0.09999999999999998,10.889999999999999 0.09999999999999998,10.61 1.5999999999999999,10.61 1.5999999999999999,10.889999999999999 Z"/> 
<path style="fill:#000000; fill-opacity:1.0000; stroke:none;fill-rule:evenodd;" d="M 0.09999999999999998,11.389999999999999 0.09999999999999998,11.11 1.5999999999999999,11.11 1.5999999999999999,11.389999999999999 Z"/> 
<path style="fill:#000000; fill-opacity:1.0000; stroke:none;fill-rule:evenodd;" d="M 0.09999999999999998,11.889999999999999 0.09999999999999998,11.61 1.5999999999999999,11.61 1.5999999999999999,11.889999999999999 Z"/> 
<path style="fill:#000000; fill-opacity:1.0000; stroke:none;fill-rule:evenodd;" d="M 0.09999999999999998,12.389999999999999 0.09999999999999998,12.11 1.5999999999999999,12.11 1.5999999999999999,12.389999999999999 Z"/> 
<path style="fill:#000000; fill-opacity:1.0000; stroke:none;fill-rule:evenodd;" d="M 0.09999999999999998,12.889999999999999 0.09999999999999998,12.61 1.5999999999999999,12.61 1.5999999999999999,12.889999999999999 Z"/> 
<path style="fill:#000000; fill-opacity:1.0000; stroke:none;fill-rule:evenodd;" d="M 0.09999999999999998,13.389999999999999 0.09999999999999998,13.11 1.5999999999999999,13.11 1.5999999999999999,13.389999999999999 Z"/> 
<path style="fill:#000000; fill-opacity:1.0000; stroke:none;fill-rule:evenodd;" d="M 0.09999999999999998,13.889999999999999 0.09999999999999998,13.61 1.5999999999999999,13.61 1.5999999999999999,13.889999999999999 Z"/> 
<path style="fill:#000000; fill-opacity:1.0000; stroke:none;fill-rule:evenodd;" d="M 0.09999999999999998,14.389999999999999 0.09999999999999998,14.11 1.5999999999999999,14.11 1.5999999999999999,14.389999999999999 Z"/> 
<path style="fill:#000000; fill-opacity:1.0000; stroke:none;fill-rule:evenodd;" d="M 0.09999999999999998,14.889999999999999 0.09999999999999998,14.61 1.5999999999999999,14.61 1.5999999999999999,14.889999999999999 Z"/> 
<path style="fill:#000000; fill-opacity:1.0000; stroke:none;fill-rule:evenodd;" d="M 2.8899999999999997,17.4 2.6100000000000003,17.4 2.6100000000000003,15.899999999999999 2.8899999999999997,15.899999999999999 Z"/> 
<path style="fill:#000000; fill-opacity:1.0000; stroke:none;fill-rule:evenodd;" d="M 3.3900000000000006,17.4 3.1100000000000003,17.4 3.1100000000000003,15.899999999999999 3.3900000000000006,15.899999999999999 Z"/> 
<path style="fill:#000000; fill-opacity:1.0000; stroke:none;fill-rule:evenodd;" d="M 3.8900000000000006,17.4 3.6100000000000003,17.4 3.6100000000000003,15.899999999999999 3.8900000000000006,15.899999999999999 Z"/> 
<path style="fill:#000000; fill-opacity:1.0000; stroke:none;fill-rule:evenodd;" d="M 4.390000000000001,17.4 4.11,17.4 4.11,15.899999999999999 4.390000000000001,15.899999999999999 Z"/> 
<path style="fill:#000000; fill-opacity:1.0000; stroke:none;fill-rule:evenodd;" d="M 4.890000000000001,17.4 4.61,17.4 4.61,15.899999999999999 4.890000000000001,15.899999999999999 Z"/> 
<path style="fill:#000000; fill-opacity:1.0000; stroke:none;fill-rule:evenodd;" d="M 5.390000000000001,17.4 5.11,17.4 5.11,15.899999999999999 5.390000000000001,15.899999999999999 Z"/> 
<path style="fill:#000000; fill-opacity:1.0000; stroke:none;fill-rule:evenodd;" d="M 5.890000000000001,17.4 5.61,17.4 5.61,15.899999999999999 5.890000000000001,15.899999999999999 Z"/> 
<path style="fill:#000000; fill-opacity:1.0000; stroke:none;fill-rule:evenodd;" d="M 6.390000000000001,17.4 6.11,17.4 6.11,15.899999999999999 6.390000000000001,15.899999999999999 Z"/> 
<path style="fill:#000000; fill-opacity:1.0000; stroke:none;fill-rule:evenodd;" d="M 6.890000000000001,17.4 6.61,17.4 6.61,15.899999999999999 6.890000000000001,15.899999999999999 Z"/> 
<path style="fill:#000000; fill-opacity:1.0000; stroke:none;fill-rule:evenodd;" d="M 7.39,17.4 7.11,17.4 7.11,15.899999999999999 7.39,15.899999999999999 Z"/> 
<path style="fill:#000000; fill-opacity:1.0000; stroke:none;fill-rule:evenodd;" d="M 7.89,17.4 7.61,17.4 7.61,15.899999999999999 7.89,15.899999999999999 Z"/> 
<path style="fill:#000000; fill-opacity:1.0000; stroke:none;fill-rule:evenodd;" d="M 8.389999999999999,17.4 8.11,17.4 8.11,15.899999999999999 8.389999999999999,15.899999999999999 Z"/> 
<path style="fill:#000000; fill-opacity:1.0000; stroke:none;fill-rule:evenodd;" d="M 8.889999999999999,17.4 8.61,17.4 8.61,15.899999999999999 8.889999999999999,15.899999999999999 Z"/> 
<path style="fill:#000000; fill-opacity:1.0000; stroke:none;fill-rule:evenodd;" d="M 9.389999999999999,17.4 9.11,17.4 9.11,15.899999999999999 9.389999999999999,15.899999999999999 Z"/> 
<path style="fill:#000000; fill-opacity:1.0000; stroke:none;fill-rule:evenodd;" d="M 9.889999999999999,17.4 9.61,17.4 9.61,15.899999999999999 9.889999999999999,15.899999999999999 Z"/> 
<path style="fill:#000000; fill-opacity:1.0000; stroke:none;fill-rule:evenodd;" d="M 10.389999999999999,17.4 10.11,17.4 10.11,15.899999999999999 10.389999999999999,15.899999999999999 Z"/> 
<path style="fill:#000000; fill-opacity:1.0000; stroke:none;fill-rule:evenodd;" d="M 10.889999999999999,17.4 10.61,17.4 10.61,15.899999999999999 10.889999999999999,15.899999999999999 Z"/> 
<path style="fill:#000000; fill-opacity:1.0000; stroke:none;fill-rule:evenodd;" d="M 11.389999999999999,17.4 11.11,17.4 11.11,15.899999999999999 11.389999999999999,15.899999999999999 Z"/> 
<path style="fill:#000000; fill-opacity:1.0000; stroke:none;fill-rule:evenodd;" d="M 11.889999999999999,17.4 11.61,17.4 11.61,15.899999999999999 11.889999999999999,15.899999999999999 Z"/> 
<path style="fill:#000000; fill-opacity:1.0000; stroke:none;fill-rule:evenodd;" d="M 12.389999999999999,17.4 12.11,17.4 12.11,15.899999999999999 12.389999999999999,15.899999999999999 Z"/> 
<path style="fill:#000000; fill-opacity:1.0000; stroke:none;fill-rule:evenodd;" d="M 12.889999999999999,17.4 12.61,17.4 12.61,15.899999999999999 12.889999999999999,15.899999999999999 Z"/> 
<path style="fill:#000000; fill-opacity:1.0000; stroke:none;fill-rule:evenodd;" d="M 13.389999999999999,17.4 13.11,17.4 13.11,15.899999999999999 13.389999999999999,15.899999999999999 Z"/> 
<path style="fill:#000000; fill-opacity:1.0000; stroke:none;fill-rule:evenodd;" d="M 13.889999999999999,17.4 13.61,17.4 13.61,15.899999999999999 13.889999999999999,15.899999999999999 Z"/> 
<path style="fill:#000000; fill-opacity:1.0000; stroke:none;fill-rule:evenodd;" d="M 14.389999999999999,17.4 14.11,17.4 14.11,15.899999999999999 14.389999999999999,15.899999999999999 Z"/> 
<path style="fill:#000000; fill-opacity:1.0000; stroke:none;fill-rule:evenodd;" d="M 14.889999999999999,17.4 14.61,17.4 14.61,15.899999999999999 14.889999999999999,15.899999999999999 Z"/> 
<path style="fill:#000000; fill-opacity:1.0000; stroke:none;fill-rule:evenodd;" d="M 15.9,14.889999999999999 15.9,14.61 17.400000000000002,14.61 17.400000000000002,14.889999999999999 Z"/> 
<path style="fill:#000000; fill-opacity:1.0000; stroke:none;fill-rule:evenodd;" d="M 15.9,14.389999999999999 15.9,14.11 17.400000000000002,14.11 17.400000000000002,14.389999999999999 Z"/> 
<path style="fill:#000000; fill-opacity:1.0000; stroke:none;fill-rule:evenodd;" d="M 15.9,13.889999999999999 15.9,13.61 17.400000000000002,13.61 17.400000000000002,13.889999999999999 Z"/> 
<path style="fill:#000000; fill-opacity:1.0000; stroke:none;fill-rule:evenodd;" d="M 15.9,13.389999999999999 15.9,13.11 17.400000000000002,13.11 17.400000000000002,13.389999999999999 Z"/> 
<path style="fill:#000000; fill-opacity:1.0000; stroke:none;fill-rule:evenodd;" d="M 15.9,12.889999999999999 15.9,12.61 17.400000000000002,12.61 17.400000000000002,12.889999999999999 Z"/> 
<path style="fill:#000000; fill-opacity:1.0000; stroke:none;fill-rule:evenodd;" d="M 15.9,12.389999999999999 15.9,12.11 17.400000000000002,12.11 17.400000000000002,12.389999999999999 Z"/> 
<path style="fill:#000000; fill-opacity:1.0000; stroke:none;fill-rule:evenodd;" d="M 15.9,11.889999999999999 15.9,11.61 17.400000000000002,11.61 17.400000000000002,11.889999999999999 Z"/> 
<path style="fill:#000000; fill-opacity:1.0000; stroke:none;fill-rule:evenodd;" d="M 15.9,11.389999999999999 15.9,11.11 17.400000000000002,11.11 17.400000000000002,11.389999999999999 Z"/> 
<path style="fill:#000000; fill-opacity:1.0000; stroke:none;fill-rule:evenodd;" d="M 15.9,10.889999999999999 15.9,10.61 17.400000000000002,10.61 17.400000000000002,10.889999999999999 Z"/> 
<path style="fill:#000000; fill-opacity:1.0000; stroke:none;fill-rule:evenodd;" d="M 15.9,10.389999999999999 15.9,10.11 17.400000000000002,10.11 17.400000000000002,10.389999999999999 Z"/> 
<path style="fill:#000000; fill-opacity:1.0000; stroke:none;fill-rule:evenodd;" d="M 15.9,9.889999999999999 15.9,9.61 17.400000000000002,9.61 17.400000000000002,9.889999999999999 Z"/> 
<path style="fill:#000000; fill-opacity:1.0000; stroke:none;fill-rule:evenodd;" d="M 15.9,9.389999999999999 15.9,9.11 17.400000000000002,9.11 17.400000000000002,9.389999999999999 Z"/> 
<path style="fill:#000000; fill-opacity:1.0000; stroke:none;fill-rule:evenodd;" d="M 15.9,8.889999999999999 15.9,8.61 17.400000000000002,8.61 17.400000000000002,8.889999999999999 Z"/> 
<path style="fill:#000000; fill-opacity:1.0000; stroke:none;fill-rule:evenodd;" d="M 15.9,8.389999999999999 15.9,8.11 17.400000000000002,8.11 17.400000000000002,8.389999999999999 Z"/> 
<path style="fill:#000000; fill-opacity:1.0000; stroke:none;fill-rule:evenodd;" d="M 15.9,7.89 15.9,7.61 17.400000000000002,7.61 17.400000000000002,7.89 Z"/> 
<path style="fill:#000000; fill-opacity:1.0000; stroke:none;fill-rule:evenodd;" d="M 15.9,7.390000000000001 15.9,7.11 17.400000000000002,7.11 17.400000000000002,7.390000000000001 Z"/> 
<path style="fill:#000000; fill-opacity:1.0000; stroke:none;fill-rule:evenodd;" d="M 15.9,6.890000000000001 15.9,6.61 17.400000000000002,6.61 17.400000000000002,6.890000000000001 Z"/> 
<path style="fill:#000000; fill-opacity:1.0000; stroke:none;fill-rule:evenodd;" d="M 15.9,6.390000000000001 15.9,6.11 17.400000000000002,6.11 17.400000000000002,6.390000000000001 Z"/> 
<path style="fill:#000000; fill-opacity:1.0000; stroke:none;fill-rule:evenodd;" d="M 15.9,5.890000000000001 15.9,5.61 17.400000000000002,5.61 17.400000000000002,5.890000000000001 Z"/> 
<path style="fill:#000000; fill-opacity:1.0000; stroke:none;fill-rule:evenodd;" d="M 15.9,5.390000000000001 15.9,5.11 17.400000000000002,5.11 17.400000000000002,5.390000000000001 Z"/> 
<path style="fill:#000000; fill-opacity:1.0000; stroke:none;fill-rule:evenodd;" d="M 15.9,4.890000000000001 15.9,4.61 17.400000000000002,4.61 17.400000000000002,4.890000000000001 Z"/> 
<path style="fill:#000000; fill-opacity:1.0000; stroke:none;fill-rule:evenodd;" d="M 15.9,4.390000000000001 15.9,4.11 17.400000000000002,4.11 17.400000000000002,4.390000000000001 Z"/> 
<path style="fill:#000000; fill-opacity:1.0000; stroke:none;fill-rule:evenodd;" d="M 15.9,3.8900000000000006 15.9,3.6100000000000003 17.400000000000002,3.6100000000000003 17.400000000000002,3.8900000000000006 Z"/> 
<path style="fill:#000000; fill-opacity:1.0000; stroke:none;fill-rule:evenodd;" d="M 15.9,3.39 15.9,3.1100000000000003 17.400000000000002,3.1100000000000003 17.400000000000002,3.39 Z"/> 
<path style="fill:#000000; fill-opacity:1.0000; stroke:none;fill-rule:evenodd;" d="M 15.9,2.89 15.9,2.6100000000000003 17.400000000000002,2.6100000000000003 17.400000000000002,2.89 Z"/> 
<path style="fill:#000000; fill-opacity:1.0000; stroke:none;fill-rule:evenodd;" d="M 14.889999999999999,1.5999999999999999 14.61,1.5999999999999999 14.61,0.1 14.889999999999999,0.1 Z"/> 
<path style="fill:#000000; fill-opacity:1.0000; stroke:none;fill-rule:evenodd;" d="M 14.389999999999999,1.5999999999999999 14.11,1.5999999999999999 14.11,0.1 14.389999999999999,0.1 Z"/> 
<path style="fill:#000000; fill-opacity:1.0000; stroke:none;fill-rule:evenodd;" d="M 13.889999999999999,1.5999999999999999 13.61,1.5999999999999999 13.61,0.1 13.889999999999999,0.1 Z"/> 
<path style="fill:#000000; fill-opacity:1.0000; stroke:none;fill-rule:evenodd;" d="M 13.389999999999999,1.5999999999999999 13.11,1.5999999999999999 13.11,0.1 13.389999999999999,0.1 Z"/> 
<path style="fill:#000000; fill-opacity:1.0000; stroke:none;fill-rule:evenodd;" d="M 12.889999999999999,1.5999999999999999 12.61,1.5999999999999999 12.61,0.1 12.889999999999999,0.1 Z"/> 
<path style="fill:#000000; fill-opacity:1.0000; stroke:none;fill-rule:evenodd;" d="M 12.389999999999999,1.5999999999999999 12.11,1.5999999999999999 12.11,0.1 12.389999999999999,0.1 Z"/> 
<path style="fill:#000000; fill-opacity:1.0000; stroke:none;fill-rule:evenodd;" d="M 11.889999999999999,1.5999999999999999 11.61,1.5999999999999999 11.61,0.1 11.889999999999999,0.1 Z"/> 
<path style="fill:#000000; fill-opacity:1.0000; stroke:none;fill-rule:evenodd;" d="M 11.389999999999999,1.5999999999999999 11.11,1.5999999999999999 11.11,0.1 11.389999999999999,0.1 Z"/> 
<path style="fill:#000000; fill-opacity:1.0000; stroke:none;fill-rule:evenodd;" d="M 10.889999999999999,1.5999999999999999 10.61,1.5999999999999999 10.61,0.1 10.889999999999999,0.1 Z"/> 
<path style="fill:#000000; fill-opacity:1.0000; stroke:none;fill-rule:evenodd;" d="M 10.389999999999999,1.5999999999999999 10.11,1.5999999999999999 10.11,0.1 10.389999999999999,0.1 Z"/> 
<path style="fill:#000000; fill-opacity:1.0000; stroke:none;fill-rule:evenodd;" d="M 9.889999999999999,1.5999999999999999 9.61,1.5999999999999999 9.61,0.1 9.889999999999999,0.1 Z"/> 
<path style="fill:#000000; fill-opacity:1.0000; stroke:none;fill-rule:evenodd;" d="M 9.389999999999999,1.5999999999999999 9.11,1.5999999999999999 9.11,0.1 9.389999999999999,0.1 Z"/> 
<path style="fill:#000000; fill-opacity:1.0000; stroke:none;fill-rule:evenodd;" d="M 8.889999999999999,1.5999999999999999 8.61,1.5999999999999999 8.61,0.1 8.889999999999999,0.1 Z"/> 
<path style="fill:#000000; fill-opacity:1.0000; stroke:none;fill-rule:evenodd;" d="M 8.389999999999999,1.5999999999999999 8.11,1.5999999999999999 8.11,0.1 8.389999999999999,0.1 Z"/> 
<path style="fill:#000000; fill-opacity:1.0000; stroke:none;fill-rule:evenodd;" d="M 7.89,1.5999999999999999 7.61,1.5999999999999999 7.61,0.1 7.89,0.1 Z"/> 
<path style="fill:#000000; fill-opacity:1.0000; stroke:none;fill-rule:evenodd;" d="M 7.39,1.5999999999999999 7.11,1.5999999999999999 7.11,0.1 7.39,0.1 Z"/> 
<path style="fill:#000000; fill-opacity:1.0000; stroke:none;fill-rule:evenodd;" d="M 6.890000000000001,1.5999999999999999 6.61,1.5999999999999999 6.61,0.1 6.890000000000001,0.1 Z"/> 
<path style="fill:#000000; fill-opacity:1.0000; stroke:none;fill-rule:evenodd;" d="M 6.390000000000001,1.5999999999999999 6.11,1.5999999999999999 6.11,0.1 6.390000000000001,0.1 Z"/> 
<path style="fill:#000000; fill-opacity:1.0000; stroke:none;fill-rule:evenodd;" d="M 5.890000000000001,1.5999999999999999 5.61,1.5999999999999999 5.61,0.1 5.890000000000001,0.1 Z"/> 
<path style="fill:#000000; fill-opacity:1.0000; stroke:none;fill-rule:evenodd;" d="M 5.390000000000001,1.5999999999999999 5.11,1.5999999999999999 5.11,0.1 5.390000000000001,0.1 Z"/> 
<path style="fill:#000000; fill-opacity:1.0000; stroke:none;fill-rule:evenodd;" d="M 4.890000000000001,1.5999999999999999 4.61,1.5999999999999999 4.61,0.1 4.890000000000001,0.1 Z"/> 
<path style="fill:#000000; fill-opacity:1.0000; stroke:none;fill-rule:evenodd;" d="M 4.390000000000001,1.5999999999999999 4.11,1.5999999999999999 4.11,0.1 4.390000000000001,0.1 Z"/> 
<path style="fill:#000000; fill-opacity:1.0000; stroke:none;fill-rule:evenodd;" d="M 3.8900000000000006,1.5999999999999999 3.6100000000000003,1.5999999999999999 3.6100000000000003,0.1 3.8900000000000006,0.1 Z"/> 
<path style="fill:#000000; fill-opacity:1.0000; stroke:none;fill-rule:evenodd;" d="M 3.3900000000000006,1.5999999999999999 3.1100000000000003,1.5999999999999999 3.1100000000000003,0.1 3.3900000000000006,0.1 Z"/> 
<path style="fill:#000000; fill-opacity:1.0000; stroke:none;fill-rule:evenodd;" d="M 2.8899999999999997,1.5999999999999999 2.6100000000000003,1.5999999999999999 2.6100000000000003,0.1 2.8899999999999997,0.1 Z"/> 
</g> 
</svg>