<?xml version="1.0" standalone="no"?>
 <!DOCTYPE svg PUBLIC "-//W3C//DTD SVG 1.1//EN" 
 "http://www.w3.org/Graphics/SVG/1.1/DTD/svg11.dtd"> 
<svg
  xmlns:svg="http://www.w3.org/2000/svg"
  xmlns="http://www.w3.org/2000/svg"
  xmlns:xlink="http://www.w3.org/1999/xlink"
  version="1.1"
  width="55.0164mm" height="54.0258mm" viewBox="0.0000 0.0000 55.0164 54.0258">
<title>SVG Image created as mask.svg date 2024/11/22 14:26:52 </title>
  <desc>Image generated by PCBNEW </desc>
<g style="fill:#000000; fill-opacity:1.0000;stroke:#000000; stroke-opacity:1.0000;
stroke-linecap:round; stroke-linejoin:round;"
 transform="translate(0 0) scale(1 1)">
</g>
<g style="fill:#000000; fill-opacity:1.0000; stroke:none;">
<circle cx="49.5079" cy="36.7558" r="0.4500" /> 
</g>
<g style="fill:#000000; fill-opacity:1.0000; stroke:none;">
<circle cx="50.6559" cy="33.9842" r="0.4500" /> 
<path style="fill:#000000; fill-opacity:1.0000; stroke:none;fill-rule:evenodd;"
d="M 48.1630,37.3894
46.7772,36.8154
47.0451,36.1687
48.4309,36.7427
Z" /> 
<path style="fill:#000000; fill-opacity:1.0000; stroke:none;fill-rule:evenodd;"
d="M 49.3111,34.6178
47.9253,34.0438
48.1931,33.3970
49.5789,33.9711
Z" /> 
<path style="fill:#000000; fill-opacity:1.0000; stroke:none;fill-rule:evenodd;"
d="M 49.8851,33.2320
48.4993,32.6579
48.7672,32.0112
50.1530,32.5852
Z" /> 
<path style="fill:#000000; fill-opacity:1.0000; stroke:none;fill-rule:evenodd;"
d="M 48.5690,20.7190
48.5500,20.8147
48.4958,20.8958
48.4147,20.9500
48.3190,20.9690
47.6190,20.9690
47.5234,20.9500
47.4423,20.8958
47.3881,20.8147
47.3690,20.7190
47.3690,19.8191
47.3881,19.7234
47.4423,19.6423
47.5234,19.5881
47.6190,19.5691
48.3190,19.5691
48.4147,19.5881
48.4958,19.6423
48.5500,19.7234
48.5690,19.8191
Z" /> 
<path style="fill:#000000; fill-opacity:1.0000; stroke:none;fill-rule:evenodd;"
d="M 46.5690,20.7190
46.5500,20.8147
46.4958,20.8958
46.4147,20.9500
46.3190,20.9690
45.6191,20.9690
45.5234,20.9500
45.4423,20.8958
45.3881,20.8147
45.3691,20.7190
45.3691,19.8191
45.3881,19.7234
45.4423,19.6423
45.5234,19.5881
45.6191,19.5691
46.3190,19.5691
46.4147,19.5881
46.4958,19.6423
46.5500,19.7234
46.5690,19.8191
Z" /> 
<path style="fill:#000000; fill-opacity:1.0000; stroke:none;fill-rule:evenodd;"
d="M 47.7691,22.2190
49.1690,22.2190
49.1690,23.8190
47.7691,23.8190
Z" /> 
<path style="fill:#000000; fill-opacity:1.0000; stroke:none;fill-rule:evenodd;"
d="M 47.7691,29.4190
49.1690,29.4190
49.1690,31.0191
47.7691,31.0191
Z" /> 
<path style="fill:#000000; fill-opacity:1.0000; stroke:none;fill-rule:evenodd;"
d="M 44.7691,22.2190
46.1690,22.2190
46.1690,23.8190
44.7691,23.8190
Z" /> 
<path style="fill:#000000; fill-opacity:1.0000; stroke:none;fill-rule:evenodd;"
d="M 44.7691,29.4190
46.1690,29.4190
46.1690,31.0191
44.7691,31.0191
Z" /> 
<path style="fill:#000000; fill-opacity:1.0000; stroke:none;fill-rule:evenodd;"
d="M 4.6090,27.9740
4.5134,27.9550
4.4323,27.9008
4.3781,27.8197
4.3590,27.7240
4.3590,27.0740
4.3781,26.9784
4.4323,26.8973
4.5134,26.8431
4.6090,26.8240
5.5090,26.8240
5.6047,26.8431
5.6858,26.8973
5.7400,26.9784
5.7590,27.0740
5.7590,27.7240
5.7400,27.8197
5.6858,27.9008
5.6047,27.9550
5.5090,27.9740
Z" /> 
<path style="fill:#000000; fill-opacity:1.0000; stroke:none;fill-rule:evenodd;"
d="M 4.6090,25.9240
4.5134,25.9050
4.4323,25.8508
4.3781,25.7697
4.3590,25.6740
4.3590,25.0240
4.3781,24.9284
4.4323,24.8473
4.5134,24.7931
4.6090,24.7740
5.5090,24.7740
5.6047,24.7931
5.6858,24.8473
5.7400,24.9284
5.7590,25.0240
5.7590,25.6740
5.7400,25.7697
5.6858,25.8508
5.6047,25.9050
5.5090,25.9240
Z" /> 
<path style="fill:#000000; fill-opacity:1.0000; stroke:none;fill-rule:evenodd;"
d="M 23.1283,25.7360
23.1068,25.7318
23.0885,25.7196
23.0763,25.7013
23.0720,25.6798
23.0720,23.6183
23.0763,23.5968
23.0885,23.5785
23.1068,23.5663
23.1283,23.5620
23.8198,23.5620
23.8413,23.5663
23.8596,23.5785
23.8718,23.5968
23.8760,23.6183
23.8760,25.6798
23.8718,25.7013
23.8596,25.7196
23.8413,25.7318
23.8198,25.7360
Z" /> 
<path style="fill:#000000; fill-opacity:1.0000; stroke:none;fill-rule:evenodd;"
d="M 24.3983,25.7360
24.3768,25.7318
24.3585,25.7196
24.3463,25.7013
24.3421,25.6798
24.3421,23.6183
24.3463,23.5968
24.3585,23.5785
24.3768,23.5663
24.3983,23.5620
25.0898,23.5620
25.1113,23.5663
25.1296,23.5785
25.1418,23.5968
25.1460,23.6183
25.1460,25.6798
25.1418,25.7013
25.1296,25.7196
25.1113,25.7318
25.0898,25.7360
Z" /> 
<path style="fill:#000000; fill-opacity:1.0000; stroke:none;fill-rule:evenodd;"
d="M 25.6683,25.7360
25.6468,25.7318
25.6285,25.7196
25.6163,25.7013
25.6120,25.6798
25.6120,23.6183
25.6163,23.5968
25.6285,23.5785
25.6468,23.5663
25.6683,23.5620
26.3598,23.5620
26.3813,23.5663
26.3996,23.5785
26.4118,23.5968
26.4160,23.6183
26.4160,25.6798
26.4118,25.7013
26.3996,25.7196
26.3813,25.7318
26.3598,25.7360
Z" /> 
<path style="fill:#000000; fill-opacity:1.0000; stroke:none;fill-rule:evenodd;"
d="M 26.9383,25.7360
26.9168,25.7318
26.8985,25.7196
26.8863,25.7013
26.8820,25.6798
26.8820,23.6183
26.8863,23.5968
26.8985,23.5785
26.9168,23.5663
26.9383,23.5620
27.6298,23.5620
27.6513,23.5663
27.6696,23.5785
27.6818,23.5968
27.6860,23.6183
27.6860,25.6798
27.6818,25.7013
27.6696,25.7196
27.6513,25.7318
27.6298,25.7360
Z" /> 
<path style="fill:#000000; fill-opacity:1.0000; stroke:none;fill-rule:evenodd;"
d="M 28.2083,25.7360
28.1868,25.7318
28.1685,25.7196
28.1563,25.7013
28.1520,25.6798
28.1520,23.6183
28.1563,23.5968
28.1685,23.5785
28.1868,23.5663
28.2083,23.5620
28.8998,23.5620
28.9213,23.5663
28.9396,23.5785
28.9518,23.5968
28.9560,23.6183
28.9560,25.6798
28.9518,25.7013
28.9396,25.7196
28.9213,25.7318
28.8998,25.7360
Z" /> 
<path style="fill:#000000; fill-opacity:1.0000; stroke:none;fill-rule:evenodd;"
d="M 29.4783,25.7360
29.4568,25.7318
29.4385,25.7196
29.4263,25.7013
29.4220,25.6798
29.4220,23.6183
29.4263,23.5968
29.4385,23.5785
29.4568,23.5663
29.4783,23.5620
30.1698,23.5620
30.1913,23.5663
30.2096,23.5785
30.2218,23.5968
30.2260,23.6183
30.2260,25.6798
30.2218,25.7013
30.2096,25.7196
30.1913,25.7318
30.1698,25.7360
Z" /> 
<path style="fill:#000000; fill-opacity:1.0000; stroke:none;fill-rule:evenodd;"
d="M 30.7483,25.7360
30.7268,25.7318
30.7085,25.7196
30.6963,25.7013
30.6920,25.6798
30.6920,23.6183
30.6963,23.5968
30.7085,23.5785
30.7268,23.5663
30.7483,23.5620
31.4398,23.5620
31.4613,23.5663
31.4796,23.5785
31.4918,23.5968
31.4961,23.6183
31.4961,25.6798
31.4918,25.7013
31.4796,25.7196
31.4613,25.7318
31.4398,25.7360
Z" /> 
<path style="fill:#000000; fill-opacity:1.0000; stroke:none;fill-rule:evenodd;"
d="M 32.0183,25.7360
31.9968,25.7318
31.9785,25.7196
31.9663,25.7013
31.9620,25.6798
31.9620,23.6183
31.9663,23.5968
31.9785,23.5785
31.9968,23.5663
32.0183,23.5620
32.7098,23.5620
32.7313,23.5663
32.7496,23.5785
32.7618,23.5968
32.7660,23.6183
32.7660,25.6798
32.7618,25.7013
32.7496,25.7196
32.7313,25.7318
32.7098,25.7360
Z" /> 
<path style="fill:#000000; fill-opacity:1.0000; stroke:none;fill-rule:evenodd;"
d="M 32.0183,20.7860
31.9968,20.7818
31.9785,20.7696
31.9663,20.7513
31.9620,20.7298
31.9620,18.6683
31.9663,18.6468
31.9785,18.6285
31.9968,18.6163
32.0183,18.6120
32.7098,18.6120
32.7313,18.6163
32.7496,18.6285
32.7618,18.6468
32.7660,18.6683
32.7660,20.7298
32.7618,20.7513
32.7496,20.7696
32.7313,20.7818
32.7098,20.7860
Z" /> 
<path style="fill:#000000; fill-opacity:1.0000; stroke:none;fill-rule:evenodd;"
d="M 30.7483,20.7860
30.7268,20.7818
30.7085,20.7696
30.6963,20.7513
30.6920,20.7298
30.6920,18.6683
30.6963,18.6468
30.7085,18.6285
30.7268,18.6163
30.7483,18.6120
31.4398,18.6120
31.4613,18.6163
31.4796,18.6285
31.4918,18.6468
31.4961,18.6683
31.4961,20.7298
31.4918,20.7513
31.4796,20.7696
31.4613,20.7818
31.4398,20.7860
Z" /> 
<path style="fill:#000000; fill-opacity:1.0000; stroke:none;fill-rule:evenodd;"
d="M 29.4783,20.7860
29.4568,20.7818
29.4385,20.7696
29.4263,20.7513
29.4220,20.7298
29.4220,18.6683
29.4263,18.6468
29.4385,18.6285
29.4568,18.6163
29.4783,18.6120
30.1698,18.6120
30.1913,18.6163
30.2096,18.6285
30.2218,18.6468
30.2260,18.6683
30.2260,20.7298
30.2218,20.7513
30.2096,20.7696
30.1913,20.7818
30.1698,20.7860
Z" /> 
<path style="fill:#000000; fill-opacity:1.0000; stroke:none;fill-rule:evenodd;"
d="M 28.2083,20.7860
28.1868,20.7818
28.1685,20.7696
28.1563,20.7513
28.1520,20.7298
28.1520,18.6683
28.1563,18.6468
28.1685,18.6285
28.1868,18.6163
28.2083,18.6120
28.8998,18.6120
28.9213,18.6163
28.9396,18.6285
28.9518,18.6468
28.9560,18.6683
28.9560,20.7298
28.9518,20.7513
28.9396,20.7696
28.9213,20.7818
28.8998,20.7860
Z" /> 
<path style="fill:#000000; fill-opacity:1.0000; stroke:none;fill-rule:evenodd;"
d="M 26.9383,20.7860
26.9168,20.7818
26.8985,20.7696
26.8863,20.7513
26.8820,20.7298
26.8820,18.6683
26.8863,18.6468
26.8985,18.6285
26.9168,18.6163
26.9383,18.6120
27.6298,18.6120
27.6513,18.6163
27.6696,18.6285
27.6818,18.6468
27.6860,18.6683
27.6860,20.7298
27.6818,20.7513
27.6696,20.7696
27.6513,20.7818
27.6298,20.7860
Z" /> 
<path style="fill:#000000; fill-opacity:1.0000; stroke:none;fill-rule:evenodd;"
d="M 25.6683,20.7860
25.6468,20.7818
25.6285,20.7696
25.6163,20.7513
25.6120,20.7298
25.6120,18.6683
25.6163,18.6468
25.6285,18.6285
25.6468,18.6163
25.6683,18.6120
26.3598,18.6120
26.3813,18.6163
26.3996,18.6285
26.4118,18.6468
26.4160,18.6683
26.4160,20.7298
26.4118,20.7513
26.3996,20.7696
26.3813,20.7818
26.3598,20.7860
Z" /> 
<path style="fill:#000000; fill-opacity:1.0000; stroke:none;fill-rule:evenodd;"
d="M 24.3983,20.7860
24.3768,20.7818
24.3585,20.7696
24.3463,20.7513
24.3421,20.7298
24.3421,18.6683
24.3463,18.6468
24.3585,18.6285
24.3768,18.6163
24.3983,18.6120
25.0898,18.6120
25.1113,18.6163
25.1296,18.6285
25.1418,18.6468
25.1460,18.6683
25.1460,20.7298
25.1418,20.7513
25.1296,20.7696
25.1113,20.7818
25.0898,20.7860
Z" /> 
<path style="fill:#000000; fill-opacity:1.0000; stroke:none;fill-rule:evenodd;"
d="M 23.1283,20.7860
23.1068,20.7818
23.0885,20.7696
23.0763,20.7513
23.0720,20.7298
23.0720,18.6683
23.0763,18.6468
23.0885,18.6285
23.1068,18.6163
23.1283,18.6120
23.8198,18.6120
23.8413,18.6163
23.8596,18.6285
23.8718,18.6468
23.8760,18.6683
23.8760,20.7298
23.8718,20.7513
23.8596,20.7696
23.8413,20.7818
23.8198,20.7860
Z" /> 
<path style="fill:#000000; fill-opacity:1.0000; stroke:none;fill-rule:evenodd;"
d="M 23.5191,6.7691
23.5191,5.3690
25.1190,5.3690
25.1190,6.7691
Z" /> 
<path style="fill:#000000; fill-opacity:1.0000; stroke:none;fill-rule:evenodd;"
d="M 30.7190,6.7691
30.7190,5.3690
32.3190,5.3690
32.3190,6.7691
Z" /> 
<path style="fill:#000000; fill-opacity:1.0000; stroke:none;fill-rule:evenodd;"
d="M 23.5191,9.7691
23.5191,8.3690
25.1190,8.3690
25.1190,9.7691
Z" /> 
<path style="fill:#000000; fill-opacity:1.0000; stroke:none;fill-rule:evenodd;"
d="M 30.7190,9.7691
30.7190,8.3690
32.3190,8.3690
32.3190,9.7691
Z" /> 
<path style="fill:#000000; fill-opacity:1.0000; stroke:none;fill-rule:evenodd;"
d="M 35.1741,48.5740
35.1741,46.5740
37.1741,46.5740
37.1741,48.5740
Z" /> 
<path style="fill:#000000; fill-opacity:1.0000; stroke:none;fill-rule:evenodd;"
d="M 38.4091,39.7691
38.3900,39.8647
38.3358,39.9458
38.2547,40.0000
38.1591,40.0191
37.4590,40.0191
37.3634,40.0000
37.2823,39.9458
37.2281,39.8647
37.2090,39.7691
37.2090,38.8691
37.2281,38.7734
37.2823,38.6923
37.3634,38.6381
37.4590,38.6191
38.1591,38.6191
38.2547,38.6381
38.3358,38.6923
38.3900,38.7734
38.4091,38.8691
Z" /> 
<path style="fill:#000000; fill-opacity:1.0000; stroke:none;fill-rule:evenodd;"
d="M 36.4091,39.7691
36.3900,39.8647
36.3358,39.9458
36.2547,40.0000
36.1591,40.0191
35.4590,40.0191
35.3634,40.0000
35.2823,39.9458
35.2281,39.8647
35.2090,39.7691
35.2090,38.8691
35.2281,38.7734
35.2823,38.6923
35.3634,38.6381
35.4590,38.6191
36.1591,38.6191
36.2547,38.6381
36.3358,38.6923
36.3900,38.7734
36.4091,38.8691
Z" /> 
<path style="fill:#000000; fill-opacity:1.0000; stroke:none;fill-rule:evenodd;"
d="M 22.0191,20.5740
22.1147,20.5931
22.1958,20.6473
22.2500,20.7284
22.2691,20.8240
22.2691,21.5240
22.2500,21.6197
22.1958,21.7008
22.1147,21.7550
22.0191,21.7740
21.1190,21.7740
21.0234,21.7550
20.9423,21.7008
20.8881,21.6197
20.8690,21.5240
20.8690,20.8240
20.8881,20.7284
20.9423,20.6473
21.0234,20.5931
21.1190,20.5740
Z" /> 
<path style="fill:#000000; fill-opacity:1.0000; stroke:none;fill-rule:evenodd;"
d="M 22.0191,22.5740
22.1147,22.5931
22.1958,22.6473
22.2500,22.7284
22.2691,22.8240
22.2691,23.5240
22.2500,23.6197
22.1958,23.7008
22.1147,23.7550
22.0191,23.7740
21.1190,23.7740
21.0234,23.7550
20.9423,23.7008
20.8881,23.6197
20.8690,23.5240
20.8690,22.8240
20.8881,22.7284
20.9423,22.6473
21.0234,22.5931
21.1190,22.5740
Z" /> 
<path style="fill:#000000; fill-opacity:1.0000; stroke:none;fill-rule:evenodd;"
d="M 33.7390,12.7640
33.7390,11.2640
34.7390,11.2640
34.7390,12.7640
Z" /> 
<path style="fill:#000000; fill-opacity:1.0000; stroke:none;fill-rule:evenodd;"
d="M 35.0390,12.7640
35.0390,11.2640
36.0390,11.2640
36.0390,12.7640
Z" /> 
<path style="fill:#000000; fill-opacity:1.0000; stroke:none;fill-rule:evenodd;"
d="M 14.9140,20.7190
14.8950,20.8147
14.8408,20.8958
14.7597,20.9500
14.6640,20.9690
13.9640,20.9690
13.8684,20.9500
13.7873,20.8958
13.7331,20.8147
13.7140,20.7190
13.7140,19.8191
13.7331,19.7234
13.7873,19.6423
13.8684,19.5881
13.9640,19.5691
14.6640,19.5691
14.7597,19.5881
14.8408,19.6423
14.8950,19.7234
14.9140,19.8191
Z" /> 
<path style="fill:#000000; fill-opacity:1.0000; stroke:none;fill-rule:evenodd;"
d="M 12.9140,20.7190
12.8950,20.8147
12.8408,20.8958
12.7597,20.9500
12.6640,20.9690
11.9641,20.9690
11.8684,20.9500
11.7873,20.8958
11.7331,20.8147
11.7141,20.7190
11.7141,19.8191
11.7331,19.7234
11.7873,19.6423
11.8684,19.5881
11.9641,19.5691
12.6640,19.5691
12.7597,19.5881
12.8408,19.6423
12.8950,19.7234
12.9140,19.8191
Z" /> 
<path style="fill:#000000; fill-opacity:1.0000; stroke:none;fill-rule:evenodd;"
d="M 26.2290,32.5491
24.5290,32.5491
24.5290,30.8490
26.2290,30.8490
Z" /> 
</g>
<g style="fill:#000000; fill-opacity:1.0000; stroke:none;">
<circle cx="27.9190" cy="31.6990" r="0.8500" /> 
<circle cx="30.4590" cy="31.6990" r="0.8500" /> 
<circle cx="5.1865" cy="34.0001" r="0.4500" /> 
</g>
<g style="fill:#000000; fill-opacity:1.0000; stroke:none;">
<circle cx="6.3345" cy="36.7717" r="0.4500" /> 
<path style="fill:#000000; fill-opacity:1.0000; stroke:none;fill-rule:evenodd;"
d="M 5.6894,32.6011
7.0752,32.0271
7.3431,32.6738
5.9573,33.2479
Z" /> 
<path style="fill:#000000; fill-opacity:1.0000; stroke:none;fill-rule:evenodd;"
d="M 6.8375,35.3728
8.2233,34.7987
8.4912,35.4455
7.1053,36.0195
Z" /> 
<path style="fill:#000000; fill-opacity:1.0000; stroke:none;fill-rule:evenodd;"
d="M 7.4115,36.7586
8.7973,36.1846
9.0652,36.8313
7.6794,37.4053
Z" /> 
</g>
<g style="fill:#000000; fill-opacity:1.0000; stroke:none;">
<circle cx="39.7834" cy="42.5704" r="0.3250" /> 
</g>
<g style="fill:#000000; fill-opacity:1.0000; stroke:none;">
<circle cx="43.8704" cy="38.4834" r="0.3250" /> 
<path style="fill:#000000; fill-opacity:1.0000; stroke:none;fill-rule:evenodd;"
d="M 38.1323,41.8881
38.1160,41.8637
38.1103,41.8350
38.1160,41.8063
38.1323,41.7820
38.5565,41.3577
38.5809,41.3415
38.6096,41.3358
38.6383,41.3415
38.6626,41.3577
39.4758,42.1709
39.4920,42.1953
39.4977,42.2240
39.4920,42.2527
39.4758,42.2770
39.0515,42.7012
39.0272,42.7175
38.9985,42.7232
38.9698,42.7175
38.9454,42.7012
Z" /> 
<path style="fill:#000000; fill-opacity:1.0000; stroke:none;fill-rule:evenodd;"
d="M 38.6979,41.3224
38.6817,41.2981
38.6760,41.2694
38.6817,41.2407
38.6979,41.2163
39.1222,40.7921
39.1465,40.7758
39.1752,40.7701
39.2039,40.7758
39.2283,40.7921
40.0415,41.6052
40.0577,41.6296
40.0634,41.6583
40.0577,41.6870
40.0415,41.7113
39.6172,42.1356
39.5929,42.1518
39.5642,42.1575
39.5355,42.1518
39.5111,42.1356
Z" /> 
<path style="fill:#000000; fill-opacity:1.0000; stroke:none;fill-rule:evenodd;"
d="M 39.6172,40.4032
39.6009,40.3788
39.5952,40.3501
39.6009,40.3214
39.6172,40.2971
39.8293,40.0850
39.8537,40.0687
39.8824,40.0630
39.9111,40.0687
39.9354,40.0850
40.7486,40.8981
40.7648,40.9225
40.7705,40.9512
40.7648,40.9799
40.7486,41.0042
40.5364,41.2163
40.5121,41.2326
40.4834,41.2383
40.4547,41.2326
40.4304,41.2163
Z" /> 
<path style="fill:#000000; fill-opacity:1.0000; stroke:none;fill-rule:evenodd;"
d="M 40.3243,39.6960
40.3080,39.6717
40.3023,39.6430
40.3080,39.6143
40.3243,39.5900
40.5364,39.3778
40.5608,39.3616
40.5895,39.3559
40.6182,39.3616
40.6425,39.3778
41.4557,40.1910
41.4719,40.2154
41.4776,40.2441
41.4719,40.2728
41.4557,40.2971
41.2435,40.5092
41.2192,40.5255
41.1905,40.5312
41.1618,40.5255
41.1375,40.5092
Z" /> 
<path style="fill:#000000; fill-opacity:1.0000; stroke:none;fill-rule:evenodd;"
d="M 40.6778,39.3425
40.6616,39.3182
40.6559,39.2895
40.6616,39.2608
40.6778,39.2364
40.8900,39.0243
40.9143,39.0080
40.9430,39.0023
40.9717,39.0080
40.9960,39.0243
41.8092,39.8375
41.8255,39.8618
41.8312,39.8905
41.8255,39.9192
41.8092,39.9435
41.5971,40.1557
41.5728,40.1719
41.5441,40.1776
41.5154,40.1719
41.4910,40.1557
Z" /> 
<path style="fill:#000000; fill-opacity:1.0000; stroke:none;fill-rule:evenodd;"
d="M 41.3850,38.6354
41.3687,38.6111
41.3630,38.5824
41.3687,38.5537
41.3850,38.5293
41.5971,38.3172
41.6214,38.3009
41.6501,38.2952
41.6788,38.3009
41.7032,38.3172
42.5163,39.1304
42.5326,39.1547
42.5383,39.1834
42.5326,39.2121
42.5163,39.2364
42.3042,39.4486
42.2799,39.4648
42.2512,39.4705
42.2225,39.4648
42.1981,39.4486
Z" /> 
<path style="fill:#000000; fill-opacity:1.0000; stroke:none;fill-rule:evenodd;"
d="M 42.6577,37.3626
42.6415,37.3383
42.6358,37.3096
42.6415,37.2809
42.6577,37.2565
43.0820,36.8323
43.1063,36.8160
43.1350,36.8103
43.1637,36.8160
43.1881,36.8323
44.0012,37.6454
44.0175,37.6698
44.0232,37.6985
44.0175,37.7272
44.0012,37.7515
43.5770,38.1758
43.5527,38.1920
43.5240,38.1977
43.4953,38.1920
43.4709,38.1758
Z" /> 
<path style="fill:#000000; fill-opacity:1.0000; stroke:none;fill-rule:evenodd;"
d="M 42.0921,37.9283
42.0758,37.9039
42.0701,37.8752
42.0758,37.8465
42.0921,37.8222
42.5163,37.3980
42.5407,37.3817
42.5694,37.3760
42.5981,37.3817
42.6224,37.3980
43.4356,38.2111
43.4518,38.2355
43.4575,38.2642
43.4518,38.2929
43.4356,38.3172
43.0113,38.7415
42.9870,38.7577
42.9583,38.7634
42.9296,38.7577
42.9052,38.7415
Z" /> 
<path style="fill:#000000; fill-opacity:1.0000; stroke:none;fill-rule:evenodd;"
d="M 41.7385,38.2818
41.7223,38.2575
41.7165,38.2288
41.7223,38.2001
41.7385,38.1758
41.9506,37.9636
41.9750,37.9474
42.0037,37.9417
42.0324,37.9474
42.0567,37.9636
42.8699,38.7768
42.8861,38.8011
42.8918,38.8298
42.8861,38.8585
42.8699,38.8829
42.6577,39.0950
42.6334,39.1113
42.6047,39.1170
42.5760,39.1113
42.5517,39.0950
Z" /> 
<path style="fill:#000000; fill-opacity:1.0000; stroke:none;fill-rule:evenodd;"
d="M 41.0314,38.9889
41.0151,38.9646
41.0094,38.9359
41.0151,38.9072
41.0314,38.8829
41.2435,38.6707
41.2679,38.6545
41.2966,38.6488
41.3253,38.6545
41.3496,38.6707
42.1628,39.4839
42.1790,39.5082
42.1847,39.5369
42.1790,39.5656
42.1628,39.5900
41.9506,39.8021
41.9263,39.8184
41.8976,39.8241
41.8689,39.8184
41.8446,39.8021
Z" /> 
<path style="fill:#000000; fill-opacity:1.0000; stroke:none;fill-rule:evenodd;"
d="M 39.9707,40.0496
39.9545,40.0253
39.9488,39.9966
39.9545,39.9679
39.9707,39.9435
40.1829,39.7314
40.2072,39.7151
40.2359,39.7094
40.2646,39.7151
40.2889,39.7314
41.1021,40.5446
41.1184,40.5689
41.1241,40.5976
41.1184,40.6263
41.1021,40.6506
40.8900,40.8628
40.8656,40.8790
40.8369,40.8847
40.8082,40.8790
40.7839,40.8628
Z" /> 
<path style="fill:#000000; fill-opacity:1.0000; stroke:none;fill-rule:evenodd;"
d="M 39.2636,40.7567
39.2474,40.7324
39.2417,40.7037
39.2474,40.6750
39.2636,40.6506
39.4758,40.4385
39.5001,40.4223
39.5288,40.4165
39.5575,40.4223
39.5818,40.4385
40.3950,41.2517
40.4113,41.2760
40.4170,41.3047
40.4113,41.3334
40.3950,41.3577
40.1829,41.5699
40.1585,41.5861
40.1298,41.5918
40.1011,41.5861
40.0768,41.5699
Z" /> 
</g>
<g style="fill:none; 
stroke:#000000; stroke-width:1.2040; stroke-opacity:1; 
stroke-linecap:round; stroke-linejoin:round;">
<path d="M38.0297 42.8391
L38.8076 43.6170
" />
<path d="M44.1391 36.7297
L44.9170 37.5076
" />
<path style="fill:#000000; fill-opacity:1.0000; stroke:none;fill-rule:evenodd;"
d="M 40.4530,46.1137
40.4099,46.0594
40.3700,45.9562
40.3700,45.8456
40.4099,45.7425
40.4530,45.6881
40.8787,45.2624
40.9331,45.2193
41.0362,45.1794
41.1468,45.1794
41.2500,45.2193
41.3043,45.2624
42.2957,46.2538
42.3388,46.3081
42.3787,46.4113
42.3787,46.5219
42.3388,46.6250
42.2957,46.6794
41.8700,47.1051
41.8156,47.1482
41.7125,47.1881
41.6019,47.1881
41.4987,47.1482
41.4444,47.1051
Z" /> 
<path style="fill:#000000; fill-opacity:1.0000; stroke:none;fill-rule:evenodd;"
d="M 46.5624,40.0043
46.5193,39.9500
46.4794,39.8468
46.4794,39.7362
46.5193,39.6330
46.5624,39.5787
46.9881,39.1530
47.0425,39.1099
47.1456,39.0700
47.2562,39.0700
47.3594,39.1099
47.4137,39.1530
48.4051,40.1444
48.4482,40.1987
48.4881,40.3019
48.4881,40.4125
48.4482,40.5156
48.4051,40.5700
47.9794,40.9957
47.9250,41.0388
47.8219,41.0787
47.7113,41.0787
47.6081,41.0388
47.5538,40.9957
Z" /> 
<path style="fill:#000000; fill-opacity:1.0000; stroke:none;fill-rule:evenodd;"
d="M 23.4190,12.9741
23.4190,12.3240
25.1190,12.3240
25.1190,12.9741
Z" /> 
<path style="fill:#000000; fill-opacity:1.0000; stroke:none;fill-rule:evenodd;"
d="M 23.4190,14.2440
23.4190,13.5940
25.1190,13.5940
25.1190,14.2440
Z" /> 
<path style="fill:#000000; fill-opacity:1.0000; stroke:none;fill-rule:evenodd;"
d="M 23.4190,15.5140
23.4190,14.8640
25.1190,14.8640
25.1190,15.5140
Z" /> 
<path style="fill:#000000; fill-opacity:1.0000; stroke:none;fill-rule:evenodd;"
d="M 23.4190,16.7841
23.4190,16.1340
25.1190,16.1340
25.1190,16.7841
Z" /> 
<path style="fill:#000000; fill-opacity:1.0000; stroke:none;fill-rule:evenodd;"
d="M 30.7190,16.7841
30.7190,16.1340
32.4190,16.1340
32.4190,16.7841
Z" /> 
<path style="fill:#000000; fill-opacity:1.0000; stroke:none;fill-rule:evenodd;"
d="M 30.7190,15.5140
30.7190,14.8640
32.4190,14.8640
32.4190,15.5140
Z" /> 
<path style="fill:#000000; fill-opacity:1.0000; stroke:none;fill-rule:evenodd;"
d="M 30.7190,14.2440
30.7190,13.5940
32.4190,13.5940
32.4190,14.2440
Z" /> 
<path style="fill:#000000; fill-opacity:1.0000; stroke:none;fill-rule:evenodd;"
d="M 30.7190,12.9741
30.7190,12.3240
32.4190,12.3240
32.4190,12.9741
Z" /> 
<path style="fill:#000000; fill-opacity:1.0000; stroke:none;fill-rule:evenodd;"
d="M 32.3190,46.4690
32.3190,47.8690
30.7190,47.8690
30.7190,46.4690
Z" /> 
<path style="fill:#000000; fill-opacity:1.0000; stroke:none;fill-rule:evenodd;"
d="M 25.1190,46.4690
25.1190,47.8690
23.5191,47.8690
23.5191,46.4690
Z" /> 
<path style="fill:#000000; fill-opacity:1.0000; stroke:none;fill-rule:evenodd;"
d="M 32.3190,43.4690
32.3190,44.8691
30.7190,44.8691
30.7190,43.4690
Z" /> 
<path style="fill:#000000; fill-opacity:1.0000; stroke:none;fill-rule:evenodd;"
d="M 25.1190,43.4690
25.1190,44.8691
23.5191,44.8691
23.5191,43.4690
Z" /> 
<path style="fill:#000000; fill-opacity:1.0000; stroke:none;fill-rule:evenodd;"
d="M 37.6921,36.1630
37.6843,36.2021
37.6622,36.2352
37.6291,36.2573
37.5900,36.2650
36.2820,36.2650
36.2430,36.2573
36.2099,36.2352
36.1878,36.2021
36.1801,36.1630
36.1801,34.8550
36.1878,34.8160
36.2099,34.7829
36.2430,34.7608
36.2820,34.7531
37.5900,34.7531
37.6291,34.7608
37.6622,34.7829
37.6843,34.8160
37.6921,34.8550
Z" /> 
</g>
<g style="fill:#000000; fill-opacity:1.0000; stroke:none;">
<circle cx="36.9361" cy="32.9690" r="0.7560" /> 
</g>
<g style="fill:#000000; fill-opacity:1.0000; stroke:none;">
<circle cx="36.9361" cy="30.4291" r="0.7560" /> 
</g>
<g style="fill:#000000; fill-opacity:1.0000; stroke:none;">
<circle cx="36.9361" cy="27.8890" r="0.7560" /> 
</g>
<g style="fill:#000000; fill-opacity:1.0000; stroke:none;">
<circle cx="36.9361" cy="25.3490" r="0.7560" /> 
</g>
<g style="fill:#000000; fill-opacity:1.0000; stroke:none;">
<circle cx="36.9361" cy="22.8090" r="0.7560" /> 
</g>
<g style="fill:#000000; fill-opacity:1.0000; stroke:none;">
<circle cx="36.9361" cy="20.2691" r="0.7560" /> 
</g>
<g style="fill:#000000; fill-opacity:1.0000; stroke:none;">
<circle cx="36.9361" cy="17.7291" r="0.7560" /> 
</g>
<g style="fill:#000000; fill-opacity:1.0000; stroke:none;">
<circle cx="18.9020" cy="17.7291" r="0.7560" /> 
</g>
<g style="fill:#000000; fill-opacity:1.0000; stroke:none;">
<circle cx="18.9020" cy="20.2691" r="0.7560" /> 
</g>
<g style="fill:#000000; fill-opacity:1.0000; stroke:none;">
<circle cx="18.9020" cy="22.8090" r="0.7560" /> 
</g>
<g style="fill:#000000; fill-opacity:1.0000; stroke:none;">
<circle cx="18.9020" cy="25.3490" r="0.7560" /> 
</g>
<g style="fill:#000000; fill-opacity:1.0000; stroke:none;">
<circle cx="18.9020" cy="27.8890" r="0.7560" /> 
</g>
<g style="fill:#000000; fill-opacity:1.0000; stroke:none;">
<circle cx="18.9020" cy="30.4291" r="0.7560" /> 
</g>
<g style="fill:#000000; fill-opacity:1.0000; stroke:none;">
<circle cx="18.9020" cy="32.9690" r="0.7560" /> 
</g>
<g style="fill:#000000; fill-opacity:1.0000; stroke:none;">
<circle cx="18.9020" cy="35.5090" r="0.7560" /> 
<path style="fill:#000000; fill-opacity:1.0000; stroke:none;fill-rule:evenodd;"
d="M 21.1190,47.2691
21.0234,47.2500
20.9423,47.1958
20.8881,47.1147
20.8690,47.0191
20.8690,46.3190
20.8881,46.2234
20.9423,46.1423
21.0234,46.0881
21.1190,46.0690
22.0191,46.0690
22.1147,46.0881
22.1958,46.1423
22.2500,46.2234
22.2691,46.3190
22.2691,47.0191
22.2500,47.1147
22.1958,47.1958
22.1147,47.2500
22.0191,47.2691
Z" /> 
<path style="fill:#000000; fill-opacity:1.0000; stroke:none;fill-rule:evenodd;"
d="M 21.1190,45.2691
21.0234,45.2500
20.9423,45.1958
20.8881,45.1147
20.8690,45.0191
20.8690,44.3190
20.8881,44.2234
20.9423,44.1423
21.0234,44.0881
21.1190,44.0690
22.0191,44.0690
22.1147,44.0881
22.1958,44.1423
22.2500,44.2234
22.2691,44.3190
22.2691,45.0191
22.2500,45.1147
22.1958,45.1958
22.1147,45.2500
22.0191,45.2691
Z" /> 
<path style="fill:#000000; fill-opacity:1.0000; stroke:none;fill-rule:evenodd;"
d="M 36.0390,14.4390
36.0390,15.9390
35.0390,15.9390
35.0390,14.4390
Z" /> 
<path style="fill:#000000; fill-opacity:1.0000; stroke:none;fill-rule:evenodd;"
d="M 34.7390,14.4390
34.7390,15.9390
33.7390,15.9390
33.7390,14.4390
Z" /> 
<path style="fill:#000000; fill-opacity:1.0000; stroke:none;fill-rule:evenodd;"
d="M 8.0690,31.0191
6.6690,31.0191
6.6690,29.4190
8.0690,29.4190
Z" /> 
<path style="fill:#000000; fill-opacity:1.0000; stroke:none;fill-rule:evenodd;"
d="M 8.0690,23.8190
6.6690,23.8190
6.6690,22.2190
8.0690,22.2190
Z" /> 
<path style="fill:#000000; fill-opacity:1.0000; stroke:none;fill-rule:evenodd;"
d="M 11.0690,31.0191
9.6691,31.0191
9.6691,29.4190
11.0690,29.4190
Z" /> 
<path style="fill:#000000; fill-opacity:1.0000; stroke:none;fill-rule:evenodd;"
d="M 11.0690,23.8190
9.6691,23.8190
9.6691,22.2190
11.0690,22.2190
Z" /> 
<path style="fill:#000000; fill-opacity:1.0000; stroke:none;fill-rule:evenodd;"
d="M 23.9390,28.5590
23.9234,28.6893
23.8685,28.8286
23.7780,28.9480
23.6586,29.0385
23.5193,29.0934
23.3890,29.1090
22.2890,29.1090
22.1588,29.0934
22.0195,29.0385
21.9001,28.9480
21.8096,28.8286
21.7547,28.6893
21.7390,28.5590
21.7390,27.1190
21.7547,26.9888
21.8096,26.8495
21.9001,26.7301
22.0195,26.6396
22.1588,26.5847
22.2890,26.5690
23.3890,26.5690
23.5193,26.5847
23.6586,26.6396
23.7780,26.7301
23.8685,26.8495
23.9234,26.9888
23.9390,27.1190
Z" /> 
<path style="fill:#000000; fill-opacity:1.0000; stroke:none;fill-rule:evenodd;"
d="M 33.9391,28.5590
33.9234,28.6893
33.8685,28.8286
33.7780,28.9480
33.6586,29.0385
33.5193,29.0934
33.3890,29.1090
32.2890,29.1090
32.1588,29.0934
32.0195,29.0385
31.9001,28.9480
31.8096,28.8286
31.7547,28.6893
31.7390,28.5590
31.7390,27.1190
31.7547,26.9888
31.8096,26.8495
31.9001,26.7301
32.0195,26.6396
32.1588,26.5847
32.2890,26.5690
33.3890,26.5690
33.5193,26.5847
33.6586,26.6396
33.7780,26.7301
33.8685,26.8495
33.9234,26.9888
33.9391,27.1190
Z" /> 
<path style="fill:#000000; fill-opacity:1.0000; stroke:none;fill-rule:evenodd;"
d="M 26.3190,3.3091
26.3381,3.2134
26.3923,3.1323
26.4734,3.0781
26.5690,3.0591
27.2190,3.0591
27.3147,3.0781
27.3958,3.1323
27.4500,3.2134
27.4690,3.3091
27.4690,4.2090
27.4500,4.3047
27.3958,4.3858
27.3147,4.4400
27.2190,4.4590
26.5690,4.4590
26.4734,4.4400
26.3923,4.3858
26.3381,4.3047
26.3190,4.2090
Z" /> 
<path style="fill:#000000; fill-opacity:1.0000; stroke:none;fill-rule:evenodd;"
d="M 28.3690,3.3091
28.3881,3.2134
28.4423,3.1323
28.5234,3.0781
28.6190,3.0591
29.2691,3.0591
29.3647,3.0781
29.4458,3.1323
29.5000,3.2134
29.5191,3.3091
29.5191,4.2090
29.5000,4.3047
29.4458,4.3858
29.3647,4.4400
29.2691,4.4590
28.6190,4.4590
28.5234,4.4400
28.4423,4.3858
28.3881,4.3047
28.3690,4.2090
Z" /> 
<path style="fill:#000000; fill-opacity:1.0000; stroke:none;fill-rule:evenodd;"
d="M 7.2691,19.8191
7.2881,19.7234
7.3423,19.6423
7.4234,19.5881
7.5191,19.5691
8.2190,19.5691
8.3147,19.5881
8.3958,19.6423
8.4500,19.7234
8.4690,19.8191
8.4690,20.7190
8.4500,20.8147
8.3958,20.8958
8.3147,20.9500
8.2190,20.9690
7.5191,20.9690
7.4234,20.9500
7.3423,20.8958
7.2881,20.8147
7.2691,20.7190
Z" /> 
<path style="fill:#000000; fill-opacity:1.0000; stroke:none;fill-rule:evenodd;"
d="M 9.2691,19.8191
9.2881,19.7234
9.3423,19.6423
9.4234,19.5881
9.5191,19.5691
10.2190,19.5691
10.3147,19.5881
10.3958,19.6423
10.4500,19.7234
10.4690,19.8191
10.4690,20.7190
10.4500,20.8147
10.3958,20.8958
10.3147,20.9500
10.2190,20.9690
9.5191,20.9690
9.4234,20.9500
9.3423,20.8958
9.2881,20.8147
9.2691,20.7190
Z" /> 
<path style="fill:#000000; fill-opacity:1.0000; stroke:none;fill-rule:evenodd;"
d="M 50.3290,27.9740
50.2334,27.9550
50.1523,27.9008
50.0981,27.8197
50.0790,27.7240
50.0790,27.0740
50.0981,26.9784
50.1523,26.8973
50.2334,26.8431
50.3290,26.8240
51.2291,26.8240
51.3247,26.8431
51.4058,26.8973
51.4600,26.9784
51.4791,27.0740
51.4791,27.7240
51.4600,27.8197
51.4058,27.9008
51.3247,27.9550
51.2291,27.9740
Z" /> 
<path style="fill:#000000; fill-opacity:1.0000; stroke:none;fill-rule:evenodd;"
d="M 50.3290,25.9240
50.2334,25.9050
50.1523,25.8508
50.0981,25.7697
50.0790,25.6740
50.0790,25.0240
50.0981,24.9284
50.1523,24.8473
50.2334,24.7931
50.3290,24.7740
51.2291,24.7740
51.3247,24.7931
51.4058,24.8473
51.4600,24.9284
51.4791,25.0240
51.4791,25.6740
51.4600,25.7697
51.4058,25.8508
51.3247,25.9050
51.2291,25.9240
Z" /> 
<path style="fill:#000000; fill-opacity:1.0000; stroke:none;fill-rule:evenodd;"
d="M 44.7590,34.6891
44.7400,34.7847
44.6858,34.8658
44.6047,34.9200
44.5090,34.9391
43.8090,34.9391
43.7134,34.9200
43.6323,34.8658
43.5781,34.7847
43.5590,34.6891
43.5590,33.7890
43.5781,33.6934
43.6323,33.6123
43.7134,33.5581
43.8090,33.5390
44.5090,33.5390
44.6047,33.5581
44.6858,33.6123
44.7400,33.6934
44.7590,33.7890
Z" /> 
<path style="fill:#000000; fill-opacity:1.0000; stroke:none;fill-rule:evenodd;"
d="M 42.7590,34.6891
42.7400,34.7847
42.6858,34.8658
42.6047,34.9200
42.5090,34.9391
41.8090,34.9391
41.7134,34.9200
41.6323,34.8658
41.5781,34.7847
41.5590,34.6891
41.5590,33.7890
41.5781,33.6934
41.6323,33.6123
41.7134,33.5581
41.8090,33.5390
42.5090,33.5390
42.6047,33.5581
42.6858,33.6123
42.7400,33.6934
42.7590,33.7890
Z" /> 
<path style="fill:#000000; fill-opacity:1.0000; stroke:none;fill-rule:evenodd;"
d="M 17.6260,10.1035
18.6160,11.0934
17.4846,12.2248
16.4946,11.2348
Z" /> 
<path style="fill:#000000; fill-opacity:1.0000; stroke:none;fill-rule:evenodd;"
d="M 12.5348,15.1946
13.5248,16.1846
12.3934,17.3160
11.4035,16.3260
Z" /> 
<path style="fill:#000000; fill-opacity:1.0000; stroke:none;fill-rule:evenodd;"
d="M 15.5047,7.9821
16.4946,8.9721
15.3633,10.1035
14.3733,9.1135
Z" /> 
<path style="fill:#000000; fill-opacity:1.0000; stroke:none;fill-rule:evenodd;"
d="M 10.4135,13.0733
11.4035,14.0633
10.2721,15.1946
9.2821,14.2047
Z" /> 
<path style="fill:#000000; fill-opacity:1.0000; stroke:none;fill-rule:evenodd;"
d="M 44.4346,16.3260
43.4447,17.3160
42.3133,16.1846
43.3033,15.1946
Z" /> 
<path style="fill:#000000; fill-opacity:1.0000; stroke:none;fill-rule:evenodd;"
d="M 39.3435,11.2348
38.3535,12.2248
37.2221,11.0934
38.2121,10.1035
Z" /> 
<path style="fill:#000000; fill-opacity:1.0000; stroke:none;fill-rule:evenodd;"
d="M 46.5560,14.2047
45.5660,15.1946
44.4346,14.0633
45.4246,13.0733
Z" /> 
<path style="fill:#000000; fill-opacity:1.0000; stroke:none;fill-rule:evenodd;"
d="M 41.4648,9.1135
40.4748,10.1035
39.3435,8.9721
40.3334,7.9821
Z" /> 
<path style="fill:#000000; fill-opacity:1.0000; stroke:none;fill-rule:evenodd;"
d="M 26.0740,49.0290
26.0931,48.9334
26.1473,48.8523
26.2284,48.7981
26.3240,48.7790
26.9740,48.7790
27.0697,48.7981
27.1508,48.8523
27.2050,48.9334
27.2240,49.0290
27.2240,49.9290
27.2050,50.0247
27.1508,50.1058
27.0697,50.1600
26.9740,50.1790
26.3240,50.1790
26.2284,50.1600
26.1473,50.1058
26.0931,50.0247
26.0740,49.9290
Z" /> 
<path style="fill:#000000; fill-opacity:1.0000; stroke:none;fill-rule:evenodd;"
d="M 28.1241,49.0290
28.1431,48.9334
28.1973,48.8523
28.2784,48.7981
28.3741,48.7790
29.0240,48.7790
29.1197,48.7981
29.2008,48.8523
29.2550,48.9334
29.2740,49.0290
29.2740,49.9290
29.2550,50.0247
29.2008,50.1058
29.1197,50.1600
29.0240,50.1790
28.3741,50.1790
28.2784,50.1600
28.1973,50.1058
28.1431,50.0247
28.1241,49.9290
Z" /> 
<path style="fill:#000000; fill-opacity:1.0000; stroke:none;fill-rule:evenodd;"
d="M 39.1290,29.9940
39.1290,28.2940
40.8290,28.2940
40.8290,29.9940
Z" /> 
</g>
<g style="fill:#000000; fill-opacity:1.0000; stroke:none;">
<circle cx="42.5191" cy="29.1441" r="0.8500" /> 
<circle cx="39.9791" cy="26.6040" r="0.8500" /> 
<circle cx="42.5191" cy="26.6040" r="0.8500" /> 
<circle cx="39.9791" cy="24.0640" r="0.8500" /> 
<circle cx="42.5191" cy="24.0640" r="0.8500" /> 
<circle cx="13.8118" cy="47.7974" r="0.6000" /> 
</g>
<g style="fill:#000000; fill-opacity:1.0000; stroke:none;">
<circle cx="15.5796" cy="46.0296" r="0.6000" /> 
</g>
<g style="fill:#000000; fill-opacity:1.0000; stroke:none;">
<circle cx="15.5796" cy="38.9585" r="0.6000" /> 
</g>
<g style="fill:#000000; fill-opacity:1.0000; stroke:none;">
<circle cx="6.7407" cy="40.7263" r="0.6000" /> 
</g>
<g style="fill:#000000; fill-opacity:1.0000; stroke:none;">
<circle cx="8.5085" cy="38.9585" r="0.6000" /> 
</g>
<g style="fill:none; 
stroke:#000000; stroke-width:1.5120; stroke-opacity:1; 
stroke-linecap:round; stroke-linejoin:round;">
<path d="M12.5065 42.9565
L11.5816 42.0316
" />
<path d="M11.5816 35.8854
L12.5065 34.9605
" />
<path d="M18.6527 42.9565
L19.5776 42.0316
" />
</g> 
</svg>
