<?xml version="1.0" standalone="no"?>
 <!DOCTYPE svg PUBLIC "-//W3C//DTD SVG 1.1//EN" 
 "http://www.w3.org/Graphics/SVG/1.1/DTD/svg11.dtd"> 
<svg
  xmlns:svg="http://www.w3.org/2000/svg"
  xmlns="http://www.w3.org/2000/svg"
  xmlns:xlink="http://www.w3.org/1999/xlink"
  version="1.1"
  width="55.0164mm" height="54.0258mm" viewBox="0.0000 0.0000 55.0164 54.0258">
<title>SVG Image created as mask_back.svg date 2024/11/22 14:26:52 </title>
  <desc>Image generated by PCBNEW </desc>
<g style="fill:#000000; fill-opacity:1.0000;stroke:#000000; stroke-opacity:1.0000;
stroke-linecap:round; stroke-linejoin:round;"
 transform="translate(0 0) scale(1 1)">
</g>
<g style="fill:#000000; fill-opacity:1.0000; stroke:none;">
<circle cx="49.5079" cy="36.7558" r="0.4500" /> 
</g>
<g style="fill:#000000; fill-opacity:1.0000; stroke:none;">
<circle cx="50.6559" cy="33.9842" r="0.4500" /> 
<path style="fill:#000000; fill-opacity:1.0000; stroke:none;fill-rule:evenodd;"
d="M 26.2290,32.5491
24.5290,32.5491
24.5290,30.8490
26.2290,30.8490
Z" /> 
</g>
<g style="fill:#000000; fill-opacity:1.0000; stroke:none;">
<circle cx="27.9190" cy="31.6990" r="0.8500" /> 
<circle cx="30.4590" cy="31.6990" r="0.8500" /> 
<circle cx="5.1865" cy="34.0001" r="0.4500" /> 
</g>
<g style="fill:#000000; fill-opacity:1.0000; stroke:none;">
<circle cx="6.3345" cy="36.7717" r="0.4500" /> 
</g>
<g style="fill:#000000; fill-opacity:1.0000; stroke:none;">
<circle cx="39.7834" cy="42.5704" r="0.3250" /> 
</g>
<g style="fill:#000000; fill-opacity:1.0000; stroke:none;">
<circle cx="43.8704" cy="38.4834" r="0.3250" /> 
</g>
<g style="fill:none; 
stroke:#000000; stroke-width:1.2040; stroke-opacity:1; 
stroke-linecap:round; stroke-linejoin:round;">
<path d="M38.0297 42.8391
L38.8076 43.6170
" />
<path d="M44.1391 36.7297
L44.9170 37.5076
" />
<path style="fill:#000000; fill-opacity:1.0000; stroke:none;fill-rule:evenodd;"
d="M 40.4530,46.1137
40.4099,46.0594
40.3700,45.9562
40.3700,45.8456
40.4099,45.7425
40.4530,45.6881
40.8787,45.2624
40.9331,45.2193
41.0362,45.1794
41.1468,45.1794
41.2500,45.2193
41.3043,45.2624
42.2957,46.2538
42.3388,46.3081
42.3787,46.4113
42.3787,46.5219
42.3388,46.6250
42.2957,46.6794
41.8700,47.1051
41.8156,47.1482
41.7125,47.1881
41.6019,47.1881
41.4987,47.1482
41.4444,47.1051
Z" /> 
<path style="fill:#000000; fill-opacity:1.0000; stroke:none;fill-rule:evenodd;"
d="M 46.5624,40.0043
46.5193,39.9500
46.4794,39.8468
46.4794,39.7362
46.5193,39.6330
46.5624,39.5787
46.9881,39.1530
47.0425,39.1099
47.1456,39.0700
47.2562,39.0700
47.3594,39.1099
47.4137,39.1530
48.4051,40.1444
48.4482,40.1987
48.4881,40.3019
48.4881,40.4125
48.4482,40.5156
48.4051,40.5700
47.9794,40.9957
47.9250,41.0388
47.8219,41.0787
47.7113,41.0787
47.6081,41.0388
47.5538,40.9957
Z" /> 
<path style="fill:#000000; fill-opacity:1.0000; stroke:none;fill-rule:evenodd;"
d="M 37.6921,36.1630
37.6843,36.2021
37.6622,36.2352
37.6291,36.2573
37.5900,36.2650
36.2820,36.2650
36.2430,36.2573
36.2099,36.2352
36.1878,36.2021
36.1801,36.1630
36.1801,34.8550
36.1878,34.8160
36.2099,34.7829
36.2430,34.7608
36.2820,34.7531
37.5900,34.7531
37.6291,34.7608
37.6622,34.7829
37.6843,34.8160
37.6921,34.8550
Z" /> 
</g>
<g style="fill:#000000; fill-opacity:1.0000; stroke:none;">
<circle cx="36.9361" cy="32.9690" r="0.7560" /> 
</g>
<g style="fill:#000000; fill-opacity:1.0000; stroke:none;">
<circle cx="36.9361" cy="30.4291" r="0.7560" /> 
</g>
<g style="fill:#000000; fill-opacity:1.0000; stroke:none;">
<circle cx="36.9361" cy="27.8890" r="0.7560" /> 
</g>
<g style="fill:#000000; fill-opacity:1.0000; stroke:none;">
<circle cx="36.9361" cy="25.3490" r="0.7560" /> 
</g>
<g style="fill:#000000; fill-opacity:1.0000; stroke:none;">
<circle cx="36.9361" cy="22.8090" r="0.7560" /> 
</g>
<g style="fill:#000000; fill-opacity:1.0000; stroke:none;">
<circle cx="36.9361" cy="20.2691" r="0.7560" /> 
</g>
<g style="fill:#000000; fill-opacity:1.0000; stroke:none;">
<circle cx="36.9361" cy="17.7291" r="0.7560" /> 
</g>
<g style="fill:#000000; fill-opacity:1.0000; stroke:none;">
<circle cx="18.9020" cy="17.7291" r="0.7560" /> 
</g>
<g style="fill:#000000; fill-opacity:1.0000; stroke:none;">
<circle cx="18.9020" cy="20.2691" r="0.7560" /> 
</g>
<g style="fill:#000000; fill-opacity:1.0000; stroke:none;">
<circle cx="18.9020" cy="22.8090" r="0.7560" /> 
</g>
<g style="fill:#000000; fill-opacity:1.0000; stroke:none;">
<circle cx="18.9020" cy="25.3490" r="0.7560" /> 
</g>
<g style="fill:#000000; fill-opacity:1.0000; stroke:none;">
<circle cx="18.9020" cy="27.8890" r="0.7560" /> 
</g>
<g style="fill:#000000; fill-opacity:1.0000; stroke:none;">
<circle cx="18.9020" cy="30.4291" r="0.7560" /> 
</g>
<g style="fill:#000000; fill-opacity:1.0000; stroke:none;">
<circle cx="18.9020" cy="32.9690" r="0.7560" /> 
</g>
<g style="fill:#000000; fill-opacity:1.0000; stroke:none;">
<circle cx="18.9020" cy="35.5090" r="0.7560" /> 
<path style="fill:#000000; fill-opacity:1.0000; stroke:none;fill-rule:evenodd;"
d="M 39.1290,29.9940
39.1290,28.2940
40.8290,28.2940
40.8290,29.9940
Z" /> 
</g>
<g style="fill:#000000; fill-opacity:1.0000; stroke:none;">
<circle cx="42.5191" cy="29.1441" r="0.8500" /> 
<circle cx="39.9791" cy="26.6040" r="0.8500" /> 
<circle cx="42.5191" cy="26.6040" r="0.8500" /> 
<circle cx="39.9791" cy="24.0640" r="0.8500" /> 
<circle cx="42.5191" cy="24.0640" r="0.8500" /> 
<circle cx="13.8118" cy="47.7974" r="0.6000" /> 
</g>
<g style="fill:#000000; fill-opacity:1.0000; stroke:none;">
<circle cx="15.5796" cy="46.0296" r="0.6000" /> 
</g>
<g style="fill:#000000; fill-opacity:1.0000; stroke:none;">
<circle cx="15.5796" cy="38.9585" r="0.6000" /> 
</g>
<g style="fill:#000000; fill-opacity:1.0000; stroke:none;">
<circle cx="6.7407" cy="40.7263" r="0.6000" /> 
</g>
<g style="fill:#000000; fill-opacity:1.0000; stroke:none;">
<circle cx="8.5085" cy="38.9585" r="0.6000" /> 
</g>
<g style="fill:none; 
stroke:#000000; stroke-width:1.5120; stroke-opacity:1; 
stroke-linecap:round; stroke-linejoin:round;">
<path d="M12.5065 42.9565
L11.5816 42.0316
" />
<path d="M11.5816 35.8854
L12.5065 34.9605
" />
<path d="M18.6527 42.9565
L19.5776 42.0316
" />
</g> 
</svg>
