<!DOCTYPE svg PUBLIC "-//W3C//DTD SVG 1.1//EN" "http://www.w3.org/Graphics/SVG/1.1/DTD/svg11.dtd">
<svg xmlns:svg="http://www.w3.org/2000/svg" xmlns="http://www.w3.org/2000/svg" xmlns:xlink="http://www.w3.org/1999/xlink" version="1.1" width="25.599999999999998mm" height="20.52mm" viewBox="0.0000 0.0000 25.599999999999998 20.52">
<title>SVG Image created as microbuilder_uv_veml6070.svg date 2024/09/12 07:23:04 </title>
  <desc>Image generated by Eeschema-SVG </desc>
<g style="fill:#000000; fill-opacity:1.0000;stroke:#000000; stroke-opacity:1.0000; stroke-linecap:round; stroke-linejoin:round;" transform="translate(0 0) scale(1 1)">
<path style="fill:none;  stroke:#840000; stroke-width:0.2540; stroke-opacity:1;  stroke-linecap:round; stroke-linejoin:round;fill:none" d="M 2.6399999999999992,20.42 2.6399999999999992,15.34 "/> 
<path style="fill:none;  stroke:#840000; stroke-width:0.2540; stroke-opacity:1;  stroke-linecap:round; stroke-linejoin:round;fill:none" d="M 2.6399999999999992,15.34 2.6399999999999992,5.180000000000001 "/> 
<path style="fill:none;  stroke:#840000; stroke-width:0.2540; stroke-opacity:1;  stroke-linecap:round; stroke-linejoin:round;fill:none" d="M 2.6399999999999992,15.34 22.96,15.34 "/> 
<path style="fill:none;  stroke:#840000; stroke-width:0.2540; stroke-opacity:1;  stroke-linecap:round; stroke-linejoin:round;fill:none" d="M 2.6399999999999992,5.180000000000001 2.6399999999999992,0.1 "/> 
<path style="fill:none;  stroke:#840000; stroke-width:0.2540; stroke-opacity:1;  stroke-linecap:round; stroke-linejoin:round;fill:none" d="M 2.6399999999999992,5.180000000000001 22.96,5.180000000000001 "/> 
<path style="fill:none;  stroke:#840000; stroke-width:0.2540; stroke-opacity:1;  stroke-linecap:round; stroke-linejoin:round;fill:none" d="M 2.6399999999999992,0.1 22.96,0.1 "/> 
<path style="fill:none;  stroke:#840000; stroke-width:0.2540; stroke-opacity:1;  stroke-linecap:round; stroke-linejoin:round;fill:none" d="M 22.96,20.42 2.6399999999999992,20.42 "/> 
<path style="fill:none;  stroke:#840000; stroke-width:0.2540; stroke-opacity:1;  stroke-linecap:round; stroke-linejoin:round;fill:none" d="M 22.96,15.34 22.96,20.42 "/> 
<path style="fill:none;  stroke:#840000; stroke-width:0.2540; stroke-opacity:1;  stroke-linecap:round; stroke-linejoin:round;fill:none" d="M 22.96,5.180000000000001 22.96,15.34 "/> 
<path style="fill:none;  stroke:#840000; stroke-width:0.2540; stroke-opacity:1;  stroke-linecap:round; stroke-linejoin:round;fill:none" d="M 22.96,0.1 22.96,5.180000000000001 "/> 
</g>
<g style="fill:none;  stroke:#840000; stroke-width:0.1349; stroke-opacity:1;  stroke-linecap:round; stroke-linejoin:round;">
<text x="28.5033" y="20.8445" textLength="29.9522" font-size="1.4393" lengthAdjust="spacingAndGlyphs" text-anchor="middle" opacity="0">VDD: 2.7-5.5V
Op.Temp: -40~~85&#176;C</text>
<g class="stroked-text"><desc>VDD: 2.7-5.5V
Op.Temp: -40~~85&#176;C</desc>
<path d="M6.991300000000001 16.1682 L7.351100000000001 17.438200000000002 "/>
<path d="M7.351100000000001 17.438200000000002 L7.7109000000000005 16.1682 "/>
<path d="M8.0708 17.438200000000002 L8.0708 16.1682 "/>
<path d="M8.0708 16.1682 L8.327799999999998 16.1682 "/>
<path d="M8.327799999999998 16.1682 L8.482000000000001 16.2287 "/>
<path d="M8.482000000000001 16.2287 L8.5848 16.3497 "/>
<path d="M8.5848 16.3497 L8.6362 16.4706 "/>
<path d="M8.6362 16.4706 L8.687599999999998 16.7125 "/>
<path d="M8.687599999999998 16.7125 L8.687599999999998 16.8939 "/>
<path d="M8.687599999999998 16.8939 L8.6362 17.1358 "/>
<path d="M8.6362 17.1358 L8.5848 17.256800000000002 "/>
<path d="M8.5848 17.256800000000002 L8.482000000000001 17.3778 "/>
<path d="M8.482000000000001 17.3778 L8.327799999999998 17.438200000000002 "/>
<path d="M8.327799999999998 17.438200000000002 L8.0708 17.438200000000002 "/>
<path d="M9.1503 17.438200000000002 L9.1503 16.1682 "/>
<path d="M9.1503 16.1682 L9.407300000000001 16.1682 "/>
<path d="M9.407300000000001 16.1682 L9.5615 16.2287 "/>
<path d="M9.5615 16.2287 L9.664299999999999 16.3497 "/>
<path d="M9.664299999999999 16.3497 L9.7157 16.4706 "/>
<path d="M9.7157 16.4706 L9.767100000000001 16.7125 "/>
<path d="M9.767100000000001 16.7125 L9.767100000000001 16.8939 "/>
<path d="M9.767100000000001 16.8939 L9.7157 17.1358 "/>
<path d="M9.7157 17.1358 L9.664299999999999 17.256800000000002 "/>
<path d="M9.664299999999999 17.256800000000002 L9.5615 17.3778 "/>
<path d="M9.5615 17.3778 L9.407300000000001 17.438200000000002 "/>
<path d="M9.407300000000001 17.438200000000002 L9.1503 17.438200000000002 "/>
<path d="M10.2298 17.3173 L10.2812 17.3778 "/>
<path d="M10.2812 17.3778 L10.2298 17.438200000000002 "/>
<path d="M10.2298 17.438200000000002 L10.178399999999998 17.3778 "/>
<path d="M10.178399999999998 17.3778 L10.2298 17.3173 "/>
<path d="M10.2298 17.3173 L10.2298 17.438200000000002 "/>
<path d="M10.2298 16.652 L10.2812 16.7125 "/>
<path d="M10.2812 16.7125 L10.2298 16.773 "/>
<path d="M10.2298 16.773 L10.178399999999998 16.7125 "/>
<path d="M10.178399999999998 16.7125 L10.2298 16.652 "/>
<path d="M10.2298 16.652 L10.2298 16.773 "/>
<path d="M11.514899999999999 16.2892 L11.5663 16.2287 "/>
<path d="M11.5663 16.2287 L11.669099999999998 16.1682 "/>
<path d="M11.669099999999998 16.1682 L11.9261 16.1682 "/>
<path d="M11.9261 16.1682 L12.028899999999998 16.2287 "/>
<path d="M12.028899999999998 16.2287 L12.0803 16.2892 "/>
<path d="M12.0803 16.2892 L12.1317 16.4101 "/>
<path d="M12.1317 16.4101 L12.1317 16.5311 "/>
<path d="M12.1317 16.5311 L12.0803 16.7125 "/>
<path d="M12.0803 16.7125 L11.463499999999998 17.438200000000002 "/>
<path d="M11.463499999999998 17.438200000000002 L12.1317 17.438200000000002 "/>
<path d="M12.594399999999998 17.3173 L12.6458 17.3778 "/>
<path d="M12.6458 17.3778 L12.594399999999998 17.438200000000002 "/>
<path d="M12.594399999999998 17.438200000000002 L12.543000000000001 17.3778 "/>
<path d="M12.543000000000001 17.3778 L12.594399999999998 17.3173 "/>
<path d="M12.594399999999998 17.3173 L12.594399999999998 17.438200000000002 "/>
<path d="M13.0056 16.1682 L13.7252 16.1682 "/>
<path d="M13.7252 16.1682 L13.2626 17.438200000000002 "/>
<path d="M14.1365 16.9544 L14.958999999999998 16.9544 "/>
<path d="M15.987 16.1682 L15.473 16.1682 "/>
<path d="M15.473 16.1682 L15.4216 16.773 "/>
<path d="M15.4216 16.773 L15.473 16.7125 "/>
<path d="M15.473 16.7125 L15.5758 16.652 "/>
<path d="M15.5758 16.652 L15.8328 16.652 "/>
<path d="M15.8328 16.652 L15.935599999999999 16.7125 "/>
<path d="M15.935599999999999 16.7125 L15.987 16.773 "/>
<path d="M15.987 16.773 L16.038400000000003 16.8939 "/>
<path d="M16.038400000000003 16.8939 L16.038400000000003 17.1963 "/>
<path d="M16.038400000000003 17.1963 L15.987 17.3173 "/>
<path d="M15.987 17.3173 L15.935599999999999 17.3778 "/>
<path d="M15.935599999999999 17.3778 L15.8328 17.438200000000002 "/>
<path d="M15.8328 17.438200000000002 L15.5758 17.438200000000002 "/>
<path d="M15.5758 17.438200000000002 L15.473 17.3778 "/>
<path d="M15.473 17.3778 L15.4216 17.3173 "/>
<path d="M16.5011 17.3173 L16.552500000000002 17.3778 "/>
<path d="M16.552500000000002 17.3778 L16.5011 17.438200000000002 "/>
<path d="M16.5011 17.438200000000002 L16.4497 17.3778 "/>
<path d="M16.4497 17.3778 L16.5011 17.3173 "/>
<path d="M16.5011 17.3173 L16.5011 17.438200000000002 "/>
<path d="M17.5291 16.1682 L17.015100000000004 16.1682 "/>
<path d="M17.015100000000004 16.1682 L16.963700000000003 16.773 "/>
<path d="M16.963700000000003 16.773 L17.015100000000004 16.7125 "/>
<path d="M17.015100000000004 16.7125 L17.1179 16.652 "/>
<path d="M17.1179 16.652 L17.374900000000004 16.652 "/>
<path d="M17.374900000000004 16.652 L17.4777 16.7125 "/>
<path d="M17.4777 16.7125 L17.5291 16.773 "/>
<path d="M17.5291 16.773 L17.5805 16.8939 "/>
<path d="M17.5805 16.8939 L17.5805 17.1963 "/>
<path d="M17.5805 17.1963 L17.5291 17.3173 "/>
<path d="M17.5291 17.3173 L17.4777 17.3778 "/>
<path d="M17.4777 17.3778 L17.374900000000004 17.438200000000002 "/>
<path d="M17.374900000000004 17.438200000000002 L17.1179 17.438200000000002 "/>
<path d="M17.1179 17.438200000000002 L17.015100000000004 17.3778 "/>
<path d="M17.015100000000004 17.3778 L16.963700000000003 17.3173 "/>
<path d="M17.889000000000003 16.1682 L18.248800000000003 17.438200000000002 "/>
<path d="M18.248800000000003 17.438200000000002 L18.608600000000003 16.1682 "/>
<path d="M4.7551000000000005 18.2128 L4.960700000000001 18.2128 "/>
<path d="M4.960700000000001 18.2128 L5.0634999999999994 18.2733 "/>
<path d="M5.0634999999999994 18.2733 L5.166299999999998 18.3943 "/>
<path d="M5.166299999999998 18.3943 L5.217699999999999 18.6362 "/>
<path d="M5.217699999999999 18.6362 L5.217699999999999 19.0595 "/>
<path d="M5.217699999999999 19.0595 L5.166299999999998 19.3014 "/>
<path d="M5.166299999999998 19.3014 L5.0634999999999994 19.4224 "/>
<path d="M5.0634999999999994 19.4224 L4.960700000000001 19.4828 "/>
<path d="M4.960700000000001 19.4828 L4.7551000000000005 19.4828 "/>
<path d="M4.7551000000000005 19.4828 L4.6522999999999985 19.4224 "/>
<path d="M4.6522999999999985 19.4224 L4.5495 19.3014 "/>
<path d="M4.5495 19.3014 L4.498099999999999 19.0595 "/>
<path d="M4.498099999999999 19.0595 L4.498099999999999 18.6362 "/>
<path d="M4.498099999999999 18.6362 L4.5495 18.3943 "/>
<path d="M4.5495 18.3943 L4.6522999999999985 18.2733 "/>
<path d="M4.6522999999999985 18.2733 L4.7551000000000005 18.2128 "/>
<path d="M5.680400000000001 18.6362 L5.680400000000001 19.906200000000002 "/>
<path d="M5.680400000000001 18.6966 L5.783199999999999 18.6362 "/>
<path d="M5.783199999999999 18.6362 L5.9887999999999995 18.6362 "/>
<path d="M5.9887999999999995 18.6362 L6.091599999999998 18.6966 "/>
<path d="M6.091599999999998 18.6966 L6.142999999999999 18.7571 "/>
<path d="M6.142999999999999 18.7571 L6.1944 18.8781 "/>
<path d="M6.1944 18.8781 L6.1944 19.2409 "/>
<path d="M6.1944 19.2409 L6.142999999999999 19.3619 "/>
<path d="M6.142999999999999 19.3619 L6.091599999999998 19.4224 "/>
<path d="M6.091599999999998 19.4224 L5.9887999999999995 19.4828 "/>
<path d="M5.9887999999999995 19.4828 L5.783199999999999 19.4828 "/>
<path d="M5.783199999999999 19.4828 L5.680400000000001 19.4224 "/>
<path d="M6.657099999999998 19.3619 L6.708499999999999 19.4224 "/>
<path d="M6.708499999999999 19.4224 L6.657099999999998 19.4828 "/>
<path d="M6.657099999999998 19.4828 L6.605700000000001 19.4224 "/>
<path d="M6.605700000000001 19.4224 L6.657099999999998 19.3619 "/>
<path d="M6.657099999999998 19.3619 L6.657099999999998 19.4828 "/>
<path d="M7.016899999999998 18.2128 L7.633699999999999 18.2128 "/>
<path d="M7.3253 19.4828 L7.3253 18.2128 "/>
<path d="M8.4048 19.4224 L8.301999999999998 19.4828 "/>
<path d="M8.301999999999998 19.4828 L8.096400000000001 19.4828 "/>
<path d="M8.096400000000001 19.4828 L7.993599999999999 19.4224 "/>
<path d="M7.993599999999999 19.4224 L7.942199999999998 19.3014 "/>
<path d="M7.942199999999998 19.3014 L7.942199999999998 18.8176 "/>
<path d="M7.942199999999998 18.8176 L7.993599999999999 18.6966 "/>
<path d="M7.993599999999999 18.6966 L8.096400000000001 18.6362 "/>
<path d="M8.096400000000001 18.6362 L8.301999999999998 18.6362 "/>
<path d="M8.301999999999998 18.6362 L8.4048 18.6966 "/>
<path d="M8.4048 18.6966 L8.4562 18.8176 "/>
<path d="M8.4562 18.8176 L8.4562 18.9385 "/>
<path d="M8.4562 18.9385 L7.942199999999998 19.0595 "/>
<path d="M8.918899999999999 19.4828 L8.918899999999999 18.6362 "/>
<path d="M8.918899999999999 18.7571 L8.9703 18.6966 "/>
<path d="M8.9703 18.6966 L9.073099999999998 18.6362 "/>
<path d="M9.073099999999998 18.6362 L9.227299999999998 18.6362 "/>
<path d="M9.227299999999998 18.6362 L9.3301 18.6966 "/>
<path d="M9.3301 18.6966 L9.3815 18.8176 "/>
<path d="M9.3815 18.8176 L9.3815 19.4828 "/>
<path d="M9.3815 18.8176 L9.432899999999998 18.6966 "/>
<path d="M9.432899999999998 18.6966 L9.5357 18.6362 "/>
<path d="M9.5357 18.6362 L9.6899 18.6362 "/>
<path d="M9.6899 18.6362 L9.792799999999998 18.6966 "/>
<path d="M9.792799999999998 18.6966 L9.844199999999999 18.8176 "/>
<path d="M9.844199999999999 18.8176 L9.844199999999999 19.4828 "/>
<path d="M10.358199999999998 18.6362 L10.358199999999998 19.906200000000002 "/>
<path d="M10.358199999999998 18.6966 L10.461 18.6362 "/>
<path d="M10.461 18.6362 L10.6666 18.6362 "/>
<path d="M10.6666 18.6362 L10.7694 18.6966 "/>
<path d="M10.7694 18.6966 L10.8208 18.7571 "/>
<path d="M10.8208 18.7571 L10.872200000000001 18.8781 "/>
<path d="M10.872200000000001 18.8781 L10.872200000000001 19.2409 "/>
<path d="M10.872200000000001 19.2409 L10.8208 19.3619 "/>
<path d="M10.8208 19.3619 L10.7694 19.4224 "/>
<path d="M10.7694 19.4224 L10.6666 19.4828 "/>
<path d="M10.6666 19.4828 L10.461 19.4828 "/>
<path d="M10.461 19.4828 L10.358199999999998 19.4224 "/>
<path d="M11.3349 19.3619 L11.3863 19.4224 "/>
<path d="M11.3863 19.4224 L11.3349 19.4828 "/>
<path d="M11.3349 19.4828 L11.283499999999998 19.4224 "/>
<path d="M11.283499999999998 19.4224 L11.3349 19.3619 "/>
<path d="M11.3349 19.3619 L11.3349 19.4828 "/>
<path d="M11.3349 18.6966 L11.3863 18.7571 "/>
<path d="M11.3863 18.7571 L11.3349 18.8176 "/>
<path d="M11.3349 18.8176 L11.283499999999998 18.7571 "/>
<path d="M11.283499999999998 18.7571 L11.3349 18.6966 "/>
<path d="M11.3349 18.6966 L11.3349 18.8176 "/>
<path d="M12.6714 18.999 L13.493899999999998 18.999 "/>
<path d="M14.4705 18.6362 L14.4705 19.4828 "/>
<path d="M14.213499999999998 18.1524 L13.9565 19.0595 "/>
<path d="M13.9565 19.0595 L14.624699999999999 19.0595 "/>
<path d="M15.2416 18.2128 L15.344399999999998 18.2128 "/>
<path d="M15.344399999999998 18.2128 L15.4472 18.2733 "/>
<path d="M15.4472 18.2733 L15.498599999999998 18.3338 "/>
<path d="M15.498599999999998 18.3338 L15.549999999999999 18.4547 "/>
<path d="M15.549999999999999 18.4547 L15.6014 18.6966 "/>
<path d="M15.6014 18.6966 L15.6014 18.999 "/>
<path d="M15.6014 18.999 L15.549999999999999 19.2409 "/>
<path d="M15.549999999999999 19.2409 L15.498599999999998 19.3619 "/>
<path d="M15.498599999999998 19.3619 L15.4472 19.4224 "/>
<path d="M15.4472 19.4224 L15.344399999999998 19.4828 "/>
<path d="M15.344399999999998 19.4828 L15.2416 19.4828 "/>
<path d="M15.2416 19.4828 L15.138799999999998 19.4224 "/>
<path d="M15.138799999999998 19.4224 L15.0874 19.3619 "/>
<path d="M15.0874 19.3619 L15.036 19.2409 "/>
<path d="M15.036 19.2409 L14.984599999999999 18.999 "/>
<path d="M14.984599999999999 18.999 L14.984599999999999 18.6966 "/>
<path d="M14.984599999999999 18.6966 L15.036 18.4547 "/>
<path d="M15.036 18.4547 L15.0874 18.3338 "/>
<path d="M15.0874 18.3338 L15.138799999999998 18.2733 "/>
<path d="M15.138799999999998 18.2733 L15.2416 18.2128 "/>
<path d="M15.909899999999999 18.999 L15.9613 18.9385 "/>
<path d="M15.9613 18.9385 L16.064099999999996 18.8781 "/>
<path d="M16.064099999999996 18.8781 L16.2697 18.999 "/>
<path d="M16.2697 18.999 L16.372500000000002 18.9385 "/>
<path d="M16.372500000000002 18.9385 L16.423900000000003 18.8781 "/>
<path d="M16.681000000000004 18.999 L16.7324 18.9385 "/>
<path d="M16.7324 18.9385 L16.8352 18.8781 "/>
<path d="M16.8352 18.8781 L17.040800000000004 18.999 "/>
<path d="M17.040800000000004 18.999 L17.1436 18.9385 "/>
<path d="M17.1436 18.9385 L17.195 18.8781 "/>
<path d="M17.7605 18.7571 L17.6577 18.6966 "/>
<path d="M17.6577 18.6966 L17.606300000000005 18.6362 "/>
<path d="M17.606300000000005 18.6362 L17.554900000000004 18.5152 "/>
<path d="M17.554900000000004 18.5152 L17.554900000000004 18.4547 "/>
<path d="M17.554900000000004 18.4547 L17.606300000000005 18.3338 "/>
<path d="M17.606300000000005 18.3338 L17.6577 18.2733 "/>
<path d="M17.6577 18.2733 L17.7605 18.2128 "/>
<path d="M17.7605 18.2128 L17.966100000000004 18.2128 "/>
<path d="M17.966100000000004 18.2128 L18.0689 18.2733 "/>
<path d="M18.0689 18.2733 L18.1203 18.3338 "/>
<path d="M18.1203 18.3338 L18.1717 18.4547 "/>
<path d="M18.1717 18.4547 L18.1717 18.5152 "/>
<path d="M18.1717 18.5152 L18.1203 18.6362 "/>
<path d="M18.1203 18.6362 L18.0689 18.6966 "/>
<path d="M18.0689 18.6966 L17.966100000000004 18.7571 "/>
<path d="M17.966100000000004 18.7571 L17.7605 18.7571 "/>
<path d="M17.7605 18.7571 L17.6577 18.8176 "/>
<path d="M17.6577 18.8176 L17.606300000000005 18.8781 "/>
<path d="M17.606300000000005 18.8781 L17.554900000000004 18.999 "/>
<path d="M17.554900000000004 18.999 L17.554900000000004 19.2409 "/>
<path d="M17.554900000000004 19.2409 L17.606300000000005 19.3619 "/>
<path d="M17.606300000000005 19.3619 L17.6577 19.4224 "/>
<path d="M17.6577 19.4224 L17.7605 19.4828 "/>
<path d="M17.7605 19.4828 L17.966100000000004 19.4828 "/>
<path d="M17.966100000000004 19.4828 L18.0689 19.4224 "/>
<path d="M18.0689 19.4224 L18.1203 19.3619 "/>
<path d="M18.1203 19.3619 L18.1717 19.2409 "/>
<path d="M18.1717 19.2409 L18.1717 18.999 "/>
<path d="M18.1717 18.999 L18.1203 18.8781 "/>
<path d="M18.1203 18.8781 L18.0689 18.8176 "/>
<path d="M18.0689 18.8176 L17.966100000000004 18.7571 "/>
<path d="M19.148400000000002 18.2128 L18.6344 18.2128 "/>
<path d="M18.6344 18.2128 L18.583 18.8176 "/>
<path d="M18.583 18.8176 L18.6344 18.7571 "/>
<path d="M18.6344 18.7571 L18.7372 18.6966 "/>
<path d="M18.7372 18.6966 L18.9942 18.6966 "/>
<path d="M18.9942 18.6966 L19.097 18.7571 "/>
<path d="M19.097 18.7571 L19.148400000000002 18.8176 "/>
<path d="M19.148400000000002 18.8176 L19.199800000000003 18.9385 "/>
<path d="M19.199800000000003 18.9385 L19.199800000000003 19.2409 "/>
<path d="M19.199800000000003 19.2409 L19.148400000000002 19.3619 "/>
<path d="M19.148400000000002 19.3619 L19.097 19.4224 "/>
<path d="M19.097 19.4224 L18.9942 19.4828 "/>
<path d="M18.9942 19.4828 L18.7372 19.4828 "/>
<path d="M18.7372 19.4828 L18.6344 19.4224 "/>
<path d="M18.6344 19.4224 L18.583 19.3619 "/>
<path d="M19.816700000000004 18.2128 L19.713900000000002 18.2733 "/>
<path d="M19.713900000000002 18.2733 L19.6625 18.3943 "/>
<path d="M19.6625 18.3943 L19.713900000000002 18.5152 "/>
<path d="M19.713900000000002 18.5152 L19.816700000000004 18.5757 "/>
<path d="M19.816700000000004 18.5757 L19.9195 18.5152 "/>
<path d="M19.9195 18.5152 L19.9709 18.3943 "/>
<path d="M19.9709 18.3943 L19.9195 18.2733 "/>
<path d="M19.9195 18.2733 L19.816700000000004 18.2128 "/>
<path d="M21.101800000000004 19.3619 L21.050400000000003 19.4224 "/>
<path d="M21.050400000000003 19.4224 L20.8962 19.4828 "/>
<path d="M20.8962 19.4828 L20.7934 19.4828 "/>
<path d="M20.7934 19.4828 L20.639200000000002 19.4224 "/>
<path d="M20.639200000000002 19.4224 L20.5364 19.3014 "/>
<path d="M20.5364 19.3014 L20.485 19.1804 "/>
<path d="M20.485 19.1804 L20.4336 18.9385 "/>
<path d="M20.4336 18.9385 L20.4336 18.7571 "/>
<path d="M20.4336 18.7571 L20.485 18.5152 "/>
<path d="M20.485 18.5152 L20.5364 18.3943 "/>
<path d="M20.5364 18.3943 L20.639200000000002 18.2733 "/>
<path d="M20.639200000000002 18.2733 L20.7934 18.2128 "/>
<path d="M20.7934 18.2128 L20.8962 18.2128 "/>
<path d="M20.8962 18.2128 L21.050400000000003 18.2733 "/>
<path d="M21.050400000000003 18.2733 L21.101800000000004 18.3338 "/>
</g><text x="28.5033" y="5.6045" textLength="17.5639" font-size="1.4393" lengthAdjust="spacingAndGlyphs" text-anchor="middle" opacity="0">VEML6070
UV Sensor</text>
<g class="stroked-text"><desc>VEML6070
UV Sensor</desc>
<path d="M8.841800000000001 0.9282000000000002 L9.201600000000001 2.1982 "/>
<path d="M9.201600000000001 2.1982 L9.5614 0.9282000000000002 "/>
<path d="M9.9213 1.5330000000000004 L10.2811 1.5330000000000004 "/>
<path d="M10.4353 2.1982 L9.9213 2.1982 "/>
<path d="M9.9213 2.1982 L9.9213 0.9282000000000002 "/>
<path d="M9.9213 0.9282000000000002 L10.4353 0.9282000000000002 "/>
<path d="M10.897999999999998 2.1982 L10.897999999999998 0.9282000000000002 "/>
<path d="M10.897999999999998 0.9282000000000002 L11.257799999999998 1.8354 "/>
<path d="M11.257799999999998 1.8354 L11.617600000000001 0.9282000000000002 "/>
<path d="M11.617600000000001 0.9282000000000002 L11.617600000000001 2.1982 "/>
<path d="M12.6457 2.1982 L12.1317 2.1982 "/>
<path d="M12.1317 2.1982 L12.1317 0.9282000000000002 "/>
<path d="M13.468200000000001 0.9282000000000002 L13.2626 0.9282000000000002 "/>
<path d="M13.2626 0.9282000000000002 L13.159799999999999 0.9887 "/>
<path d="M13.159799999999999 0.9887 L13.108399999999998 1.0492000000000004 "/>
<path d="M13.108399999999998 1.0492000000000004 L13.0056 1.2306000000000004 "/>
<path d="M13.0056 1.2306000000000004 L12.954199999999998 1.4725000000000001 "/>
<path d="M12.954199999999998 1.4725000000000001 L12.954199999999998 1.9563000000000006 "/>
<path d="M12.954199999999998 1.9563000000000006 L13.0056 2.0773 "/>
<path d="M13.0056 2.0773 L13.057 2.1378000000000004 "/>
<path d="M13.057 2.1378000000000004 L13.159799999999999 2.1982 "/>
<path d="M13.159799999999999 2.1982 L13.3654 2.1982 "/>
<path d="M13.3654 2.1982 L13.468200000000001 2.1378000000000004 "/>
<path d="M13.468200000000001 2.1378000000000004 L13.519599999999999 2.0773 "/>
<path d="M13.519599999999999 2.0773 L13.571 1.9563000000000006 "/>
<path d="M13.571 1.9563000000000006 L13.571 1.6539000000000001 "/>
<path d="M13.571 1.6539000000000001 L13.519599999999999 1.5330000000000004 "/>
<path d="M13.519599999999999 1.5330000000000004 L13.468200000000001 1.4725000000000001 "/>
<path d="M13.468200000000001 1.4725000000000001 L13.3654 1.4120000000000004 "/>
<path d="M13.3654 1.4120000000000004 L13.159799999999999 1.4120000000000004 "/>
<path d="M13.159799999999999 1.4120000000000004 L13.057 1.4725000000000001 "/>
<path d="M13.057 1.4725000000000001 L13.0056 1.5330000000000004 "/>
<path d="M13.0056 1.5330000000000004 L12.954199999999998 1.6539000000000001 "/>
<path d="M14.239299999999998 0.9282000000000002 L14.3421 0.9282000000000002 "/>
<path d="M14.3421 0.9282000000000002 L14.444899999999999 0.9887 "/>
<path d="M14.444899999999999 0.9887 L14.4963 1.0492000000000004 "/>
<path d="M14.4963 1.0492000000000004 L14.5477 1.1701000000000001 "/>
<path d="M14.5477 1.1701000000000001 L14.599099999999998 1.4120000000000004 "/>
<path d="M14.599099999999998 1.4120000000000004 L14.599099999999998 1.7144000000000004 "/>
<path d="M14.599099999999998 1.7144000000000004 L14.5477 1.9563000000000006 "/>
<path d="M14.5477 1.9563000000000006 L14.4963 2.0773 "/>
<path d="M14.4963 2.0773 L14.444899999999999 2.1378000000000004 "/>
<path d="M14.444899999999999 2.1378000000000004 L14.3421 2.1982 "/>
<path d="M14.3421 2.1982 L14.239299999999998 2.1982 "/>
<path d="M14.239299999999998 2.1982 L14.1365 2.1378000000000004 "/>
<path d="M14.1365 2.1378000000000004 L14.085099999999999 2.0773 "/>
<path d="M14.085099999999999 2.0773 L14.033699999999998 1.9563000000000006 "/>
<path d="M14.033699999999998 1.9563000000000006 L13.9823 1.7144000000000004 "/>
<path d="M13.9823 1.7144000000000004 L13.9823 1.4120000000000004 "/>
<path d="M13.9823 1.4120000000000004 L14.033699999999998 1.1701000000000001 "/>
<path d="M14.033699999999998 1.1701000000000001 L14.085099999999999 1.0492000000000004 "/>
<path d="M14.085099999999999 1.0492000000000004 L14.1365 0.9887 "/>
<path d="M14.1365 0.9887 L14.239299999999998 0.9282000000000002 "/>
<path d="M14.958999999999998 0.9282000000000002 L15.678600000000001 0.9282000000000002 "/>
<path d="M15.678600000000001 0.9282000000000002 L15.216 2.1982 "/>
<path d="M16.295499999999997 0.9282000000000002 L16.3983 0.9282000000000002 "/>
<path d="M16.3983 0.9282000000000002 L16.5011 0.9887 "/>
<path d="M16.5011 0.9887 L16.552500000000002 1.0492000000000004 "/>
<path d="M16.552500000000002 1.0492000000000004 L16.603900000000003 1.1701000000000001 "/>
<path d="M16.603900000000003 1.1701000000000001 L16.655300000000004 1.4120000000000004 "/>
<path d="M16.655300000000004 1.4120000000000004 L16.655300000000004 1.7144000000000004 "/>
<path d="M16.655300000000004 1.7144000000000004 L16.603900000000003 1.9563000000000006 "/>
<path d="M16.603900000000003 1.9563000000000006 L16.552500000000002 2.0773 "/>
<path d="M16.552500000000002 2.0773 L16.5011 2.1378000000000004 "/>
<path d="M16.5011 2.1378000000000004 L16.3983 2.1982 "/>
<path d="M16.3983 2.1982 L16.295499999999997 2.1982 "/>
<path d="M16.295499999999997 2.1982 L16.192700000000002 2.1378000000000004 "/>
<path d="M16.192700000000002 2.1378000000000004 L16.1413 2.0773 "/>
<path d="M16.1413 2.0773 L16.0899 1.9563000000000006 "/>
<path d="M16.0899 1.9563000000000006 L16.0385 1.7144000000000004 "/>
<path d="M16.0385 1.7144000000000004 L16.0385 1.4120000000000004 "/>
<path d="M16.0385 1.4120000000000004 L16.0899 1.1701000000000001 "/>
<path d="M16.0899 1.1701000000000001 L16.1413 1.0492000000000004 "/>
<path d="M16.1413 1.0492000000000004 L16.192700000000002 0.9887 "/>
<path d="M16.192700000000002 0.9887 L16.295499999999997 0.9282000000000002 "/>
<path d="M8.893199999999998 2.9728000000000003 L8.893199999999998 4.000900000000001 "/>
<path d="M8.893199999999998 4.000900000000001 L8.9446 4.1219 "/>
<path d="M8.9446 4.1219 L8.996 4.1824 "/>
<path d="M8.996 4.1824 L9.098799999999999 4.2428 "/>
<path d="M9.098799999999999 4.2428 L9.3044 4.2428 "/>
<path d="M9.3044 4.2428 L9.407199999999998 4.1824 "/>
<path d="M9.407199999999998 4.1824 L9.458599999999999 4.1219 "/>
<path d="M9.458599999999999 4.1219 L9.51 4.000900000000001 "/>
<path d="M9.51 4.000900000000001 L9.51 2.9728000000000003 "/>
<path d="M9.8699 2.9728000000000003 L10.2297 4.2428 "/>
<path d="M10.2297 4.2428 L10.5895 2.9728000000000003 "/>
<path d="M11.7205 4.1824 L11.874699999999999 4.2428 "/>
<path d="M11.874699999999999 4.2428 L12.1317 4.2428 "/>
<path d="M12.1317 4.2428 L12.234499999999999 4.1824 "/>
<path d="M12.234499999999999 4.1824 L12.2859 4.1219 "/>
<path d="M12.2859 4.1219 L12.3373 4.000900000000001 "/>
<path d="M12.3373 4.000900000000001 L12.3373 3.88 "/>
<path d="M12.3373 3.88 L12.2859 3.7590000000000003 "/>
<path d="M12.2859 3.7590000000000003 L12.234499999999999 3.6985 "/>
<path d="M12.234499999999999 3.6985 L12.1317 3.6381000000000006 "/>
<path d="M12.1317 3.6381000000000006 L11.9261 3.5776000000000003 "/>
<path d="M11.9261 3.5776000000000003 L11.823299999999998 3.5171 "/>
<path d="M11.823299999999998 3.5171 L11.7719 3.4566 "/>
<path d="M11.7719 3.4566 L11.7205 3.3357 "/>
<path d="M11.7205 3.3357 L11.7205 3.2147000000000006 "/>
<path d="M11.7205 3.2147000000000006 L11.7719 3.0938 "/>
<path d="M11.7719 3.0938 L11.823299999999998 3.0333000000000006 "/>
<path d="M11.823299999999998 3.0333000000000006 L11.9261 2.9728000000000003 "/>
<path d="M11.9261 2.9728000000000003 L12.183099999999998 2.9728000000000003 "/>
<path d="M12.183099999999998 2.9728000000000003 L12.3373 3.0333000000000006 "/>
<path d="M13.2112 4.1824 L13.108399999999998 4.2428 "/>
<path d="M13.108399999999998 4.2428 L12.902800000000001 4.2428 "/>
<path d="M12.902800000000001 4.2428 L12.799999999999999 4.1824 "/>
<path d="M12.799999999999999 4.1824 L12.748599999999998 4.0614 "/>
<path d="M12.748599999999998 4.0614 L12.748599999999998 3.5776000000000003 "/>
<path d="M12.748599999999998 3.5776000000000003 L12.799999999999999 3.4566 "/>
<path d="M12.799999999999999 3.4566 L12.902800000000001 3.3962000000000003 "/>
<path d="M12.902800000000001 3.3962000000000003 L13.108399999999998 3.3962000000000003 "/>
<path d="M13.108399999999998 3.3962000000000003 L13.2112 3.4566 "/>
<path d="M13.2112 3.4566 L13.2626 3.5776000000000003 "/>
<path d="M13.2626 3.5776000000000003 L13.2626 3.6985 "/>
<path d="M13.2626 3.6985 L12.748599999999998 3.8195000000000006 "/>
<path d="M13.725299999999999 3.3962000000000003 L13.725299999999999 4.2428 "/>
<path d="M13.725299999999999 3.5171 L13.7767 3.4566 "/>
<path d="M13.7767 3.4566 L13.879499999999998 3.3962000000000003 "/>
<path d="M13.879499999999998 3.3962000000000003 L14.033699999999998 3.3962000000000003 "/>
<path d="M14.033699999999998 3.3962000000000003 L14.1365 3.4566 "/>
<path d="M14.1365 3.4566 L14.1879 3.5776000000000003 "/>
<path d="M14.1879 3.5776000000000003 L14.1879 4.2428 "/>
<path d="M14.650599999999999 4.1824 L14.753400000000001 4.2428 "/>
<path d="M14.753400000000001 4.2428 L14.958999999999998 4.2428 "/>
<path d="M14.958999999999998 4.2428 L15.0618 4.1824 "/>
<path d="M15.0618 4.1824 L15.1132 4.0614 "/>
<path d="M15.1132 4.0614 L15.1132 4.000900000000001 "/>
<path d="M15.1132 4.000900000000001 L15.0618 3.88 "/>
<path d="M15.0618 3.88 L14.958999999999998 3.8195000000000006 "/>
<path d="M14.958999999999998 3.8195000000000006 L14.804799999999998 3.8195000000000006 "/>
<path d="M14.804799999999998 3.8195000000000006 L14.702 3.7590000000000003 "/>
<path d="M14.702 3.7590000000000003 L14.650599999999999 3.6381000000000006 "/>
<path d="M14.650599999999999 3.6381000000000006 L14.650599999999999 3.5776000000000003 "/>
<path d="M14.650599999999999 3.5776000000000003 L14.702 3.4566 "/>
<path d="M14.702 3.4566 L14.804799999999998 3.3962000000000003 "/>
<path d="M14.804799999999998 3.3962000000000003 L14.958999999999998 3.3962000000000003 "/>
<path d="M14.958999999999998 3.3962000000000003 L15.0618 3.4566 "/>
<path d="M15.730099999999998 4.2428 L15.6273 4.1824 "/>
<path d="M15.6273 4.1824 L15.575899999999999 4.1219 "/>
<path d="M15.575899999999999 4.1219 L15.524499999999998 4.000900000000001 "/>
<path d="M15.524499999999998 4.000900000000001 L15.524499999999998 3.6381000000000006 "/>
<path d="M15.524499999999998 3.6381000000000006 L15.575899999999999 3.5171 "/>
<path d="M15.575899999999999 3.5171 L15.6273 3.4566 "/>
<path d="M15.6273 3.4566 L15.730099999999998 3.3962000000000003 "/>
<path d="M15.730099999999998 3.3962000000000003 L15.884299999999998 3.3962000000000003 "/>
<path d="M15.884299999999998 3.3962000000000003 L15.9871 3.4566 "/>
<path d="M15.9871 3.4566 L16.0385 3.5171 "/>
<path d="M16.0385 3.5171 L16.0899 3.6381000000000006 "/>
<path d="M16.0899 3.6381000000000006 L16.0899 4.000900000000001 "/>
<path d="M16.0899 4.000900000000001 L16.0385 4.1219 "/>
<path d="M16.0385 4.1219 L15.9871 4.1824 "/>
<path d="M15.9871 4.1824 L15.884299999999998 4.2428 "/>
<path d="M15.884299999999998 4.2428 L15.730099999999998 4.2428 "/>
<path d="M16.552599999999998 4.2428 L16.552599999999998 3.3962000000000003 "/>
<path d="M16.552599999999998 3.6381000000000006 L16.604 3.5171 "/>
<path d="M16.604 3.5171 L16.6554 3.4566 "/>
<path d="M16.6554 3.4566 L16.758200000000002 3.3962000000000003 "/>
<path d="M16.758200000000002 3.3962000000000003 L16.861000000000004 3.3962000000000003 "/>
</g></g>
<g style="fill:none;  stroke:#840000; stroke-width:0.1524; stroke-opacity:1;  stroke-linecap:round; stroke-linejoin:round;">
<path d="M2.6399999999999992 7.720000000000001 L0.1 7.720000000000001 "/>
</g>
<g style="fill:none;  stroke:#006464; stroke-width:0.1524; stroke-opacity:1;  stroke-linecap:round; stroke-linejoin:round;">
<text x="18.8513" y="10.6844" textLength="4.0737" font-size="1.6933" lengthAdjust="spacingAndGlyphs" text-anchor="start" opacity="0">GND</text>
<g class="stroked-text"><desc>GND</desc>
<path d="M4.2158 7.09 L4.094800000000001 7.0295000000000005 "/>
<path d="M4.094800000000001 7.0295000000000005 L3.9134000000000015 7.0295000000000005 "/>
<path d="M3.9134000000000015 7.0295000000000005 L3.7320000000000015 7.09 "/>
<path d="M3.7320000000000015 7.09 L3.6109999999999993 7.211 "/>
<path d="M3.6109999999999993 7.211 L3.550499999999998 7.331900000000001 "/>
<path d="M3.550499999999998 7.331900000000001 L3.4901000000000004 7.5738 "/>
<path d="M3.4901000000000004 7.5738 L3.4901000000000004 7.7552 "/>
<path d="M3.4901000000000004 7.7552 L3.550499999999998 7.9971 "/>
<path d="M3.550499999999998 7.9971 L3.6109999999999993 8.1181 "/>
<path d="M3.6109999999999993 8.1181 L3.7320000000000015 8.2391 "/>
<path d="M3.7320000000000015 8.2391 L3.9134000000000015 8.2995 "/>
<path d="M3.9134000000000015 8.2995 L4.0343 8.2995 "/>
<path d="M4.0343 8.2995 L4.2158 8.2391 "/>
<path d="M4.2158 8.2391 L4.276200000000001 8.1786 "/>
<path d="M4.276200000000001 8.1786 L4.276200000000001 7.7552 "/>
<path d="M4.276200000000001 7.7552 L4.0343 7.7552 "/>
<path d="M4.820500000000001 8.2995 L4.820500000000001 7.0295000000000005 "/>
<path d="M4.820500000000001 7.0295000000000005 L5.546200000000001 8.2995 "/>
<path d="M5.546200000000001 8.2995 L5.546200000000001 7.0295000000000005 "/>
<path d="M6.150999999999998 8.2995 L6.150999999999998 7.0295000000000005 "/>
<path d="M6.150999999999998 7.0295000000000005 L6.4534 7.0295000000000005 "/>
<path d="M6.4534 7.0295000000000005 L6.6348 7.09 "/>
<path d="M6.6348 7.09 L6.755799999999999 7.211 "/>
<path d="M6.755799999999999 7.211 L6.8163 7.331900000000001 "/>
<path d="M6.8163 7.331900000000001 L6.876699999999998 7.5738 "/>
<path d="M6.876699999999998 7.5738 L6.876699999999998 7.7552 "/>
<path d="M6.876699999999998 7.7552 L6.8163 7.9971 "/>
<path d="M6.8163 7.9971 L6.755799999999999 8.1181 "/>
<path d="M6.755799999999999 8.1181 L6.6348 8.2391 "/>
<path d="M6.6348 8.2391 L6.4534 8.2995 "/>
<path d="M6.4534 8.2995 L6.150999999999998 8.2995 "/>
</g></g>
<g style="fill:none;  stroke:#A90000; stroke-width:0.1524; stroke-opacity:1;  stroke-linecap:round; stroke-linejoin:round;">
<text x="17.0733" y="9.7954" textLength="1.4127" font-size="1.6933" lengthAdjust="spacingAndGlyphs" text-anchor="middle" opacity="0">1</text>
<g class="stroked-text"><desc>1</desc>
<path d="M1.7328999999999994 7.3025 L1.0071999999999997 7.3025 "/>
<path d="M1.3699999999999997 7.3025 L1.3699999999999997 6.032500000000001 "/>
<path d="M1.3699999999999997 6.032500000000001 L1.2491000000000008 6.214 "/>
<path d="M1.2491000000000008 6.214 L1.1280999999999985 6.334900000000001 "/>
<path d="M1.1280999999999985 6.334900000000001 L1.0071999999999997 6.3954 "/>
</g></g>
<g style="fill:none;  stroke:#840000; stroke-width:0.1524; stroke-opacity:1;  stroke-linecap:round; stroke-linejoin:round;">
<path d="M2.6399999999999992 10.26 L0.1 10.26 "/>
</g>
<g style="fill:none;  stroke:#006464; stroke-width:0.1524; stroke-opacity:1;  stroke-linecap:round; stroke-linejoin:round;">
<text x="18.8513" y="13.2244" textLength="3.8318" font-size="1.6933" lengthAdjust="spacingAndGlyphs" text-anchor="start" opacity="0">ACK</text>
<g class="stroked-text"><desc>ACK</desc>
<path d="M3.4901000000000004 10.476700000000001 L4.094800000000001 10.476700000000001 "/>
<path d="M3.369099999999998 10.839500000000001 L3.7923999999999993 9.5695 "/>
<path d="M3.7923999999999993 9.5695 L4.2158 10.839500000000001 "/>
<path d="M5.364800000000001 10.7186 L5.304399999999999 10.7791 "/>
<path d="M5.304399999999999 10.7791 L5.1229 10.839500000000001 "/>
<path d="M5.1229 10.839500000000001 L5.002000000000001 10.839500000000001 "/>
<path d="M5.002000000000001 10.839500000000001 L4.820600000000001 10.7791 "/>
<path d="M4.820600000000001 10.7791 L4.6995999999999984 10.658100000000001 "/>
<path d="M4.6995999999999984 10.658100000000001 L4.639100000000001 10.5371 "/>
<path d="M4.639100000000001 10.5371 L4.5786999999999995 10.2952 "/>
<path d="M4.5786999999999995 10.2952 L4.5786999999999995 10.1138 "/>
<path d="M4.5786999999999995 10.1138 L4.639100000000001 9.8719 "/>
<path d="M4.639100000000001 9.8719 L4.6995999999999984 9.751 "/>
<path d="M4.6995999999999984 9.751 L4.820600000000001 9.63 "/>
<path d="M4.820600000000001 9.63 L5.002000000000001 9.5695 "/>
<path d="M5.002000000000001 9.5695 L5.1229 9.5695 "/>
<path d="M5.1229 9.5695 L5.304399999999999 9.63 "/>
<path d="M5.304399999999999 9.63 L5.364800000000001 9.6905 "/>
<path d="M5.9091000000000005 10.839500000000001 L5.9091000000000005 9.5695 "/>
<path d="M6.6348 10.839500000000001 L6.0906 10.1138 "/>
<path d="M6.6348 9.5695 L5.9091000000000005 10.2952 "/>
</g></g>
<g style="fill:none;  stroke:#A90000; stroke-width:0.1524; stroke-opacity:1;  stroke-linecap:round; stroke-linejoin:round;">
<text x="17.0733" y="12.3354" textLength="1.4127" font-size="1.6933" lengthAdjust="spacingAndGlyphs" text-anchor="middle" opacity="0">2</text>
<g class="stroked-text"><desc>2</desc>
<path d="M1.0071999999999997 8.6935 L1.067600000000001 8.633000000000001 "/>
<path d="M1.067600000000001 8.633000000000001 L1.1885999999999997 8.5725 "/>
<path d="M1.1885999999999997 8.5725 L1.4909999999999983 8.5725 "/>
<path d="M1.4909999999999983 8.5725 L1.6119000000000008 8.633000000000001 "/>
<path d="M1.6119000000000008 8.633000000000001 L1.6723999999999983 8.6935 "/>
<path d="M1.6723999999999983 8.6935 L1.7328999999999994 8.814400000000001 "/>
<path d="M1.7328999999999994 8.814400000000001 L1.7328999999999994 8.9354 "/>
<path d="M1.7328999999999994 8.9354 L1.6723999999999983 9.1168 "/>
<path d="M1.6723999999999983 9.1168 L0.9466999999999984 9.842500000000001 "/>
<path d="M0.9466999999999984 9.842500000000001 L1.7328999999999994 9.842500000000001 "/>
</g></g>
<g style="fill:none;  stroke:#840000; stroke-width:0.1524; stroke-opacity:1;  stroke-linecap:round; stroke-linejoin:round;">
<path d="M2.6399999999999992 12.8 L0.1 12.8 "/>
</g>
<g style="fill:none;  stroke:#006464; stroke-width:0.1524; stroke-opacity:1;  stroke-linecap:round; stroke-linejoin:round;">
<text x="18.8513" y="15.7644" textLength="3.7713" font-size="1.6933" lengthAdjust="spacingAndGlyphs" text-anchor="start" opacity="0">SDA</text>
<g class="stroked-text"><desc>SDA</desc>
<path d="M3.4901000000000004 13.3191 L3.6715000000000004 13.3795 "/>
<path d="M3.6715000000000004 13.3795 L3.973899999999999 13.3795 "/>
<path d="M3.973899999999999 13.3795 L4.094800000000001 13.3191 "/>
<path d="M4.094800000000001 13.3191 L4.155299999999999 13.2586 "/>
<path d="M4.155299999999999 13.2586 L4.2158 13.1376 "/>
<path d="M4.2158 13.1376 L4.2158 13.0167 "/>
<path d="M4.2158 13.0167 L4.155299999999999 12.8957 "/>
<path d="M4.155299999999999 12.8957 L4.094800000000001 12.8352 "/>
<path d="M4.094800000000001 12.8352 L3.973899999999999 12.7748 "/>
<path d="M3.973899999999999 12.7748 L3.7320000000000015 12.7143 "/>
<path d="M3.7320000000000015 12.7143 L3.6109999999999993 12.6538 "/>
<path d="M3.6109999999999993 12.6538 L3.550499999999998 12.593300000000001 "/>
<path d="M3.550499999999998 12.593300000000001 L3.4901000000000004 12.4724 "/>
<path d="M3.4901000000000004 12.4724 L3.4901000000000004 12.3514 "/>
<path d="M3.4901000000000004 12.3514 L3.550499999999998 12.230500000000001 "/>
<path d="M3.550499999999998 12.230500000000001 L3.6109999999999993 12.17 "/>
<path d="M3.6109999999999993 12.17 L3.7320000000000015 12.1095 "/>
<path d="M3.7320000000000015 12.1095 L4.0343 12.1095 "/>
<path d="M4.0343 12.1095 L4.2158 12.17 "/>
<path d="M4.76 13.3795 L4.76 12.1095 "/>
<path d="M4.76 12.1095 L5.0623999999999985 12.1095 "/>
<path d="M5.0623999999999985 12.1095 L5.2437999999999985 12.17 "/>
<path d="M5.2437999999999985 12.17 L5.364800000000001 12.291 "/>
<path d="M5.364800000000001 12.291 L5.425299999999998 12.411900000000001 "/>
<path d="M5.425299999999998 12.411900000000001 L5.4857 12.6538 "/>
<path d="M5.4857 12.6538 L5.4857 12.8352 "/>
<path d="M5.4857 12.8352 L5.425299999999998 13.0771 "/>
<path d="M5.425299999999998 13.0771 L5.364800000000001 13.1981 "/>
<path d="M5.364800000000001 13.1981 L5.2437999999999985 13.3191 "/>
<path d="M5.2437999999999985 13.3191 L5.0623999999999985 13.3795 "/>
<path d="M5.0623999999999985 13.3795 L4.76 13.3795 "/>
<path d="M5.969599999999998 13.0167 L6.574299999999999 13.0167 "/>
<path d="M5.848599999999999 13.3795 L6.2719000000000005 12.1095 "/>
<path d="M6.2719000000000005 12.1095 L6.695299999999998 13.3795 "/>
</g></g>
<g style="fill:none;  stroke:#A90000; stroke-width:0.1524; stroke-opacity:1;  stroke-linecap:round; stroke-linejoin:round;">
<text x="17.0733" y="14.8754" textLength="1.4127" font-size="1.6933" lengthAdjust="spacingAndGlyphs" text-anchor="middle" opacity="0">3</text>
<g class="stroked-text"><desc>3</desc>
<path d="M0.9466999999999984 11.1125 L1.7328999999999994 11.1125 "/>
<path d="M1.7328999999999994 11.1125 L1.3094999999999986 11.596300000000001 "/>
<path d="M1.3094999999999986 11.596300000000001 L1.4909999999999983 11.596300000000001 "/>
<path d="M1.4909999999999983 11.596300000000001 L1.6119000000000008 11.6568 "/>
<path d="M1.6119000000000008 11.6568 L1.6723999999999983 11.7173 "/>
<path d="M1.6723999999999983 11.7173 L1.7328999999999994 11.8382 "/>
<path d="M1.7328999999999994 11.8382 L1.7328999999999994 12.140600000000001 "/>
<path d="M1.7328999999999994 12.140600000000001 L1.6723999999999983 12.2616 "/>
<path d="M1.6723999999999983 12.2616 L1.6119000000000008 12.3221 "/>
<path d="M1.6119000000000008 12.3221 L1.4909999999999983 12.3825 "/>
<path d="M1.4909999999999983 12.3825 L1.1280999999999985 12.3825 "/>
<path d="M1.1280999999999985 12.3825 L1.0071999999999997 12.3221 "/>
<path d="M1.0071999999999997 12.3221 L0.9466999999999984 12.2616 "/>
</g></g>
<g style="fill:none;  stroke:#840000; stroke-width:0.1524; stroke-opacity:1;  stroke-linecap:round; stroke-linejoin:round;">
<path d="M22.96 12.8 L25.5 12.8 "/>
</g>
<g style="fill:none;  stroke:#006464; stroke-width:0.1524; stroke-opacity:1;  stroke-linecap:round; stroke-linejoin:round;">
<text x="38.1553" y="15.7644" textLength="3.5293" font-size="1.6933" lengthAdjust="spacingAndGlyphs" text-anchor="end" opacity="0">SET</text>
<g class="stroked-text"><desc>SET</desc>
<path d="M19.2676 13.3191 L19.448999999999998 13.3795 "/>
<path d="M19.448999999999998 13.3795 L19.751400000000004 13.3795 "/>
<path d="M19.751400000000004 13.3795 L19.872300000000003 13.3191 "/>
<path d="M19.872300000000003 13.3191 L19.9328 13.2586 "/>
<path d="M19.9328 13.2586 L19.993299999999998 13.1376 "/>
<path d="M19.993299999999998 13.1376 L19.993299999999998 13.0167 "/>
<path d="M19.993299999999998 13.0167 L19.9328 12.8957 "/>
<path d="M19.9328 12.8957 L19.872300000000003 12.8352 "/>
<path d="M19.872300000000003 12.8352 L19.751400000000004 12.7748 "/>
<path d="M19.751400000000004 12.7748 L19.509500000000003 12.7143 "/>
<path d="M19.509500000000003 12.7143 L19.3885 12.6538 "/>
<path d="M19.3885 12.6538 L19.328000000000003 12.593300000000001 "/>
<path d="M19.328000000000003 12.593300000000001 L19.2676 12.4724 "/>
<path d="M19.2676 12.4724 L19.2676 12.3514 "/>
<path d="M19.2676 12.3514 L19.328000000000003 12.230500000000001 "/>
<path d="M19.328000000000003 12.230500000000001 L19.3885 12.17 "/>
<path d="M19.3885 12.17 L19.509500000000003 12.1095 "/>
<path d="M19.509500000000003 12.1095 L19.811799999999998 12.1095 "/>
<path d="M19.811799999999998 12.1095 L19.993299999999998 12.17 "/>
<path d="M20.5375 12.7143 L20.960900000000002 12.7143 "/>
<path d="M21.1423 13.3795 L20.5375 13.3795 "/>
<path d="M20.5375 13.3795 L20.5375 12.1095 "/>
<path d="M20.5375 12.1095 L21.1423 12.1095 "/>
<path d="M21.5051 12.1095 L22.230800000000002 12.1095 "/>
<path d="M21.868000000000002 13.3795 L21.868000000000002 12.1095 "/>
</g></g>
<g style="fill:none;  stroke:#A90000; stroke-width:0.1524; stroke-opacity:1;  stroke-linecap:round; stroke-linejoin:round;">
<text x="39.9333" y="14.8754" textLength="1.4127" font-size="1.6933" lengthAdjust="spacingAndGlyphs" text-anchor="middle" opacity="0">4</text>
<g class="stroked-text"><desc>4</desc>
<path d="M24.471899999999998 11.5359 L24.471899999999998 12.3825 "/>
<path d="M24.1695 11.052100000000001 L23.867200000000004 11.959200000000001 "/>
<path d="M23.867200000000004 11.959200000000001 L24.6533 11.959200000000001 "/>
</g></g>
<g style="fill:none;  stroke:#840000; stroke-width:0.1524; stroke-opacity:1;  stroke-linecap:round; stroke-linejoin:round;">
<path d="M22.96 10.26 L25.5 10.26 "/>
</g>
<g style="fill:none;  stroke:#006464; stroke-width:0.1524; stroke-opacity:1;  stroke-linecap:round; stroke-linejoin:round;">
<text x="38.1553" y="13.2244" textLength="3.7108" font-size="1.6933" lengthAdjust="spacingAndGlyphs" text-anchor="end" opacity="0">SCL</text>
<g class="stroked-text"><desc>SCL</desc>
<path d="M19.086100000000002 10.7791 L19.2675 10.839500000000001 "/>
<path d="M19.2675 10.839500000000001 L19.569900000000004 10.839500000000001 "/>
<path d="M19.569900000000004 10.839500000000001 L19.690800000000003 10.7791 "/>
<path d="M19.690800000000003 10.7791 L19.7513 10.7186 "/>
<path d="M19.7513 10.7186 L19.811799999999998 10.5976 "/>
<path d="M19.811799999999998 10.5976 L19.811799999999998 10.476700000000001 "/>
<path d="M19.811799999999998 10.476700000000001 L19.7513 10.3557 "/>
<path d="M19.7513 10.3557 L19.690800000000003 10.2952 "/>
<path d="M19.690800000000003 10.2952 L19.569900000000004 10.2348 "/>
<path d="M19.569900000000004 10.2348 L19.328000000000003 10.1743 "/>
<path d="M19.328000000000003 10.1743 L19.207 10.1138 "/>
<path d="M19.207 10.1138 L19.146500000000003 10.0533 "/>
<path d="M19.146500000000003 10.0533 L19.086100000000002 9.9324 "/>
<path d="M19.086100000000002 9.9324 L19.086100000000002 9.8114 "/>
<path d="M19.086100000000002 9.8114 L19.146500000000003 9.6905 "/>
<path d="M19.146500000000003 9.6905 L19.207 9.63 "/>
<path d="M19.207 9.63 L19.328000000000003 9.5695 "/>
<path d="M19.328000000000003 9.5695 L19.6303 9.5695 "/>
<path d="M19.6303 9.5695 L19.811799999999998 9.63 "/>
<path d="M21.081699999999998 10.7186 L21.021300000000004 10.7791 "/>
<path d="M21.021300000000004 10.7791 L20.839800000000004 10.839500000000001 "/>
<path d="M20.839800000000004 10.839500000000001 L20.718899999999998 10.839500000000001 "/>
<path d="M20.718899999999998 10.839500000000001 L20.5375 10.7791 "/>
<path d="M20.5375 10.7791 L20.4165 10.658100000000001 "/>
<path d="M20.4165 10.658100000000001 L20.356 10.5371 "/>
<path d="M20.356 10.5371 L20.2956 10.2952 "/>
<path d="M20.2956 10.2952 L20.2956 10.1138 "/>
<path d="M20.2956 10.1138 L20.356 9.8719 "/>
<path d="M20.356 9.8719 L20.4165 9.751 "/>
<path d="M20.4165 9.751 L20.5375 9.63 "/>
<path d="M20.5375 9.63 L20.718899999999998 9.5695 "/>
<path d="M20.718899999999998 9.5695 L20.839800000000004 9.5695 "/>
<path d="M20.839800000000004 9.5695 L21.021300000000004 9.63 "/>
<path d="M21.021300000000004 9.63 L21.081699999999998 9.6905 "/>
<path d="M22.230800000000002 10.839500000000001 L21.626000000000005 10.839500000000001 "/>
<path d="M21.626000000000005 10.839500000000001 L21.626000000000005 9.5695 "/>
</g></g>
<g style="fill:none;  stroke:#A90000; stroke-width:0.1524; stroke-opacity:1;  stroke-linecap:round; stroke-linejoin:round;">
<text x="39.9333" y="12.3354" textLength="1.4127" font-size="1.6933" lengthAdjust="spacingAndGlyphs" text-anchor="middle" opacity="0">5</text>
<g class="stroked-text"><desc>5</desc>
<path d="M24.532400000000003 8.5725 L23.927599999999998 8.5725 "/>
<path d="M23.927599999999998 8.5725 L23.867200000000004 9.1773 "/>
<path d="M23.867200000000004 9.1773 L23.927599999999998 9.1168 "/>
<path d="M23.927599999999998 9.1168 L24.0486 9.0563 "/>
<path d="M24.0486 9.0563 L24.351 9.0563 "/>
<path d="M24.351 9.0563 L24.471899999999998 9.1168 "/>
<path d="M24.471899999999998 9.1168 L24.532400000000003 9.1773 "/>
<path d="M24.532400000000003 9.1773 L24.5929 9.2982 "/>
<path d="M24.5929 9.2982 L24.5929 9.6006 "/>
<path d="M24.5929 9.6006 L24.532400000000003 9.7216 "/>
<path d="M24.532400000000003 9.7216 L24.471899999999998 9.7821 "/>
<path d="M24.471899999999998 9.7821 L24.351 9.842500000000001 "/>
<path d="M24.351 9.842500000000001 L24.0486 9.842500000000001 "/>
<path d="M24.0486 9.842500000000001 L23.927599999999998 9.7821 "/>
<path d="M23.927599999999998 9.7821 L23.867200000000004 9.7216 "/>
</g></g>
<g style="fill:none;  stroke:#840000; stroke-width:0.1524; stroke-opacity:1;  stroke-linecap:round; stroke-linejoin:round;">
<path d="M22.96 7.720000000000001 L25.5 7.720000000000001 "/>
</g>
<g style="fill:none;  stroke:#006464; stroke-width:0.1524; stroke-opacity:1;  stroke-linecap:round; stroke-linejoin:round;">
<text x="38.1553" y="10.6844" textLength="3.8318" font-size="1.6933" lengthAdjust="spacingAndGlyphs" text-anchor="end" opacity="0">VDD</text>
<g class="stroked-text"><desc>VDD</desc>
<path d="M18.844100000000005 7.0295000000000005 L19.267400000000002 8.2995 "/>
<path d="M19.267400000000002 8.2995 L19.690800000000003 7.0295000000000005 "/>
<path d="M20.1141 8.2995 L20.1141 7.0295000000000005 "/>
<path d="M20.1141 7.0295000000000005 L20.4165 7.0295000000000005 "/>
<path d="M20.4165 7.0295000000000005 L20.597900000000003 7.09 "/>
<path d="M20.597900000000003 7.09 L20.718899999999998 7.211 "/>
<path d="M20.718899999999998 7.211 L20.779400000000003 7.331900000000001 "/>
<path d="M20.779400000000003 7.331900000000001 L20.839800000000004 7.5738 "/>
<path d="M20.839800000000004 7.5738 L20.839800000000004 7.7552 "/>
<path d="M20.839800000000004 7.7552 L20.779400000000003 7.9971 "/>
<path d="M20.779400000000003 7.9971 L20.718899999999998 8.1181 "/>
<path d="M20.718899999999998 8.1181 L20.597900000000003 8.2391 "/>
<path d="M20.597900000000003 8.2391 L20.4165 8.2995 "/>
<path d="M20.4165 8.2995 L20.1141 8.2995 "/>
<path d="M21.384100000000004 8.2995 L21.384100000000004 7.0295000000000005 "/>
<path d="M21.384100000000004 7.0295000000000005 L21.686500000000002 7.0295000000000005 "/>
<path d="M21.686500000000002 7.0295000000000005 L21.8679 7.09 "/>
<path d="M21.8679 7.09 L21.9889 7.211 "/>
<path d="M21.9889 7.211 L22.0494 7.331900000000001 "/>
<path d="M22.0494 7.331900000000001 L22.1098 7.5738 "/>
<path d="M22.1098 7.5738 L22.1098 7.7552 "/>
<path d="M22.1098 7.7552 L22.0494 7.9971 "/>
<path d="M22.0494 7.9971 L21.9889 8.1181 "/>
<path d="M21.9889 8.1181 L21.8679 8.2391 "/>
<path d="M21.8679 8.2391 L21.686500000000002 8.2995 "/>
<path d="M21.686500000000002 8.2995 L21.384100000000004 8.2995 "/>
</g></g>
<g style="fill:none;  stroke:#A90000; stroke-width:0.1524; stroke-opacity:1;  stroke-linecap:round; stroke-linejoin:round;">
<text x="39.9333" y="9.7954" textLength="1.4127" font-size="1.6933" lengthAdjust="spacingAndGlyphs" text-anchor="middle" opacity="0">6</text>
<g class="stroked-text"><desc>6</desc>
<path d="M24.471899999999998 6.032500000000001 L24.230000000000004 6.032500000000001 "/>
<path d="M24.230000000000004 6.032500000000001 L24.109099999999998 6.093 "/>
<path d="M24.109099999999998 6.093 L24.0486 6.153500000000001 "/>
<path d="M24.0486 6.153500000000001 L23.927599999999998 6.334900000000001 "/>
<path d="M23.927599999999998 6.334900000000001 L23.867200000000004 6.5768 "/>
<path d="M23.867200000000004 6.5768 L23.867200000000004 7.060600000000001 "/>
<path d="M23.867200000000004 7.060600000000001 L23.927599999999998 7.1815999999999995 "/>
<path d="M23.927599999999998 7.1815999999999995 L23.988100000000003 7.242100000000001 "/>
<path d="M23.988100000000003 7.242100000000001 L24.109099999999998 7.3025 "/>
<path d="M24.109099999999998 7.3025 L24.351 7.3025 "/>
<path d="M24.351 7.3025 L24.471899999999998 7.242100000000001 "/>
<path d="M24.471899999999998 7.242100000000001 L24.532400000000003 7.1815999999999995 "/>
<path d="M24.532400000000003 7.1815999999999995 L24.5929 7.060600000000001 "/>
<path d="M24.5929 7.060600000000001 L24.5929 6.7582 "/>
<path d="M24.5929 6.7582 L24.532400000000003 6.6373 "/>
<path d="M24.532400000000003 6.6373 L24.471899999999998 6.5768 "/>
<path d="M24.471899999999998 6.5768 L24.351 6.516300000000001 "/>
<path d="M24.351 6.516300000000001 L24.109099999999998 6.516300000000001 "/>
<path d="M24.109099999999998 6.516300000000001 L23.988100000000003 6.5768 "/>
<path d="M23.988100000000003 6.5768 L23.927599999999998 6.6373 "/>
<path d="M23.927599999999998 6.6373 L23.867200000000004 6.7582 "/>
</g></g> 
</svg>