<!DOCTYPE svg PUBLIC "-//W3C//DTD SVG 1.1//EN" "http://www.w3.org/Graphics/SVG/1.1/DTD/svg11.dtd">
<svg xmlns:svg="http://www.w3.org/2000/svg" xmlns="http://www.w3.org/2000/svg" xmlns:xlink="http://www.w3.org/1999/xlink" version="1.1" width="4.405mm" height="5.6049999999999995mm" viewBox="0.0000 0.0000 4.405 5.6049999999999995">
<title>SVG Image created as ML414H_IV01E.svg date 2024/09/04 15:07:58 </title>
  <desc>Image generated by PCBNEW </desc>
<g style="fill:#000000; fill-opacity:1.0000;stroke:#000000; stroke-opacity:1.0000; stroke-linecap:round; stroke-linejoin:round;" transform="translate(0 0) scale(1 1)">
<path style="fill:#000000; fill-opacity:1.0000; stroke:none;fill-rule:evenodd;" d="M 4.305,2.5852999999999997 1.8195999999999999,0.09999999999999998 4.305,0.09999999999999998 Z"/> 
<path style="fill:#000000; fill-opacity:1.0000; stroke:none;fill-rule:evenodd;" d="M 3.1220000000000003,0.3238 3.1259,0.3043 3.1369000000000002,0.28789999999999993 3.1534,0.2768999999999999 3.1728,0.2729999999999999 4.071199999999999,0.2729999999999999 4.090599999999999,0.2768999999999999 4.1071,0.28789999999999993 4.118099999999999,0.3043 4.122,0.3238 4.122,1.2222 4.118099999999999,1.2416 4.1071,1.2580999999999998 4.090599999999999,1.2691 4.071199999999999,1.2730000000000001 3.1728,1.2730000000000001 3.1534,1.2691 3.1369000000000002,1.2580999999999998 3.1259,1.2416 3.1220000000000003,1.2222 Z"/> 
<path style="fill:#000000; fill-opacity:1.0000; stroke:none;fill-rule:evenodd;" d="M 0.09999999999999998,3.8558 0.10389999999999999,3.8363 0.1149,3.8199 0.13140000000000007,3.8089 0.15079999999999993,3.805 4.249199999999999,3.805 4.268599999999999,3.8089 4.2851,3.8199 4.2961,3.8363 4.3,3.8558 4.3,5.4542 4.2961,5.4736 4.2851,5.4901 4.268599999999999,5.5011 4.249199999999999,5.505 0.15079999999999993,5.505 0.13140000000000007,5.5011 0.1149,5.4901 0.10389999999999999,5.4736 0.09999999999999998,5.4542 Z"/> 
</g> 
</svg>