<!DOCTYPE svg PUBLIC "-//W3C//DTD SVG 1.1//EN" "http://www.w3.org/Graphics/SVG/1.1/DTD/svg11.dtd">
<svg xmlns:svg="http://www.w3.org/2000/svg" xmlns="http://www.w3.org/2000/svg" xmlns:xlink="http://www.w3.org/1999/xlink" version="1.1" width="18.8773mm" height="10.359999999999998mm" viewBox="0.0000 0.0000 18.8773 10.359999999999998">
<title>SVG Image created as mmbta92.svg date 2024/09/18 07:44:07 </title>
  <desc>Image generated by Eeschema-SVG </desc>
<g style="fill:#000000; fill-opacity:1.0000;stroke:#000000; stroke-opacity:1.0000; stroke-linecap:round; stroke-linejoin:round;" transform="translate(0 0) scale(1 1)">
<path style="fill:none;  stroke:#840000; stroke-width:0.1524; stroke-opacity:1;  stroke-linecap:round; stroke-linejoin:round;fill:none" d="M 5.18,5.18 5.8149999999999995,5.18 "/> 
<path style="fill:none;  stroke:#840000; stroke-width:0.1524; stroke-opacity:1;  stroke-linecap:round; stroke-linejoin:round;fill:none" d="M 7.719999999999999,7.719999999999999 5.8149999999999995,5.8149999999999995 "/> 
<path style="fill:none;  stroke:#840000; stroke-width:0.1524; stroke-opacity:1;  stroke-linecap:round; stroke-linejoin:round;fill:none" d="M 7.719999999999999,2.639999999999999 5.8149999999999995,4.544999999999998 "/> 
<path style="fill:#840000; fill-opacity:1.0000;  stroke:#840000; stroke-width:0.5080; stroke-opacity:1;  stroke-linecap:round; stroke-linejoin:round;fill-rule:evenodd;" d="M 5.8149999999999995,3.2749999999999986 5.8149999999999995,7.084999999999999 5.8149999999999995,7.084999999999999 "/> 
<path style="fill:#840000; fill-opacity:1.0000;  stroke:#840000; stroke-width:0.1524; stroke-opacity:1;  stroke-linecap:round; stroke-linejoin:round;fill-rule:evenodd;" d="M 7.084999999999999,7.592999999999998 7.593,7.084999999999999 6.577,6.576999999999998 7.084999999999999,7.592999999999998 Z"/> 
</g>
<g style="fill:none;  stroke:#840000; stroke-width:0.2540; stroke-opacity:1;  stroke-linecap:round; stroke-linejoin:round;">
<circle cx="6.449999999999999" cy="5.18" r="2.8194"/> 
</g>
<g style="fill:none;  stroke:#840000; stroke-width:0.1524; stroke-opacity:1;  stroke-linecap:round; stroke-linejoin:round;">
<path d="M5.18 5.18 L0.09999999999999964 5.18 "/>
</g>
<g style="fill:none;  stroke:#A90000; stroke-width:0.1524; stroke-opacity:1;  stroke-linecap:round; stroke-linejoin:round;">
<text x="9.0986" y="13.0429" textLength="1.4127" font-size="1.6933" lengthAdjust="spacingAndGlyphs" text-anchor="middle" opacity="0">1</text>
<g class="stroked-text"><desc>1</desc>
<path d="M3.0028999999999986 4.762499999999999 L2.277199999999999 4.762499999999999 "/>
<path d="M2.639999999999999 4.762499999999999 L2.639999999999999 3.4924999999999997 "/>
<path d="M2.639999999999999 3.4924999999999997 L2.5191 3.6739999999999995 "/>
<path d="M2.5191 3.6739999999999995 L2.3980999999999995 3.7948999999999984 "/>
<path d="M2.3980999999999995 3.7948999999999984 L2.277199999999999 3.8553999999999995 "/>
</g></g>
<g style="fill:none;  stroke:#840000; stroke-width:0.1524; stroke-opacity:1;  stroke-linecap:round; stroke-linejoin:round;">
<path d="M7.719999999999999 7.719999999999999 L7.719999999999999 10.259999999999998 "/>
</g>
<g style="fill:none;  stroke:#A90000; stroke-width:0.1524; stroke-opacity:1;  stroke-linecap:round; stroke-linejoin:round;">
<g transform="rotate(-90.000000 13.9246 17.1069)">
<text x="13.9246" y="17.1069" textLength="1.4127" font-size="1.6933" lengthAdjust="spacingAndGlyphs" text-anchor="middle" opacity="0">2</text>
</g>
<g class="stroked-text"><desc>2</desc>
<path d="M6.153499999999999 9.352699999999999 L6.093 9.292299999999997 "/>
<path d="M6.093 9.292299999999997 L6.032499999999999 9.171299999999999 "/>
<path d="M6.032499999999999 9.171299999999999 L6.032499999999999 8.8689 "/>
<path d="M6.032499999999999 8.8689 L6.093 8.747999999999998 "/>
<path d="M6.093 8.747999999999998 L6.153499999999999 8.6875 "/>
<path d="M6.153499999999999 8.6875 L6.2744 8.626999999999999 "/>
<path d="M6.2744 8.626999999999999 L6.395399999999999 8.626999999999999 "/>
<path d="M6.395399999999999 8.626999999999999 L6.576799999999999 8.6875 "/>
<path d="M6.576799999999999 8.6875 L7.3025 9.4132 "/>
<path d="M7.3025 9.4132 L7.3025 8.626999999999999 "/>
</g></g>
<g style="fill:none;  stroke:#840000; stroke-width:0.1524; stroke-opacity:1;  stroke-linecap:round; stroke-linejoin:round;">
<path d="M7.719999999999999 2.639999999999999 L7.719999999999999 0.09999999999999964 "/>
</g>
<g style="fill:none;  stroke:#A90000; stroke-width:0.1524; stroke-opacity:1;  stroke-linecap:round; stroke-linejoin:round;">
<g transform="rotate(-90.000000 13.9246 9.4869)">
<text x="13.9246" y="9.4869" textLength="1.4127" font-size="1.6933" lengthAdjust="spacingAndGlyphs" text-anchor="middle" opacity="0">3</text>
</g>
<g class="stroked-text"><desc>3</desc>
<path d="M6.032499999999999 1.7931999999999988 L6.032499999999999 1.0069999999999997 "/>
<path d="M6.032499999999999 1.0069999999999997 L6.516299999999999 1.4303999999999988 "/>
<path d="M6.516299999999999 1.4303999999999988 L6.516299999999999 1.248899999999999 "/>
<path d="M6.516299999999999 1.248899999999999 L6.576799999999999 1.1279999999999983 "/>
<path d="M6.576799999999999 1.1279999999999983 L6.6373 1.067499999999999 "/>
<path d="M6.6373 1.067499999999999 L6.758199999999999 1.0069999999999997 "/>
<path d="M6.758199999999999 1.0069999999999997 L7.060599999999999 1.0069999999999997 "/>
<path d="M7.060599999999999 1.0069999999999997 L7.1815999999999995 1.067499999999999 "/>
<path d="M7.1815999999999995 1.067499999999999 L7.242099999999999 1.1279999999999983 "/>
<path d="M7.242099999999999 1.1279999999999983 L7.3025 1.248899999999999 "/>
<path d="M7.3025 1.248899999999999 L7.3025 1.6117999999999988 "/>
<path d="M7.3025 1.6117999999999988 L7.242099999999999 1.7326999999999995 "/>
<path d="M7.242099999999999 1.7326999999999995 L7.1815999999999995 1.7931999999999988 "/>
</g></g>
<g style="fill:none;  stroke:#006464; stroke-width:0.1588; stroke-opacity:1;  stroke-linecap:round; stroke-linejoin:round;">
<text x="18.0393" y="12.0270" textLength="2.6415" font-size="1.6933" lengthAdjust="spacingAndGlyphs" text-anchor="middle" opacity="0">Q?</text>
<g class="stroked-text"><desc>Q?</desc>
<path d="M11.520199999999999 3.975299999999999 L11.3992 3.9147999999999996 "/>
<path d="M11.3992 3.9147999999999996 L11.278299999999998 3.793899999999999 "/>
<path d="M11.278299999999998 3.793899999999999 L11.096899999999998 3.612399999999999 "/>
<path d="M11.096899999999998 3.612399999999999 L10.9759 3.551899999999998 "/>
<path d="M10.9759 3.551899999999998 L10.855 3.551899999999998 "/>
<path d="M10.915399999999998 3.8542999999999985 L10.7945 3.793899999999999 "/>
<path d="M10.7945 3.793899999999999 L10.6735 3.6728999999999985 "/>
<path d="M10.6735 3.6728999999999985 L10.6131 3.430999999999999 "/>
<path d="M10.6131 3.430999999999999 L10.6131 3.007699999999998 "/>
<path d="M10.6131 3.007699999999998 L10.6735 2.7657999999999987 "/>
<path d="M10.6735 2.7657999999999987 L10.7945 2.6447999999999983 "/>
<path d="M10.7945 2.6447999999999983 L10.915399999999998 2.584299999999999 "/>
<path d="M10.915399999999998 2.584299999999999 L11.1573 2.584299999999999 "/>
<path d="M11.1573 2.584299999999999 L11.278299999999998 2.6447999999999983 "/>
<path d="M11.278299999999998 2.6447999999999983 L11.3992 2.7657999999999987 "/>
<path d="M11.3992 2.7657999999999987 L11.459699999999998 3.007699999999998 "/>
<path d="M11.459699999999998 3.007699999999998 L11.459699999999998 3.430999999999999 "/>
<path d="M11.459699999999998 3.430999999999999 L11.3992 3.6728999999999985 "/>
<path d="M11.3992 3.6728999999999985 L11.278299999999998 3.793899999999999 "/>
<path d="M11.278299999999998 3.793899999999999 L11.1573 3.8542999999999985 "/>
<path d="M11.1573 3.8542999999999985 L10.915399999999998 3.8542999999999985 "/>
<path d="M12.185500000000001 3.7333999999999996 L12.245899999999999 3.793899999999999 "/>
<path d="M12.245899999999999 3.793899999999999 L12.185500000000001 3.8542999999999985 "/>
<path d="M12.185500000000001 3.8542999999999985 L12.125 3.793899999999999 "/>
<path d="M12.125 3.793899999999999 L12.185500000000001 3.7333999999999996 "/>
<path d="M12.185500000000001 3.7333999999999996 L12.185500000000001 3.8542999999999985 "/>
<path d="M11.9436 2.6447999999999983 L12.064499999999999 2.584299999999999 "/>
<path d="M12.064499999999999 2.584299999999999 L12.366900000000001 2.584299999999999 "/>
<path d="M12.366900000000001 2.584299999999999 L12.4878 2.6447999999999983 "/>
<path d="M12.4878 2.6447999999999983 L12.548300000000001 2.7657999999999987 "/>
<path d="M12.548300000000001 2.7657999999999987 L12.548300000000001 2.8866999999999994 "/>
<path d="M12.548300000000001 2.8866999999999994 L12.4878 3.007699999999998 "/>
<path d="M12.4878 3.007699999999998 L12.427399999999999 3.0680999999999994 "/>
<path d="M12.427399999999999 3.0680999999999994 L12.3064 3.1285999999999987 "/>
<path d="M12.3064 3.1285999999999987 L12.245899999999999 3.189099999999998 "/>
<path d="M12.245899999999999 3.189099999999998 L12.185500000000001 3.3099999999999987 "/>
<path d="M12.185500000000001 3.3099999999999987 L12.185500000000001 3.370499999999998 "/>
</g><text x="21.1538" y="13.9320" textLength="8.8704" font-size="1.6933" lengthAdjust="spacingAndGlyphs" text-anchor="middle" opacity="0">MMBTA92</text>
<g class="stroked-text"><desc>MMBTA92</desc>
<path d="M10.6735 5.7593 L10.6735 4.489299999999998 "/>
<path d="M10.6735 4.489299999999998 L11.096899999999998 5.3965 "/>
<path d="M11.096899999999998 5.3965 L11.520199999999999 4.489299999999998 "/>
<path d="M11.520199999999999 4.489299999999998 L11.520199999999999 5.7593 "/>
<path d="M12.1249 5.7593 L12.1249 4.489299999999998 "/>
<path d="M12.1249 4.489299999999998 L12.548300000000001 5.3965 "/>
<path d="M12.548300000000001 5.3965 L12.971599999999999 4.489299999999998 "/>
<path d="M12.971599999999999 4.489299999999998 L12.971599999999999 5.7593 "/>
<path d="M13.9997 5.094099999999999 L14.1811 5.1545999999999985 "/>
<path d="M14.1811 5.1545999999999985 L14.241599999999998 5.214999999999998 "/>
<path d="M14.241599999999998 5.214999999999998 L14.302 5.3359999999999985 "/>
<path d="M14.302 5.3359999999999985 L14.302 5.5173999999999985 "/>
<path d="M14.302 5.5173999999999985 L14.241599999999998 5.638399999999999 "/>
<path d="M14.241599999999998 5.638399999999999 L14.1811 5.698899999999998 "/>
<path d="M14.1811 5.698899999999998 L14.060099999999998 5.7593 "/>
<path d="M14.060099999999998 5.7593 L13.5763 5.7593 "/>
<path d="M13.5763 5.7593 L13.5763 4.489299999999998 "/>
<path d="M13.5763 4.489299999999998 L13.9997 4.489299999999998 "/>
<path d="M13.9997 4.489299999999998 L14.1206 4.549799999999999 "/>
<path d="M14.1206 4.549799999999999 L14.1811 4.610299999999999 "/>
<path d="M14.1811 4.610299999999999 L14.241599999999998 4.731199999999999 "/>
<path d="M14.241599999999998 4.731199999999999 L14.241599999999998 4.852199999999998 "/>
<path d="M14.241599999999998 4.852199999999998 L14.1811 4.973099999999999 "/>
<path d="M14.1811 4.973099999999999 L14.1206 5.033599999999998 "/>
<path d="M14.1206 5.033599999999998 L13.9997 5.094099999999999 "/>
<path d="M13.9997 5.094099999999999 L13.5763 5.094099999999999 "/>
<path d="M14.6649 4.489299999999998 L15.3906 4.489299999999998 "/>
<path d="M15.0278 5.7593 L15.0278 4.489299999999998 "/>
<path d="M15.753499999999999 5.3965 L16.3582 5.3965 "/>
<path d="M15.6325 5.7593 L16.055799999999998 4.489299999999998 "/>
<path d="M16.055799999999998 4.489299999999998 L16.4792 5.7593 "/>
<path d="M16.963 5.7593 L17.2049 5.7593 "/>
<path d="M17.2049 5.7593 L17.3259 5.698899999999998 "/>
<path d="M17.3259 5.698899999999998 L17.3863 5.638399999999999 "/>
<path d="M17.3863 5.638399999999999 L17.5073 5.456899999999999 "/>
<path d="M17.5073 5.456899999999999 L17.5678 5.214999999999998 "/>
<path d="M17.5678 5.214999999999998 L17.5678 4.731199999999999 "/>
<path d="M17.5678 4.731199999999999 L17.5073 4.610299999999999 "/>
<path d="M17.5073 4.610299999999999 L17.4468 4.549799999999999 "/>
<path d="M17.4468 4.549799999999999 L17.3259 4.489299999999998 "/>
<path d="M17.3259 4.489299999999998 L17.084 4.489299999999998 "/>
<path d="M17.084 4.489299999999998 L16.963 4.549799999999999 "/>
<path d="M16.963 4.549799999999999 L16.9025 4.610299999999999 "/>
<path d="M16.9025 4.610299999999999 L16.8421 4.731199999999999 "/>
<path d="M16.8421 4.731199999999999 L16.8421 5.033599999999998 "/>
<path d="M16.8421 5.033599999999998 L16.9025 5.1545999999999985 "/>
<path d="M16.9025 5.1545999999999985 L16.963 5.214999999999998 "/>
<path d="M16.963 5.214999999999998 L17.084 5.275499999999999 "/>
<path d="M17.084 5.275499999999999 L17.3259 5.275499999999999 "/>
<path d="M17.3259 5.275499999999999 L17.4468 5.214999999999998 "/>
<path d="M17.4468 5.214999999999998 L17.5073 5.1545999999999985 "/>
<path d="M17.5073 5.1545999999999985 L17.5678 5.033599999999998 "/>
<path d="M18.0516 4.610299999999999 L18.112 4.549799999999999 "/>
<path d="M18.112 4.549799999999999 L18.233 4.489299999999998 "/>
<path d="M18.233 4.489299999999998 L18.5354 4.489299999999998 "/>
<path d="M18.5354 4.489299999999998 L18.656299999999998 4.549799999999999 "/>
<path d="M18.656299999999998 4.549799999999999 L18.7168 4.610299999999999 "/>
<path d="M18.7168 4.610299999999999 L18.7773 4.731199999999999 "/>
<path d="M18.7773 4.731199999999999 L18.7773 4.852199999999998 "/>
<path d="M18.7773 4.852199999999998 L18.7168 5.033599999999998 "/>
<path d="M18.7168 5.033599999999998 L17.9911 5.7593 "/>
<path d="M17.9911 5.7593 L18.7773 5.7593 "/>
</g></g> 
</svg>