<!DOCTYPE svg PUBLIC "-//W3C//DTD SVG 1.1//EN" "http://www.w3.org/Graphics/SVG/1.1/DTD/svg11.dtd">
<svg xmlns:svg="http://www.w3.org/2000/svg" xmlns="http://www.w3.org/2000/svg" xmlns:xlink="http://www.w3.org/1999/xlink" version="1.1" width="2.4500000000000006mm" height="5.625mm" viewBox="0.0000 0.0000 2.4500000000000006 5.625">
<title>SVG Image created as MSOP08.svg date 2024/09/11 11:47:57 </title>
  <desc>Image generated by PCBNEW </desc>
<g style="fill:#000000; fill-opacity:1.0000;stroke:#000000; stroke-opacity:1.0000; stroke-linecap:round; stroke-linejoin:round;" transform="translate(0 0) scale(1 1)">
<path style="fill:#000000; fill-opacity:1.0000; stroke:none;fill-rule:evenodd;" d="M 0.10000000000000009,5.525 0.10000000000000009,4.325 0.40000000000000036,4.325 0.40000000000000036,5.525 Z"/> 
<path style="fill:#000000; fill-opacity:1.0000; stroke:none;fill-rule:evenodd;" d="M 0.7500000000000004,5.525 0.7500000000000004,4.325 1.0500000000000003,4.325 1.0500000000000003,5.525 Z"/> 
<path style="fill:#000000; fill-opacity:1.0000; stroke:none;fill-rule:evenodd;" d="M 1.4000000000000004,5.525 1.4000000000000004,4.325 1.7000000000000002,4.325 1.7000000000000002,5.525 Z"/> 
<path style="fill:#000000; fill-opacity:1.0000; stroke:none;fill-rule:evenodd;" d="M 2.05,5.525 2.05,4.325 2.3500000000000005,4.325 2.3500000000000005,5.525 Z"/> 
<path style="fill:#000000; fill-opacity:1.0000; stroke:none;fill-rule:evenodd;" d="M 2.05,1.3 2.05,0.1 2.3500000000000005,0.1 2.3500000000000005,1.3 Z"/> 
<path style="fill:#000000; fill-opacity:1.0000; stroke:none;fill-rule:evenodd;" d="M 1.4000000000000004,1.3 1.4000000000000004,0.1 1.7000000000000002,0.1 1.7000000000000002,1.3 Z"/> 
<path style="fill:#000000; fill-opacity:1.0000; stroke:none;fill-rule:evenodd;" d="M 0.7500000000000004,1.3 0.7500000000000004,0.1 1.0500000000000003,0.1 1.0500000000000003,1.3 Z"/> 
<path style="fill:#000000; fill-opacity:1.0000; stroke:none;fill-rule:evenodd;" d="M 0.10000000000000009,1.3 0.10000000000000009,0.1 0.40000000000000036,0.1 0.40000000000000036,1.3 Z"/> 
</g> 
</svg>