<!DOCTYPE svg PUBLIC "-//W3C//DTD SVG 1.1//EN" "http://www.w3.org/Graphics/SVG/1.1/DTD/svg11.dtd">
<svg xmlns:svg="http://www.w3.org/2000/svg" xmlns="http://www.w3.org/2000/svg" xmlns:xlink="http://www.w3.org/1999/xlink" version="1.1" width="20.9mm" height="2.200000000000001mm" viewBox="0.0000 0.0000 20.9 2.200000000000001">
<title>SVG Image created as OLED-128O064D.svg date 2024/08/09 17:08:42 </title>
  <desc>Image generated by PCBNEW </desc>
<g style="fill:#000000; fill-opacity:1.0000;stroke:#000000; stroke-opacity:1.0000; stroke-linecap:round; stroke-linejoin:round;" transform="translate(0 0) scale(1 1)">
<path style="fill:#000000; fill-opacity:1.0000; stroke:none;fill-rule:evenodd;" d="M 0.09999999999999998,2.1000000000000005 0.09999999999999998,0.09999999999999964 0.4999999999999999,0.09999999999999964 0.4999999999999999,2.1000000000000005 Z"/> 
<path style="fill:#000000; fill-opacity:1.0000; stroke:none;fill-rule:evenodd;" d="M 0.7999999999999999,2.1000000000000005 0.7999999999999999,0.09999999999999964 1.1999999999999997,0.09999999999999964 1.1999999999999997,2.1000000000000005 Z"/> 
<path style="fill:#000000; fill-opacity:1.0000; stroke:none;fill-rule:evenodd;" d="M 1.5,2.1000000000000005 1.5,0.09999999999999964 1.9,0.09999999999999964 1.9,2.1000000000000005 Z"/> 
<path style="fill:#000000; fill-opacity:1.0000; stroke:none;fill-rule:evenodd;" d="M 2.1999999999999997,2.1000000000000005 2.1999999999999997,0.09999999999999964 2.5999999999999996,0.09999999999999964 2.5999999999999996,2.1000000000000005 Z"/> 
<path style="fill:#000000; fill-opacity:1.0000; stroke:none;fill-rule:evenodd;" d="M 2.9,2.1000000000000005 2.9,0.09999999999999964 3.3,0.09999999999999964 3.3,2.1000000000000005 Z"/> 
<path style="fill:#000000; fill-opacity:1.0000; stroke:none;fill-rule:evenodd;" d="M 3.5999999999999996,2.1000000000000005 3.5999999999999996,0.09999999999999964 4.0,0.09999999999999964 4.0,2.1000000000000005 Z"/> 
<path style="fill:#000000; fill-opacity:1.0000; stroke:none;fill-rule:evenodd;" d="M 4.3,2.1000000000000005 4.3,0.09999999999999964 4.7,0.09999999999999964 4.7,2.1000000000000005 Z"/> 
<path style="fill:#000000; fill-opacity:1.0000; stroke:none;fill-rule:evenodd;" d="M 5.0,2.1000000000000005 5.0,0.09999999999999964 5.3999999999999995,0.09999999999999964 5.3999999999999995,2.1000000000000005 Z"/> 
<path style="fill:#000000; fill-opacity:1.0000; stroke:none;fill-rule:evenodd;" d="M 5.7,2.1000000000000005 5.7,0.09999999999999964 6.1,0.09999999999999964 6.1,2.1000000000000005 Z"/> 
<path style="fill:#000000; fill-opacity:1.0000; stroke:none;fill-rule:evenodd;" d="M 6.3999999999999995,2.1000000000000005 6.3999999999999995,0.09999999999999964 6.8,0.09999999999999964 6.8,2.1000000000000005 Z"/> 
<path style="fill:#000000; fill-opacity:1.0000; stroke:none;fill-rule:evenodd;" d="M 7.1,2.1000000000000005 7.1,0.09999999999999964 7.499999999999999,0.09999999999999964 7.499999999999999,2.1000000000000005 Z"/> 
<path style="fill:#000000; fill-opacity:1.0000; stroke:none;fill-rule:evenodd;" d="M 7.8,2.1000000000000005 7.8,0.09999999999999964 8.200000000000001,0.09999999999999964 8.200000000000001,2.1000000000000005 Z"/> 
<path style="fill:#000000; fill-opacity:1.0000; stroke:none;fill-rule:evenodd;" d="M 8.5,2.1000000000000005 8.5,0.09999999999999964 8.9,0.09999999999999964 8.9,2.1000000000000005 Z"/> 
<path style="fill:#000000; fill-opacity:1.0000; stroke:none;fill-rule:evenodd;" d="M 9.200000000000001,2.1000000000000005 9.200000000000001,0.09999999999999964 9.600000000000001,0.09999999999999964 9.600000000000001,2.1000000000000005 Z"/> 
<path style="fill:#000000; fill-opacity:1.0000; stroke:none;fill-rule:evenodd;" d="M 9.9,2.1000000000000005 9.9,0.09999999999999964 10.3,0.09999999999999964 10.3,2.1000000000000005 Z"/> 
<path style="fill:#000000; fill-opacity:1.0000; stroke:none;fill-rule:evenodd;" d="M 10.600000000000001,2.1000000000000005 10.600000000000001,0.09999999999999964 11.0,0.09999999999999964 11.0,2.1000000000000005 Z"/> 
<path style="fill:#000000; fill-opacity:1.0000; stroke:none;fill-rule:evenodd;" d="M 11.3,2.1000000000000005 11.3,0.09999999999999964 11.700000000000001,0.09999999999999964 11.700000000000001,2.1000000000000005 Z"/> 
<path style="fill:#000000; fill-opacity:1.0000; stroke:none;fill-rule:evenodd;" d="M 12.0,2.1000000000000005 12.0,0.09999999999999964 12.4,0.09999999999999964 12.4,2.1000000000000005 Z"/> 
<path style="fill:#000000; fill-opacity:1.0000; stroke:none;fill-rule:evenodd;" d="M 12.700000000000001,2.1000000000000005 12.700000000000001,0.09999999999999964 13.100000000000001,0.09999999999999964 13.100000000000001,2.1000000000000005 Z"/> 
<path style="fill:#000000; fill-opacity:1.0000; stroke:none;fill-rule:evenodd;" d="M 13.4,2.1000000000000005 13.4,0.09999999999999964 13.8,0.09999999999999964 13.8,2.1000000000000005 Z"/> 
<path style="fill:#000000; fill-opacity:1.0000; stroke:none;fill-rule:evenodd;" d="M 14.100000000000001,2.1000000000000005 14.100000000000001,0.09999999999999964 14.5,0.09999999999999964 14.5,2.1000000000000005 Z"/> 
<path style="fill:#000000; fill-opacity:1.0000; stroke:none;fill-rule:evenodd;" d="M 14.8,2.1000000000000005 14.8,0.09999999999999964 15.2,0.09999999999999964 15.2,2.1000000000000005 Z"/> 
<path style="fill:#000000; fill-opacity:1.0000; stroke:none;fill-rule:evenodd;" d="M 15.5,2.1000000000000005 15.5,0.09999999999999964 15.900000000000002,0.09999999999999964 15.900000000000002,2.1000000000000005 Z"/> 
<path style="fill:#000000; fill-opacity:1.0000; stroke:none;fill-rule:evenodd;" d="M 16.2,2.1000000000000005 16.2,0.09999999999999964 16.6,0.09999999999999964 16.6,2.1000000000000005 Z"/> 
<path style="fill:#000000; fill-opacity:1.0000; stroke:none;fill-rule:evenodd;" d="M 16.900000000000002,2.1000000000000005 16.900000000000002,0.09999999999999964 17.3,0.09999999999999964 17.3,2.1000000000000005 Z"/> 
<path style="fill:#000000; fill-opacity:1.0000; stroke:none;fill-rule:evenodd;" d="M 17.6,2.1000000000000005 17.6,0.09999999999999964 18.0,0.09999999999999964 18.0,2.1000000000000005 Z"/> 
<path style="fill:#000000; fill-opacity:1.0000; stroke:none;fill-rule:evenodd;" d="M 18.3,2.1000000000000005 18.3,0.09999999999999964 18.7,0.09999999999999964 18.7,2.1000000000000005 Z"/> 
<path style="fill:#000000; fill-opacity:1.0000; stroke:none;fill-rule:evenodd;" d="M 19.0,2.1000000000000005 19.0,0.09999999999999964 19.400000000000002,0.09999999999999964 19.400000000000002,2.1000000000000005 Z"/> 
<path style="fill:#000000; fill-opacity:1.0000; stroke:none;fill-rule:evenodd;" d="M 19.7,2.1000000000000005 19.7,0.09999999999999964 20.1,0.09999999999999964 20.1,2.1000000000000005 Z"/> 
<path style="fill:#000000; fill-opacity:1.0000; stroke:none;fill-rule:evenodd;" d="M 20.400000000000002,2.1000000000000005 20.400000000000002,0.09999999999999964 20.8,0.09999999999999964 20.8,2.1000000000000005 Z"/> 
</g> 
</svg>