<!DOCTYPE svg PUBLIC "-//W3C//DTD SVG 1.1//EN" "http://www.w3.org/Graphics/SVG/1.1/DTD/svg11.dtd">
<svg xmlns:svg="http://www.w3.org/2000/svg" xmlns="http://www.w3.org/2000/svg" xmlns:xlink="http://www.w3.org/1999/xlink" version="1.1" width="3.8272mm" height="7.82mm" viewBox="0.0000 0.0000 3.8272 7.82">
<title>SVG Image created as r.svg date 2024/09/17 16:16:43 </title>
  <desc>Image generated by Eeschema-SVG </desc>
<g style="fill:#000000; fill-opacity:1.0000;stroke:#000000; stroke-opacity:1.0000; stroke-linecap:round; stroke-linejoin:round;" transform="translate(0 0) scale(1 1)">
</g>
<g style="fill:none;  stroke:#840000; stroke-width:0.2540; stroke-opacity:1;  stroke-linecap:round; stroke-linejoin:round;">
<rect x="0.09999999999999998" y="1.37" width="2.032000" height="5.080000" rx="0.000000"/>
</g>
<g style="fill:none;  stroke:#840000; stroke-width:0.1524; stroke-opacity:1;  stroke-linecap:round; stroke-linejoin:round;">
<path d="M1.1159999999999999 1.37 L1.1159999999999999 0.09999999999999964 "/>
<path d="M1.1159999999999999 6.45 L1.1159999999999999 7.72 "/>
</g>
<g style="fill:none;  stroke:#006464; stroke-width:0.1588; stroke-opacity:1;  stroke-linecap:round; stroke-linejoin:round;">
<g transform="rotate(-90.000000 3.5913 11.7729)">
<text x="3.5913" y="12.4079" textLength="2.5810" font-size="1.6933" lengthAdjust="spacingAndGlyphs" text-anchor="middle" opacity="0">R?</text>
</g>
<g class="stroked-text"><desc>R?</desc>
<path d="M3.7272 4.061199999999999 L3.1224999999999996 4.4845 "/>
<path d="M3.7272 4.7869 L2.4572000000000003 4.7869 "/>
<path d="M2.4572000000000003 4.7869 L2.4572000000000003 4.3031 "/>
<path d="M2.4572000000000003 4.3031 L2.5176999999999996 4.182099999999999 "/>
<path d="M2.5176999999999996 4.182099999999999 L2.5782 4.1216 "/>
<path d="M2.5782 4.1216 L2.6990999999999996 4.061199999999999 "/>
<path d="M2.6990999999999996 4.061199999999999 L2.8806000000000003 4.061199999999999 "/>
<path d="M2.8806000000000003 4.061199999999999 L3.0015 4.1216 "/>
<path d="M3.0015 4.1216 L3.0620000000000003 4.182099999999999 "/>
<path d="M3.0620000000000003 4.182099999999999 L3.1224999999999996 4.3031 "/>
<path d="M3.1224999999999996 4.3031 L3.1224999999999996 4.7869 "/>
<path d="M3.6063 3.335399999999999 L3.6668000000000003 3.2749999999999995 "/>
<path d="M3.6668000000000003 3.2749999999999995 L3.7272 3.335399999999999 "/>
<path d="M3.7272 3.335399999999999 L3.6668000000000003 3.3959 "/>
<path d="M3.6668000000000003 3.3959 L3.6063 3.335399999999999 "/>
<path d="M3.6063 3.335399999999999 L3.7272 3.335399999999999 "/>
<path d="M2.5176999999999996 3.5773 L2.4572000000000003 3.4563999999999995 "/>
<path d="M2.4572000000000003 3.4563999999999995 L2.4572000000000003 3.153999999999999 "/>
<path d="M2.4572000000000003 3.153999999999999 L2.5176999999999996 3.0331 "/>
<path d="M2.5176999999999996 3.0331 L2.6387 2.972599999999999 "/>
<path d="M2.6387 2.972599999999999 L2.7596 2.972599999999999 "/>
<path d="M2.7596 2.972599999999999 L2.8806000000000003 3.0331 "/>
<path d="M2.8806000000000003 3.0331 L2.941 3.0934999999999997 "/>
<path d="M2.941 3.0934999999999997 L3.0015 3.2145 "/>
<path d="M3.0015 3.2145 L3.0620000000000003 3.2749999999999995 "/>
<path d="M3.0620000000000003 3.2749999999999995 L3.1829 3.335399999999999 "/>
<path d="M3.1829 3.335399999999999 L3.2434000000000003 3.335399999999999 "/>
</g><g transform="rotate(-90.000000 1.5593 11.7729)">
<text x="1.5593" y="12.4079" textLength="1.4924" font-size="1.6933" lengthAdjust="spacingAndGlyphs" text-anchor="middle" opacity="0">R</text>
</g>
<g class="stroked-text"><desc>R</desc>
<path d="M1.6952 3.516899999999999 L1.0905 3.9402 "/>
<path d="M1.6952 4.242599999999999 L0.4252 4.242599999999999 "/>
<path d="M0.4252 4.242599999999999 L0.4252 3.7588 "/>
<path d="M0.4252 3.7588 L0.4857 3.6377999999999995 "/>
<path d="M0.4857 3.6377999999999995 L0.5462 3.5773 "/>
<path d="M0.5462 3.5773 L0.6671 3.516899999999999 "/>
<path d="M0.6671 3.516899999999999 L0.8486 3.516899999999999 "/>
<path d="M0.8486 3.516899999999999 L0.9695 3.5773 "/>
<path d="M0.9695 3.5773 L1.03 3.6377999999999995 "/>
<path d="M1.03 3.6377999999999995 L1.0905 3.7588 "/>
<path d="M1.0905 3.7588 L1.0905 4.242599999999999 "/>
</g></g> 
</svg>