<!DOCTYPE svg PUBLIC "-//W3C//DTD SVG 1.1//EN" "http://www.w3.org/Graphics/SVG/1.1/DTD/svg11.dtd">
<svg xmlns:svg="http://www.w3.org/2000/svg" xmlns="http://www.w3.org/2000/svg" xmlns:xlink="http://www.w3.org/1999/xlink" version="1.1" width="3.000000000000001mm" height="1.1499000000000001mm" viewBox="0.0000 0.0000 3.000000000000001 1.1499000000000001">
<title>SVG Image created as R_0603_1608Metric_Pad0.98x0.95mm_HandSolder.svg date 2024/09/10 15:35:10 </title>
  <desc>Image generated by PCBNEW </desc>
<g style="fill:#000000; fill-opacity:1.0000;stroke:#000000; stroke-opacity:1.0000; stroke-linecap:round; stroke-linejoin:round;" transform="translate(0 0) scale(1 1)">
<path style="fill:#000000; fill-opacity:1.0000; stroke:none;fill-rule:evenodd;" d="M 0.10000000000000142,0.33750000000000013 0.11810000000000187,0.24660000000000015 0.16960000000000264,0.1695000000000002 0.24660000000000082,0.1180000000000001 0.33750000000000213,0.10000000000000009 0.8375000000000021,0.10000000000000009 0.9284000000000034,0.1180000000000001 1.0055000000000014,0.1695000000000002 1.0570000000000022,0.24660000000000015 1.0750000000000028,0.33750000000000013 1.0750000000000028,0.8124 1.0570000000000022,0.9033 1.0055000000000014,0.9804000000000002 0.9284000000000034,1.0319 0.8375000000000021,1.0499000000000003 0.33750000000000213,1.0499000000000003 0.24660000000000082,1.0319 0.16960000000000264,0.9804000000000002 0.11810000000000187,0.9033 0.10000000000000142,0.8124 Z"/> 
<path style="fill:#000000; fill-opacity:1.0000; stroke:none;fill-rule:evenodd;" d="M 1.9250000000000007,0.33750000000000013 1.9431000000000012,0.24660000000000015 1.994600000000002,0.1695000000000002 2.0716000000000037,0.1180000000000001 2.1625000000000014,0.10000000000000009 2.6625000000000014,0.10000000000000009 2.7534000000000027,0.1180000000000001 2.8305000000000007,0.1695000000000002 2.8820000000000014,0.24660000000000015 2.900000000000002,0.33750000000000013 2.900000000000002,0.8124 2.8820000000000014,0.9033 2.8305000000000007,0.9804000000000002 2.7534000000000027,1.0319 2.6625000000000014,1.0499000000000003 2.1625000000000014,1.0499000000000003 2.0716000000000037,1.0319 1.994600000000002,0.9804000000000002 1.9431000000000012,0.9033 1.9250000000000007,0.8124 Z"/> 
</g> 
</svg>