<!DOCTYPE svg PUBLIC "-//W3C//DTD SVG 1.1//EN" "http://www.w3.org/Graphics/SVG/1.1/DTD/svg11.dtd">
<svg xmlns:svg="http://www.w3.org/2000/svg" xmlns="http://www.w3.org/2000/svg" xmlns:xlink="http://www.w3.org/1999/xlink" version="1.1" width="3.0500000000000007mm" height="1.5999999999999999mm" viewBox="0.0000 0.0000 3.0500000000000007 1.5999999999999999">
<title>SVG Image created as R_0805_2012Metric.svg date 2024/09/17 16:16:44 </title>
  <desc>Image generated by PCBNEW </desc>
<g style="fill:#000000; fill-opacity:1.0000;stroke:#000000; stroke-opacity:1.0000; stroke-linecap:round; stroke-linejoin:round;" transform="translate(0 0) scale(1 1)">
<path style="fill:#000000; fill-opacity:1.0000; stroke:none;fill-rule:evenodd;" d="M 0.09999999999999964,0.3500000000000001 0.11909999999999954,0.25439999999999996 0.17330000000000023,0.1733 0.2544000000000004,0.11909999999999998 0.34999999999999964,0.10000000000000009 0.875,0.10000000000000009 0.9706999999999999,0.11909999999999998 1.0518,0.1733 1.1059999999999999,0.25439999999999996 1.125,0.3500000000000001 1.125,1.25 1.1059999999999999,1.3457 1.0518,1.4268 0.9706999999999999,1.4809999999999999 0.875,1.5 0.34999999999999964,1.5 0.2544000000000004,1.4809999999999999 0.17330000000000023,1.4268 0.11909999999999954,1.3457 0.09999999999999964,1.25 Z"/> 
<path style="fill:#000000; fill-opacity:1.0000; stroke:none;fill-rule:evenodd;" d="M 1.9249999999999998,0.3500000000000001 1.9440999999999997,0.25439999999999996 1.9983000000000004,0.1733 2.0794000000000006,0.11909999999999998 2.175,0.10000000000000009 2.7,0.10000000000000009 2.795699999999999,0.11909999999999998 2.8768000000000002,0.1733 2.931,0.25439999999999996 2.95,0.3500000000000001 2.95,1.25 2.931,1.3457 2.8768000000000002,1.4268 2.795699999999999,1.4809999999999999 2.7,1.5 2.175,1.5 2.0794000000000006,1.4809999999999999 1.9983000000000004,1.4268 1.9440999999999997,1.3457 1.9249999999999998,1.25 Z"/> 
</g> 
</svg>