<!DOCTYPE svg PUBLIC "-//W3C//DTD SVG 1.1//EN" "http://www.w3.org/Graphics/SVG/1.1/DTD/svg11.dtd">
<svg xmlns:svg="http://www.w3.org/2000/svg" xmlns="http://www.w3.org/2000/svg" xmlns:xlink="http://www.w3.org/1999/xlink" version="1.1" width="4.25mm" height="1.95mm" viewBox="0.0000 0.0000 4.25 1.95">
<title>SVG Image created as R_1206_3216Metric.svg date 2024/09/18 12:19:07 </title>
  <desc>Image generated by PCBNEW </desc>
<g style="fill:#000000; fill-opacity:1.0000;stroke:#000000; stroke-opacity:1.0000; stroke-linecap:round; stroke-linejoin:round;" transform="translate(0 0) scale(1 1)">
<path style="fill:#000000; fill-opacity:1.0000; stroke:none;fill-rule:evenodd;" d="M 0.09999999999999964,0.3500000000000001 0.11909999999999954,0.2543000000000002 0.17329999999999934,0.17320000000000024 0.2543999999999995,0.11900000000000022 0.34999999999999964,0.10000000000000009 0.9749999999999996,0.10000000000000009 1.0706999999999995,0.11900000000000022 1.1517999999999997,0.17320000000000024 1.2059999999999995,0.2543000000000002 1.2249999999999996,0.3500000000000001 1.2249999999999996,1.6 1.2059999999999995,1.6956000000000002 1.1517999999999997,1.7767000000000004 1.0706999999999995,1.8309000000000002 0.9749999999999996,1.85 0.34999999999999964,1.85 0.2543999999999995,1.8309000000000002 0.17329999999999934,1.7767000000000004 0.11909999999999954,1.6956000000000002 0.09999999999999964,1.6 Z"/> 
<path style="fill:#000000; fill-opacity:1.0000; stroke:none;fill-rule:evenodd;" d="M 3.0249999999999995,0.3500000000000001 3.0440999999999994,0.2543000000000002 3.098299999999999,0.17320000000000024 3.1794000000000002,0.11900000000000022 3.2749999999999995,0.10000000000000009 3.8999999999999995,0.10000000000000009 3.9957000000000003,0.11900000000000022 4.0767999999999995,0.17320000000000024 4.130999999999999,0.2543000000000002 4.1499999999999995,0.3500000000000001 4.1499999999999995,1.6 4.130999999999999,1.6956000000000002 4.0767999999999995,1.7767000000000004 3.9957000000000003,1.8309000000000002 3.8999999999999995,1.85 3.2749999999999995,1.85 3.1794000000000002,1.8309000000000002 3.098299999999999,1.7767000000000004 3.0440999999999994,1.6956000000000002 3.0249999999999995,1.6 Z"/> 
</g> 
</svg>