<!DOCTYPE svg PUBLIC "-//W3C//DTD SVG 1.1//EN" "http://www.w3.org/Graphics/SVG/1.1/DTD/svg11.dtd">
<svg xmlns:svg="http://www.w3.org/2000/svg" xmlns="http://www.w3.org/2000/svg" xmlns:xlink="http://www.w3.org/1999/xlink" version="1.1" width="3.25mm" height="2.8000000000000003mm" viewBox="0.0000 0.0000 3.25 2.8000000000000003">
<title>SVG Image created as RESPACK_4X0603.svg date 2024/09/04 21:45:55 </title>
  <desc>Image generated by PCBNEW </desc>
<g style="fill:#000000; fill-opacity:1.0000;stroke:#000000; stroke-opacity:1.0000; stroke-linecap:round; stroke-linejoin:round;" transform="translate(0 0) scale(1 1)">
<path style="fill:#000000; fill-opacity:1.0000; stroke:none;fill-rule:evenodd;" d="M 0.10000000000000009,2.7 0.10000000000000009,1.7999999999999998 0.5499999999999998,1.7999999999999998 0.5499999999999998,2.7 Z"/> 
<path style="fill:#000000; fill-opacity:1.0000; stroke:none;fill-rule:evenodd;" d="M 1.0000000000000004,2.7 1.0000000000000004,1.7999999999999998 1.4499999999999997,1.7999999999999998 1.4499999999999997,2.7 Z"/> 
<path style="fill:#000000; fill-opacity:1.0000; stroke:none;fill-rule:evenodd;" d="M 1.8000000000000003,2.7 1.8000000000000003,1.7999999999999998 2.2500000000000004,1.7999999999999998 2.2500000000000004,2.7 Z"/> 
<path style="fill:#000000; fill-opacity:1.0000; stroke:none;fill-rule:evenodd;" d="M 2.6999999999999997,2.7 2.6999999999999997,1.7999999999999998 3.15,1.7999999999999998 3.15,2.7 Z"/> 
<path style="fill:#000000; fill-opacity:1.0000; stroke:none;fill-rule:evenodd;" d="M 2.6999999999999997,1.0 2.6999999999999997,0.09999999999999998 3.15,0.09999999999999998 3.15,1.0 Z"/> 
<path style="fill:#000000; fill-opacity:1.0000; stroke:none;fill-rule:evenodd;" d="M 1.8000000000000003,1.0 1.8000000000000003,0.09999999999999998 2.2500000000000004,0.09999999999999998 2.2500000000000004,1.0 Z"/> 
<path style="fill:#000000; fill-opacity:1.0000; stroke:none;fill-rule:evenodd;" d="M 1.0000000000000004,1.0 1.0000000000000004,0.09999999999999998 1.4499999999999997,0.09999999999999998 1.4499999999999997,1.0 Z"/> 
<path style="fill:#000000; fill-opacity:1.0000; stroke:none;fill-rule:evenodd;" d="M 0.10000000000000009,1.0 0.10000000000000009,0.09999999999999998 0.5499999999999998,0.09999999999999998 0.5499999999999998,1.0 Z"/> 
</g> 
</svg>