<!DOCTYPE svg PUBLIC "-//W3C//DTD SVG 1.1//EN" "http://www.w3.org/Graphics/SVG/1.1/DTD/svg11.dtd">
<svg xmlns:svg="http://www.w3.org/2000/svg" xmlns="http://www.w3.org/2000/svg" xmlns:xlink="http://www.w3.org/1999/xlink" version="1.1" width="3.4000000000000004mm" height="2.6000000000000005mm" viewBox="0.0000 0.0000 3.4000000000000004 2.6000000000000005">
<title>SVG Image created as RV-3028.svg date 2024/09/04 12:58:34 </title>
  <desc>Image generated by PCBNEW </desc>
<g style="fill:#000000; fill-opacity:1.0000;stroke:#000000; stroke-opacity:1.0000; stroke-linecap:round; stroke-linejoin:round;" transform="translate(0 0) scale(1 1)">
<path style="fill:#000000; fill-opacity:1.0000; stroke:none;fill-rule:evenodd;" d="M 0.09999999999999998,1.7508000000000001 0.10389999999999999,1.7312999999999998 0.1149,1.7148999999999999 0.13139999999999996,1.7038 0.15079999999999993,1.7 0.5492,1.7 0.5685999999999999,1.7038 0.5850999999999998,1.7148999999999999 0.5961,1.7312999999999998 0.6,1.7508000000000001 0.6,2.4492000000000003 0.5961,2.4686000000000003 0.5850999999999998,2.4851 0.5685999999999999,2.4961 0.5492,2.5 0.15079999999999993,2.5 0.13139999999999996,2.4961 0.1149,2.4851 0.10389999999999999,2.4686000000000003 0.09999999999999998,2.4492000000000003 Z"/> 
<path style="fill:#000000; fill-opacity:1.0000; stroke:none;fill-rule:evenodd;" d="M 0.9999999999999999,1.7508000000000001 1.0038999999999998,1.7312999999999998 1.0149,1.7148999999999999 1.0314,1.7038 1.0507999999999997,1.7 1.4491999999999998,1.7 1.4686,1.7038 1.4851,1.7148999999999999 1.4960999999999998,1.7312999999999998 1.5,1.7508000000000001 1.5,2.4492000000000003 1.4960999999999998,2.4686000000000003 1.4851,2.4851 1.4686,2.4961 1.4491999999999998,2.5 1.0507999999999997,2.5 1.0314,2.4961 1.0149,2.4851 1.0038999999999998,2.4686000000000003 0.9999999999999999,2.4492000000000003 Z"/> 
<path style="fill:#000000; fill-opacity:1.0000; stroke:none;fill-rule:evenodd;" d="M 1.9,1.7508000000000001 1.9039000000000001,1.7312999999999998 1.9149000000000003,1.7148999999999999 1.9314,1.7038 1.9508,1.7 2.3492,1.7 2.3686000000000003,1.7038 2.3851,1.7148999999999999 2.3961,1.7312999999999998 2.4,1.7508000000000001 2.4,2.4492000000000003 2.3961,2.4686000000000003 2.3851,2.4851 2.3686000000000003,2.4961 2.3492,2.5 1.9508,2.5 1.9314,2.4961 1.9149000000000003,2.4851 1.9039000000000001,2.4686000000000003 1.9,2.4492000000000003 Z"/> 
<path style="fill:#000000; fill-opacity:1.0000; stroke:none;fill-rule:evenodd;" d="M 2.8000000000000003,1.7508000000000001 2.8039,1.7312999999999998 2.8149,1.7148999999999999 2.8314,1.7038 2.8508,1.7 3.2492,1.7 3.2686,1.7038 3.2851,1.7148999999999999 3.2961,1.7312999999999998 3.3000000000000003,1.7508000000000001 3.3000000000000003,2.4492000000000003 3.2961,2.4686000000000003 3.2851,2.4851 3.2686,2.4961 3.2492,2.5 2.8508,2.5 2.8314,2.4961 2.8149,2.4851 2.8039,2.4686000000000003 2.8000000000000003,2.4492000000000003 Z"/> 
<path style="fill:#000000; fill-opacity:1.0000; stroke:none;fill-rule:evenodd;" d="M 2.8000000000000003,0.15080000000000005 2.8039,0.13129999999999997 2.8149,0.1149 2.8314,0.10380000000000011 2.8508,0.10000000000000009 3.2492,0.10000000000000009 3.2686,0.10380000000000011 3.2851,0.1149 3.2961,0.13129999999999997 3.3000000000000003,0.15080000000000005 3.3000000000000003,0.8492 3.2961,0.8686 3.2851,0.8851 3.2686,0.8961000000000001 3.2492,0.9000000000000001 2.8508,0.9000000000000001 2.8314,0.8961000000000001 2.8149,0.8851 2.8039,0.8686 2.8000000000000003,0.8492 Z"/> 
<path style="fill:#000000; fill-opacity:1.0000; stroke:none;fill-rule:evenodd;" d="M 1.9,0.15080000000000005 1.9039000000000001,0.13129999999999997 1.9149000000000003,0.1149 1.9314,0.10380000000000011 1.9508,0.10000000000000009 2.3492,0.10000000000000009 2.3686000000000003,0.10380000000000011 2.3851,0.1149 2.3961,0.13129999999999997 2.4,0.15080000000000005 2.4,0.8492 2.3961,0.8686 2.3851,0.8851 2.3686000000000003,0.8961000000000001 2.3492,0.9000000000000001 1.9508,0.9000000000000001 1.9314,0.8961000000000001 1.9149000000000003,0.8851 1.9039000000000001,0.8686 1.9,0.8492 Z"/> 
<path style="fill:#000000; fill-opacity:1.0000; stroke:none;fill-rule:evenodd;" d="M 0.9999999999999999,0.15080000000000005 1.0038999999999998,0.13129999999999997 1.0149,0.1149 1.0314,0.10380000000000011 1.0507999999999997,0.10000000000000009 1.4491999999999998,0.10000000000000009 1.4686,0.10380000000000011 1.4851,0.1149 1.4960999999999998,0.13129999999999997 1.5,0.15080000000000005 1.5,0.8492 1.4960999999999998,0.8686 1.4851,0.8851 1.4686,0.8961000000000001 1.4491999999999998,0.9000000000000001 1.0507999999999997,0.9000000000000001 1.0314,0.8961000000000001 1.0149,0.8851 1.0038999999999998,0.8686 0.9999999999999999,0.8492 Z"/> 
<path style="fill:#000000; fill-opacity:1.0000; stroke:none;fill-rule:evenodd;" d="M 0.09999999999999998,0.15080000000000005 0.10389999999999999,0.13129999999999997 0.1149,0.1149 0.13139999999999996,0.10380000000000011 0.15079999999999993,0.10000000000000009 0.5492,0.10000000000000009 0.5685999999999999,0.10380000000000011 0.5850999999999998,0.1149 0.5961,0.13129999999999997 0.6,0.15080000000000005 0.6,0.8492 0.5961,0.8686 0.5850999999999998,0.8851 0.5685999999999999,0.8961000000000001 0.5492,0.9000000000000001 0.15079999999999993,0.9000000000000001 0.13139999999999996,0.8961000000000001 0.1149,0.8851 0.10389999999999999,0.8686 0.09999999999999998,0.8492 Z"/> 
</g> 
</svg>