<!DOCTYPE svg PUBLIC "-//W3C//DTD SVG 1.1//EN" "http://www.w3.org/Graphics/SVG/1.1/DTD/svg11.dtd">
<svg xmlns:svg="http://www.w3.org/2000/svg" xmlns="http://www.w3.org/2000/svg" xmlns:xlink="http://www.w3.org/1999/xlink" version="1.1" width="5.407mm" height="4.6088000000000005mm" viewBox="0.0000 0.0000 5.407 4.6088000000000005">
<title>SVG Image created as SEWALLI.svg date 2024/09/11 12:50:05 </title>
  <desc>Image generated by PCBNEW </desc>
<g style="fill:#000000; fill-opacity:1.0000;stroke:#000000; stroke-opacity:1.0000; stroke-linecap:round; stroke-linejoin:round;" transform="translate(0 0) scale(1 1)">
<path style="fill:#000000; fill-opacity:1.0000; stroke:none;fill-rule:evenodd;" d="M 3.8013,0.1365 4.5302,0.2094 5.3069999999999995,0.3265 5.3069999999999995,1.9071 5.2881,2.2190000000000003 5.2315,2.5283 5.137899999999999,2.8284000000000002 5.0089,3.1151 4.8462,3.3842 4.652299999999999,3.6317 4.43,3.854 4.182499999999999,4.0479 3.9135,4.2105999999999995 3.6268000000000002,4.3396 3.3266,4.4331 3.0173,4.4898 2.7035,4.5088 2.3897,4.4898 2.0804,4.4331 1.7802,4.3396 1.4935,4.2105999999999995 1.2245000000000001,4.0479 0.977,3.854 0.7546999999999999,3.6317 0.5608,3.3842 0.3981,3.1151 0.2691,2.8284000000000002 0.1755,2.5283 0.1189,2.2190000000000003 0.1,1.9071 0.1,0.3265 0.8768,0.2094 1.6057000000000001,0.1365 2.3372,0.1 3.0698000000000003,0.1 Z"/> 
</g>
<g style="fill:#000000; fill-opacity:1.0000; stroke:none;">
<circle cx="2.7035" cy="2.2862" r="2.1080"/> 
</g> 
</svg>