<!DOCTYPE svg PUBLIC "-//W3C//DTD SVG 1.1//EN" "http://www.w3.org/Graphics/SVG/1.1/DTD/svg11.dtd">
<svg xmlns:svg="http://www.w3.org/2000/svg" xmlns="http://www.w3.org/2000/svg" xmlns:xlink="http://www.w3.org/1999/xlink" version="1.1" width="10.499999999999998mm" height="19.48mm" viewBox="0.0000 0.0000 10.499999999999998 19.48">
<title>SVG Image created as SMD-16.svg date 2024/09/11 16:43:13 </title>
  <desc>Image generated by PCBNEW </desc>
<g style="fill:#000000; fill-opacity:1.0000;stroke:#000000; stroke-opacity:1.0000; stroke-linecap:round; stroke-linejoin:round;" transform="translate(0 0) scale(1 1)">
<path style="fill:#000000; fill-opacity:1.0000; stroke:none;fill-rule:evenodd;" d="M 0.1,1.6 0.1,0.10000000000000009 1.4000000000000001,0.10000000000000009 1.4000000000000001,1.6 Z"/> 
<path style="fill:#000000; fill-opacity:1.0000; stroke:none;fill-rule:evenodd;" d="M 0.1,4.140000000000001 0.1,2.64 1.4000000000000001,2.64 1.4000000000000001,4.140000000000001 Z"/> 
<path style="fill:#000000; fill-opacity:1.0000; stroke:none;fill-rule:evenodd;" d="M 0.1,6.6800000000000015 0.1,5.1800000000000015 1.4000000000000001,5.1800000000000015 1.4000000000000001,6.6800000000000015 Z"/> 
<path style="fill:#000000; fill-opacity:1.0000; stroke:none;fill-rule:evenodd;" d="M 0.1,9.22 0.1,7.720000000000001 1.4000000000000001,7.720000000000001 1.4000000000000001,9.22 Z"/> 
<path style="fill:#000000; fill-opacity:1.0000; stroke:none;fill-rule:evenodd;" d="M 0.1,11.76 0.1,10.26 1.4000000000000001,10.26 1.4000000000000001,11.76 Z"/> 
<path style="fill:#000000; fill-opacity:1.0000; stroke:none;fill-rule:evenodd;" d="M 0.1,14.299999999999999 0.1,12.8 1.4000000000000001,12.8 1.4000000000000001,14.299999999999999 Z"/> 
<path style="fill:#000000; fill-opacity:1.0000; stroke:none;fill-rule:evenodd;" d="M 0.1,16.84 0.1,15.340000000000002 1.4000000000000001,15.340000000000002 1.4000000000000001,16.84 Z"/> 
<path style="fill:#000000; fill-opacity:1.0000; stroke:none;fill-rule:evenodd;" d="M 0.1,19.38 0.1,17.88 1.4000000000000001,17.88 1.4000000000000001,19.38 Z"/> 
<path style="fill:#000000; fill-opacity:1.0000; stroke:none;fill-rule:evenodd;" d="M 9.100000000000001,19.38 9.100000000000001,17.88 10.4,17.88 10.4,19.38 Z"/> 
<path style="fill:#000000; fill-opacity:1.0000; stroke:none;fill-rule:evenodd;" d="M 9.100000000000001,16.84 9.100000000000001,15.340000000000002 10.4,15.340000000000002 10.4,16.84 Z"/> 
<path style="fill:#000000; fill-opacity:1.0000; stroke:none;fill-rule:evenodd;" d="M 9.100000000000001,14.299999999999999 9.100000000000001,12.8 10.4,12.8 10.4,14.299999999999999 Z"/> 
<path style="fill:#000000; fill-opacity:1.0000; stroke:none;fill-rule:evenodd;" d="M 9.100000000000001,11.76 9.100000000000001,10.26 10.4,10.26 10.4,11.76 Z"/> 
<path style="fill:#000000; fill-opacity:1.0000; stroke:none;fill-rule:evenodd;" d="M 9.100000000000001,9.22 9.100000000000001,7.720000000000001 10.4,7.720000000000001 10.4,9.22 Z"/> 
<path style="fill:#000000; fill-opacity:1.0000; stroke:none;fill-rule:evenodd;" d="M 9.100000000000001,6.6800000000000015 9.100000000000001,5.1800000000000015 10.4,5.1800000000000015 10.4,6.6800000000000015 Z"/> 
<path style="fill:#000000; fill-opacity:1.0000; stroke:none;fill-rule:evenodd;" d="M 9.100000000000001,4.140000000000001 9.100000000000001,2.64 10.4,2.64 10.4,4.140000000000001 Z"/> 
<path style="fill:#000000; fill-opacity:1.0000; stroke:none;fill-rule:evenodd;" d="M 9.100000000000001,1.6 9.100000000000001,0.10000000000000009 10.4,0.10000000000000009 10.4,1.6 Z"/> 
</g> 
</svg>