<!DOCTYPE svg PUBLIC "-//W3C//DTD SVG 1.1//EN" "http://www.w3.org/Graphics/SVG/1.1/DTD/svg11.dtd">
<svg xmlns:svg="http://www.w3.org/2000/svg" xmlns="http://www.w3.org/2000/svg" xmlns:xlink="http://www.w3.org/1999/xlink" version="1.1" width="2.9432mm" height="1.47mm" viewBox="0.0000 0.0000 2.9432 1.47">
<title>SVG Image created as SMT-JUMPER_3_1-NC_TRACE_SILK.svg date 2024/09/05 22:15:50 </title>
  <desc>Image generated by PCBNEW </desc>
<g style="fill:#000000; fill-opacity:1.0000;stroke:#000000; stroke-opacity:1.0000; stroke-linecap:round; stroke-linejoin:round;" transform="translate(0 0) scale(1 1)">
<path style="fill:#000000; fill-opacity:1.0000; stroke:none;fill-rule:evenodd;" d="M 2.1827999999999994,0.8683 1.2748,0.8683 1.2748,0.6016 2.1827999999999994,0.6016 Z"/> 
<path style="fill:#000000; fill-opacity:1.0000; stroke:none;fill-rule:evenodd;" d="M 0.7603999999999997,1.3192 0.7565999999999997,1.3386 0.7455999999999996,1.3550999999999997 0.7290999999999999,1.3660999999999999 0.7095999999999991,1.37 0.15079999999999938,1.37 0.1313999999999993,1.3660999999999999 0.11489999999999956,1.3550999999999997 0.10389999999999944,1.3386 0.09999999999999964,1.3192 0.09999999999999964,0.15079999999999993 0.10389999999999944,0.13139999999999996 0.11489999999999956,0.11489999999999989 0.1313999999999993,0.10389999999999999 0.15079999999999938,0.09999999999999998 0.7095999999999991,0.09999999999999998 0.7290999999999999,0.10389999999999999 0.7455999999999996,0.11489999999999989 0.7565999999999997,0.13139999999999996 0.7603999999999997,0.15079999999999993 Z"/> 
<path style="fill:#000000; fill-opacity:1.0000; stroke:none;fill-rule:evenodd;" d="M 1.8017999999999992,1.3192 1.7979999999999992,1.3386 1.787,1.3550999999999997 1.7704999999999993,1.3660999999999999 1.7509999999999994,1.37 1.1921999999999997,1.37 1.1727999999999996,1.3660999999999999 1.1562999999999999,1.3550999999999997 1.1452999999999998,1.3386 1.1414,1.3192 1.1414,0.15079999999999993 1.1452999999999998,0.13139999999999996 1.1562999999999999,0.11489999999999989 1.1727999999999996,0.10389999999999999 1.1921999999999997,0.09999999999999998 1.7509999999999994,0.09999999999999998 1.7704999999999993,0.10389999999999999 1.787,0.11489999999999989 1.7979999999999992,0.13139999999999996 1.8017999999999992,0.15079999999999993 Z"/> 
<path style="fill:#000000; fill-opacity:1.0000; stroke:none;fill-rule:evenodd;" d="M 2.8431999999999995,1.3192 2.8393999999999995,1.3386 2.8284000000000002,1.3550999999999997 2.8118999999999996,1.3660999999999999 2.792399999999999,1.37 2.233599999999999,1.37 2.2142,1.3660999999999999 2.1976999999999993,1.3550999999999997 2.186699999999999,1.3386 2.1827999999999994,1.3192 2.1827999999999994,0.15079999999999993 2.186699999999999,0.13139999999999996 2.1976999999999993,0.11489999999999989 2.2142,0.10389999999999999 2.233599999999999,0.09999999999999998 2.792399999999999,0.09999999999999998 2.8118999999999996,0.10389999999999999 2.8284000000000002,0.11489999999999989 2.8393999999999995,0.13139999999999996 2.8431999999999995,0.15079999999999993 Z"/> 
</g> 
</svg>