<!DOCTYPE svg PUBLIC "-//W3C//DTD SVG 1.1//EN" "http://www.w3.org/Graphics/SVG/1.1/DTD/svg11.dtd">
<svg xmlns:svg="http://www.w3.org/2000/svg" xmlns="http://www.w3.org/2000/svg" xmlns:xlink="http://www.w3.org/1999/xlink" version="1.1" width="2.4606mm" height="1.47mm" viewBox="0.0000 0.0000 2.4606 1.47">
<title>SVG Image created as SMT-JUMPER_3_NO_SILK.svg date 2024/09/04 16:50:27 </title>
  <desc>Image generated by PCBNEW </desc>
<g style="fill:#000000; fill-opacity:1.0000;stroke:#000000; stroke-opacity:1.0000; stroke-linecap:round; stroke-linejoin:round;" transform="translate(0 0) scale(1 1)">
<path style="fill:#000000; fill-opacity:1.0000; stroke:none;fill-rule:evenodd;" d="M 0.7350000000000003,1.3192 0.7310999999999996,1.3386 0.7201000000000004,1.3550999999999997 0.7035999999999998,1.3660999999999999 0.6841999999999997,1.37 0.15080000000000027,1.37 0.13129999999999997,1.3660999999999999 0.1149,1.3550999999999997 0.10389999999999988,1.3386 0.10000000000000009,1.3192 0.10000000000000009,0.15079999999999993 0.10389999999999988,0.13139999999999996 0.1149,0.11489999999999989 0.13129999999999997,0.10389999999999999 0.15080000000000027,0.09999999999999998 0.6841999999999997,0.09999999999999998 0.7035999999999998,0.10389999999999999 0.7201000000000004,0.11489999999999989 0.7310999999999996,0.13139999999999996 0.7350000000000003,0.15079999999999993 Z"/> 
<path style="fill:#000000; fill-opacity:1.0000; stroke:none;fill-rule:evenodd;" d="M 1.5478000000000005,1.3192 1.5438999999999998,1.3386 1.5328999999999997,1.3550999999999997 1.5164,1.3660999999999999 1.4969999999999999,1.37 0.9636000000000005,1.37 0.9440999999999997,1.3660999999999999 0.9276999999999997,1.3550999999999997 0.9167000000000005,1.3386 0.9127999999999998,1.3192 0.9127999999999998,0.15079999999999993 0.9167000000000005,0.13139999999999996 0.9276999999999997,0.11489999999999989 0.9440999999999997,0.10389999999999999 0.9636000000000005,0.09999999999999998 1.4969999999999999,0.09999999999999998 1.5164,0.10389999999999999 1.5328999999999997,0.11489999999999989 1.5438999999999998,0.13139999999999996 1.5478000000000005,0.15079999999999993 Z"/> 
<path style="fill:#000000; fill-opacity:1.0000; stroke:none;fill-rule:evenodd;" d="M 2.3606,1.3192 2.3567,1.3386 2.3457,1.3550999999999997 2.3292,1.3660999999999999 2.3098,1.37 1.7763999999999998,1.37 1.7569,1.3660999999999999 1.7405,1.3550999999999997 1.7294999999999998,1.3386 1.7256,1.3192 1.7256,0.15079999999999993 1.7294999999999998,0.13139999999999996 1.7405,0.11489999999999989 1.7569,0.10389999999999999 1.7763999999999998,0.09999999999999998 2.3098,0.09999999999999998 2.3292,0.10389999999999999 2.3457,0.11489999999999989 2.3567,0.13139999999999996 2.3606,0.15079999999999993 Z"/> 
</g> 
</svg>