<!DOCTYPE svg PUBLIC "-//W3C//DTD SVG 1.1//EN" "http://www.w3.org/Graphics/SVG/1.1/DTD/svg11.dtd">
<svg xmlns:svg="http://www.w3.org/2000/svg" xmlns="http://www.w3.org/2000/svg" xmlns:xlink="http://www.w3.org/1999/xlink" version="1.1" width="7.4mm" height="4.61mm" viewBox="0.0000 0.0000 7.4 4.61">
<title>SVG Image created as SO8.svg date 2024/09/12 06:38:25 </title>
  <desc>Image generated by PCBNEW </desc>
<g style="fill:#000000; fill-opacity:1.0000;stroke:#000000; stroke-opacity:1.0000; stroke-linecap:round; stroke-linejoin:round;" transform="translate(0 0) scale(1 1)">
<path style="fill:#000000; fill-opacity:1.0000; stroke:none;fill-rule:evenodd;" d="M 2.04,0.10000000000000009 2.063,0.10460000000000003 2.0824,0.11760000000000015 2.0954,0.13710000000000022 2.1,0.16000000000000014 2.1,0.6399999999999999 2.0954,0.663 2.0824,0.6824000000000001 2.063,0.6954 2.04,0.7 0.16,0.7 0.137,0.6954 0.11760000000000001,0.6824000000000001 0.1046,0.663 0.1,0.6399999999999999 0.1,0.16000000000000014 0.1046,0.13710000000000022 0.11760000000000001,0.11760000000000015 0.137,0.10460000000000003 0.16,0.10000000000000009 Z"/> 
<path style="fill:#000000; fill-opacity:1.0000; stroke:none;fill-rule:evenodd;" d="M 2.04,1.3700000000000003 2.063,1.3746000000000003 2.0824,1.3876000000000002 2.0954,1.4071 2.1,1.43 2.1,1.91 2.0954,1.933 2.0824,1.9524000000000001 2.063,1.9654 2.04,1.97 0.16,1.97 0.137,1.9654 0.11760000000000001,1.9524000000000001 0.1046,1.933 0.1,1.91 0.1,1.43 0.1046,1.4071 0.11760000000000001,1.3876000000000002 0.137,1.3746000000000003 0.16,1.3700000000000003 Z"/> 
<path style="fill:#000000; fill-opacity:1.0000; stroke:none;fill-rule:evenodd;" d="M 2.04,2.6399999999999997 2.063,2.6445999999999996 2.0824,2.6575999999999995 2.0954,2.6771000000000003 2.1,2.7 2.1,3.1799999999999997 2.0954,3.2030000000000003 2.0824,3.2223999999999995 2.063,3.2354000000000003 2.04,3.24 0.16,3.24 0.137,3.2354000000000003 0.11760000000000001,3.2223999999999995 0.1046,3.2030000000000003 0.1,3.1799999999999997 0.1,2.7 0.1046,2.6771000000000003 0.11760000000000001,2.6575999999999995 0.137,2.6445999999999996 0.16,2.6399999999999997 Z"/> 
<path style="fill:#000000; fill-opacity:1.0000; stroke:none;fill-rule:evenodd;" d="M 2.04,3.91 2.063,3.9146 2.0824,3.9276 2.0954,3.9471 2.1,3.9699999999999998 2.1,4.45 2.0954,4.473 2.0824,4.4924 2.063,4.5054 2.04,4.51 0.16,4.51 0.137,4.5054 0.11760000000000001,4.4924 0.1046,4.473 0.1,4.45 0.1,3.9699999999999998 0.1046,3.9471 0.11760000000000001,3.9276 0.137,3.9146 0.16,3.91 Z"/> 
<path style="fill:#000000; fill-opacity:1.0000; stroke:none;fill-rule:evenodd;" d="M 7.239999999999999,3.91 7.263,3.9146 7.2824,3.9276 7.2954,3.9471 7.3,3.9699999999999998 7.3,4.45 7.2954,4.473 7.2824,4.4924 7.263,4.5054 7.239999999999999,4.51 5.359999999999999,4.51 5.337,4.5054 5.3176,4.4924 5.3046,4.473 5.3,4.45 5.3,3.9699999999999998 5.3046,3.9471 5.3176,3.9276 5.337,3.9146 5.359999999999999,3.91 Z"/> 
<path style="fill:#000000; fill-opacity:1.0000; stroke:none;fill-rule:evenodd;" d="M 7.239999999999999,2.6399999999999997 7.263,2.6445999999999996 7.2824,2.6575999999999995 7.2954,2.6771000000000003 7.3,2.7 7.3,3.1799999999999997 7.2954,3.2030000000000003 7.2824,3.2223999999999995 7.263,3.2354000000000003 7.239999999999999,3.24 5.359999999999999,3.24 5.337,3.2354000000000003 5.3176,3.2223999999999995 5.3046,3.2030000000000003 5.3,3.1799999999999997 5.3,2.7 5.3046,2.6771000000000003 5.3176,2.6575999999999995 5.337,2.6445999999999996 5.359999999999999,2.6399999999999997 Z"/> 
<path style="fill:#000000; fill-opacity:1.0000; stroke:none;fill-rule:evenodd;" d="M 7.239999999999999,1.3700000000000003 7.263,1.3746000000000003 7.2824,1.3876000000000002 7.2954,1.4071 7.3,1.43 7.3,1.91 7.2954,1.933 7.2824,1.9524000000000001 7.263,1.9654 7.239999999999999,1.97 5.359999999999999,1.97 5.337,1.9654 5.3176,1.9524000000000001 5.3046,1.933 5.3,1.91 5.3,1.43 5.3046,1.4071 5.3176,1.3876000000000002 5.337,1.3746000000000003 5.359999999999999,1.3700000000000003 Z"/> 
<path style="fill:#000000; fill-opacity:1.0000; stroke:none;fill-rule:evenodd;" d="M 7.239999999999999,0.10000000000000009 7.263,0.10460000000000003 7.2824,0.11760000000000015 7.2954,0.13710000000000022 7.3,0.16000000000000014 7.3,0.6399999999999999 7.2954,0.663 7.2824,0.6824000000000001 7.263,0.6954 7.239999999999999,0.7 5.359999999999999,0.7 5.337,0.6954 5.3176,0.6824000000000001 5.3046,0.663 5.3,0.6399999999999999 5.3,0.16000000000000014 5.3046,0.13710000000000022 5.3176,0.11760000000000015 5.337,0.10460000000000003 5.359999999999999,0.10000000000000009 Z"/> 
</g> 
</svg>