<!DOCTYPE svg PUBLIC "-//W3C//DTD SVG 1.1//EN" "http://www.w3.org/Graphics/SVG/1.1/DTD/svg11.dtd">
<svg xmlns:svg="http://www.w3.org/2000/svg" xmlns="http://www.w3.org/2000/svg" xmlns:xlink="http://www.w3.org/1999/xlink" version="1.1" width="7.1mm" height="8.42mm" viewBox="0.0000 0.0000 7.1 8.42">
<title>SVG Image created as SOIC-14_3.9x8.7mm_Pitch1.27mm.svg date 2024/09/11 16:45:37 </title>
  <desc>Image generated by PCBNEW </desc>
<g style="fill:#000000; fill-opacity:1.0000;stroke:#000000; stroke-opacity:1.0000; stroke-linecap:round; stroke-linejoin:round;" transform="translate(0 0) scale(1 1)">
<path style="fill:#000000; fill-opacity:1.0000; stroke:none;fill-rule:evenodd;" d="M 0.1,0.7000000000000001 0.1,0.09999999999999998 1.5999999999999999,0.09999999999999998 1.5999999999999999,0.7000000000000001 Z"/> 
<path style="fill:#000000; fill-opacity:1.0000; stroke:none;fill-rule:evenodd;" d="M 0.1,1.9700000000000002 0.1,1.37 1.5999999999999999,1.37 1.5999999999999999,1.9700000000000002 Z"/> 
<path style="fill:#000000; fill-opacity:1.0000; stroke:none;fill-rule:evenodd;" d="M 0.1,3.24 0.1,2.64 1.5999999999999999,2.64 1.5999999999999999,3.24 Z"/> 
<path style="fill:#000000; fill-opacity:1.0000; stroke:none;fill-rule:evenodd;" d="M 0.1,4.51 0.1,3.91 1.5999999999999999,3.91 1.5999999999999999,4.51 Z"/> 
<path style="fill:#000000; fill-opacity:1.0000; stroke:none;fill-rule:evenodd;" d="M 0.1,5.78 0.1,5.18 1.5999999999999999,5.18 1.5999999999999999,5.78 Z"/> 
<path style="fill:#000000; fill-opacity:1.0000; stroke:none;fill-rule:evenodd;" d="M 0.1,7.05 0.1,6.45 1.5999999999999999,6.45 1.5999999999999999,7.05 Z"/> 
<path style="fill:#000000; fill-opacity:1.0000; stroke:none;fill-rule:evenodd;" d="M 0.1,8.32 0.1,7.720000000000001 1.5999999999999999,7.720000000000001 1.5999999999999999,8.32 Z"/> 
<path style="fill:#000000; fill-opacity:1.0000; stroke:none;fill-rule:evenodd;" d="M 5.5,8.32 5.5,7.720000000000001 7.0,7.720000000000001 7.0,8.32 Z"/> 
<path style="fill:#000000; fill-opacity:1.0000; stroke:none;fill-rule:evenodd;" d="M 5.5,7.05 5.5,6.45 7.0,6.45 7.0,7.05 Z"/> 
<path style="fill:#000000; fill-opacity:1.0000; stroke:none;fill-rule:evenodd;" d="M 5.5,5.78 5.5,5.18 7.0,5.18 7.0,5.78 Z"/> 
<path style="fill:#000000; fill-opacity:1.0000; stroke:none;fill-rule:evenodd;" d="M 5.5,4.51 5.5,3.91 7.0,3.91 7.0,4.51 Z"/> 
<path style="fill:#000000; fill-opacity:1.0000; stroke:none;fill-rule:evenodd;" d="M 5.5,3.24 5.5,2.64 7.0,2.64 7.0,3.24 Z"/> 
<path style="fill:#000000; fill-opacity:1.0000; stroke:none;fill-rule:evenodd;" d="M 5.5,1.9700000000000002 5.5,1.37 7.0,1.37 7.0,1.9700000000000002 Z"/> 
<path style="fill:#000000; fill-opacity:1.0000; stroke:none;fill-rule:evenodd;" d="M 5.5,0.7000000000000001 5.5,0.09999999999999998 7.0,0.09999999999999998 7.0,0.7000000000000001 Z"/> 
</g> 
</svg>