<!DOCTYPE svg PUBLIC "-//W3C//DTD SVG 1.1//EN" "http://www.w3.org/Graphics/SVG/1.1/DTD/svg11.dtd">
<svg xmlns:svg="http://www.w3.org/2000/svg" xmlns="http://www.w3.org/2000/svg" xmlns:xlink="http://www.w3.org/1999/xlink" version="1.1" width="7.15mm" height="4.61mm" viewBox="0.0000 0.0000 7.15 4.61">
<title>SVG Image created as SOIC-8_3.9x4.9mm_Pitch1.27mm.svg date 2024/09/11 16:59:05 </title>
  <desc>Image generated by PCBNEW </desc>
<g style="fill:#000000; fill-opacity:1.0000;stroke:#000000; stroke-opacity:1.0000; stroke-linecap:round; stroke-linejoin:round;" transform="translate(0 0) scale(1 1)">
<path style="fill:#000000; fill-opacity:1.0000; stroke:none;fill-rule:evenodd;" d="M 0.09999999999999998,0.7 0.09999999999999998,0.10000000000000009 1.65,0.10000000000000009 1.65,0.7 Z"/> 
<path style="fill:#000000; fill-opacity:1.0000; stroke:none;fill-rule:evenodd;" d="M 0.09999999999999998,1.97 0.09999999999999998,1.3701 1.65,1.3701 1.65,1.97 Z"/> 
<path style="fill:#000000; fill-opacity:1.0000; stroke:none;fill-rule:evenodd;" d="M 0.09999999999999998,3.2401 0.09999999999999998,2.6399999999999997 1.65,2.6399999999999997 1.65,3.2401 Z"/> 
<path style="fill:#000000; fill-opacity:1.0000; stroke:none;fill-rule:evenodd;" d="M 0.09999999999999998,4.51 0.09999999999999998,3.9101 1.65,3.9101 1.65,4.51 Z"/> 
<path style="fill:#000000; fill-opacity:1.0000; stroke:none;fill-rule:evenodd;" d="M 5.5,4.51 5.5,3.9101 7.05,3.9101 7.05,4.51 Z"/> 
<path style="fill:#000000; fill-opacity:1.0000; stroke:none;fill-rule:evenodd;" d="M 5.5,3.2401 5.5,2.6399999999999997 7.05,2.6399999999999997 7.05,3.2401 Z"/> 
<path style="fill:#000000; fill-opacity:1.0000; stroke:none;fill-rule:evenodd;" d="M 5.5,1.97 5.5,1.3701 7.05,1.3701 7.05,1.97 Z"/> 
<path style="fill:#000000; fill-opacity:1.0000; stroke:none;fill-rule:evenodd;" d="M 5.5,0.7 5.5,0.10000000000000009 7.05,0.10000000000000009 7.05,0.7 Z"/> 
</g> 
</svg>