<!DOCTYPE svg PUBLIC "-//W3C//DTD SVG 1.1//EN" "http://www.w3.org/Graphics/SVG/1.1/DTD/svg11.dtd">
<svg xmlns:svg="http://www.w3.org/2000/svg" xmlns="http://www.w3.org/2000/svg" xmlns:xlink="http://www.w3.org/1999/xlink" version="1.1" width="7.1000000000000005mm" height="4.6099000000000006mm" viewBox="0.0000 0.0000 7.1000000000000005 4.6099000000000006">
<title>SVG Image created as SOIC-8_3.9x4.9mm_P1.27mm.svg date 2024/11/22 14:26:52 </title>
  <desc>Image generated by PCBNEW </desc>
<g style="fill:#000000; fill-opacity:1.0000;stroke:#000000; stroke-opacity:1.0000; stroke-linecap:round; stroke-linejoin:round;" transform="translate(0 0) scale(1 1)">
<path style="fill:#000000; fill-opacity:1.0000; stroke:none;fill-rule:evenodd;" d="M 0.09999999999999964,0.24990000000000023 0.11139999999999883,0.19250000000000034 0.14389999999999947,0.14390000000000036 0.19259999999999966,0.11140000000000017 0.25,0.10000000000000009 1.8999999999999986,0.10000000000000009 1.9573999999999998,0.11140000000000017 2.0059999999999985,0.14390000000000036 2.038599999999999,0.19250000000000034 2.049999999999999,0.24990000000000023 2.049999999999999,0.5499 2.038599999999999,0.6074000000000002 2.0059999999999985,0.6560000000000001 1.9573999999999998,0.6885000000000003 1.8999999999999986,0.7000000000000002 0.25,0.7000000000000002 0.19259999999999966,0.6885000000000003 0.14389999999999947,0.6560000000000001 0.11139999999999883,0.6074000000000002 0.09999999999999964,0.5499 Z"/> 
<path style="fill:#000000; fill-opacity:1.0000; stroke:none;fill-rule:evenodd;" d="M 0.09999999999999964,1.5199000000000003 0.11139999999999883,1.4625000000000004 0.14389999999999947,1.4139000000000004 0.19259999999999966,1.3814000000000002 0.25,1.37 1.8999999999999986,1.37 1.9573999999999998,1.3814000000000002 2.0059999999999985,1.4139000000000004 2.038599999999999,1.4625000000000004 2.049999999999999,1.5199000000000003 2.049999999999999,1.8199 2.038599999999999,1.8774000000000002 2.0059999999999985,1.9260000000000002 1.9573999999999998,1.9585000000000004 1.8999999999999986,1.9699 0.25,1.9699 0.19259999999999966,1.9585000000000004 0.14389999999999947,1.9260000000000002 0.11139999999999883,1.8774000000000002 0.09999999999999964,1.8199 Z"/> 
<path style="fill:#000000; fill-opacity:1.0000; stroke:none;fill-rule:evenodd;" d="M 0.09999999999999964,2.7899000000000003 0.11139999999999883,2.7325 0.14389999999999947,2.6839000000000004 0.19259999999999966,2.6513999999999998 0.25,2.6399 1.8999999999999986,2.6399 1.9573999999999998,2.6513999999999998 2.0059999999999985,2.6839000000000004 2.038599999999999,2.7325 2.049999999999999,2.7899000000000003 2.049999999999999,3.0899 2.038599999999999,3.1474 2.0059999999999985,3.1960000000000006 1.9573999999999998,3.2285000000000004 1.8999999999999986,3.24 0.25,3.24 0.19259999999999966,3.2285000000000004 0.14389999999999947,3.1960000000000006 0.11139999999999883,3.1474 0.09999999999999964,3.0899 Z"/> 
<path style="fill:#000000; fill-opacity:1.0000; stroke:none;fill-rule:evenodd;" d="M 0.09999999999999964,4.0599 0.11139999999999883,4.0025 0.14389999999999947,3.9539 0.19259999999999966,3.9214 0.25,3.91 1.8999999999999986,3.91 1.9573999999999998,3.9214 2.0059999999999985,3.9539 2.038599999999999,4.0025 2.049999999999999,4.0599 2.049999999999999,4.3599000000000006 2.038599999999999,4.4174 2.0059999999999985,4.466 1.9573999999999998,4.4985 1.8999999999999986,4.5099 0.25,4.5099 0.19259999999999966,4.4985 0.14389999999999947,4.466 0.11139999999999883,4.4174 0.09999999999999964,4.3599000000000006 Z"/> 
<path style="fill:#000000; fill-opacity:1.0000; stroke:none;fill-rule:evenodd;" d="M 5.049999999999999,4.0599 5.061399999999999,4.0025 5.0939,3.9539 5.1426,3.9214 5.199999999999999,3.91 6.85,3.91 6.907399999999999,3.9214 6.956099999999999,3.9539 6.9886,4.0025 7.0,4.0599 7.0,4.3599000000000006 6.9886,4.4174 6.956099999999999,4.466 6.907399999999999,4.4985 6.85,4.5099 5.199999999999999,4.5099 5.1426,4.4985 5.0939,4.466 5.061399999999999,4.4174 5.049999999999999,4.3599000000000006 Z"/> 
<path style="fill:#000000; fill-opacity:1.0000; stroke:none;fill-rule:evenodd;" d="M 5.049999999999999,2.7899000000000003 5.061399999999999,2.7325 5.0939,2.6839000000000004 5.1426,2.6513999999999998 5.199999999999999,2.6399 6.85,2.6399 6.907399999999999,2.6513999999999998 6.956099999999999,2.6839000000000004 6.9886,2.7325 7.0,2.7899000000000003 7.0,3.0899 6.9886,3.1474 6.956099999999999,3.1960000000000006 6.907399999999999,3.2285000000000004 6.85,3.24 5.199999999999999,3.24 5.1426,3.2285000000000004 5.0939,3.1960000000000006 5.061399999999999,3.1474 5.049999999999999,3.0899 Z"/> 
<path style="fill:#000000; fill-opacity:1.0000; stroke:none;fill-rule:evenodd;" d="M 5.049999999999999,1.5199000000000003 5.061399999999999,1.4625000000000004 5.0939,1.4139000000000004 5.1426,1.3814000000000002 5.199999999999999,1.37 6.85,1.37 6.907399999999999,1.3814000000000002 6.956099999999999,1.4139000000000004 6.9886,1.4625000000000004 7.0,1.5199000000000003 7.0,1.8199 6.9886,1.8774000000000002 6.956099999999999,1.9260000000000002 6.907399999999999,1.9585000000000004 6.85,1.9699 5.199999999999999,1.9699 5.1426,1.9585000000000004 5.0939,1.9260000000000002 5.061399999999999,1.8774000000000002 5.049999999999999,1.8199 Z"/> 
<path style="fill:#000000; fill-opacity:1.0000; stroke:none;fill-rule:evenodd;" d="M 5.049999999999999,0.24990000000000023 5.061399999999999,0.19250000000000034 5.0939,0.14390000000000036 5.1426,0.11140000000000017 5.199999999999999,0.10000000000000009 6.85,0.10000000000000009 6.907399999999999,0.11140000000000017 6.956099999999999,0.14390000000000036 6.9886,0.19250000000000034 7.0,0.24990000000000023 7.0,0.5499 6.9886,0.6074000000000002 6.956099999999999,0.6560000000000001 6.907399999999999,0.6885000000000003 6.85,0.7000000000000002 5.199999999999999,0.7000000000000002 5.1426,0.6885000000000003 5.0939,0.6560000000000001 5.061399999999999,0.6074000000000002 5.049999999999999,0.5499 Z"/> 
</g> 
</svg>