<!DOCTYPE svg PUBLIC "-//W3C//DTD SVG 1.1//EN" "http://www.w3.org/Graphics/SVG/1.1/DTD/svg11.dtd">
<svg xmlns:svg="http://www.w3.org/2000/svg" xmlns="http://www.w3.org/2000/svg" xmlns:xlink="http://www.w3.org/1999/xlink" version="1.1" width="7.1mm" height="9.69mm" viewBox="0.0000 0.0000 7.1 9.69">
<title>SVG Image created as SOIC-16_3.9x9.9mm_Pitch1.27mm.svg date 2024/09/11 16:41:50 </title>
  <desc>Image generated by PCBNEW </desc>
<g style="fill:#000000; fill-opacity:1.0000;stroke:#000000; stroke-opacity:1.0000; stroke-linecap:round; stroke-linejoin:round;" transform="translate(0 0) scale(1 1)">
<path style="fill:#000000; fill-opacity:1.0000; stroke:none;fill-rule:evenodd;" d="M 0.1,0.6999999999999997 0.1,0.10000000000000009 1.5999999999999999,0.10000000000000009 1.5999999999999999,0.6999999999999997 Z"/> 
<path style="fill:#000000; fill-opacity:1.0000; stroke:none;fill-rule:evenodd;" d="M 0.1,1.9700000000000002 0.1,1.3699999999999997 1.5999999999999999,1.3699999999999997 1.5999999999999999,1.9700000000000002 Z"/> 
<path style="fill:#000000; fill-opacity:1.0000; stroke:none;fill-rule:evenodd;" d="M 0.1,3.2399999999999998 0.1,2.64 1.5999999999999999,2.64 1.5999999999999999,3.2399999999999998 Z"/> 
<path style="fill:#000000; fill-opacity:1.0000; stroke:none;fill-rule:evenodd;" d="M 0.1,4.51 0.1,3.9099999999999997 1.5999999999999999,3.9099999999999997 1.5999999999999999,4.51 Z"/> 
<path style="fill:#000000; fill-opacity:1.0000; stroke:none;fill-rule:evenodd;" d="M 0.1,5.779999999999999 0.1,5.18 1.5999999999999999,5.18 1.5999999999999999,5.779999999999999 Z"/> 
<path style="fill:#000000; fill-opacity:1.0000; stroke:none;fill-rule:evenodd;" d="M 0.1,7.049999999999999 0.1,6.449999999999999 1.5999999999999999,6.449999999999999 1.5999999999999999,7.049999999999999 Z"/> 
<path style="fill:#000000; fill-opacity:1.0000; stroke:none;fill-rule:evenodd;" d="M 0.1,8.32 0.1,7.719999999999999 1.5999999999999999,7.719999999999999 1.5999999999999999,8.32 Z"/> 
<path style="fill:#000000; fill-opacity:1.0000; stroke:none;fill-rule:evenodd;" d="M 0.1,9.59 0.1,8.99 1.5999999999999999,8.99 1.5999999999999999,9.59 Z"/> 
<path style="fill:#000000; fill-opacity:1.0000; stroke:none;fill-rule:evenodd;" d="M 5.5,9.59 5.5,8.99 7.0,8.99 7.0,9.59 Z"/> 
<path style="fill:#000000; fill-opacity:1.0000; stroke:none;fill-rule:evenodd;" d="M 5.5,8.32 5.5,7.719999999999999 7.0,7.719999999999999 7.0,8.32 Z"/> 
<path style="fill:#000000; fill-opacity:1.0000; stroke:none;fill-rule:evenodd;" d="M 5.5,7.049999999999999 5.5,6.449999999999999 7.0,6.449999999999999 7.0,7.049999999999999 Z"/> 
<path style="fill:#000000; fill-opacity:1.0000; stroke:none;fill-rule:evenodd;" d="M 5.5,5.779999999999999 5.5,5.18 7.0,5.18 7.0,5.779999999999999 Z"/> 
<path style="fill:#000000; fill-opacity:1.0000; stroke:none;fill-rule:evenodd;" d="M 5.5,4.51 5.5,3.9099999999999997 7.0,3.9099999999999997 7.0,4.51 Z"/> 
<path style="fill:#000000; fill-opacity:1.0000; stroke:none;fill-rule:evenodd;" d="M 5.5,3.2399999999999998 5.5,2.64 7.0,2.64 7.0,3.2399999999999998 Z"/> 
<path style="fill:#000000; fill-opacity:1.0000; stroke:none;fill-rule:evenodd;" d="M 5.5,1.9700000000000002 5.5,1.3699999999999997 7.0,1.3699999999999997 7.0,1.9700000000000002 Z"/> 
<path style="fill:#000000; fill-opacity:1.0000; stroke:none;fill-rule:evenodd;" d="M 5.5,0.6999999999999997 5.5,0.10000000000000009 7.0,0.10000000000000009 7.0,0.6999999999999997 Z"/> 
</g> 
</svg>