<!DOCTYPE svg PUBLIC "-//W3C//DTD SVG 1.1//EN" "http://www.w3.org/Graphics/SVG/1.1/DTD/svg11.dtd">
<svg xmlns:svg="http://www.w3.org/2000/svg" xmlns="http://www.w3.org/2000/svg" xmlns:xlink="http://www.w3.org/1999/xlink" version="1.1" width="3.799999999999998mm" height="1.7mm" viewBox="0.0000 0.0000 3.799999999999998 1.7">
<title>SVG Image created as SolderJumper-3_P1.3mm_Open_RoundedPad1.0x1.5mm.svg date 2024/09/10 21:23:15 </title>
  <desc>Image generated by PCBNEW </desc>
<g style="fill:#000000; fill-opacity:1.0000;stroke:#000000; stroke-opacity:1.0000; stroke-linecap:round; stroke-linejoin:round;" transform="translate(0 0) scale(1 1)">
<path style="fill:#000000; fill-opacity:1.0000; stroke:none;fill-rule:evenodd;" d="M 1.1500000000000021,1.6 0.6000000000000014,1.6 0.6000000000000014,1.5950000000000002 0.5288000000000004,1.5950000000000002 0.39229999999999876,1.5549 0.27250000000000085,1.4779 0.17930000000000135,1.3704 0.12020000000000053,1.2409 0.10000000000000142,1.1 0.10000000000000142,0.6000000000000001 0.12020000000000053,0.45920000000000005 0.17930000000000135,0.3296999999999999 0.27250000000000085,0.22219999999999995 0.39229999999999876,0.1452 0.5288000000000004,0.10509999999999997 0.6000000000000014,0.10509999999999997 0.6000000000000014,0.10000000000000009 1.1500000000000021,0.10000000000000009 Z"/> 
<path style="fill:#000000; fill-opacity:1.0000; stroke:none;fill-rule:evenodd;" d="M 1.4000000000000021,1.6 1.4000000000000021,0.10000000000000009 2.400000000000002,0.10000000000000009 2.400000000000002,1.6 Z"/> 
<path style="fill:#000000; fill-opacity:1.0000; stroke:none;fill-rule:evenodd;" d="M 3.1999999999999993,0.10509999999999997 3.2711000000000006,0.10509999999999997 3.407700000000002,0.1452 3.5274,0.22219999999999995 3.6205999999999996,0.3296999999999999 3.6797000000000004,0.45920000000000005 3.6999999999999993,0.6000000000000001 3.6999999999999993,1.1 3.6797000000000004,1.2409 3.6205999999999996,1.3704 3.5274,1.4779 3.407700000000002,1.5549 3.2711000000000006,1.5950000000000002 3.1999999999999993,1.5950000000000002 3.1999999999999993,1.6 2.650000000000002,1.6 2.650000000000002,0.10000000000000009 3.1999999999999993,0.10000000000000009 Z"/> 
</g> 
</svg>