<!DOCTYPE svg PUBLIC "-//W3C//DTD SVG 1.1//EN" "http://www.w3.org/Graphics/SVG/1.1/DTD/svg11.dtd">
<svg xmlns:svg="http://www.w3.org/2000/svg" xmlns="http://www.w3.org/2000/svg" xmlns:xlink="http://www.w3.org/1999/xlink" version="1.1" width="2.500000000000001mm" height="1.7mm" viewBox="0.0000 0.0000 2.500000000000001 1.7">
<title>SVG Image created as SolderJumper-2_P1.3mm_Open_RoundedPad1.0x1.5mm.svg date 2024/09/10 21:28:09 </title>
  <desc>Image generated by PCBNEW </desc>
<g style="fill:#000000; fill-opacity:1.0000;stroke:#000000; stroke-opacity:1.0000; stroke-linecap:round; stroke-linejoin:round;" transform="translate(0 0) scale(1 1)">
<path style="fill:#000000; fill-opacity:1.0000; stroke:none;fill-rule:evenodd;" d="M 1.1000000000000014,1.6 0.6000000000000014,1.6 0.6000000000000014,1.5950000000000002 0.5288000000000004,1.5950000000000002 0.3923000000000023,1.5549 0.27250000000000085,1.4779 0.17930000000000135,1.3704 0.12020000000000053,1.2409 0.10000000000000142,1.1 0.10000000000000142,0.6000000000000001 0.12020000000000053,0.45920000000000005 0.17930000000000135,0.3296999999999999 0.27250000000000085,0.22219999999999995 0.3923000000000023,0.1452 0.5288000000000004,0.10509999999999997 0.6000000000000014,0.10509999999999997 0.6000000000000014,0.10000000000000009 1.1000000000000014,0.10000000000000009 Z"/> 
<path style="fill:#000000; fill-opacity:1.0000; stroke:none;fill-rule:evenodd;" d="M 1.9000000000000021,0.10509999999999997 1.9711000000000034,0.10509999999999997 2.1077000000000012,0.1452 2.227400000000003,0.22219999999999995 2.3206000000000024,0.3296999999999999 2.3797000000000033,0.45920000000000005 2.400000000000002,0.6000000000000001 2.400000000000002,1.1 2.3797000000000033,1.2409 2.3206000000000024,1.3704 2.227400000000003,1.4779 2.1077000000000012,1.5549 1.9711000000000034,1.5950000000000002 1.9000000000000021,1.5950000000000002 1.9000000000000021,1.6 1.4000000000000021,1.6 1.4000000000000021,0.10000000000000009 1.9000000000000021,0.10000000000000009 Z"/> 
</g> 
</svg>