<!DOCTYPE svg PUBLIC "-//W3C//DTD SVG 1.1//EN" "http://www.w3.org/Graphics/SVG/1.1/DTD/svg11.dtd">
<svg xmlns:svg="http://www.w3.org/2000/svg" xmlns="http://www.w3.org/2000/svg" xmlns:xlink="http://www.w3.org/1999/xlink" version="1.1" width="3.5999999999999996mm" height="2.8000000000000003mm" viewBox="0.0000 0.0000 3.5999999999999996 2.8000000000000003">
<title>SVG Image created as SOT-23W.svg date 2024/09/17 15:33:26 </title>
  <desc>Image generated by PCBNEW </desc>
<g style="fill:#000000; fill-opacity:1.0000;stroke:#000000; stroke-opacity:1.0000; stroke-linecap:round; stroke-linejoin:round;" transform="translate(0 0) scale(1 1)">
<path style="fill:#000000; fill-opacity:1.0000; stroke:none;fill-rule:evenodd;" d="M 0.10000000000000009,0.2749999999999999 0.11329999999999996,0.20809999999999995 0.1513000000000002,0.1513 0.20799999999999996,0.11339999999999995 0.27500000000000013,0.10000000000000009 0.925,0.10000000000000009 0.9920000000000002,0.11339999999999995 1.0488000000000002,0.1513 1.0867000000000002,0.20809999999999995 1.0999999999999999,0.2749999999999999 1.0999999999999999,0.625 1.0867000000000002,0.6920000000000002 1.0488000000000002,0.7488000000000001 0.9920000000000002,0.7867000000000002 0.925,0.8001 0.27500000000000013,0.8001 0.20799999999999996,0.7867000000000002 0.1513000000000002,0.7488000000000001 0.11329999999999996,0.6920000000000002 0.10000000000000009,0.625 Z"/> 
<path style="fill:#000000; fill-opacity:1.0000; stroke:none;fill-rule:evenodd;" d="M 0.10000000000000009,2.175 0.11329999999999996,2.1081000000000003 0.1513000000000002,2.0513 0.20799999999999996,2.0134 0.27500000000000013,2.0 0.925,2.0 0.9920000000000002,2.0134 1.0488000000000002,2.0513 1.0867000000000002,2.1081000000000003 1.0999999999999999,2.175 1.0999999999999999,2.5251 1.0867000000000002,2.5919999999999996 1.0488000000000002,2.6488000000000005 0.9920000000000002,2.6867 0.925,2.7 0.27500000000000013,2.7 0.20799999999999996,2.6867 0.1513000000000002,2.6488000000000005 0.11329999999999996,2.5919999999999996 0.10000000000000009,2.5251 Z"/> 
<path style="fill:#000000; fill-opacity:1.0000; stroke:none;fill-rule:evenodd;" d="M 2.5,1.225 2.5133,1.1581000000000001 2.5513000000000003,1.1013000000000002 2.6080000000000005,1.0634000000000001 2.675,1.0501 3.325,1.0501 3.3920000000000003,1.0634000000000001 3.4488000000000003,1.1013000000000002 3.4867,1.1581000000000001 3.5,1.225 3.5,1.5750000000000002 3.4867,1.642 3.4488000000000003,1.6987999999999999 3.3920000000000003,1.7367 3.325,1.75 2.675,1.75 2.6080000000000005,1.7367 2.5513000000000003,1.6987999999999999 2.5133,1.642 2.5,1.5750000000000002 Z"/> 
</g> 
</svg>