<!DOCTYPE svg PUBLIC "-//W3C//DTD SVG 1.1//EN" "http://www.w3.org/Graphics/SVG/1.1/DTD/svg11.dtd">
<svg xmlns:svg="http://www.w3.org/2000/svg" xmlns="http://www.w3.org/2000/svg" xmlns:xlink="http://www.w3.org/1999/xlink" version="1.1" width="3.8000000000000003mm" height="2.7mm" viewBox="0.0000 0.0000 3.8000000000000003 2.7">
<title>SVG Image created as SOT-23-3.svg date 2024/09/12 10:54:28 </title>
  <desc>Image generated by PCBNEW </desc>
<g style="fill:#000000; fill-opacity:1.0000;stroke:#000000; stroke-opacity:1.0000; stroke-linecap:round; stroke-linejoin:round;" transform="translate(0 0) scale(1 1)">
<path style="fill:#000000; fill-opacity:1.0000; stroke:none;fill-rule:evenodd;" d="M 0.10000000000000009,0.2500000000000002 0.11140000000000017,0.19260000000000033 0.14400000000000013,0.1439999999999999 0.1926000000000001,0.11150000000000015 0.25000000000000044,0.10000000000000009 1.2750000000000004,0.10000000000000009 1.3324000000000003,0.11150000000000015 1.3811000000000004,0.1439999999999999 1.4136000000000002,0.19260000000000033 1.4250000000000003,0.2500000000000002 1.4250000000000003,0.55 1.4136000000000002,0.6075000000000002 1.3811000000000004,0.6561000000000001 1.3324000000000003,0.6886000000000003 1.2750000000000004,0.7 0.25000000000000044,0.7 0.1926000000000001,0.6886000000000003 0.14400000000000013,0.6561000000000001 0.11140000000000017,0.6075000000000002 0.10000000000000009,0.55 Z"/> 
<path style="fill:#000000; fill-opacity:1.0000; stroke:none;fill-rule:evenodd;" d="M 0.10000000000000009,2.1499999999999995 0.11140000000000017,2.0926 0.14400000000000013,2.0440000000000005 0.1926000000000001,2.0115 0.25000000000000044,2.0 1.2750000000000004,2.0 1.3324000000000003,2.0115 1.3811000000000004,2.0440000000000005 1.4136000000000002,2.0926 1.4250000000000003,2.1499999999999995 1.4250000000000003,2.4501 1.4136000000000002,2.5075000000000003 1.3811000000000004,2.5561 1.3324000000000003,2.5885999999999996 1.2750000000000004,2.5999999999999996 0.25000000000000044,2.5999999999999996 0.1926000000000001,2.5885999999999996 0.14400000000000013,2.5561 0.11140000000000017,2.5075000000000003 0.10000000000000009,2.4501 Z"/> 
<path style="fill:#000000; fill-opacity:1.0000; stroke:none;fill-rule:evenodd;" d="M 2.375,1.2 2.3864,1.1426 2.4190000000000005,1.094 2.4676,1.0615000000000003 2.5250000000000004,1.05 3.5500000000000007,1.05 3.6074,1.0615000000000003 3.6561000000000003,1.094 3.6886,1.1426 3.7,1.2 3.7,1.5000000000000002 3.6886,1.5575000000000003 3.6561000000000003,1.6061000000000003 3.6074,1.6386 3.5500000000000007,1.6500000000000001 2.5250000000000004,1.6500000000000001 2.4676,1.6386 2.4190000000000005,1.6061000000000003 2.3864,1.5575000000000003 2.375,1.5000000000000002 Z"/> 
</g> 
</svg>