<!DOCTYPE svg PUBLIC "-//W3C//DTD SVG 1.1//EN" "http://www.w3.org/Graphics/SVG/1.1/DTD/svg11.dtd">
<svg xmlns:svg="http://www.w3.org/2000/svg" xmlns="http://www.w3.org/2000/svg" xmlns:xlink="http://www.w3.org/1999/xlink" version="1.1" width="2.9000000000000004mm" height="1.95mm" viewBox="0.0000 0.0000 2.9000000000000004 1.95">
<title>SVG Image created as SOT-323_SC-70.svg date 2024/09/18 07:44:08 </title>
  <desc>Image generated by PCBNEW </desc>
<g style="fill:#000000; fill-opacity:1.0000;stroke:#000000; stroke-opacity:1.0000; stroke-linecap:round; stroke-linejoin:round;" transform="translate(0 0) scale(1 1)">
<path style="fill:#000000; fill-opacity:1.0000; stroke:none;fill-rule:evenodd;" d="M 0.6874999999999991,0.10000000000000009 0.7305999999999999,0.10860000000000003 0.7670999999999992,0.13300000000000045 0.7914999999999992,0.1695000000000002 0.7999999999999998,0.21250000000000036 0.7999999999999998,0.4376000000000002 0.7914999999999992,0.48060000000000036 0.7670999999999992,0.5171000000000001 0.7305999999999999,0.5415000000000001 0.6874999999999991,0.5500000000000003 0.21249999999999947,0.5500000000000003 0.16949999999999932,0.5415000000000001 0.13299999999999912,0.5171000000000001 0.10859999999999914,0.48060000000000036 0.09999999999999964,0.4376000000000002 0.09999999999999964,0.21250000000000036 0.10859999999999914,0.1695000000000002 0.13299999999999912,0.13300000000000045 0.16949999999999932,0.10860000000000003 0.21249999999999947,0.10000000000000009 Z"/> 
<path style="fill:#000000; fill-opacity:1.0000; stroke:none;fill-rule:evenodd;" d="M 0.6874999999999991,1.4000000000000004 0.7305999999999999,1.4086000000000003 0.7670999999999992,1.4330000000000003 0.7914999999999992,1.4695 0.7999999999999998,1.5125000000000002 0.7999999999999998,1.7375000000000003 0.7914999999999992,1.7806000000000002 0.7670999999999992,1.8171000000000004 0.7305999999999999,1.8415000000000004 0.6874999999999991,1.85 0.21249999999999947,1.85 0.16949999999999932,1.8415000000000004 0.13299999999999912,1.8171000000000004 0.10859999999999914,1.7806000000000002 0.09999999999999964,1.7375000000000003 0.09999999999999964,1.5125000000000002 0.10859999999999914,1.4695 0.13299999999999912,1.4330000000000003 0.16949999999999932,1.4086000000000003 0.21249999999999947,1.4000000000000004 Z"/> 
<path style="fill:#000000; fill-opacity:1.0000; stroke:none;fill-rule:evenodd;" d="M 2.687499999999999,0.7501000000000002 2.7306,0.7586000000000004 2.7670999999999992,0.7830000000000004 2.791499999999999,0.8195000000000001 2.8,0.8625000000000003 2.8,1.0875000000000004 2.791499999999999,1.1306000000000003 2.7670999999999992,1.1671 2.7306,1.1915000000000004 2.687499999999999,1.2000000000000002 2.2124999999999995,1.2000000000000002 2.1694999999999993,1.1915000000000004 2.132999999999999,1.1671 2.108599999999999,1.1306000000000003 2.0999999999999996,1.0875000000000004 2.0999999999999996,0.8625000000000003 2.108599999999999,0.8195000000000001 2.132999999999999,0.7830000000000004 2.1694999999999993,0.7586000000000004 2.2124999999999995,0.7501000000000002 Z"/> 
</g> 
</svg>