<!DOCTYPE svg PUBLIC "-//W3C//DTD SVG 1.1//EN" "http://www.w3.org/Graphics/SVG/1.1/DTD/svg11.dtd">
<svg xmlns:svg="http://www.w3.org/2000/svg" xmlns="http://www.w3.org/2000/svg" xmlns:xlink="http://www.w3.org/1999/xlink" version="1.1" width="1.9999999999999998mm" height="1.6mm" viewBox="0.0000 0.0000 1.9999999999999998 1.6">
<title>SVG Image created as SOT-523.svg date 2024/09/17 15:05:19 </title>
  <desc>Image generated by PCBNEW </desc>
<g style="fill:#000000; fill-opacity:1.0000;stroke:#000000; stroke-opacity:1.0000; stroke-linecap:round; stroke-linejoin:round;" transform="translate(0 0) scale(1 1)">
<path style="fill:#000000; fill-opacity:1.0000; stroke:none;fill-rule:evenodd;" d="M 0.6100000000000003,0.40000000000000013 0.6024000000000003,0.43830000000000013 0.5807000000000002,0.4707999999999999 0.5482,0.49240000000000017 0.5100000000000002,0.5001 0.20000000000000018,0.5001 0.16170000000000018,0.49240000000000017 0.1293000000000002,0.4707999999999999 0.10760000000000014,0.43830000000000013 0.10000000000000009,0.40000000000000013 0.10000000000000009,0.19999999999999996 0.10760000000000014,0.16179999999999994 0.1293000000000002,0.12929999999999997 0.16170000000000018,0.10770000000000013 0.20000000000000018,0.10000000000000009 0.5100000000000002,0.10000000000000009 0.5482,0.10770000000000013 0.5807000000000002,0.12929999999999997 0.6024000000000003,0.16179999999999994 0.6100000000000003,0.19999999999999996 Z"/> 
<path style="fill:#000000; fill-opacity:1.0000; stroke:none;fill-rule:evenodd;" d="M 0.6100000000000003,1.4000000000000001 0.6024000000000003,1.4383000000000001 0.5807000000000002,1.4707999999999999 0.5482,1.4924000000000002 0.5100000000000002,1.5000000000000002 0.20000000000000018,1.5000000000000002 0.16170000000000018,1.4924000000000002 0.1293000000000002,1.4707999999999999 0.10760000000000014,1.4383000000000001 0.10000000000000009,1.4000000000000001 0.10000000000000009,1.2 0.10760000000000014,1.1618000000000002 0.1293000000000002,1.1293 0.16170000000000018,1.1077000000000001 0.20000000000000018,1.0999999999999999 0.5100000000000002,1.0999999999999999 0.5482,1.1077000000000001 0.5807000000000002,1.1293 0.6024000000000003,1.1618000000000002 0.6100000000000003,1.2 Z"/> 
<path style="fill:#000000; fill-opacity:1.0000; stroke:none;fill-rule:evenodd;" d="M 1.9,0.9000000000000001 1.8923999999999999,0.9383000000000001 1.8706999999999998,0.9707999999999999 1.8382,0.9924000000000002 1.8000000000000003,1.0001 1.4899999999999998,1.0001 1.4517000000000002,0.9924000000000002 1.4193000000000002,0.9707999999999999 1.3976000000000002,0.9383000000000001 1.3900000000000001,0.9000000000000001 1.3900000000000001,0.7 1.3976000000000002,0.6618000000000002 1.4193000000000002,0.6293 1.4517000000000002,0.6077000000000001 1.4899999999999998,0.5999999999999999 1.8000000000000003,0.5999999999999999 1.8382,0.6077000000000001 1.8706999999999998,0.6293 1.8923999999999999,0.6618000000000002 1.9,0.7 Z"/> 
</g> 
</svg>