<!DOCTYPE svg PUBLIC "-//W3C//DTD SVG 1.1//EN" "http://www.w3.org/Graphics/SVG/1.1/DTD/svg11.dtd">
<svg xmlns:svg="http://www.w3.org/2000/svg" xmlns="http://www.w3.org/2000/svg" xmlns:xlink="http://www.w3.org/1999/xlink" version="1.1" width="2.9mm" height="3.2mm" viewBox="0.0000 0.0000 2.9 3.2">
<title>SVG Image created as SOT23-3@1.svg date 2024/09/04 14:50:08 </title>
  <desc>Image generated by PCBNEW </desc>
<g style="fill:#000000; fill-opacity:1.0000;stroke:#000000; stroke-opacity:1.0000; stroke-linecap:round; stroke-linejoin:round;" transform="translate(0 0) scale(1 1)">
<path style="fill:#000000; fill-opacity:1.0000; stroke:none;fill-rule:evenodd;" d="M 0.10000000000000003,2.2508 0.10389999999999999,2.2313 0.1149,2.2149 0.13140000000000002,2.2038 0.1508,2.2 0.8492000000000001,2.2 0.8685999999999999,2.2038 0.8851000000000001,2.2149 0.8961,2.2313 0.9,2.2508 0.9,3.0492 0.8961,3.0686 0.8851000000000001,3.0851 0.8685999999999999,3.0961000000000003 0.8492000000000001,3.1 0.1508,3.1 0.13140000000000002,3.0961000000000003 0.1149,3.0851 0.10389999999999999,3.0686 0.10000000000000003,3.0492 Z"/> 
<path style="fill:#000000; fill-opacity:1.0000; stroke:none;fill-rule:evenodd;" d="M 2.0,2.2508 2.0039,2.2313 2.0149,2.2149 2.0314,2.2038 2.0507999999999997,2.2 2.7492,2.2 2.7685999999999997,2.2038 2.7851,2.2149 2.7961,2.2313 2.8,2.2508 2.8,3.0492 2.7961,3.0686 2.7851,3.0851 2.7685999999999997,3.0961000000000003 2.7492,3.1 2.0507999999999997,3.1 2.0314,3.0961000000000003 2.0149,3.0851 2.0039,3.0686 2.0,3.0492 Z"/> 
<path style="fill:#000000; fill-opacity:1.0000; stroke:none;fill-rule:evenodd;" d="M 1.0499999999999998,0.15080000000000005 1.0539,0.13129999999999997 1.0649000000000002,0.1149 1.0814,0.1038 1.1008,0.09999999999999998 1.7992,0.09999999999999998 1.8186,0.1038 1.8350999999999997,0.1149 1.8460999999999999,0.13129999999999997 1.85,0.15080000000000005 1.85,0.9491999999999999 1.8460999999999999,0.9686 1.8350999999999997,0.9851 1.8186,0.9961000000000001 1.7992,1.0 1.1008,1.0 1.0814,0.9961000000000001 1.0649000000000002,0.9851 1.0539,0.9686 1.0499999999999998,0.9491999999999999 Z"/> 
</g> 
</svg>