M48
; DRILL file {KiCad 8.0.3} date 2024-09-09T21:23:35-0500
; FORMAT={-:-/ absolute / metric / decimal}
; #@! TF.CreationDate,2024-09-09T21:23:35-05:00
; #@! TF.GenerationSoftware,Kicad,Pcbnew,8.0.3
; #@! TF.FileFunction,MixedPlating,1,2
FMAT,2
METRIC
; #@! TA.AperFunction,Plated,PTH,ViaDrill
T1C0.381
; #@! TA.AperFunction,Plated,PTH,ComponentDrill
T2C1.016
; #@! TA.AperFunction,NonPlated,NPTH,ComponentDrill
T3C3.302
%
G90
G05
T1
X138.324Y-98.628
X139.408Y-104.496
X140.729Y-100.203
X141.059Y-102.514
X142.227Y-105.512
X142.634Y-111.506
X143.396Y-104.648
X143.827Y-106.248
X144.589Y-102.692
X144.793Y-96.672
X145.631Y-110.795
X146.875Y-110.973
X148.298Y-102.591
X148.526Y-95.199
X150.254Y-98.781
X151.143Y-106.604
X152.235Y-105.943
X152.514Y-94.818
X153.556Y-95.885
X153.81Y-109.372
X153.886Y-105.004
X154.597Y-108.661
X154.623Y-103.505
X154.661Y-110.198
X154.749Y-99.314
X155.41Y-107.925
X156.273Y-110.642
X157.391Y-98.654
X158.636Y-103.962
X158.636Y-105.689
X159.626Y-111.379
T2
X142.151Y-116.434
X144.691Y-116.434
X147.231Y-116.434
X149.771Y-116.434
X152.311Y-116.434
X154.851Y-116.434
T3
X138.341Y-94.844
X138.341Y-115.164
X158.661Y-94.844
X158.661Y-115.164
M30
