M48
; DRILL file {KiCad 8.0.3} date 2024-09-09T11:51:32-0500
; FORMAT={-:-/ absolute / metric / decimal}
; #@! TF.CreationDate,2024-09-09T11:51:32-05:00
; #@! TF.GenerationSoftware,Kicad,Pcbnew,8.0.3
; #@! TF.FileFunction,MixedPlating,1,2
FMAT,2
METRIC
; #@! TA.AperFunction,Plated,PTH,ViaDrill
T1C0.300
; #@! TA.AperFunction,Plated,PTH,ViaDrill
T2C0.305
; #@! TA.AperFunction,Plated,PTH,ComponentDrill
T3C1.016
%
G90
G05
T1
X146.751Y-123.546
X148.501Y-121.133
T2
X144.437Y-123.165
X144.945Y-122.657
X145.707Y-122.276
X145.834Y-98.654
X146.113Y-101.448
X146.274Y-121.872
X146.342Y-107.163
X146.469Y-119.482
X146.85Y-116.053
X147.231Y-86.335
X147.231Y-120.752
X147.721Y-121.514
X147.781Y-86.754
X148.247Y-123.546
X148.501Y-98.654
X148.501Y-119.482
X148.755Y-122.276
X149.263Y-121.768
X149.748Y-122.253
X150.025Y-115.672
X150.152Y-106.274
X150.152Y-107.163
X150.296Y-122.674
X150.406Y-102.972
X150.66Y-92.05
X150.66Y-102.083
X150.721Y-123.219
X151.789Y-121.626
X152.184Y-122.276
X152.311Y-123.165
X152.577Y-88.99
T3
X147.295Y-109.322
X149.835Y-109.322
M30
