<!DOCTYPE svg PUBLIC "-//W3C//DTD SVG 1.1//EN" "http://www.w3.org/Graphics/SVG/1.1/DTD/svg11.dtd">
<svg xmlns:svg="http://www.w3.org/2000/svg" xmlns="http://www.w3.org/2000/svg" xmlns:xlink="http://www.w3.org/1999/xlink" version="1.1" width="9.854299999999999mm" height="12.9557mm" viewBox="0.0000 0.0000 9.854299999999999 12.9557">
<title>SVG Image created as speaker.svg date 2024/09/18 07:56:53 </title>
  <desc>Image generated by Eeschema-SVG </desc>
<g style="fill:#000000; fill-opacity:1.0000;stroke:#000000; stroke-opacity:1.0000; stroke-linecap:round; stroke-linejoin:round;" transform="translate(0 0) scale(1 1)">
</g>
<g style="fill:none;  stroke:#840000; stroke-width:0.2540; stroke-opacity:1;  stroke-linecap:round; stroke-linejoin:round;">
<rect x="3.6583000000000006" y="5.2357000000000005" width="3.556000" height="5.080000" rx="0.000000"/>
<path style="fill:none;  stroke:#840000; stroke-width:0.2540; stroke-opacity:1;  stroke-linecap:round; stroke-linejoin:round;fill:none" d="M 7.2143,5.2357000000000005 9.754299999999999,2.6957000000000004 9.754299999999999,12.8557 7.2143,10.3157 "/> 
</g>
<g style="fill:none;  stroke:#840000; stroke-width:0.1524; stroke-opacity:1;  stroke-linecap:round; stroke-linejoin:round;">
<path d="M3.6583000000000006 6.505700000000001 L1.1182999999999996 6.505700000000001 "/>
</g>
<g style="fill:none;  stroke:#A90000; stroke-width:0.1524; stroke-opacity:1;  stroke-linecap:round; stroke-linejoin:round;">
<text x="6.8028" y="7.8006" textLength="1.4127" font-size="1.6933" lengthAdjust="spacingAndGlyphs" text-anchor="middle" opacity="0">1</text>
<g class="stroked-text"><desc>1</desc>
<path d="M2.7512 6.0882000000000005 L2.0255 6.0882000000000005 "/>
<path d="M2.3883 6.0882000000000005 L2.3883 4.8182 "/>
<path d="M2.3883 4.8182 L2.2673999999999994 4.999700000000001 "/>
<path d="M2.2673999999999994 4.999700000000001 L2.1464 5.1206000000000005 "/>
<path d="M2.1464 5.1206000000000005 L2.0255 5.181100000000001 "/>
</g></g>
<g style="fill:none;  stroke:#840000; stroke-width:0.1524; stroke-opacity:1;  stroke-linecap:round; stroke-linejoin:round;">
<path d="M3.6583000000000006 9.0457 L1.1182999999999996 9.0457 "/>
</g>
<g style="fill:none;  stroke:#A90000; stroke-width:0.1524; stroke-opacity:1;  stroke-linecap:round; stroke-linejoin:round;">
<text x="6.8028" y="10.3406" textLength="1.4127" font-size="1.6933" lengthAdjust="spacingAndGlyphs" text-anchor="middle" opacity="0">2</text>
<g class="stroked-text"><desc>2</desc>
<path d="M2.0255 7.4792000000000005 L2.0858999999999996 7.418699999999999 "/>
<path d="M2.0858999999999996 7.418699999999999 L2.2069 7.3582 "/>
<path d="M2.2069 7.3582 L2.5092999999999996 7.3582 "/>
<path d="M2.5092999999999996 7.3582 L2.6301999999999994 7.418699999999999 "/>
<path d="M2.6301999999999994 7.418699999999999 L2.6906999999999996 7.4792000000000005 "/>
<path d="M2.6906999999999996 7.4792000000000005 L2.7512 7.600099999999999 "/>
<path d="M2.7512 7.600099999999999 L2.7512 7.7211 "/>
<path d="M2.7512 7.7211 L2.6906999999999996 7.9025 "/>
<path d="M2.6906999999999996 7.9025 L1.9649999999999999 8.6282 "/>
<path d="M1.9649999999999999 8.6282 L2.7512 8.6282 "/>
</g></g>
<g style="fill:none;  stroke:#006464; stroke-width:0.1588; stroke-opacity:1;  stroke-linecap:round; stroke-linejoin:round;">
<text x="10.1085" y="2.9747" textLength="3.5486" font-size="1.6933" lengthAdjust="spacingAndGlyphs" text-anchor="middle" opacity="0">LS?</text>
<g class="stroked-text"><desc>LS?</desc>
<path d="M4.937999999999999 1.3699999999999999 L4.3332 1.3699999999999999 "/>
<path d="M4.3332 1.3699999999999999 L4.3332 0.10000000000000009 "/>
<path d="M5.3009 1.3095999999999999 L5.4823 1.3699999999999999 "/>
<path d="M5.4823 1.3699999999999999 L5.784699999999999 1.3699999999999999 "/>
<path d="M5.784699999999999 1.3699999999999999 L5.9056 1.3095999999999999 "/>
<path d="M5.9056 1.3095999999999999 L5.966099999999999 1.2491 "/>
<path d="M5.966099999999999 1.2491 L6.0266 1.1281 "/>
<path d="M6.0266 1.1281 L6.0266 1.0071999999999999 "/>
<path d="M6.0266 1.0071999999999999 L5.966099999999999 0.8861999999999999 "/>
<path d="M5.966099999999999 0.8861999999999999 L5.9056 0.8257000000000001 "/>
<path d="M5.9056 0.8257000000000001 L5.784699999999999 0.7653000000000001 "/>
<path d="M5.784699999999999 0.7653000000000001 L5.5428 0.7047999999999999 "/>
<path d="M5.5428 0.7047999999999999 L5.421799999999999 0.6443000000000001 "/>
<path d="M5.421799999999999 0.6443000000000001 L5.3613 0.5837999999999999 "/>
<path d="M5.3613 0.5837999999999999 L5.3009 0.4629000000000001 "/>
<path d="M5.3009 0.4629000000000001 L5.3009 0.3419000000000001 "/>
<path d="M5.3009 0.3419000000000001 L5.3613 0.22100000000000009 "/>
<path d="M5.3613 0.22100000000000009 L5.421799999999999 0.1605000000000001 "/>
<path d="M5.421799999999999 0.1605000000000001 L5.5428 0.10000000000000009 "/>
<path d="M5.5428 0.10000000000000009 L5.8451 0.10000000000000009 "/>
<path d="M5.8451 0.10000000000000009 L6.0266 0.1605000000000001 "/>
<path d="M6.7523 1.2491 L6.8126999999999995 1.3095999999999999 "/>
<path d="M6.8126999999999995 1.3095999999999999 L6.7523 1.3699999999999999 "/>
<path d="M6.7523 1.3699999999999999 L6.691799999999999 1.3095999999999999 "/>
<path d="M6.691799999999999 1.3095999999999999 L6.7523 1.2491 "/>
<path d="M6.7523 1.2491 L6.7523 1.3699999999999999 "/>
<path d="M6.510399999999999 0.1605000000000001 L6.6312999999999995 0.10000000000000009 "/>
<path d="M6.6312999999999995 0.10000000000000009 L6.9337 0.10000000000000009 "/>
<path d="M6.9337 0.10000000000000009 L7.054599999999999 0.1605000000000001 "/>
<path d="M7.054599999999999 0.1605000000000001 L7.1151 0.2815000000000001 "/>
<path d="M7.1151 0.2815000000000001 L7.1151 0.4024000000000001 "/>
<path d="M7.1151 0.4024000000000001 L7.054599999999999 0.5233999999999999 "/>
<path d="M7.054599999999999 0.5233999999999999 L6.994199999999999 0.5837999999999999 "/>
<path d="M6.994199999999999 0.5837999999999999 L6.873199999999999 0.6443000000000001 "/>
<path d="M6.873199999999999 0.6443000000000001 L6.8126999999999995 0.7047999999999999 "/>
<path d="M6.8126999999999995 0.7047999999999999 L6.7523 0.8257000000000001 "/>
<path d="M6.7523 0.8257000000000001 L6.7523 0.8861999999999999 "/>
</g><text x="8.0221" y="4.8797" textLength="7.7214" font-size="1.6933" lengthAdjust="spacingAndGlyphs" text-anchor="middle" opacity="0">Speaker</text>
<g class="stroked-text"><desc>Speaker</desc>
<path d="M0.09999999999999964 3.2146 L0.28139999999999965 3.2750000000000004 "/>
<path d="M0.28139999999999965 3.2750000000000004 L0.5838000000000001 3.2750000000000004 "/>
<path d="M0.5838000000000001 3.2750000000000004 L0.7046999999999999 3.2146 "/>
<path d="M0.7046999999999999 3.2146 L0.7652000000000001 3.1541000000000006 "/>
<path d="M0.7652000000000001 3.1541000000000006 L0.8256999999999994 3.0331 "/>
<path d="M0.8256999999999994 3.0331 L0.8256999999999994 2.9122000000000003 "/>
<path d="M0.8256999999999994 2.9122000000000003 L0.7652000000000001 2.7912 "/>
<path d="M0.7652000000000001 2.7912 L0.7046999999999999 2.7307000000000006 "/>
<path d="M0.7046999999999999 2.7307000000000006 L0.5838000000000001 2.6703 "/>
<path d="M0.5838000000000001 2.6703 L0.34189999999999987 2.6098 "/>
<path d="M0.34189999999999987 2.6098 L0.22089999999999943 2.5493000000000006 "/>
<path d="M0.22089999999999943 2.5493000000000006 L0.1604000000000001 2.4888000000000003 "/>
<path d="M0.1604000000000001 2.4888000000000003 L0.09999999999999964 2.3678999999999997 "/>
<path d="M0.09999999999999964 2.3678999999999997 L0.09999999999999964 2.2469 "/>
<path d="M0.09999999999999964 2.2469 L0.1604000000000001 2.1260000000000003 "/>
<path d="M0.1604000000000001 2.1260000000000003 L0.22089999999999943 2.0655 "/>
<path d="M0.22089999999999943 2.0655 L0.34189999999999987 2.005 "/>
<path d="M0.34189999999999987 2.005 L0.6441999999999997 2.005 "/>
<path d="M0.6441999999999997 2.005 L0.8256999999999994 2.0655 "/>
<path d="M1.3698999999999995 2.4284 L1.3698999999999995 3.6984000000000004 "/>
<path d="M1.3698999999999995 2.4888000000000003 L1.4909 2.4284 "/>
<path d="M1.4909 2.4284 L1.7328000000000001 2.4284 "/>
<path d="M1.7328000000000001 2.4284 L1.8537 2.4888000000000003 "/>
<path d="M1.8537 2.4888000000000003 L1.9142000000000001 2.5493000000000006 "/>
<path d="M1.9142000000000001 2.5493000000000006 L1.9746999999999995 2.6703 "/>
<path d="M1.9746999999999995 2.6703 L1.9746999999999995 3.0331 "/>
<path d="M1.9746999999999995 3.0331 L1.9142000000000001 3.1541000000000006 "/>
<path d="M1.9142000000000001 3.1541000000000006 L1.8537 3.2146 "/>
<path d="M1.8537 3.2146 L1.7328000000000001 3.2750000000000004 "/>
<path d="M1.7328000000000001 3.2750000000000004 L1.4909 3.2750000000000004 "/>
<path d="M1.4909 3.2750000000000004 L1.3698999999999995 3.2146 "/>
<path d="M3.0027 3.2146 L2.8817999999999993 3.2750000000000004 "/>
<path d="M2.8817999999999993 3.2750000000000004 L2.6399 3.2750000000000004 "/>
<path d="M2.6399 3.2750000000000004 L2.5188999999999995 3.2146 "/>
<path d="M2.5188999999999995 3.2146 L2.4585 3.0936000000000003 "/>
<path d="M2.4585 3.0936000000000003 L2.4585 2.6098 "/>
<path d="M2.4585 2.6098 L2.5188999999999995 2.4888000000000003 "/>
<path d="M2.5188999999999995 2.4888000000000003 L2.6399 2.4284 "/>
<path d="M2.6399 2.4284 L2.8817999999999993 2.4284 "/>
<path d="M2.8817999999999993 2.4284 L3.0027 2.4888000000000003 "/>
<path d="M3.0027 2.4888000000000003 L3.0631999999999993 2.6098 "/>
<path d="M3.0631999999999993 2.6098 L3.0631999999999993 2.7307000000000006 "/>
<path d="M3.0631999999999993 2.7307000000000006 L2.4585 2.8517 "/>
<path d="M4.1518 3.2750000000000004 L4.1518 2.6098 "/>
<path d="M4.1518 2.6098 L4.0913 2.4888000000000003 "/>
<path d="M4.0913 2.4888000000000003 L3.9703999999999997 2.4284 "/>
<path d="M3.9703999999999997 2.4284 L3.7285000000000004 2.4284 "/>
<path d="M3.7285000000000004 2.4284 L3.6075 2.4888000000000003 "/>
<path d="M4.1518 3.2146 L4.030899999999999 3.2750000000000004 "/>
<path d="M4.030899999999999 3.2750000000000004 L3.7285000000000004 3.2750000000000004 "/>
<path d="M3.7285000000000004 3.2750000000000004 L3.6075 3.2146 "/>
<path d="M3.6075 3.2146 L3.5470999999999995 3.0936000000000003 "/>
<path d="M3.5470999999999995 3.0936000000000003 L3.5470999999999995 2.9726 "/>
<path d="M3.5470999999999995 2.9726 L3.6075 2.8517 "/>
<path d="M3.6075 2.8517 L3.7285000000000004 2.7912 "/>
<path d="M3.7285000000000004 2.7912 L4.030899999999999 2.7912 "/>
<path d="M4.030899999999999 2.7912 L4.1518 2.7307000000000006 "/>
<path d="M4.756499999999999 3.2750000000000004 L4.756499999999999 2.005 "/>
<path d="M4.8774999999999995 2.7912 L5.2402999999999995 3.2750000000000004 "/>
<path d="M5.2402999999999995 2.4284 L4.756499999999999 2.9122000000000003 "/>
<path d="M6.2684 3.2146 L6.147499999999999 3.2750000000000004 "/>
<path d="M6.147499999999999 3.2750000000000004 L5.9056 3.2750000000000004 "/>
<path d="M5.9056 3.2750000000000004 L5.784599999999999 3.2146 "/>
<path d="M5.784599999999999 3.2146 L5.7242 3.0936000000000003 "/>
<path d="M5.7242 3.0936000000000003 L5.7242 2.6098 "/>
<path d="M5.7242 2.6098 L5.784599999999999 2.4888000000000003 "/>
<path d="M5.784599999999999 2.4888000000000003 L5.9056 2.4284 "/>
<path d="M5.9056 2.4284 L6.147499999999999 2.4284 "/>
<path d="M6.147499999999999 2.4284 L6.2684 2.4888000000000003 "/>
<path d="M6.2684 2.4888000000000003 L6.328899999999999 2.6098 "/>
<path d="M6.328899999999999 2.6098 L6.328899999999999 2.7307000000000006 "/>
<path d="M6.328899999999999 2.7307000000000006 L5.7242 2.8517 "/>
<path d="M6.873199999999999 3.2750000000000004 L6.873199999999999 2.4284 "/>
<path d="M6.873199999999999 2.6703 L6.9337 2.5493000000000006 "/>
<path d="M6.9337 2.5493000000000006 L6.994199999999999 2.4888000000000003 "/>
<path d="M6.994199999999999 2.4888000000000003 L7.1151 2.4284 "/>
<path d="M7.1151 2.4284 L7.2361 2.4284 "/>
</g></g> 
</svg>