<!DOCTYPE svg PUBLIC "-//W3C//DTD SVG 1.1//EN" "http://www.w3.org/Graphics/SVG/1.1/DTD/svg11.dtd">
<svg xmlns:svg="http://www.w3.org/2000/svg" xmlns="http://www.w3.org/2000/svg" xmlns:xlink="http://www.w3.org/1999/xlink" version="1.1" width="1.7000000000000002mm" height="1.7mm" viewBox="0.0000 0.0000 1.7000000000000002 1.7">
<title>SVG Image created as TESTPOINT_ROUND_1.5MM.svg date 2024/09/11 16:17:53 </title>
  <desc>Image generated by PCBNEW </desc>
<g style="fill:#000000; fill-opacity:1.0000;stroke:#000000; stroke-opacity:1.0000; stroke-linecap:round; stroke-linejoin:round;" transform="translate(0 0) scale(1 1)">
<path style="fill:#000000; fill-opacity:1.0000; stroke:none;fill-rule:evenodd;" d="M 1.6000000000000003,0.8499999999999999 1.5845,1.0017 1.5298,1.167 1.4383000000000001,1.3152 1.3152000000000001,1.4383 1.167,1.5297 1.0017000000000003,1.5845 0.8500000000000003,1.5999999999999999 0.6984000000000001,1.5845 0.5331000000000001,1.5297 0.38480000000000025,1.4383 0.26170000000000027,1.3152 0.17030000000000012,1.167 0.11550000000000016,1.0017 0.10000000000000009,0.8499999999999999 0.11550000000000016,0.6982999999999999 0.17030000000000012,0.5329999999999999 0.26170000000000027,0.3847999999999999 0.38480000000000025,0.26169999999999993 0.5331000000000001,0.17029999999999995 0.6984000000000001,0.11549999999999994 0.8500000000000003,0.09999999999999998 1.0017000000000003,0.11549999999999994 1.167,0.17029999999999995 1.3152000000000001,0.26169999999999993 1.4383000000000001,0.3847999999999999 1.5298,0.5329999999999999 1.5845,0.6982999999999999 1.6000000000000003,0.8499999999999999 Z"/> 
</g> 
</svg>