<!DOCTYPE svg PUBLIC "-//W3C//DTD SVG 1.1//EN" "http://www.w3.org/Graphics/SVG/1.1/DTD/svg11.dtd">
<svg xmlns:svg="http://www.w3.org/2000/svg" xmlns="http://www.w3.org/2000/svg" xmlns:xlink="http://www.w3.org/1999/xlink" version="1.1" width="7.950000000000001mm" height="7.95mm" viewBox="0.0000 0.0000 7.950000000000001 7.95">
<title>SVG Image created as TQFN44_7MM.svg date 2024/09/11 11:42:10 </title>
  <desc>Image generated by PCBNEW </desc>
<g style="fill:#000000; fill-opacity:1.0000;stroke:#000000; stroke-opacity:1.0000; stroke-linecap:round; stroke-linejoin:round;" transform="translate(0 0) scale(1 1)">
<path style="fill:#000000; fill-opacity:1.0000; stroke:none;fill-rule:evenodd;" d="M 1.6000000000000005,7.8500000000000005 1.3500000000000005,7.8500000000000005 1.3500000000000005,7.05 1.6000000000000005,7.05 Z"/> 
<path style="fill:#000000; fill-opacity:1.0000; stroke:none;fill-rule:evenodd;" d="M 2.1000000000000005,7.8500000000000005 1.8500000000000005,7.8500000000000005 1.8500000000000005,7.05 2.1000000000000005,7.05 Z"/> 
<path style="fill:#000000; fill-opacity:1.0000; stroke:none;fill-rule:evenodd;" d="M 2.6000000000000005,7.8500000000000005 2.3500000000000005,7.8500000000000005 2.3500000000000005,7.05 2.6000000000000005,7.05 Z"/> 
<path style="fill:#000000; fill-opacity:1.0000; stroke:none;fill-rule:evenodd;" d="M 3.1000000000000005,7.8500000000000005 2.8500000000000005,7.8500000000000005 2.8500000000000005,7.05 3.1000000000000005,7.05 Z"/> 
<path style="fill:#000000; fill-opacity:1.0000; stroke:none;fill-rule:evenodd;" d="M 3.6000000000000005,7.8500000000000005 3.3500000000000005,7.8500000000000005 3.3500000000000005,7.05 3.6000000000000005,7.05 Z"/> 
<path style="fill:#000000; fill-opacity:1.0000; stroke:none;fill-rule:evenodd;" d="M 4.1000000000000005,7.8500000000000005 3.8500000000000005,7.8500000000000005 3.8500000000000005,7.05 4.1000000000000005,7.05 Z"/> 
<path style="fill:#000000; fill-opacity:1.0000; stroke:none;fill-rule:evenodd;" d="M 4.6000000000000005,7.8500000000000005 4.3500000000000005,7.8500000000000005 4.3500000000000005,7.05 4.6000000000000005,7.05 Z"/> 
<path style="fill:#000000; fill-opacity:1.0000; stroke:none;fill-rule:evenodd;" d="M 5.1000000000000005,7.8500000000000005 4.8500000000000005,7.8500000000000005 4.8500000000000005,7.05 5.1000000000000005,7.05 Z"/> 
<path style="fill:#000000; fill-opacity:1.0000; stroke:none;fill-rule:evenodd;" d="M 5.6000000000000005,7.8500000000000005 5.3500000000000005,7.8500000000000005 5.3500000000000005,7.05 5.6000000000000005,7.05 Z"/> 
<path style="fill:#000000; fill-opacity:1.0000; stroke:none;fill-rule:evenodd;" d="M 6.1000000000000005,7.8500000000000005 5.8500000000000005,7.8500000000000005 5.8500000000000005,7.05 6.1000000000000005,7.05 Z"/> 
<path style="fill:#000000; fill-opacity:1.0000; stroke:none;fill-rule:evenodd;" d="M 6.6000000000000005,7.8500000000000005 6.3500000000000005,7.8500000000000005 6.3500000000000005,7.05 6.6000000000000005,7.05 Z"/> 
<path style="fill:#000000; fill-opacity:1.0000; stroke:none;fill-rule:evenodd;" d="M 7.8500000000000005,6.3500000000000005 7.8500000000000005,6.6000000000000005 7.05,6.6000000000000005 7.05,6.3500000000000005 Z"/> 
<path style="fill:#000000; fill-opacity:1.0000; stroke:none;fill-rule:evenodd;" d="M 7.8500000000000005,5.8500000000000005 7.8500000000000005,6.1000000000000005 7.05,6.1000000000000005 7.05,5.8500000000000005 Z"/> 
<path style="fill:#000000; fill-opacity:1.0000; stroke:none;fill-rule:evenodd;" d="M 7.8500000000000005,5.3500000000000005 7.8500000000000005,5.6000000000000005 7.05,5.6000000000000005 7.05,5.3500000000000005 Z"/> 
<path style="fill:#000000; fill-opacity:1.0000; stroke:none;fill-rule:evenodd;" d="M 7.8500000000000005,4.8500000000000005 7.8500000000000005,5.1000000000000005 7.05,5.1000000000000005 7.05,4.8500000000000005 Z"/> 
<path style="fill:#000000; fill-opacity:1.0000; stroke:none;fill-rule:evenodd;" d="M 7.8500000000000005,4.35 7.8500000000000005,4.6 7.05,4.6 7.05,4.35 Z"/> 
<path style="fill:#000000; fill-opacity:1.0000; stroke:none;fill-rule:evenodd;" d="M 7.8500000000000005,3.8499999999999996 7.8500000000000005,4.1 7.05,4.1 7.05,3.8499999999999996 Z"/> 
<path style="fill:#000000; fill-opacity:1.0000; stroke:none;fill-rule:evenodd;" d="M 7.8500000000000005,3.3499999999999996 7.8500000000000005,3.5999999999999996 7.05,3.5999999999999996 7.05,3.3499999999999996 Z"/> 
<path style="fill:#000000; fill-opacity:1.0000; stroke:none;fill-rule:evenodd;" d="M 7.8500000000000005,2.8499999999999996 7.8500000000000005,3.0999999999999996 7.05,3.0999999999999996 7.05,2.8499999999999996 Z"/> 
<path style="fill:#000000; fill-opacity:1.0000; stroke:none;fill-rule:evenodd;" d="M 7.8500000000000005,2.3499999999999996 7.8500000000000005,2.5999999999999996 7.05,2.5999999999999996 7.05,2.3499999999999996 Z"/> 
<path style="fill:#000000; fill-opacity:1.0000; stroke:none;fill-rule:evenodd;" d="M 7.8500000000000005,1.8499999999999996 7.8500000000000005,2.0999999999999996 7.05,2.0999999999999996 7.05,1.8499999999999996 Z"/> 
<path style="fill:#000000; fill-opacity:1.0000; stroke:none;fill-rule:evenodd;" d="M 7.8500000000000005,1.3499999999999996 7.8500000000000005,1.5999999999999996 7.05,1.5999999999999996 7.05,1.3499999999999996 Z"/> 
<path style="fill:#000000; fill-opacity:1.0000; stroke:none;fill-rule:evenodd;" d="M 6.3500000000000005,0.10000000000000009 6.6000000000000005,0.10000000000000009 6.6000000000000005,0.9000000000000004 6.3500000000000005,0.9000000000000004 Z"/> 
<path style="fill:#000000; fill-opacity:1.0000; stroke:none;fill-rule:evenodd;" d="M 5.8500000000000005,0.10000000000000009 6.1000000000000005,0.10000000000000009 6.1000000000000005,0.9000000000000004 5.8500000000000005,0.9000000000000004 Z"/> 
<path style="fill:#000000; fill-opacity:1.0000; stroke:none;fill-rule:evenodd;" d="M 5.3500000000000005,0.10000000000000009 5.6000000000000005,0.10000000000000009 5.6000000000000005,0.9000000000000004 5.3500000000000005,0.9000000000000004 Z"/> 
<path style="fill:#000000; fill-opacity:1.0000; stroke:none;fill-rule:evenodd;" d="M 4.8500000000000005,0.10000000000000009 5.1000000000000005,0.10000000000000009 5.1000000000000005,0.9000000000000004 4.8500000000000005,0.9000000000000004 Z"/> 
<path style="fill:#000000; fill-opacity:1.0000; stroke:none;fill-rule:evenodd;" d="M 4.3500000000000005,0.10000000000000009 4.6000000000000005,0.10000000000000009 4.6000000000000005,0.9000000000000004 4.3500000000000005,0.9000000000000004 Z"/> 
<path style="fill:#000000; fill-opacity:1.0000; stroke:none;fill-rule:evenodd;" d="M 3.8500000000000005,0.10000000000000009 4.1000000000000005,0.10000000000000009 4.1000000000000005,0.9000000000000004 3.8500000000000005,0.9000000000000004 Z"/> 
<path style="fill:#000000; fill-opacity:1.0000; stroke:none;fill-rule:evenodd;" d="M 3.3500000000000005,0.10000000000000009 3.6000000000000005,0.10000000000000009 3.6000000000000005,0.9000000000000004 3.3500000000000005,0.9000000000000004 Z"/> 
<path style="fill:#000000; fill-opacity:1.0000; stroke:none;fill-rule:evenodd;" d="M 2.8500000000000005,0.10000000000000009 3.1000000000000005,0.10000000000000009 3.1000000000000005,0.9000000000000004 2.8500000000000005,0.9000000000000004 Z"/> 
<path style="fill:#000000; fill-opacity:1.0000; stroke:none;fill-rule:evenodd;" d="M 2.3500000000000005,0.10000000000000009 2.6000000000000005,0.10000000000000009 2.6000000000000005,0.9000000000000004 2.3500000000000005,0.9000000000000004 Z"/> 
<path style="fill:#000000; fill-opacity:1.0000; stroke:none;fill-rule:evenodd;" d="M 1.8500000000000005,0.10000000000000009 2.1000000000000005,0.10000000000000009 2.1000000000000005,0.9000000000000004 1.8500000000000005,0.9000000000000004 Z"/> 
<path style="fill:#000000; fill-opacity:1.0000; stroke:none;fill-rule:evenodd;" d="M 1.3500000000000005,0.10000000000000009 1.6000000000000005,0.10000000000000009 1.6000000000000005,0.9000000000000004 1.3500000000000005,0.9000000000000004 Z"/> 
<path style="fill:#000000; fill-opacity:1.0000; stroke:none;fill-rule:evenodd;" d="M 0.09999999999999964,1.5999999999999996 0.09999999999999964,1.3499999999999996 0.8999999999999995,1.3499999999999996 0.8999999999999995,1.5999999999999996 Z"/> 
<path style="fill:#000000; fill-opacity:1.0000; stroke:none;fill-rule:evenodd;" d="M 0.09999999999999964,2.0999999999999996 0.09999999999999964,1.8499999999999996 0.8999999999999995,1.8499999999999996 0.8999999999999995,2.0999999999999996 Z"/> 
<path style="fill:#000000; fill-opacity:1.0000; stroke:none;fill-rule:evenodd;" d="M 0.09999999999999964,2.5999999999999996 0.09999999999999964,2.3499999999999996 0.8999999999999995,2.3499999999999996 0.8999999999999995,2.5999999999999996 Z"/> 
<path style="fill:#000000; fill-opacity:1.0000; stroke:none;fill-rule:evenodd;" d="M 0.09999999999999964,3.0999999999999996 0.09999999999999964,2.8499999999999996 0.8999999999999995,2.8499999999999996 0.8999999999999995,3.0999999999999996 Z"/> 
<path style="fill:#000000; fill-opacity:1.0000; stroke:none;fill-rule:evenodd;" d="M 0.09999999999999964,3.5999999999999996 0.09999999999999964,3.3499999999999996 0.8999999999999995,3.3499999999999996 0.8999999999999995,3.5999999999999996 Z"/> 
<path style="fill:#000000; fill-opacity:1.0000; stroke:none;fill-rule:evenodd;" d="M 0.09999999999999964,4.1 0.09999999999999964,3.8499999999999996 0.8999999999999995,3.8499999999999996 0.8999999999999995,4.1 Z"/> 
<path style="fill:#000000; fill-opacity:1.0000; stroke:none;fill-rule:evenodd;" d="M 0.09999999999999964,4.6 0.09999999999999964,4.35 0.8999999999999995,4.35 0.8999999999999995,4.6 Z"/> 
<path style="fill:#000000; fill-opacity:1.0000; stroke:none;fill-rule:evenodd;" d="M 0.09999999999999964,5.1000000000000005 0.09999999999999964,4.8500000000000005 0.8999999999999995,4.8500000000000005 0.8999999999999995,5.1000000000000005 Z"/> 
<path style="fill:#000000; fill-opacity:1.0000; stroke:none;fill-rule:evenodd;" d="M 0.09999999999999964,5.6000000000000005 0.09999999999999964,5.3500000000000005 0.8999999999999995,5.3500000000000005 0.8999999999999995,5.6000000000000005 Z"/> 
<path style="fill:#000000; fill-opacity:1.0000; stroke:none;fill-rule:evenodd;" d="M 0.09999999999999964,6.1000000000000005 0.09999999999999964,5.8500000000000005 0.8999999999999995,5.8500000000000005 0.8999999999999995,6.1000000000000005 Z"/> 
<path style="fill:#000000; fill-opacity:1.0000; stroke:none;fill-rule:evenodd;" d="M 0.09999999999999964,6.6000000000000005 0.09999999999999964,6.3500000000000005 0.8999999999999995,6.3500000000000005 0.8999999999999995,6.6000000000000005 Z"/> 
<path style="fill:#000000; fill-opacity:1.0000; stroke:none;fill-rule:evenodd;" d="M 1.6249999999999991,6.325 1.6249999999999991,1.625 6.325,1.625 6.325,6.325 Z"/> 
</g> 
</svg>