<?xml version="1.0" standalone="no"?>
 <!DOCTYPE svg PUBLIC "-//W3C//DTD SVG 1.1//EN" 
 "http://www.w3.org/Graphics/SVG/1.1/DTD/svg11.dtd"> 
<svg
  xmlns:svg="http://www.w3.org/2000/svg"
  xmlns="http://www.w3.org/2000/svg"
  xmlns:xlink="http://www.w3.org/1999/xlink"
  version="1.1"
  width="55.0164mm" height="54.0258mm" viewBox="0.0000 0.0000 55.0164 54.0258">
<title>SVG Image created as traces_back.svg date 2024/11/22 14:26:52 </title>
  <desc>Image generated by PCBNEW </desc>
<g style="fill:#000000; fill-opacity:1.0000;stroke:#000000; stroke-opacity:1.0000;
stroke-linecap:round; stroke-linejoin:round;"
 transform="translate(0 0) scale(1 1)">
<path style="fill:#000000; fill-opacity:1.0000; stroke:none;fill-rule:evenodd;"
d="M 26.2290,32.5491
24.5290,32.5491
24.5290,30.8490
26.2290,30.8490
Z" /> 
</g>
<g style="fill:#000000; fill-opacity:1.0000; stroke:none;">
<circle cx="27.9190" cy="31.6990" r="0.8500" /> 
<circle cx="30.4590" cy="31.6990" r="0.8500" /> 
</g>
<g style="fill:none; 
stroke:#000000; stroke-width:1.0000; stroke-opacity:1; 
stroke-linecap:round; stroke-linejoin:round;">
<path d="M38.0297 42.8391
L38.8076 43.6170
" />
<path d="M44.1391 36.7297
L44.9170 37.5076
" />
<path style="fill:#000000; fill-opacity:1.0000; stroke:none;fill-rule:evenodd;"
d="M 40.5612,46.0777
40.5070,45.9966
40.4880,45.9009
40.5070,45.8052
40.5612,45.7241
40.9147,45.3706
40.9958,45.3164
41.0915,45.2974
41.1872,45.3164
41.2683,45.3706
42.1875,46.2898
42.2417,46.3709
42.2607,46.4666
42.2417,46.5623
42.1875,46.6434
41.8340,46.9969
41.7529,47.0511
41.6572,47.0701
41.5615,47.0511
41.4804,46.9969
Z" /> 
<path style="fill:#000000; fill-opacity:1.0000; stroke:none;fill-rule:evenodd;"
d="M 46.6706,39.9683
46.6164,39.8872
46.5974,39.7915
46.6164,39.6958
46.6706,39.6147
47.0241,39.2612
47.1052,39.2070
47.2009,39.1880
47.2966,39.2070
47.3777,39.2612
48.2969,40.1804
48.3511,40.2615
48.3701,40.3572
48.3511,40.4529
48.2969,40.5340
47.9434,40.8875
47.8623,40.9417
47.7666,40.9607
47.6709,40.9417
47.5898,40.8875
Z" /> 
<path style="fill:#000000; fill-opacity:1.0000; stroke:none;fill-rule:evenodd;"
d="M 37.5900,34.8550
37.5900,36.1630
36.2820,36.1630
36.2820,34.8550
Z" /> 
</g>
<g style="fill:#000000; fill-opacity:1.0000; stroke:none;">
<circle cx="36.9361" cy="32.9690" r="0.6540" /> 
</g>
<g style="fill:#000000; fill-opacity:1.0000; stroke:none;">
<circle cx="36.9361" cy="30.4291" r="0.6540" /> 
</g>
<g style="fill:#000000; fill-opacity:1.0000; stroke:none;">
<circle cx="36.9361" cy="27.8890" r="0.6540" /> 
</g>
<g style="fill:#000000; fill-opacity:1.0000; stroke:none;">
<circle cx="36.9361" cy="25.3490" r="0.6540" /> 
</g>
<g style="fill:#000000; fill-opacity:1.0000; stroke:none;">
<circle cx="36.9361" cy="22.8090" r="0.6540" /> 
</g>
<g style="fill:#000000; fill-opacity:1.0000; stroke:none;">
<circle cx="36.9361" cy="20.2691" r="0.6540" /> 
</g>
<g style="fill:#000000; fill-opacity:1.0000; stroke:none;">
<circle cx="36.9361" cy="17.7291" r="0.6540" /> 
</g>
<g style="fill:#000000; fill-opacity:1.0000; stroke:none;">
<circle cx="18.9020" cy="17.7291" r="0.6540" /> 
</g>
<g style="fill:#000000; fill-opacity:1.0000; stroke:none;">
<circle cx="18.9020" cy="20.2691" r="0.6540" /> 
</g>
<g style="fill:#000000; fill-opacity:1.0000; stroke:none;">
<circle cx="18.9020" cy="22.8090" r="0.6540" /> 
</g>
<g style="fill:#000000; fill-opacity:1.0000; stroke:none;">
<circle cx="18.9020" cy="25.3490" r="0.6540" /> 
</g>
<g style="fill:#000000; fill-opacity:1.0000; stroke:none;">
<circle cx="18.9020" cy="27.8890" r="0.6540" /> 
</g>
<g style="fill:#000000; fill-opacity:1.0000; stroke:none;">
<circle cx="18.9020" cy="30.4291" r="0.6540" /> 
</g>
<g style="fill:#000000; fill-opacity:1.0000; stroke:none;">
<circle cx="18.9020" cy="32.9690" r="0.6540" /> 
</g>
<g style="fill:#000000; fill-opacity:1.0000; stroke:none;">
<circle cx="18.9020" cy="35.5090" r="0.6540" /> 
<path style="fill:#000000; fill-opacity:1.0000; stroke:none;fill-rule:evenodd;"
d="M 39.1290,29.9940
39.1290,28.2940
40.8290,28.2940
40.8290,29.9940
Z" /> 
</g>
<g style="fill:#000000; fill-opacity:1.0000; stroke:none;">
<circle cx="42.5191" cy="29.1441" r="0.8500" /> 
<circle cx="39.9791" cy="26.6040" r="0.8500" /> 
<circle cx="42.5191" cy="26.6040" r="0.8500" /> 
<circle cx="39.9791" cy="24.0640" r="0.8500" /> 
<circle cx="42.5191" cy="24.0640" r="0.8500" /> 
</g>
<g style="fill:none; 
stroke:#000000; stroke-width:1.3080; stroke-opacity:1; 
stroke-linecap:round; stroke-linejoin:round;">
<path d="M12.5065 42.9565
L11.5816 42.0316
" />
<path d="M11.5816 35.8854
L12.5065 34.9605
" />
<path d="M18.6527 42.9565
L19.5776 42.0316
" />
</g>
<g style="fill:#000000; fill-opacity:1.0000; stroke:none;">
<circle cx="29.1890" cy="7.5690" r="0.3429" /> 
</g>
<g style="fill:#000000; fill-opacity:1.0000; stroke:none;">
<circle cx="29.1890" cy="10.7440" r="0.3429" /> 
</g>
<g style="fill:#000000; fill-opacity:1.0000; stroke:none;">
<circle cx="8.8690" cy="12.6490" r="0.3429" /> 
</g>
<g style="fill:#000000; fill-opacity:1.0000; stroke:none;">
<circle cx="44.4290" cy="20.2691" r="0.3429" /> 
</g>
<g style="fill:#000000; fill-opacity:1.0000; stroke:none;">
<circle cx="24.1090" cy="4.3941" r="0.3429" /> 
</g>
<g style="fill:#000000; fill-opacity:1.0000; stroke:none;">
<circle cx="24.1090" cy="49.4791" r="0.3429" /> 
</g>
<g style="fill:#000000; fill-opacity:1.0000; stroke:none;">
<circle cx="5.0591" cy="29.1590" r="0.3429" /> 
</g>
<g style="fill:#000000; fill-opacity:1.0000; stroke:none;">
<circle cx="35.5390" cy="41.2240" r="0.3429" /> 
</g>
<g style="fill:#000000; fill-opacity:1.0000; stroke:none;">
<circle cx="45.6990" cy="34.8740" r="0.3429" /> 
</g>
<g style="fill:#000000; fill-opacity:1.0000; stroke:none;">
<circle cx="10.1390" cy="18.3640" r="0.3429" /> 
</g>
<g style="fill:#000000; fill-opacity:1.0000; stroke:none;">
<circle cx="22.2040" cy="43.1290" r="0.3429" /> 
</g>
<g style="fill:#000000; fill-opacity:1.0000; stroke:none;">
<circle cx="25.3790" cy="3.7590" r="0.3429" /> 
</g>
<g style="fill:#000000; fill-opacity:1.0000; stroke:none;">
<circle cx="33.6341" cy="19.6340" r="0.3429" /> 
</g>
<g style="fill:#000000; fill-opacity:1.0000; stroke:none;">
<circle cx="41.2540" cy="7.5690" r="0.3429" /> 
</g>
<g style="fill:#000000; fill-opacity:1.0000; stroke:none;">
<circle cx="13.9490" cy="7.5690" r="0.3429" /> 
</g>
<g style="fill:#000000; fill-opacity:1.0000; stroke:none;">
<circle cx="46.9690" cy="12.6490" r="0.3429" /> 
</g>
<g style="fill:#000000; fill-opacity:1.0000; stroke:none;">
<circle cx="31.7290" cy="4.3941" r="0.3429" /> 
</g>
<g style="fill:#000000; fill-opacity:1.0000; stroke:none;">
<circle cx="31.0940" cy="22.8090" r="0.3429" /> 
</g>
<g style="fill:#000000; fill-opacity:1.0000; stroke:none;">
<circle cx="29.8240" cy="22.8090" r="0.3429" /> 
</g>
<g style="fill:#000000; fill-opacity:1.0000; stroke:none;">
<circle cx="32.3640" cy="22.8090" r="0.3429" /> 
</g>
<g style="fill:#000000; fill-opacity:1.0000; stroke:none;">
<circle cx="21.5691" cy="17.7291" r="0.3429" /> 
</g>
<g style="fill:#000000; fill-opacity:1.0000; stroke:none;">
<circle cx="51.4140" cy="30.4291" r="0.3429" /> 
</g>
<g style="fill:#000000; fill-opacity:1.0000; stroke:none;">
<circle cx="34.2691" cy="21.5390" r="0.3429" /> 
</g>
<g style="fill:#000000; fill-opacity:1.0000; stroke:none;">
<circle cx="50.7790" cy="21.5390" r="0.3429" /> 
</g>
<g style="fill:#000000; fill-opacity:1.0000; stroke:none;">
<circle cx="50.1441" cy="31.0640" r="0.3429" /> 
</g>
<g style="fill:#000000; fill-opacity:1.0000; stroke:none;">
<circle cx="31.0940" cy="49.4791" r="0.3429" /> 
</g>
<g style="fill:#000000; fill-opacity:1.0000; stroke:none;">
<circle cx="33.6341" cy="22.1740" r="0.3429" /> 
</g>
<g style="fill:#000000; fill-opacity:1.0000; stroke:none;">
<circle cx="50.1441" cy="22.1740" r="0.3429" /> 
</g>
<g style="fill:#000000; fill-opacity:1.0000; stroke:none;">
<circle cx="6.3290" cy="25.3490" r="0.3429" /> 
</g>
<g style="fill:#000000; fill-opacity:1.0000; stroke:none;">
<circle cx="29.1890" cy="17.0940" r="0.3429" /> 
</g>
<g style="fill:#000000; fill-opacity:1.0000; stroke:none;">
<circle cx="9.5040" cy="33.6041" r="0.3429" /> 
</g>
<g style="fill:#000000; fill-opacity:1.0000; stroke:none;">
<circle cx="34.2691" cy="22.8090" r="0.3429" /> 
</g>
<g style="fill:#000000; fill-opacity:1.0000; stroke:none;">
<circle cx="33.6341" cy="29.7940" r="0.3429" /> 
</g>
<g style="fill:#000000; fill-opacity:1.0000; stroke:none;">
<circle cx="36.1741" cy="29.1590" r="0.3429" /> 
</g>
<g style="fill:#000000; fill-opacity:1.0000; stroke:none;">
<circle cx="31.7290" cy="11.3790" r="0.3429" /> 
</g>
<g style="fill:#000000; fill-opacity:1.0000; stroke:none;">
<circle cx="46.2295" cy="34.1345" r="0.3429" /> 
</g>
<g style="fill:#000000; fill-opacity:1.0000; stroke:none;">
<circle cx="34.2691" cy="8.8391" r="0.3429" /> 
</g>
<g style="fill:#000000; fill-opacity:1.0000; stroke:none;">
<circle cx="47.6041" cy="35.5090" r="0.3429" /> 
</g>
<g style="fill:#000000; fill-opacity:1.0000; stroke:none;">
<circle cx="41.2540" cy="16.4590" r="0.3429" /> 
</g>
<g style="fill:#000000; fill-opacity:1.0000; stroke:none;">
<circle cx="32.9990" cy="17.7291" r="0.3429" /> 
</g>
<g style="fill:#000000; fill-opacity:1.0000; stroke:none;">
<circle cx="37.4440" cy="12.0140" r="0.3429" /> 
</g>
<g style="fill:#000000; fill-opacity:1.0000; stroke:none;">
<circle cx="34.2691" cy="17.0940" r="0.3429" /> 
</g>
<g style="fill:#000000; fill-opacity:1.0000; stroke:none;">
<circle cx="10.1390" cy="32.3340" r="0.3429" /> 
</g>
<g style="fill:#000000; fill-opacity:1.0000; stroke:none;">
<circle cx="13.9490" cy="18.3640" r="0.3429" /> 
</g>
<g style="fill:#000000; fill-opacity:1.0000; stroke:none;">
<circle cx="45.6990" cy="32.3340" r="0.3429" /> 
</g>
<g style="fill:#000000; fill-opacity:1.0000; stroke:none;">
<circle cx="24.1090" cy="45.6690" r="0.3429" /> 
</g>
<g style="fill:#000000; fill-opacity:1.0000; stroke:none;">
<circle cx="22.2040" cy="15.1890" r="0.3429" /> 
</g>
<g style="fill:#000000; fill-opacity:1.0000; stroke:none;">
<circle cx="27.9190" cy="10.1090" r="0.3429" /> 
</g>
<g style="fill:#000000; fill-opacity:1.0000; stroke:none;">
<circle cx="20.2990" cy="12.0140" r="0.3429" /> 
</g>
<g style="fill:#000000; fill-opacity:1.0000; stroke:none;">
<circle cx="26.0140" cy="12.6490" r="0.3429" /> 
</g>
<g style="fill:#000000; fill-opacity:1.0000; stroke:none;">
<circle cx="38.7141" cy="13.2840" r="0.3429" /> 
</g>
<g style="fill:#000000; fill-opacity:1.0000; stroke:none;">
<circle cx="26.0140" cy="13.9190" r="0.3429" /> 
</g>
<g style="fill:#000000; fill-opacity:1.0000; stroke:none;">
<circle cx="31.7290" cy="17.7291" r="0.3429" /> 
</g>
<g style="fill:none; 
stroke:#000000; stroke-width:0.2540; stroke-opacity:1; 
stroke-linecap:round; stroke-linejoin:round;">
<path d="M29.1890 10.7440
L29.1890 7.5690
" />
<path d="M34.5230 21.2850
L50.5251 21.2850
" />
<path d="M34.2691 21.5390
L34.5230 21.2850
" />
<path d="M50.5251 21.2850
L50.7790 21.5390
" />
<path d="M33.6341 22.1740
L34.4782 22.1740
" />
<path d="M50.1441 31.0640
L48.1429 31.0640
" />
<path d="M34.4782 22.1740
L34.9862 21.6660
" />
<path d="M47.5560 31.6510
L31.0940 48.1129
" />
<path d="M31.0940 48.1129
L31.0940 49.4791
" />
<path d="M34.9862 21.6660
L49.6360 21.6660
" />
<path d="M49.6360 21.6660
L50.1441 22.1740
" />
<path d="M47.6041 31.6029
L47.5560 31.6510
" />
<path d="M48.1429 31.0640
L47.5560 31.6510
" />
<path d="M29.1890 16.4590
L28.5541 15.8240
" />
<path d="M8.2340 25.3490
L6.3290 25.3490
" />
<path d="M28.5541 15.8240
L17.7590 15.8240
" />
<path d="M17.7590 15.8240
L8.2340 25.3490
" />
<path d="M29.1890 17.0940
L29.1890 16.4590
" />
<path d="M13.3140 40.4929
L13.3140 41.2240
" />
<path d="M9.7580 33.8580
L9.7580 36.9369
" />
<path d="M9.7580 36.9369
L13.3140 40.4929
" />
<path d="M9.5040 33.6041
L9.7580 33.8580
" />
<path d="M34.2691 22.8090
L36.9361 22.8090
" />
<path d="M13.3140 41.2240
L12.0440 42.4941
" />
<path d="M34.2691 29.1590
L33.6341 29.7940
" />
<path d="M36.1741 29.1590
L34.2691 29.1590
" />
<path d="M47.6041 35.5090
L46.2295 34.1345
" />
<path d="M31.7290 11.3790
L34.2691 8.8391
" />
<path d="M33.6341 18.3640
L32.9990 17.7291
" />
<path d="M35.5390 17.0940
L34.2691 18.3640
" />
<path d="M34.2691 18.3640
L33.6341 18.3640
" />
<path d="M36.1741 16.4590
L35.5390 17.0940
" />
<path d="M41.2540 16.4590
L36.1741 16.4590
" />
<path d="M34.9040 12.0140
L34.2691 12.6490
" />
<path d="M37.4440 12.0140
L34.9040 12.0140
" />
<path d="M34.2691 12.6490
L34.2691 17.0940
" />
<path d="M10.1390 32.3340
L10.1390 36.7790
" />
<path d="M32.9990 45.6690
L35.5390 43.1290
" />
<path d="M14.6802 18.3640
L13.9490 18.3640
" />
<path d="M24.1090 45.6690
L32.9990 45.6690
" />
<path d="M10.7740 37.4140
L19.0290 45.6690
" />
<path d="M36.1741 42.4941
L44.4290 34.2390
" />
<path d="M35.5390 43.1290
L36.1741 42.4941
" />
<path d="M10.1390 36.7790
L10.7740 37.4140
" />
<path d="M19.0290 45.6690
L24.1090 45.6690
" />
<path d="M21.9500 15.4430
L17.6012 15.4430
" />
<path d="M17.6012 15.4430
L14.6802 18.3640
" />
<path d="M45.6990 32.9690
L45.6990 32.3340
" />
<path d="M44.4290 34.2390
L45.6990 32.9690
" />
<path d="M22.2040 15.1890
L21.9500 15.4430
" />
<path d="M20.2990 12.0140
L22.2040 10.1090
" />
<path d="M22.2040 10.1090
L27.9190 10.1090
" />
<path d="M34.2691 12.0140
L32.7450 13.5381
" />
<path d="M37.6913 11.4171
L34.8659 11.4171
" />
<path d="M26.9031 13.5381
L26.0140 12.6490
" />
<path d="M38.0790 11.3790
L38.0790 11.8049
" />
<path d="M34.8659 11.4171
L34.2691 12.0140
" />
<path d="M38.0790 11.8049
L37.6913 11.4171
" />
<path d="M38.7141 12.0140
L38.0790 11.3790
" />
<path d="M32.7450 13.5381
L29.8240 13.5381
" />
<path d="M38.7141 13.2840
L38.7141 12.0140
" />
<path d="M29.8240 13.5381
L26.9031 13.5381
" />
<path d="M31.7290 14.5541
L31.0940 13.9190
" />
<path d="M31.7290 17.7291
L31.7290 14.5541
" />
<path d="M31.0940 13.9190
L26.0140 13.9190
" />
<path style="fill:#000000; fill-opacity:1.0000; stroke:none;fill-rule:evenodd;"
d="M 28.8529,1.3392
28.8578,1.3394
29.8477,1.3956
29.8525,1.3959
30.8050,1.4877
30.8394,1.4911
30.8443,1.4916
31.8267,1.6256
31.8315,1.6263
32.8079,1.7988
32.8126,1.7998
33.7814,2.0106
33.7862,2.0117
34.7459,2.2605
34.7506,2.2618
34.8563,2.2937
35.6998,2.5482
35.7045,2.5497
36.6416,2.8733
36.6462,2.8750
37.5700,3.2352
37.5744,3.2370
38.4833,3.6334
38.4877,3.6354
39.3802,4.0672
39.3845,4.0694
39.4867,4.1239
40.2593,4.5360
40.2636,4.5384
41.1194,5.0391
41.1235,5.0416
41.9589,5.5756
41.9629,5.5783
42.7767,6.1448
42.7806,6.1476
42.8701,6.2153
43.5714,6.7457
43.5752,6.7487
44.3418,7.3775
44.3455,7.3807
45.0868,8.0391
45.0903,8.0424
45.8051,8.7296
45.8085,8.7330
46.4957,9.4478
46.4990,9.4513
47.1574,10.1926
47.1606,10.1963
47.7894,10.9629
47.7924,10.9667
48.3905,11.7575
48.3933,11.7614
48.9598,12.5751
48.9625,12.5792
49.4965,13.4146
49.4990,13.4187
49.9997,14.2745
50.0021,14.2788
50.4687,15.1536
50.4709,15.1579
50.9027,16.0504
50.9047,16.0549
51.0041,16.2827
51.2887,16.9353
51.3010,16.9637
51.3029,16.9682
51.3491,17.0865
51.6631,17.8919
51.6648,17.8965
51.9884,18.8336
51.9899,18.8383
52.2763,19.7875
52.2776,19.7922
52.5264,20.7519
52.5275,20.7567
52.7383,21.7255
52.7393,21.7302
52.9118,22.7066
52.9125,22.7114
53.0465,23.6938
53.0470,23.6987
53.1422,24.6855
53.1425,24.6904
53.1987,25.6803
53.1989,25.6852
53.2161,26.6765
53.2161,26.6813
53.1942,27.6726
53.1940,27.6775
53.1331,28.6670
53.1327,28.6719
53.0329,29.6583
53.0323,29.6632
52.8938,30.6449
52.8930,30.6497
52.7159,31.6252
52.7149,31.6300
52.4995,32.5978
52.4984,32.6025
52.2450,33.5611
52.2437,33.5658
51.9528,34.5136
51.9512,34.5183
51.6233,35.4539
51.6216,35.4585
51.2570,36.3805
51.2551,36.3850
50.8545,37.2919
50.8524,37.2963
50.4164,38.1868
50.4142,38.1911
49.9435,39.0637
49.9411,39.0680
49.4363,39.9214
49.4338,39.9255
49.0983,40.4448
49.0454,40.4905
48.9762,40.5003
48.9127,40.4711
48.8751,40.4122
48.8701,40.3776
48.8701,40.2695
48.8297,40.0989
48.7510,39.9423
48.6858,39.8622
48.6858,39.8622
48.3676,39.5440
48.3676,39.5440
47.8727,40.0390
47.5191,39.6854
48.0141,39.1905
48.0141,39.1905
47.6959,38.8723
47.6959,38.8723
47.6159,38.8071
47.6158,38.8071
47.4592,38.7284
47.2886,38.6880
47.1132,38.6880
46.9426,38.7284
46.7860,38.8071
46.7860,38.8071
46.7059,38.8723
46.7059,38.8723
46.6706,38.9076
47.2596,39.4966
47.2404,39.4915
47.1614,39.4915
47.0851,39.5119
47.0167,39.5514
46.9608,39.6073
46.9214,39.6757
46.9009,39.7520
46.9009,39.8310
46.9061,39.8502
46.3170,39.2612
46.2817,39.2965
46.2817,39.2965
46.2165,39.3766
46.2165,39.3766
46.1378,39.5332
46.0974,39.7038
46.0974,39.8792
46.1378,40.0498
46.2165,40.2064
46.2817,40.2865
46.2817,40.2865
46.5999,40.6047
46.5999,40.6047
47.0948,40.1097
47.4484,40.4633
46.9534,40.9582
46.9534,40.9582
47.2716,41.2764
47.2716,41.2764
47.3516,41.3416
47.3517,41.3416
47.5083,41.4203
47.6789,41.4607
47.8543,41.4607
48.0249,41.4203
48.1815,41.3416
48.1815,41.3416
48.1972,41.3288
48.2616,41.3017
48.3305,41.3138
48.3819,41.3611
48.3995,41.4287
48.3778,41.4951
48.3770,41.4963
48.3228,41.5734
48.3199,41.5773
47.7181,42.3653
47.7150,42.3691
47.0827,43.1327
47.0795,43.1364
46.4175,43.8745
46.4142,43.8781
45.7237,44.5895
45.7202,44.5930
45.0022,45.2767
44.9986,45.2800
44.2543,45.9349
44.2506,45.9381
43.4810,46.5632
43.4771,46.5662
42.8012,47.0724
42.7358,47.0969
42.6675,47.0820
42.6181,47.0326
42.6032,46.9643
42.6276,46.8989
42.6308,46.8949
42.6416,46.8815
42.6416,46.8815
42.7203,46.7249
42.7607,46.5543
42.7607,46.3789
42.7203,46.2083
42.6416,46.0517
42.5764,45.9716
42.5764,45.9716
42.2582,45.6534
42.2582,45.6534
41.7633,46.1484
41.4097,45.7948
41.9047,45.2999
41.9047,45.2999
41.5865,44.9817
41.5865,44.9817
41.5065,44.9165
41.5064,44.9165
41.3498,44.8378
41.1792,44.7974
41.0038,44.7974
40.8332,44.8378
40.6766,44.9165
40.6766,44.9165
40.5965,44.9817
40.5965,44.9817
40.5612,45.0170
41.1502,45.6061
41.1310,45.6009
41.0520,45.6009
40.9757,45.6214
40.9073,45.6608
40.8514,45.7167
40.8119,45.7851
40.7915,45.8614
40.7915,45.9404
40.7966,45.9596
40.2076,45.3706
40.1723,45.4059
40.1723,45.4059
40.1071,45.4860
40.1071,45.4860
40.0284,45.6426
39.9880,45.8132
39.9880,45.9886
40.0284,46.1592
40.1071,46.3158
40.1723,46.3959
40.1723,46.3959
40.4905,46.7141
40.4905,46.7141
40.9854,46.2191
41.3390,46.5727
40.8440,47.0676
40.8440,47.0676
41.1622,47.3858
41.1622,47.3858
41.2422,47.4510
41.2423,47.4510
41.3989,47.5297
41.5695,47.5701
41.6818,47.5701
41.7489,47.5898
41.7946,47.6426
41.8046,47.7118
41.7756,47.7754
41.7481,47.7989
41.6473,47.8627
41.0213,48.2587
41.0171,48.2613
40.1590,48.7579
40.1547,48.7603
39.2777,49.2227
39.2733,49.2249
38.5991,49.5472
38.3788,49.6525
38.3743,49.6545
37.4637,50.0465
37.4592,50.0483
36.5337,50.4042
36.5291,50.4058
35.5905,50.7249
35.5858,50.7264
34.6352,51.0083
34.6305,51.0096
33.6696,51.2539
33.6649,51.2550
32.6951,51.4612
32.6903,51.4621
31.7132,51.6300
31.7083,51.6308
30.7254,51.7600
30.7205,51.7606
29.7331,51.8510
29.7283,51.8514
28.7382,51.9029
28.7333,51.9031
27.7419,51.9155
27.7370,51.9155
26.7459,51.8890
26.7411,51.8887
25.7517,51.8232
25.7469,51.8227
24.7609,51.7183
24.7561,51.7177
23.7750,51.5744
23.7702,51.5736
22.7955,51.3919
22.7908,51.3909
21.8240,51.1709
21.8193,51.1698
20.8619,50.9119
20.8572,50.9105
19.9108,50.6151
19.9062,50.6136
18.9721,50.2812
18.9675,50.2794
18.0473,49.9105
18.0428,49.9086
17.1378,49.5037
17.1333,49.5016
16.2450,49.0614
16.2406,49.0592
15.4569,48.6316
15.4168,48.6097
15.3885,48.5885
15.3685,48.5685
15.3685,48.5685
15.2225,48.4663
15.2225,48.4663
15.1321,48.4241
15.0609,48.3909
15.0609,48.3909
15.0609,48.3909
14.8887,48.3448
14.8887,48.3448
14.7111,48.3292
14.7110,48.3292
14.5946,48.3394
14.5261,48.3257
14.4759,48.2770
14.4600,48.2090
14.4744,48.1574
14.4769,48.1529
14.4769,48.1528
14.5335,48.0163
14.5623,47.8713
14.5623,47.7234
14.5623,47.7234
14.5335,47.5784
14.5335,47.5784
14.5335,47.5784
14.5300,47.5701
14.4769,47.4419
14.4769,47.4418
14.3948,47.3189
14.3948,47.3189
14.2902,47.2144
14.2902,47.2144
14.1673,47.1323
14.1673,47.1323
14.0307,47.0757
14.0307,47.0757
13.8857,47.0469
13.8857,47.0469
13.7379,47.0469
13.7379,47.0469
13.5929,47.0757
13.5929,47.0757
13.4563,47.1323
13.4563,47.1323
13.3334,47.2144
13.3334,47.2144
13.2289,47.3189
13.2289,47.3189
13.1467,47.4418
13.1467,47.4419
13.0902,47.5784
13.0902,47.5784
13.0613,47.7234
13.0613,47.7400
13.0416,47.8070
12.9888,47.8528
12.9197,47.8627
12.8561,47.8337
12.8496,47.8277
11.1255,46.1035
14.8291,46.1035
14.8579,46.2485
14.8579,46.2485
14.9145,46.3851
14.9145,46.3851
14.9966,46.5080
14.9966,46.5080
15.1012,46.6125
15.1012,46.6125
15.2241,46.6947
15.2241,46.6947
15.2970,46.7249
15.3607,46.7512
15.3607,46.7512
15.3607,46.7512
15.5057,46.7801
15.5057,46.7801
15.6535,46.7801
15.7510,46.7607
15.7985,46.7512
15.9351,46.6947
16.0580,46.6125
16.1625,46.5080
16.2447,46.3851
16.3012,46.2485
16.3301,46.1035
16.3301,45.9557
16.3301,45.9557
16.3012,45.8107
16.3012,45.8107
16.3012,45.8107
16.2623,45.7167
16.2447,45.6741
16.2447,45.6741
16.1625,45.5512
16.1625,45.5512
16.0580,45.4466
16.0580,45.4466
15.9351,45.3645
15.9351,45.3645
15.7985,45.3079
15.7985,45.3079
15.6535,45.2791
15.6535,45.2791
15.5057,45.2791
15.5057,45.2791
15.3607,45.3079
15.3607,45.3079
15.2241,45.3645
15.2241,45.3645
15.1012,45.4466
15.1012,45.4466
14.9966,45.5512
14.9966,45.5512
14.9145,45.6741
14.9145,45.6741
14.8579,45.8107
14.8579,45.8107
14.8291,45.9557
14.8291,45.9557
14.8291,46.1035
14.8291,46.1035
14.8291,46.1035
11.1255,46.1035
6.7104,41.6885
6.6769,41.6271
6.6819,41.5574
6.7238,41.5015
6.7893,41.4771
6.7981,41.4768
6.8147,41.4768
6.9122,41.4574
6.9597,41.4479
7.0962,41.3914
7.2192,41.3092
7.3237,41.2047
7.4058,41.0818
7.4624,40.9452
7.4912,40.8002
7.4912,40.6524
7.4912,40.6524
7.4624,40.5074
7.4624,40.5074
7.4624,40.5074
7.4554,40.4905
7.4058,40.3708
7.4058,40.3708
7.3237,40.2479
7.3237,40.2479
7.2192,40.1433
7.2192,40.1433
7.0962,40.0612
7.0962,40.0612
6.9597,40.0046
6.9597,40.0046
6.8147,39.9758
6.8147,39.9758
6.6668,39.9758
6.6668,39.9758
6.5218,40.0046
6.5218,40.0046
6.3853,40.0612
6.3806,40.0637
6.3122,40.0779
6.2470,40.0529
6.2056,39.9966
6.1987,39.9435
6.2089,39.8270
6.1933,39.6494
6.1527,39.4979
6.1472,39.4772
6.1472,39.4772
6.1472,39.4772
6.0718,39.3156
5.9696,39.1696
5.9496,39.1496
5.9284,39.1213
5.8970,39.0637
5.8799,39.0324
7.7580,39.0324
7.7869,39.1774
7.7869,39.1774
7.8434,39.3140
7.8434,39.3140
7.9256,39.4369
7.9256,39.4369
8.0301,39.5415
8.0301,39.5415
8.1530,39.6236
8.1530,39.6236
8.2154,39.6494
8.2896,39.6802
8.2896,39.6802
8.2896,39.6802
8.4346,39.7090
8.4346,39.7090
8.5824,39.7090
8.6800,39.6896
8.7274,39.6802
8.8640,39.6236
8.9869,39.5415
9.0915,39.4369
9.1736,39.3140
9.2302,39.1774
9.2413,39.1213
9.2590,39.0324
9.2590,38.8846
9.2302,38.7396
9.2302,38.7396
9.2302,38.7396
9.2255,38.7284
9.1736,38.6030
9.1736,38.6030
9.0915,38.4801
9.0915,38.4801
8.9869,38.3756
8.9869,38.3756
8.8640,38.2934
8.8640,38.2934
8.7274,38.2369
8.7274,38.2369
8.5824,38.2080
8.5824,38.2080
8.4346,38.2080
8.4346,38.2080
8.2896,38.2369
8.2896,38.2369
8.1530,38.2934
8.1530,38.2934
8.0301,38.3756
8.0301,38.3756
7.9256,38.4801
7.9256,38.4801
7.8434,38.6030
7.8434,38.6030
7.7869,38.7396
7.7869,38.7396
7.7580,38.8846
7.7580,38.8846
7.7580,39.0324
7.7580,39.0324
7.7580,39.0324
5.8799,39.0324
5.6456,38.6030
5.4789,38.2975
5.4767,38.2931
5.0386,37.4091
5.0365,37.4048
5.0344,37.4003
4.7885,36.8508
5.7340,36.8508
5.7707,36.9876
5.7750,37.0035
5.7750,37.0035
5.8540,37.1404
5.8540,37.1404
5.8540,37.1404
5.9658,37.2522
5.9658,37.2522
5.9658,37.2522
6.0752,37.3154
6.1027,37.3313
6.2555,37.3722
6.2555,37.3722
6.4136,37.3722
6.4136,37.3722
6.5663,37.3313
6.7032,37.2522
6.8151,37.1404
6.8941,37.0035
6.9350,36.8508
6.9350,36.6927
6.8941,36.5399
6.8657,36.4908
6.8151,36.4030
6.8151,36.4030
6.7033,36.2912
6.7032,36.2912
6.5663,36.2122
6.5663,36.2122
6.5663,36.2121
6.4136,36.1712
6.2555,36.1712
6.1027,36.2121
6.1027,36.2122
5.9658,36.2912
5.9658,36.2912
5.8540,36.4030
5.8540,36.4030
5.7750,36.5399
5.7750,36.5399
5.7340,36.6927
5.7340,36.8508
4.7885,36.8508
4.6295,36.4953
4.6276,36.4908
4.6271,36.4897
4.2586,35.5706
4.2569,35.5660
4.2568,35.5656
4.0738,35.0514
3.9245,34.6319
3.9230,34.6273
3.7519,34.0791
4.5860,34.0791
4.6227,34.2160
4.6269,34.2319
4.6269,34.2319
4.7060,34.3688
4.7060,34.3688
4.7060,34.3688
4.8178,34.4806
4.8178,34.4806
4.8178,34.4806
4.9272,34.5438
4.9547,34.5597
5.1074,34.6006
5.1074,34.6006
5.2655,34.6006
5.2655,34.6006
5.4183,34.5597
5.5552,34.4806
5.6670,34.3688
5.7461,34.2319
5.7870,34.0791
5.7870,33.9210
5.7461,33.7683
5.7356,33.7502
5.6670,33.6314
5.6670,33.6314
5.6397,33.6041
8.6560,33.6041
8.6745,33.7804
8.6745,33.7804
8.7293,33.9490
8.7293,33.9490
8.7433,33.9731
8.8180,34.1025
8.8520,34.1403
8.9366,34.2343
8.9366,34.2343
9.0794,34.3380
9.1221,34.3934
9.1305,34.4384
9.1305,36.9987
9.1547,37.1199
9.1566,37.1245
9.1566,37.1246
9.1933,37.2131
9.2020,37.2341
9.2035,37.2364
9.2236,37.2665
9.2706,37.3369
9.2706,37.3369
12.6502,40.7165
12.6837,40.7778
12.6865,40.8041
12.6865,40.9128
12.6669,40.9798
12.6502,41.0005
12.5043,41.1464
12.4430,41.1799
12.3733,41.1749
12.3361,41.1530
12.3337,41.1510
12.3337,41.1510
12.3337,41.1510
12.1867,41.0442
12.0248,40.9617
12.0248,40.9617
11.8519,40.9055
11.7323,40.8866
11.6725,40.8771
11.4907,40.8771
11.4309,40.8866
11.3113,40.9055
11.3113,40.9055
11.1384,40.9617
11.1384,40.9617
10.9765,41.0442
10.8926,41.1051
10.8295,41.1510
10.8295,41.1510
10.8295,41.1510
10.7010,41.2795
10.7010,41.2795
10.7010,41.2795
10.6848,41.3017
10.5942,41.4265
10.5117,41.5884
10.5117,41.5884
10.4555,41.7613
10.4555,41.7613
10.4271,41.9407
10.4271,42.1225
10.4555,42.3019
10.4555,42.3020
10.5117,42.4748
10.5117,42.4748
10.5942,42.6367
10.7010,42.7837
11.7544,43.8371
11.9014,43.9439
12.0633,44.0264
12.0633,44.0264
12.0633,44.0264
12.1586,44.0574
12.2362,44.0826
12.3077,44.0939
12.4156,44.1110
12.4156,44.1110
12.5974,44.1110
12.6767,44.0984
12.7768,44.0826
12.9497,44.0264
13.1116,43.9439
13.2586,43.8371
13.3871,43.7086
13.4939,43.5616
13.5764,43.3997
13.6326,43.2268
13.6550,43.0854
13.6610,43.0474
13.6610,42.8656
13.6433,42.7540
13.6326,42.6862
13.6326,42.6861
13.5764,42.5133
13.5764,42.5133
13.5764,42.5133
13.4939,42.3514
13.3871,42.2044
13.3871,42.2044
13.3851,42.2020
13.3846,42.2010
13.3842,42.2004
13.3843,42.2004
13.3565,42.1383
13.3669,42.0692
13.3917,42.0338
13.8015,41.6241
13.8357,41.5727
13.8894,41.5279
13.9587,41.5192
14.0217,41.5494
14.0265,41.5540
18.5416,46.0691
18.6290,46.1565
18.6290,46.1565
18.6290,46.1565
18.7318,46.2251
18.7653,46.2390
18.8460,46.2724
18.9672,46.2965
18.9672,46.2965
18.9672,46.2965
23.4976,46.2965
23.5646,46.3162
23.5704,46.3202
23.6850,46.4035
23.8470,46.4756
23.8470,46.4756
23.8470,46.4756
24.0204,46.5125
24.1977,46.5125
24.3711,46.4756
24.3711,46.4756
24.3711,46.4756
24.4039,46.4610
24.5331,46.4035
24.6477,46.3202
24.7135,46.2968
24.7205,46.2965
31.7236,46.2965
31.7906,46.3162
31.8364,46.3690
31.8463,46.4382
31.8173,46.5018
31.8113,46.5082
30.6940,47.6255
30.6503,47.6692
30.6066,47.7129
30.6066,47.7129
30.5373,47.8167
30.5356,47.8213
30.4907,47.9298
30.4907,47.9298
30.4735,48.0163
30.4735,48.0163
30.4665,48.0511
30.4665,48.8679
30.4469,48.9350
30.4347,48.9509
30.4080,48.9806
30.4080,48.9806
30.3193,49.1341
30.3193,49.1341
30.2645,49.3027
30.2645,49.3027
30.2460,49.4791
30.2645,49.6554
30.2645,49.6554
30.3193,49.8240
30.3193,49.8240
30.3688,49.9096
30.4080,49.9775
30.4555,50.0303
30.5266,50.1093
30.5266,50.1093
30.6700,50.2135
30.8320,50.2856
30.8320,50.2856
30.8320,50.2856
31.0054,50.3224
31.1827,50.3224
31.3561,50.2856
31.3561,50.2856
31.3561,50.2856
31.4211,50.2567
31.5181,50.2135
31.6615,50.1093
31.7801,49.9775
31.8688,49.8240
31.9236,49.6554
31.9421,49.4791
31.9236,49.3027
31.8688,49.1341
31.8688,49.1341
31.8688,49.1341
31.8688,49.1341
31.7801,48.9806
31.7801,48.9806
31.7534,48.9509
31.7232,48.8879
31.7215,48.8679
31.7215,48.4241
31.7412,48.3571
31.7579,48.3365
36.9063,43.1880
36.9676,43.1546
37.0373,43.1595
37.0932,43.2014
37.1085,43.2283
37.1435,43.3128
37.2530,43.4766
37.2530,43.4766
37.5348,43.7584
37.5348,43.7584
38.0297,43.2634
38.3833,43.6170
37.8883,44.1119
37.8883,44.1119
38.1701,44.3937
38.1701,44.3937
38.3339,44.5031
38.3339,44.5031
38.5159,44.5785
38.5159,44.5785
38.7091,44.6170
38.7091,44.6170
38.9060,44.6170
38.9060,44.6170
39.0992,44.5785
39.0992,44.5785
39.2812,44.5031
39.2812,44.5031
39.3166,44.4795
39.3166,44.4795
38.7489,43.9118
38.7681,43.9170
38.8470,43.9170
38.9233,43.8965
38.9918,43.8570
39.0476,43.8012
39.0871,43.7327
39.1076,43.6564
39.1076,43.5775
39.1024,43.5583
39.6701,44.1260
39.6701,44.1260
39.6937,44.0906
39.6937,44.0906
39.7691,43.9086
39.7691,43.9086
39.8075,43.7154
39.8076,43.7154
39.8076,43.5185
39.8075,43.5185
39.7691,43.3253
39.7691,43.3253
39.7244,43.2174
39.7170,43.1479
39.7482,43.0854
39.8083,43.0498
39.8390,43.0459
39.8460,43.0459
39.8460,43.0459
39.9669,43.0135
40.0753,42.9509
40.1639,42.8624
40.2265,42.7540
40.2589,42.6330
40.2589,42.5078
40.2265,42.3869
40.1639,42.2785
40.0753,42.1899
39.9669,42.1273
39.9669,42.1273
39.9266,42.1165
39.8460,42.0949
39.7208,42.0949
39.6401,42.1165
39.5998,42.1273
39.4914,42.1899
39.4914,42.1899
39.4029,42.2785
39.4029,42.2785
39.3403,42.3869
39.3403,42.3869
39.3167,42.4748
39.3079,42.5078
39.3079,42.6410
39.2882,42.7081
39.2715,42.7287
38.8075,43.1927
38.4540,42.8391
38.9490,42.3442
38.9490,42.3442
38.6672,42.0624
38.6672,42.0624
38.5034,41.9529
38.4189,41.9179
38.3645,41.8741
38.3424,41.8078
38.3597,41.7401
38.3786,41.7157
43.0157,37.0786
43.0770,37.0452
43.1467,37.0501
43.2026,37.0920
43.2179,37.1189
43.2529,37.2034
43.3624,37.3672
43.3624,37.3672
43.6442,37.6490
43.6442,37.6490
44.1391,37.1540
44.4927,37.5075
44.0287,37.9715
43.9674,38.0050
43.9410,38.0079
43.9330,38.0079
43.8078,38.0079
43.7272,38.0295
43.6869,38.0403
43.5785,38.1029
43.5785,38.1029
43.4899,38.1914
43.4899,38.1914
43.4273,38.2998
43.4273,38.2998
43.3949,38.4208
43.3949,38.5460
43.4273,38.6669
43.4899,38.7753
43.5785,38.8639
43.6869,38.9265
43.8078,38.9589
43.8078,38.9589
43.9330,38.9589
43.9330,38.9589
44.0540,38.9265
44.1624,38.8639
44.2509,38.7753
44.3135,38.6669
44.3459,38.5460
44.3459,38.5390
44.3656,38.4720
44.4184,38.4262
44.4876,38.4163
44.5174,38.4244
44.6253,38.4691
44.6253,38.4691
44.8185,38.5075
44.8185,38.5076
45.0154,38.5076
45.0155,38.5075
45.2086,38.4691
45.2086,38.4691
45.3906,38.3937
45.3906,38.3937
45.4260,38.3701
45.4260,38.3701
44.8583,37.8024
44.8775,37.8076
44.9564,37.8076
45.0328,37.7871
45.1012,37.7476
45.1570,37.6918
45.1965,37.6233
45.2170,37.5470
45.2170,37.4681
45.2118,37.4489
45.7795,38.0166
45.7795,38.0166
45.8031,37.9812
45.8031,37.9812
45.8785,37.7992
45.8785,37.7992
45.9170,37.6060
45.9170,37.6060
45.9170,37.4091
45.9170,37.4091
45.8785,37.2159
45.8785,37.2159
45.8031,37.0339
45.8031,37.0339
45.6937,36.8701
45.6937,36.8701
45.6585,36.8349
48.9074,36.8349
48.9396,36.9553
48.9483,36.9876
48.9483,36.9876
49.0273,37.1245
49.0273,37.1245
49.0273,37.1246
49.1391,37.2364
49.1391,37.2364
49.1391,37.2364
49.2354,37.2919
49.2761,37.3154
49.4288,37.3563
49.4288,37.3563
49.5869,37.3563
49.5869,37.3563
49.7396,37.3154
49.8766,37.2364
49.9884,37.1246
50.0674,36.9876
50.1084,36.8349
50.1084,36.6768
50.0674,36.5241
50.0482,36.4908
49.9884,36.3871
49.9884,36.3871
49.8766,36.2753
49.8766,36.2753
49.7396,36.1963
49.7396,36.1963
49.7396,36.1963
49.5869,36.1553
49.4288,36.1553
49.2761,36.1963
49.2761,36.1963
49.1391,36.2753
49.1391,36.2753
49.0273,36.3871
49.0273,36.3871
48.9483,36.5240
48.9483,36.5241
48.9074,36.6768
48.9074,36.8349
45.6585,36.8349
45.4119,36.5883
45.4119,36.5883
44.9170,37.0833
44.5634,36.7297
45.0584,36.2348
45.0584,36.2348
44.7766,35.9530
44.7766,35.9530
44.6128,35.8435
44.5283,35.8085
44.4739,35.7647
44.4518,35.6984
44.4691,35.6307
44.4880,35.6063
45.4121,34.6822
45.4735,34.6487
45.5432,34.6537
45.5920,34.6869
45.6620,34.7647
45.6757,34.7746
45.8055,34.8689
45.9674,34.9410
45.9674,34.9410
45.9674,34.9410
46.1408,34.9779
46.1470,34.9785
46.2116,35.0051
46.2217,35.0142
46.7296,35.5220
46.7631,35.5833
46.7652,35.5967
46.7745,35.6854
46.7745,35.6854
46.7745,35.6854
46.8293,35.8540
46.8293,35.8540
46.8720,35.9279
46.9180,36.0075
46.9655,36.0603
47.0366,36.1393
47.0366,36.1393
47.1800,36.2435
47.3420,36.3156
47.3420,36.3156
47.3420,36.3156
47.5154,36.3524
47.6927,36.3524
47.8661,36.3156
47.8661,36.3156
47.8661,36.3156
47.9209,36.2912
48.0281,36.2435
48.1715,36.1393
48.2901,36.0075
48.3788,35.8540
48.4336,35.6854
48.4521,35.5090
48.4336,35.3327
48.3788,35.1641
48.3788,35.1641
48.3788,35.1641
48.3788,35.1641
48.3361,35.0902
48.2901,35.0106
48.2275,34.9410
48.1715,34.8788
48.0729,34.8072
48.0281,34.7746
48.0281,34.7746
48.0281,34.7746
47.8661,34.7025
47.8661,34.7025
47.6927,34.6656
47.6865,34.6650
47.6219,34.6384
47.6118,34.6294
47.1039,34.1215
47.0721,34.0633
50.0554,34.0633
50.0955,34.2129
50.0963,34.2160
50.0963,34.2160
50.1754,34.3529
50.1754,34.3529
50.1754,34.3529
50.2872,34.4647
50.2872,34.4647
50.2872,34.4647
50.4241,34.5438
50.4241,34.5438
50.5768,34.5847
50.5768,34.5847
50.7350,34.5847
50.7350,34.5847
50.8877,34.5438
51.0246,34.4647
51.1364,34.3529
51.2155,34.2160
51.2564,34.0633
51.2564,33.9051
51.2155,33.7524
51.2142,33.7502
51.1364,33.6155
51.1364,33.6155
51.0246,33.5037
51.0246,33.5037
50.8877,33.4246
50.8877,33.4246
50.8877,33.4246
50.7350,33.3837
50.5768,33.3837
50.4241,33.4246
50.4241,33.4246
50.2872,33.5037
50.2872,33.5037
50.1754,33.6155
50.1754,33.6155
50.0963,33.7524
50.0963,33.7524
50.0554,33.9051
50.0554,34.0633
47.0721,34.0633
47.0705,34.0602
47.0683,34.0468
47.0606,33.9731
47.0590,33.9582
47.0042,33.7895
47.0042,33.7895
47.0042,33.7895
47.0042,33.7895
46.9401,33.6785
46.9156,33.6360
46.8376,33.5494
46.7969,33.5043
46.7969,33.5043
46.7946,33.5025
46.7935,33.5012
46.7921,33.4999
46.7923,33.4996
46.7519,33.4472
46.7459,33.3776
46.7785,33.3158
46.7797,33.3146
48.0012,32.0931
48.0915,32.0029
48.0915,32.0029
48.0973,31.9970
48.0973,31.9970
48.3665,31.7279
48.4278,31.6944
48.4541,31.6915
49.5326,31.6915
49.5996,31.7112
49.6054,31.7152
49.7200,31.7985
49.8820,31.8706
49.8820,31.8706
49.8820,31.8706
50.0554,31.9074
50.2327,31.9074
50.4061,31.8706
50.4061,31.8706
50.4061,31.8706
50.4389,31.8560
50.5681,31.7985
50.7115,31.6943
50.8301,31.5625
50.9188,31.4090
50.9736,31.2404
50.9921,31.0640
50.9736,30.8877
50.9188,30.7191
50.9188,30.7191
50.9188,30.7191
50.9188,30.7191
50.8365,30.5766
50.8301,30.5656
50.7708,30.4997
50.7115,30.4338
50.6154,30.3640
50.5681,30.3296
50.5681,30.3296
50.5681,30.3296
50.4061,30.2575
50.4061,30.2575
50.2327,30.2206
50.0554,30.2206
49.8820,30.2575
49.8820,30.2575
49.7200,30.3296
49.6054,30.4129
49.5396,30.4363
49.5326,30.4365
48.0811,30.4365
47.9598,30.4607
47.9598,30.4607
47.9153,30.4791
47.9153,30.4791
47.8456,30.5080
47.8456,30.5080
47.7429,30.5766
47.7429,30.5766
47.1559,31.1635
47.1166,31.2029
47.0686,31.2509
47.0685,31.2509
46.5243,31.7952
46.4630,31.8286
46.3933,31.8237
46.3445,31.7905
46.2665,31.7038
46.1649,31.6300
46.1231,31.5996
46.1231,31.5996
46.1231,31.5996
45.9611,31.5275
45.9611,31.5275
45.7877,31.4906
45.6104,31.4906
45.4370,31.5275
45.4370,31.5275
45.2750,31.5996
45.1316,31.7038
45.0130,31.8356
44.9243,31.9891
44.9243,31.9891
44.8695,32.1577
44.8695,32.1577
44.8510,32.3340
44.8695,32.5104
44.8695,32.5104
44.9243,32.6790
44.9417,32.7090
44.9581,32.7769
44.9353,32.8430
44.9220,32.8587
44.2313,33.5494
44.0290,33.7516
35.7740,42.0066
35.1390,42.6416
35.1390,42.6416
33.9436,43.8371
32.7754,45.0052
32.7141,45.0387
32.6878,45.0416
24.7205,45.0416
24.6535,45.0219
24.6477,45.0179
24.5978,44.9817
24.5331,44.9346
24.5331,44.9346
24.5331,44.9346
24.3711,44.8625
24.3711,44.8625
24.1977,44.8256
24.0204,44.8256
23.8470,44.8625
23.8470,44.8625
23.6850,44.9346
23.5704,45.0179
23.5046,45.0413
23.4976,45.0416
19.3403,45.0416
19.2733,45.0219
19.2526,45.0052
18.5701,44.3227
18.5366,44.2614
18.5416,44.1917
18.5835,44.1357
18.6489,44.1113
18.6578,44.1110
18.7435,44.1110
18.7435,44.1110
18.9230,44.0826
18.9230,44.0826
18.9230,44.0826
19.0958,44.0264
19.0958,44.0264
19.0958,44.0264
19.2578,43.9439
19.4048,43.8371
20.4582,42.7837
20.5650,42.6367
20.6475,42.4748
20.6824,42.3672
20.7036,42.3020
20.7036,42.3019
20.7214,42.1899
20.7321,42.1225
20.7321,41.9407
20.7170,41.8456
20.7036,41.7613
20.6475,41.5884
20.5650,41.4265
20.4582,41.2795
20.3297,41.1510
20.2344,41.0818
20.1827,41.0442
20.1047,41.0045
20.0207,40.9617
19.8479,40.9055
19.6684,40.8771
19.6684,40.8771
19.4867,40.8771
19.4867,40.8771
19.3072,40.9055
19.3072,40.9055
19.1344,40.9617
18.9725,41.0442
18.8255,41.1510
17.7721,42.2044
17.7721,42.2044
17.7262,42.2675
17.6653,42.3514
17.5828,42.5133
17.5828,42.5133
17.5266,42.6861
17.5266,42.6861
17.4982,42.8656
17.4982,42.9514
17.4785,43.0184
17.4257,43.0642
17.3565,43.0741
17.2930,43.0451
17.2865,43.0391
13.2799,39.0324
14.8291,39.0324
14.8579,39.1774
14.8579,39.1774
14.9145,39.3140
14.9145,39.3140
14.9966,39.4369
14.9966,39.4369
15.1012,39.5415
15.1012,39.5415
15.2241,39.6236
15.2241,39.6236
15.2865,39.6494
15.3607,39.6802
15.3607,39.6802
15.3607,39.6802
15.5057,39.7090
15.5057,39.7090
15.6535,39.7090
15.7510,39.6896
15.7985,39.6802
15.9351,39.6236
16.0580,39.5415
16.1625,39.4369
16.2447,39.3140
16.3012,39.1774
16.3124,39.1213
16.3301,39.0324
16.3301,38.8846
16.3012,38.7396
16.3012,38.7396
16.3012,38.7396
16.2966,38.7284
16.2447,38.6030
16.2447,38.6030
16.1625,38.4801
16.1625,38.4801
16.0580,38.3756
16.0580,38.3756
15.9351,38.2934
15.9351,38.2934
15.7985,38.2369
15.7985,38.2369
15.6535,38.2080
15.6535,38.2080
15.5057,38.2080
15.5057,38.2080
15.3607,38.2369
15.3607,38.2369
15.2241,38.2934
15.2241,38.2934
15.1012,38.3756
15.1012,38.3756
14.9966,38.4801
14.9966,38.4801
14.9145,38.6030
14.9145,38.6030
14.8579,38.7396
14.8579,38.7396
14.8291,38.8846
14.8291,38.8846
14.8291,39.0324
14.8291,39.0324
14.8291,39.0324
13.2799,39.0324
11.4990,37.2516
11.4655,37.1903
11.4705,37.1206
11.5124,37.0647
11.5779,37.0402
11.5867,37.0399
11.6725,37.0399
11.6725,37.0399
11.8519,37.0115
11.8520,37.0115
11.8520,37.0115
12.0248,36.9553
12.0248,36.9553
12.0248,36.9553
12.1867,36.8728
12.3337,36.7660
13.3871,35.7126
13.4939,35.5656
13.5764,35.4037
13.6326,35.2309
13.6548,35.0902
13.6610,35.0514
13.6610,34.8697
13.6444,34.7647
13.6326,34.6902
13.5764,34.5174
13.4939,34.3554
13.3871,34.2084
13.2586,34.0799
13.2356,34.0633
13.1116,33.9731
13.0094,33.9210
12.9497,33.8906
12.7768,33.8345
12.5974,33.8060
12.5974,33.8060
12.4156,33.8060
12.4156,33.8060
12.2362,33.8345
12.2361,33.8345
12.0633,33.8906
11.9014,33.9731
11.7544,34.0799
10.9782,34.8561
10.9169,34.8896
10.8472,34.8846
10.7913,34.8427
10.7669,34.7773
10.7665,34.7684
10.7665,32.9452
10.7862,32.8781
10.7984,32.8622
10.8157,32.8430
10.8251,32.8325
10.9138,32.6790
10.9686,32.5104
10.9871,32.3340
10.9686,32.1577
10.9138,31.9891
10.9138,31.9891
10.9138,31.9891
10.9138,31.9891
10.8357,31.8539
10.8251,31.8356
10.7717,31.7763
10.7065,31.7038
10.6049,31.6300
10.5631,31.5996
10.5631,31.5996
10.5631,31.5996
10.4011,31.5275
10.4011,31.5275
10.2277,31.4906
10.0504,31.4906
9.8770,31.5275
9.8770,31.5275
9.7150,31.5996
9.5716,31.7038
9.4530,31.8356
9.3643,31.9891
9.3643,31.9891
9.3095,32.1577
9.3095,32.1577
9.2910,32.3340
9.3095,32.5104
9.3095,32.5104
9.3499,32.6346
9.3519,32.7044
9.3158,32.7642
9.2577,32.7942
9.2420,32.7975
9.2420,32.7975
9.0800,32.8696
8.9366,32.9738
8.8180,33.1056
8.7293,33.2591
8.7293,33.2591
8.6745,33.4277
8.6745,33.4277
8.6560,33.6041
5.6397,33.6041
5.5552,33.5196
5.5552,33.5196
5.4183,33.4405
5.4183,33.4405
5.4183,33.4405
5.2655,33.3996
5.1074,33.3996
4.9547,33.4405
4.9547,33.4405
4.8178,33.5196
4.8178,33.5196
4.7060,33.6314
4.7060,33.6314
4.6269,33.7683
4.6269,33.7683
4.5860,33.9210
4.5860,34.0791
3.7519,34.0791
3.6276,33.6808
3.6262,33.6762
3.3683,32.7188
3.3672,32.7141
3.2474,32.1879
3.1472,31.7473
3.1462,31.7426
2.9645,30.7679
2.9637,30.7631
2.9468,30.6473
2.8204,29.7820
2.8198,29.7772
2.7154,28.7912
2.7149,28.7864
2.6494,27.7970
2.6491,27.7922
2.6226,26.8011
2.6225,26.7962
2.6350,25.8048
2.6352,25.7999
2.6378,25.7491
2.6587,25.3490
5.4810,25.3490
5.4995,25.5254
5.5016,25.5317
5.5543,25.6940
5.5543,25.6940
5.5970,25.7679
5.6430,25.8475
5.6905,25.9003
5.7616,25.9793
5.7616,25.9793
5.9050,26.0835
6.0670,26.1556
6.0670,26.1556
6.0670,26.1556
6.2404,26.1924
6.4177,26.1924
6.5911,26.1556
6.5911,26.1556
6.5911,26.1556
6.6482,26.1302
6.7531,26.0835
6.8677,26.0002
6.9335,25.9768
6.9405,25.9765
8.2959,25.9765
8.2959,25.9765
8.4171,25.9524
8.4978,25.9190
8.5313,25.9051
8.6341,25.8365
8.7215,25.7491
17.9826,16.4879
18.0440,16.4544
18.0703,16.4516
18.3404,16.4516
18.4074,16.4712
18.4532,16.5240
18.4631,16.5932
18.4341,16.6568
18.3900,16.6878
18.3904,16.6886
18.3852,16.6912
18.2033,16.8038
18.2033,16.8038
18.2033,16.8038
18.2033,16.8038
18.0780,16.9180
18.0452,16.9479
17.9163,17.1187
17.8209,17.3102
17.8209,17.3102
17.7623,17.5160
17.7623,17.5160
17.7426,17.7290
17.7426,17.7291
17.7623,17.9421
17.7623,17.9421
17.8209,18.1479
17.8209,18.1479
17.9163,18.3394
18.0452,18.5102
18.2033,18.6543
18.2033,18.6543
18.2033,18.6543
18.3852,18.7669
18.3852,18.7669
18.3852,18.7669
18.5848,18.8442
18.7623,18.8774
18.8245,18.9091
18.8598,18.9694
18.8569,19.0392
18.8167,19.0963
18.7623,19.1212
18.5849,19.1543
18.3855,19.2316
18.3855,19.2316
18.2821,19.2956
18.2821,19.2956
18.8556,19.8690
18.8494,19.8690
18.7477,19.8963
18.6564,19.9490
18.5820,20.0234
18.5293,20.1147
18.5021,20.2164
18.5021,20.2226
17.9260,19.6466
17.9167,19.6589
17.8214,19.8504
17.8214,19.8504
17.7628,20.0561
17.7628,20.0561
17.7431,20.2690
17.7431,20.2691
17.7628,20.4820
17.7628,20.4820
17.8214,20.6877
17.8214,20.6877
17.9167,20.8791
17.9167,20.8792
17.9260,20.8915
18.5021,20.3155
18.5021,20.3217
18.5293,20.4234
18.5820,20.5147
18.6564,20.5891
18.7477,20.6418
18.8494,20.6690
18.8556,20.6690
18.2821,21.2425
18.3855,21.3065
18.3855,21.3065
18.5849,21.3837
18.7623,21.4169
18.8245,21.4486
18.8598,21.5089
18.8569,21.5787
18.8167,21.6358
18.7623,21.6607
18.6759,21.6768
18.5848,21.6939
18.4586,21.7427
18.3852,21.7712
18.3852,21.7712
18.2033,21.8838
18.2033,21.8838
18.2033,21.8838
18.2033,21.8838
18.0452,22.0279
18.0452,22.0279
17.9163,22.1987
17.8209,22.3902
17.8209,22.3902
17.7623,22.5960
17.7623,22.5960
17.7426,22.8090
17.7426,22.8090
17.7623,23.0221
17.7623,23.0221
17.8209,23.2279
17.8209,23.2279
17.8997,23.3862
17.9163,23.4194
18.0452,23.5902
18.2033,23.7343
18.2033,23.7343
18.2033,23.7343
18.3852,23.8469
18.3852,23.8469
18.3852,23.8469
18.5848,23.9242
18.7609,23.9572
18.8232,23.9888
18.8584,24.0491
18.8555,24.1189
18.8153,24.1761
18.7609,24.2009
18.5848,24.2339
18.5249,24.2570
18.3852,24.3112
18.3852,24.3112
18.2033,24.4238
18.2033,24.4238
18.2033,24.4238
18.2033,24.4238
18.0731,24.5425
18.0452,24.5679
17.9163,24.7387
17.8209,24.9302
17.8209,24.9302
17.7623,25.1360
17.7623,25.1360
17.7426,25.3490
17.7426,25.3490
17.7623,25.5621
17.7623,25.5621
17.8209,25.7679
17.8209,25.7679
17.8605,25.8475
17.9163,25.9594
18.0452,26.1302
18.2033,26.2743
18.2033,26.2743
18.2033,26.2743
18.3852,26.3869
18.3852,26.3869
18.3852,26.3869
18.5848,26.4642
18.7609,26.4972
18.8232,26.5288
18.8584,26.5891
18.8555,26.6589
18.8153,26.7161
18.7609,26.7409
18.5848,26.7739
18.5145,26.8011
18.3852,26.8512
18.3852,26.8512
18.2033,26.9638
18.2033,26.9638
18.2033,26.9638
18.2033,26.9638
18.0452,27.1079
18.0452,27.1079
17.9163,27.2787
17.8209,27.4702
17.8209,27.4702
17.7623,27.6760
17.7623,27.6760
17.7426,27.8890
17.7426,27.8890
17.7623,28.1021
17.7623,28.1021
17.8209,28.3079
17.8209,28.3079
17.8726,28.4117
17.9163,28.4994
18.0452,28.6702
18.2033,28.8143
18.2033,28.8143
18.2033,28.8143
18.3852,28.9269
18.3852,28.9269
18.3852,28.9269
18.5848,29.0042
18.7609,29.0372
18.8232,29.0688
18.8584,29.1291
18.8555,29.1989
18.8153,29.2561
18.7609,29.2809
18.5848,29.3139
18.4586,29.3627
18.3852,29.3912
18.3852,29.3912
18.2033,29.5038
18.2033,29.5038
18.2033,29.5038
18.2033,29.5038
18.0452,29.6479
18.0452,29.6479
17.9163,29.8187
17.8209,30.0102
17.8209,30.0102
17.7623,30.2160
17.7623,30.2160
17.7426,30.4290
17.7426,30.4291
17.7623,30.6421
17.7623,30.6421
17.8209,30.8479
17.8209,30.8479
17.9163,31.0394
18.0452,31.2102
18.2033,31.3543
18.2033,31.3543
18.2033,31.3543
18.3852,31.4669
18.3852,31.4669
18.3852,31.4669
18.5848,31.5442
18.7609,31.5772
18.8232,31.6088
18.8584,31.6691
18.8555,31.7389
18.8153,31.7961
18.7609,31.8209
18.5848,31.8539
18.4703,31.8982
18.3852,31.9312
18.3852,31.9312
18.2033,32.0438
18.2033,32.0438
18.2033,32.0438
18.2033,32.0438
18.0637,32.1711
18.0452,32.1879
17.9163,32.3587
17.8209,32.5502
17.8209,32.5502
17.7623,32.7560
17.7623,32.7560
17.7426,32.9690
17.7426,32.9690
17.7623,33.1821
17.7623,33.1821
17.8209,33.3879
17.8209,33.3879
17.8407,33.4277
17.9163,33.5794
18.0452,33.7502
18.2033,33.8943
18.2033,33.8943
18.2033,33.8943
18.3852,34.0069
18.3852,34.0069
18.3852,34.0069
18.5848,34.0842
18.7609,34.1172
18.8232,34.1488
18.8584,34.2091
18.8555,34.2790
18.8153,34.3361
18.7609,34.3609
18.5848,34.3939
18.4586,34.4427
18.3852,34.4712
18.3852,34.4712
18.2033,34.5838
18.2033,34.5838
18.2033,34.5838
18.2033,34.5838
18.1143,34.6650
18.0452,34.7279
17.9163,34.8987
17.8209,35.0902
17.8209,35.0902
17.7623,35.2960
17.7623,35.2960
17.7426,35.5090
17.7426,35.5090
17.7623,35.7221
17.7623,35.7221
17.8209,35.9279
17.8209,35.9279
17.8605,36.0075
17.9163,36.1194
18.0452,36.2902
18.2033,36.4343
18.2033,36.4343
18.2033,36.4343
18.3852,36.5469
18.3852,36.5469
18.3852,36.5469
18.5848,36.6242
18.7951,36.6636
18.7951,36.6636
19.0090,36.6636
19.0090,36.6636
19.2193,36.6242
19.4189,36.5469
19.6008,36.4343
19.7589,36.2902
19.8878,36.1194
19.9832,35.9279
19.9832,35.9279
19.9832,35.9279
20.0418,35.7221
20.0418,35.7221
20.0615,35.5090
20.0615,35.5090
20.0418,35.2960
20.0418,35.2960
19.9832,35.0902
19.9832,35.0902
19.9639,35.0514
19.8878,34.8987
19.7589,34.7279
19.6008,34.5838
19.6008,34.5838
19.6008,34.5838
19.4189,34.4712
19.4189,34.4712
19.2193,34.3939
19.0432,34.3609
18.9809,34.3293
18.9457,34.2690
18.9486,34.1991
18.9888,34.1420
19.0432,34.1172
19.2193,34.0842
19.4189,34.0069
19.6008,33.8943
19.7589,33.7502
19.8878,33.5794
19.9832,33.3879
19.9832,33.3879
19.9832,33.3879
20.0418,33.1821
20.0418,33.1821
20.0540,33.0495
20.0615,32.9690
20.0523,32.8696
20.0418,32.7560
20.0418,32.7560
20.0365,32.7375
20.0271,32.7044
19.9965,32.5969
24.0285,32.5969
24.0286,32.5969
24.0350,32.6565
24.0853,32.7914
24.0853,32.7914
24.1715,32.9066
24.1715,32.9066
24.2867,32.9928
24.2867,32.9928
24.4216,33.0431
24.4216,33.0431
24.4285,33.0439
24.4812,33.0495
26.2769,33.0495
26.3365,33.0431
26.4714,32.9928
26.5866,32.9066
26.6728,32.7914
26.7219,32.6600
26.7637,32.6040
26.8292,32.5796
26.8975,32.5945
26.9257,32.6156
27.0476,32.7375
27.1285,32.7942
27.2412,32.8731
27.2412,32.8731
27.2412,32.8731
27.4554,32.9730
27.6836,33.0341
27.8601,33.0495
27.9190,33.0547
27.9190,33.0547
27.9191,33.0547
27.9780,33.0495
28.1545,33.0341
28.3827,32.9730
28.5969,32.8731
28.7905,32.7375
28.9575,32.5705
29.0875,32.3849
29.1421,32.3413
29.2115,32.3341
29.2739,32.3656
29.2906,32.3849
29.4205,32.5704
29.4206,32.5705
29.5876,32.7375
29.6685,32.7942
29.7812,32.8731
29.7812,32.8731
29.7812,32.8731
29.9954,32.9730
30.2236,33.0341
30.4001,33.0495
30.4590,33.0547
30.4590,33.0547
30.4591,33.0547
30.5180,33.0495
30.6945,33.0341
30.9227,32.9730
31.1369,32.8731
31.3305,32.7375
31.4975,32.5705
31.6331,32.3769
31.7330,32.1627
31.7941,31.9345
31.8147,31.6990
31.7941,31.4636
31.7371,31.2509
31.7330,31.2354
31.7330,31.2354
31.7330,31.2354
31.6331,31.0212
31.6275,31.0132
31.4975,30.8276
31.3305,30.6606
31.3304,30.6606
31.3041,30.6421
31.2536,30.6067
31.1369,30.5250
31.1369,30.5250
31.1003,30.5080
30.9227,30.4251
30.9227,30.4251
30.9227,30.4251
30.6945,30.3640
30.6945,30.3640
30.4591,30.3434
30.4590,30.3434
30.2236,30.3640
30.2236,30.3640
29.9954,30.4251
29.9954,30.4251
29.7812,30.5250
29.7812,30.5250
29.5876,30.6606
29.4206,30.8276
29.2906,31.0132
29.2360,31.0568
29.1665,31.0640
29.1042,31.0325
29.0875,31.0132
28.9575,30.8276
28.7905,30.6606
28.7904,30.6606
28.7641,30.6421
28.7136,30.6067
28.5969,30.5250
28.5969,30.5250
28.5603,30.5080
28.3827,30.4251
28.3827,30.4251
28.3827,30.4251
28.1545,30.3640
28.1545,30.3640
27.9191,30.3434
27.9190,30.3434
27.6836,30.3640
27.6836,30.3640
27.4554,30.4251
27.4554,30.4251
27.2412,30.5250
27.2412,30.5250
27.0476,30.6606
26.9257,30.7825
26.8644,30.8160
26.7947,30.8110
26.7388,30.7691
26.7219,30.7381
26.6728,30.6067
26.6728,30.6067
26.5866,30.4915
26.5866,30.4915
26.4714,30.4053
26.4714,30.4053
26.3365,30.3550
26.3365,30.3550
26.2769,30.3486
26.2769,30.3485
26.2769,30.3485
26.2769,30.3485
24.4812,30.3485
24.4812,30.3486
24.4216,30.3550
24.2867,30.4053
24.2867,30.4053
24.1715,30.4915
24.1715,30.4915
24.0853,30.6067
24.0853,30.6067
24.0350,30.7416
24.0286,30.8012
24.0285,30.8012
24.0285,32.5969
19.9965,32.5969
19.9832,32.5502
19.9832,32.5502
19.8969,32.3769
19.8878,32.3587
19.7589,32.1879
19.6008,32.0438
19.6008,32.0438
19.6008,32.0438
19.4189,31.9312
19.4189,31.9312
19.2193,31.8539
19.0432,31.8209
18.9809,31.7893
18.9457,31.7290
18.9486,31.6591
18.9888,31.6020
19.0432,31.5772
19.2193,31.5442
19.4189,31.4669
19.6008,31.3543
19.7589,31.2102
19.8878,31.0394
19.9832,30.8479
19.9832,30.8479
19.9832,30.8479
20.0365,30.6606
20.0418,30.6421
20.0615,30.4291
20.0611,30.4251
20.0418,30.2160
20.0418,30.2160
19.9832,30.0102
19.9832,30.0102
19.9251,29.8935
19.8878,29.8187
19.7589,29.6479
19.6008,29.5038
19.6008,29.5038
19.6008,29.5038
19.4189,29.3912
19.4189,29.3912
19.3887,29.3795
19.2193,29.3139
19.0432,29.2809
18.9809,29.2493
18.9457,29.1890
18.9486,29.1191
18.9888,29.0620
19.0432,29.0372
19.2193,29.0042
19.4189,28.9269
19.6008,28.8143
19.7589,28.6702
19.8878,28.4994
19.9832,28.3079
19.9832,28.3079
19.9832,28.3079
20.0408,28.1056
20.0418,28.1021
20.0615,27.8890
20.0512,27.7781
20.0418,27.6760
20.0418,27.6760
20.0408,27.6726
20.0332,27.6461
19.9832,27.4702
19.9832,27.4702
19.9481,27.3997
19.8878,27.2787
19.7589,27.1079
19.6008,26.9638
19.6008,26.9638
19.6008,26.9638
19.4189,26.8512
19.4189,26.8512
19.3887,26.8395
19.2193,26.7739
19.0432,26.7409
18.9809,26.7093
18.9457,26.6490
18.9486,26.5791
18.9888,26.5220
19.0432,26.4972
19.2193,26.4642
19.4189,26.3869
19.6008,26.2743
19.7589,26.1302
19.8878,25.9594
19.9832,25.7679
19.9832,25.7679
19.9832,25.7679
20.0167,25.6501
20.0418,25.5621
20.0615,25.3490
20.0522,25.2484
20.0418,25.1360
20.0418,25.1360
19.9832,24.9302
19.9832,24.9302
19.9436,24.8506
19.8878,24.7387
19.7589,24.5679
19.6008,24.4238
19.6008,24.4238
19.6008,24.4238
19.4189,24.3112
19.4189,24.3112
19.3887,24.2995
19.2193,24.2339
19.0432,24.2009
18.9809,24.1693
18.9457,24.1090
18.9486,24.0391
18.9888,23.9820
19.0432,23.9572
19.2193,23.9242
19.4189,23.8469
19.6008,23.7343
19.7589,23.5902
19.8878,23.4194
19.9832,23.2279
19.9832,23.2279
19.9832,23.2279
20.0299,23.0637
20.0418,23.0221
20.0615,22.8090
20.0597,22.7901
20.0418,22.5960
20.0418,22.5960
19.9832,22.3902
19.9832,22.3902
19.9634,22.3504
19.8878,22.1987
19.7589,22.0279
19.6008,21.8838
19.6008,21.8838
19.6008,21.8838
19.4189,21.7712
19.4189,21.7712
19.2193,21.6939
19.0844,21.6686
19.0418,21.6607
18.9796,21.6290
18.9443,21.5687
18.9472,21.4989
18.9874,21.4418
19.0418,21.4169
19.2192,21.3837
19.4186,21.3065
19.4186,21.3065
19.5220,21.2425
19.5220,21.2425
18.9485,20.6690
18.9547,20.6690
19.0564,20.6418
19.1477,20.5891
19.2221,20.5147
19.2748,20.4234
19.3020,20.3217
19.3020,20.3155
19.8781,20.8915
19.8781,20.8915
19.8874,20.8792
19.8874,20.8792
19.9827,20.6877
19.9827,20.6877
20.0413,20.4820
20.0413,20.4820
20.0610,20.2691
20.0610,20.2690
20.0413,20.0561
20.0413,20.0561
19.9827,19.8504
19.9827,19.8504
19.8874,19.6590
19.8874,19.6589
19.8781,19.6466
19.3020,20.2226
19.3020,20.2164
19.2748,20.1147
19.2221,20.0234
19.1477,19.9490
19.0564,19.8963
18.9547,19.8690
18.9485,19.8690
19.5220,19.2956
19.4186,19.2316
19.4186,19.2316
19.2192,19.1543
19.0418,19.1212
18.9796,19.0895
18.9443,19.0292
18.9472,18.9594
18.9874,18.9023
19.0418,18.8774
19.2193,18.8442
19.4189,18.7669
19.6008,18.6543
19.7589,18.5102
19.8878,18.3394
19.9832,18.1479
19.9832,18.1479
19.9832,18.1479
20.0227,18.0090
20.0418,17.9421
20.0615,17.7291
20.0523,17.6296
20.0418,17.5160
20.0418,17.5160
19.9832,17.3102
19.9832,17.3102
19.9793,17.3025
19.8878,17.1187
19.7589,16.9479
19.6008,16.8038
19.6008,16.8038
19.6008,16.8038
19.4189,16.6912
19.4137,16.6886
19.4142,16.6876
19.3635,16.6486
19.3399,16.5828
19.3556,16.5148
19.4057,16.4660
19.4637,16.4516
28.2428,16.4516
28.3098,16.4712
28.3304,16.4879
28.4120,16.5694
28.4454,16.6307
28.4405,16.7004
28.4317,16.7191
28.4143,16.7491
28.4143,16.7491
28.3595,16.9177
28.3595,16.9177
28.3410,17.0940
28.3595,17.2704
28.3595,17.2704
28.4143,17.4390
28.4143,17.4390
28.4800,17.5527
28.5030,17.5925
28.5274,17.6196
28.6216,17.7243
28.6348,17.7338
28.7650,17.8285
28.9270,17.9006
28.9270,17.9006
28.9270,17.9006
29.1004,17.9374
29.2777,17.9374
29.4511,17.9006
29.4511,17.9006
29.4511,17.9006
29.5297,17.8656
29.6131,17.8285
29.7565,17.7243
29.8751,17.5925
29.9638,17.4390
30.0186,17.2704
30.0371,17.0940
30.0186,16.9177
29.9638,16.7491
29.9638,16.7491
29.9638,16.7491
29.9638,16.7491
29.8751,16.5956
29.8751,16.5956
29.8484,16.5659
29.8182,16.5029
29.8165,16.4829
29.8165,16.3972
29.8165,16.3972
29.7947,16.2875
29.7924,16.2760
29.7475,16.1674
29.7458,16.1628
29.6765,16.0590
29.6765,16.0590
29.6678,16.0504
29.5891,15.9716
29.3420,15.7246
28.9541,15.3366
28.9541,15.3366
28.8513,15.2680
28.8513,15.2680
28.8100,15.2509
28.7371,15.2207
28.7371,15.2207
28.6159,15.1965
28.6159,15.1965
23.1645,15.1965
23.0975,15.1769
23.0517,15.1241
23.0412,15.0855
23.0336,15.0127
22.9788,14.8441
22.9788,14.8441
22.9788,14.8441
22.9788,14.8441
22.9316,14.7624
22.8901,14.6906
22.7932,14.5829
22.7715,14.5588
22.6281,14.4546
22.6281,14.4546
22.6281,14.4546
22.6281,14.4546
22.4661,14.3825
22.4661,14.3825
22.2927,14.3456
22.1154,14.3456
21.9420,14.3825
21.9420,14.3825
21.7800,14.4546
21.6366,14.5588
21.5180,14.6906
21.5180,14.6906
21.4816,14.7535
21.4310,14.8018
21.3742,14.8155
17.5394,14.8155
17.4182,14.8397
17.4182,14.8397
17.3901,14.8513
17.3901,14.8513
17.3040,14.8870
17.3040,14.8870
17.2036,14.9541
17.2012,14.9556
17.2012,14.9556
17.2012,14.9556
14.5373,17.6196
14.4759,17.6531
14.4062,17.6481
14.3767,17.6323
14.3731,17.6296
14.3731,17.6296
14.2111,17.5575
14.2111,17.5575
14.0377,17.5206
13.8604,17.5206
13.6870,17.5575
13.6870,17.5575
13.5250,17.6296
13.3816,17.7338
13.2630,17.8656
13.1743,18.0191
13.1743,18.0191
13.1195,18.1877
13.1195,18.1877
13.1010,18.3640
13.1195,18.5404
13.1195,18.5404
13.1743,18.7090
13.1743,18.7090
13.2078,18.7669
13.2630,18.8625
13.3148,18.9201
13.3816,18.9943
13.3816,18.9943
13.4494,19.0435
13.4920,19.0988
13.4980,19.1685
13.4654,19.2303
13.4642,19.2315
8.0105,24.6852
7.9491,24.7187
7.9228,24.7216
6.9405,24.7216
6.8735,24.7019
6.8677,24.6979
6.8437,24.6805
6.7531,24.6146
6.7531,24.6146
6.7531,24.6146
6.5911,24.5425
6.5911,24.5425
6.4177,24.5056
6.2404,24.5056
6.0670,24.5425
6.0670,24.5425
5.9050,24.6146
5.7616,24.7188
5.6430,24.8506
5.5543,25.0041
5.5543,25.0041
5.4995,25.1727
5.4995,25.1727
5.4927,25.2381
5.4810,25.3490
2.6587,25.3490
2.6867,24.8098
2.6871,24.8050
2.6921,24.7495
2.7775,23.8176
2.7781,23.8128
2.9073,22.8297
2.9081,22.8249
2.9116,22.8043
3.0760,21.8478
3.0769,21.8430
3.0922,21.7712
3.2831,20.8732
3.2842,20.8685
3.3004,20.8046
3.5285,19.9075
3.5298,19.9029
3.8117,18.9523
3.8132,18.9477
4.1323,18.0089
4.1339,18.0044
4.4898,17.0789
4.4916,17.0744
4.5091,17.0338
4.8836,16.1637
4.8856,16.1594
5.3132,15.2647
5.3154,15.2604
5.7779,14.3834
5.7802,14.3792
6.0465,13.9190
25.1660,13.9190
25.1845,14.0954
25.1845,14.0954
25.2393,14.2640
25.2393,14.2640
25.3058,14.3791
25.3280,14.4175
25.3614,14.4546
25.4466,14.5493
25.4598,14.5588
25.5900,14.6535
25.7520,14.7256
25.7520,14.7256
25.7520,14.7256
25.9254,14.7624
26.1027,14.7624
26.2761,14.7256
26.2761,14.7256
26.2761,14.7256
26.3089,14.7110
26.4381,14.6535
26.5527,14.5702
26.6185,14.5468
26.6255,14.5465
30.7828,14.5465
30.8498,14.5662
30.8704,14.5829
31.0652,14.7776
31.0987,14.8390
31.1015,14.8653
31.1015,17.1179
31.0819,17.1850
31.0697,17.2009
31.0430,17.2306
31.0430,17.2306
30.9543,17.3841
30.9543,17.3841
30.8995,17.5527
30.8995,17.5527
30.8810,17.7291
30.8995,17.9054
30.8995,17.9054
30.9543,18.0740
30.9543,18.0740
30.9970,18.1479
31.0430,18.2275
31.0905,18.2803
31.1616,18.3593
31.1616,18.3593
31.3050,18.4635
31.4670,18.5356
31.4670,18.5356
31.4670,18.5356
31.6404,18.5724
31.8177,18.5724
31.9911,18.5356
31.9911,18.5356
31.9911,18.5356
32.0482,18.5102
32.1531,18.4635
32.2912,18.3631
32.3570,18.3397
32.4250,18.3555
32.4369,18.3631
32.5750,18.4635
32.5750,18.4635
32.7370,18.5356
32.7370,18.5356
32.7370,18.5356
32.9104,18.5724
32.9166,18.5731
32.9812,18.5997
32.9913,18.6087
33.1466,18.7641
33.2162,18.8336
33.2340,18.8515
33.2340,18.8515
33.3368,18.9201
33.3368,18.9201
33.3368,18.9201
33.3618,18.9305
33.3841,18.9397
33.4145,18.9523
33.4510,18.9674
33.5722,18.9915
33.5722,18.9916
33.5722,18.9916
34.3309,18.9916
34.3309,18.9915
34.4521,18.9674
34.5328,18.9340
34.5663,18.9201
34.6691,18.8515
34.7565,18.7641
35.5989,17.9216
35.6602,17.8882
35.7299,17.8931
35.7858,17.9350
35.8058,17.9754
35.8549,18.1479
35.8549,18.1479
35.9503,18.3394
36.0792,18.5102
36.2373,18.6543
36.2373,18.6543
36.2373,18.6543
36.4192,18.7669
36.4192,18.7669
36.4192,18.7669
36.6188,18.8442
36.7963,18.8774
36.8585,18.9091
36.8938,18.9694
36.8909,19.0392
36.8507,19.0963
36.7963,19.1212
36.6189,19.1543
36.4195,19.2316
36.4195,19.2316
36.3161,19.2956
36.3161,19.2956
36.8896,19.8690
36.8834,19.8690
36.7817,19.8963
36.6904,19.9490
36.6160,20.0234
36.5633,20.1147
36.5360,20.2164
36.5360,20.2226
35.9600,19.6466
35.9507,19.6589
35.8554,19.8504
35.8554,19.8504
35.7968,20.0561
35.7968,20.0561
35.7771,20.2690
35.7771,20.2691
35.7968,20.4820
35.8019,20.4996
35.8013,20.5695
35.7630,20.6279
35.6992,20.6564
35.6826,20.6576
34.4612,20.6576
34.3400,20.6817
34.3400,20.6817
34.3400,20.6817
34.3400,20.6817
34.3290,20.6862
34.2816,20.6957
34.1804,20.6957
34.0070,20.7325
34.0070,20.7325
33.8450,20.8046
33.7016,20.9088
33.5830,21.0406
33.4943,21.1941
33.4650,21.2844
33.4256,21.3420
33.3780,21.3649
33.3782,21.3655
33.3735,21.3670
33.3729,21.3673
33.3720,21.3675
33.3720,21.3675
33.2100,21.4396
33.0666,21.5438
32.9480,21.6756
32.8593,21.8291
32.8593,21.8291
32.8045,21.9977
32.8045,21.9977
32.7860,22.1740
32.8045,22.3504
32.8045,22.3504
32.8593,22.5190
32.8593,22.5190
32.8593,22.5190
32.9480,22.6725
32.9808,22.7090
33.0666,22.8043
33.0666,22.8043
33.2100,22.9085
33.3720,22.9806
33.3720,22.9806
33.3728,22.9808
33.3733,22.9810
33.3782,22.9826
33.3779,22.9835
33.4343,23.0140
33.4650,23.0637
33.4943,23.1540
33.4943,23.1540
33.5370,23.2279
33.5830,23.3075
33.6259,23.3552
33.7016,23.4393
33.7016,23.4393
33.8450,23.5435
34.0070,23.6156
34.0070,23.6156
34.0070,23.6156
34.1804,23.6524
34.3577,23.6524
34.5311,23.6156
34.5311,23.6156
34.5311,23.6156
34.5653,23.6004
34.6931,23.5435
34.8077,23.4602
34.8735,23.4368
34.8805,23.4366
35.9015,23.4366
35.9685,23.4562
36.0004,23.4858
36.0792,23.5902
36.2373,23.7343
36.2373,23.7343
36.2373,23.7343
36.4192,23.8469
36.4192,23.8469
36.4192,23.8469
36.6188,23.9242
36.7949,23.9572
36.8572,23.9888
36.8924,24.0491
36.8895,24.1189
36.8493,24.1761
36.7949,24.2009
36.6188,24.2339
36.5589,24.2570
36.4192,24.3112
36.4192,24.3112
36.2373,24.4238
36.2373,24.4238
36.2373,24.4238
36.2373,24.4238
36.1071,24.5425
36.0792,24.5679
35.9503,24.7387
35.8549,24.9302
35.8549,24.9302
35.7963,25.1360
35.7963,25.1360
35.7766,25.3490
35.7766,25.3490
35.7963,25.5621
35.7963,25.5621
35.8549,25.7679
35.8549,25.7679
35.8945,25.8475
35.9503,25.9594
36.0792,26.1302
36.2373,26.2743
36.2373,26.2743
36.2373,26.2743
36.4192,26.3869
36.4192,26.3869
36.4192,26.3869
36.6188,26.4642
36.7949,26.4972
36.8572,26.5288
36.8924,26.5891
36.8895,26.6589
36.8493,26.7161
36.7949,26.7409
36.6188,26.7739
36.5485,26.8011
36.4192,26.8512
36.4192,26.8512
36.2373,26.9638
36.2373,26.9638
36.2373,26.9638
36.2373,26.9638
36.0792,27.1079
36.0792,27.1079
35.9503,27.2787
35.8549,27.4702
35.8549,27.4702
35.7963,27.6760
35.7963,27.6760
35.7766,27.8890
35.7766,27.8890
35.7963,28.1021
35.7963,28.1021
35.8431,28.2666
35.8426,28.3365
35.8043,28.3949
35.7743,28.4138
35.7500,28.4246
35.6354,28.5079
35.5696,28.5313
35.5626,28.5315
34.2072,28.5315
34.0860,28.5557
34.0860,28.5557
34.0602,28.5664
33.9718,28.6030
33.9718,28.6030
33.8690,28.6716
33.8690,28.6716
33.6263,28.9144
33.5650,28.9478
33.5516,28.9500
33.5454,28.9506
33.3720,28.9875
33.3720,28.9875
33.2100,29.0596
33.0666,29.1638
32.9480,29.2956
32.8593,29.4491
32.8593,29.4491
32.8045,29.6177
32.8045,29.6177
32.7860,29.7940
32.8045,29.9704
32.8045,29.9704
32.8593,30.1390
32.8593,30.1390
32.9156,30.2364
32.9480,30.2925
32.9710,30.3181
33.0666,30.4243
33.0853,30.4378
33.2100,30.5285
33.3720,30.6006
33.3720,30.6006
33.3720,30.6006
33.5454,30.6374
33.7227,30.6374
33.8961,30.6006
33.8961,30.6006
33.8961,30.6006
33.9440,30.5793
34.0581,30.5285
34.2015,30.4243
34.3201,30.2925
34.4088,30.1390
34.4636,29.9704
34.4712,29.8976
34.4978,29.8330
34.5551,29.7930
34.5945,29.7865
35.5626,29.7865
35.6296,29.8062
35.6354,29.8102
35.7500,29.8935
35.7743,29.9043
35.8276,29.9495
35.8479,30.0164
35.8431,30.0515
35.8183,30.1390
35.7963,30.2160
35.7766,30.4290
35.7766,30.4291
35.7963,30.6421
35.7963,30.6421
35.8549,30.8479
35.8549,30.8479
35.9503,31.0394
36.0792,31.2102
36.2373,31.3543
36.2373,31.3543
36.2373,31.3543
36.4192,31.4669
36.4192,31.4669
36.4192,31.4669
36.6188,31.5442
36.7949,31.5772
36.8572,31.6088
36.8924,31.6691
36.8895,31.7389
36.8493,31.7961
36.7949,31.8209
36.6188,31.8539
36.5043,31.8982
36.4192,31.9312
36.4192,31.9312
36.2373,32.0438
36.2373,32.0438
36.2373,32.0438
36.2373,32.0438
36.0977,32.1711
36.0792,32.1879
35.9503,32.3587
35.8549,32.5502
35.8549,32.5502
35.7963,32.7560
35.7963,32.7560
35.7766,32.9690
35.7766,32.9690
35.7963,33.1821
35.7963,33.1821
35.8549,33.3879
35.8549,33.3879
35.8747,33.4277
35.9503,33.5794
36.0792,33.7502
36.2373,33.8943
36.2373,33.8943
36.2373,33.8943
36.4192,34.0069
36.4192,34.0069
36.4192,34.0069
36.6188,34.0842
36.7494,34.1087
36.8117,34.1403
36.8470,34.2006
36.8440,34.2704
36.8038,34.3276
36.7391,34.3539
36.7266,34.3545
36.2342,34.3545
36.2342,34.3546
36.1746,34.3610
36.0397,34.4113
36.0397,34.4113
35.9245,34.4975
35.9245,34.4975
35.8383,34.6127
35.8383,34.6127
35.7880,34.7476
35.7816,34.8072
35.7816,34.8072
35.7815,34.8072
35.7815,36.2109
35.7816,36.2109
35.7880,36.2705
35.8383,36.4054
35.8383,36.4054
35.9245,36.5206
35.9245,36.5206
36.0397,36.6068
36.0397,36.6068
36.1746,36.6571
36.1746,36.6571
36.1815,36.6579
36.2342,36.6636
37.6379,36.6635
37.6975,36.6571
37.8324,36.6068
37.9476,36.5206
38.0338,36.4054
38.0841,36.2705
38.0906,36.2109
38.0905,34.8072
38.0841,34.7476
38.0768,34.7279
38.0338,34.6127
38.0338,34.6127
37.9476,34.4975
37.9476,34.4975
37.8324,34.4113
37.8324,34.4113
37.6975,34.3610
37.6975,34.3610
37.6379,34.3546
37.6379,34.3545
37.6379,34.3545
37.6379,34.3545
37.1455,34.3545
37.0784,34.3349
37.0327,34.2821
37.0227,34.2129
37.0517,34.1493
37.1105,34.1116
37.1227,34.1087
37.2533,34.0842
37.4529,34.0069
37.6348,33.8943
37.7929,33.7502
37.9218,33.5794
38.0172,33.3879
38.0172,33.3879
38.0172,33.3879
38.0758,33.1821
38.0758,33.1821
38.0880,33.0495
38.0955,32.9690
38.0863,32.8696
38.0758,32.7560
38.0758,32.7560
38.0705,32.7375
38.0611,32.7044
38.0172,32.5502
38.0172,32.5502
37.9309,32.3769
37.9218,32.3587
37.7929,32.1879
37.6348,32.0438
37.6348,32.0438
37.6348,32.0438
37.4529,31.9312
37.4529,31.9312
37.2533,31.8539
37.0772,31.8209
37.0149,31.7893
36.9797,31.7290
36.9826,31.6591
37.0228,31.6020
37.0772,31.5772
37.2533,31.5442
37.4529,31.4669
37.6348,31.3543
37.7929,31.2102
37.9218,31.0394
38.0172,30.8479
38.0172,30.8479
38.0172,30.8479
38.0705,30.6606
38.0758,30.6421
38.0955,30.4291
38.0951,30.4251
38.0758,30.2160
38.0758,30.2160
38.0172,30.0102
38.0172,30.0102
37.9591,29.8935
37.9218,29.8187
37.7929,29.6479
37.6348,29.5038
37.6348,29.5038
37.6348,29.5038
37.4529,29.3912
37.4529,29.3912
37.4227,29.3795
37.2533,29.3139
37.1231,29.2895
37.0608,29.2578
37.0255,29.1975
37.0233,29.1655
37.0221,29.1655
37.0221,29.1526
37.0246,29.1526
37.0351,29.0947
37.0828,29.0437
37.1231,29.0286
37.2533,29.0042
37.4529,28.9269
37.6348,28.8143
37.7929,28.6702
37.9218,28.4994
38.0172,28.3079
38.0172,28.3079
38.0172,28.3079
38.0748,28.1056
38.0758,28.1021
38.0955,27.8890
38.0852,27.7781
38.0758,27.6760
38.0758,27.6760
38.0748,27.6726
38.0673,27.6461
38.0172,27.4702
38.0172,27.4702
37.9821,27.3997
37.9218,27.2787
37.7929,27.1079
37.6348,26.9638
37.6348,26.9638
37.6348,26.9638
37.4529,26.8512
37.4529,26.8512
37.4227,26.8395
37.2533,26.7739
37.0772,26.7409
37.0149,26.7093
36.9797,26.6490
36.9815,26.6040
38.6234,26.6040
38.6440,26.8395
38.6440,26.8395
38.7051,27.0677
38.7051,27.0677
38.7051,27.0677
38.7239,27.1079
38.8050,27.2819
38.8050,27.2819
38.8875,27.3997
38.9406,27.4754
38.9406,27.4755
39.0625,27.5974
39.0960,27.6587
39.0910,27.7284
39.0491,27.7843
39.0181,27.8012
38.8867,27.8503
38.8867,27.8503
38.7715,27.9365
38.7715,27.9365
38.6853,28.0517
38.6853,28.0517
38.6350,28.1866
38.6286,28.2462
38.6285,28.2462
38.6285,30.0419
38.6286,30.0419
38.6350,30.1015
38.6853,30.2364
38.6853,30.2364
38.7715,30.3516
38.7715,30.3516
38.8867,30.4378
38.8867,30.4378
39.0216,30.4881
39.0216,30.4881
39.0285,30.4889
39.0812,30.4946
40.8769,30.4945
40.9365,30.4881
41.0714,30.4378
41.1866,30.3516
41.2728,30.2364
41.3219,30.1050
41.3637,30.0490
41.4292,30.0246
41.4975,30.0395
41.5257,30.0606
41.6476,30.1825
41.7444,30.2503
41.8412,30.3181
41.8412,30.3181
41.8412,30.3181
42.0554,30.4180
42.0554,30.4180
42.0554,30.4180
42.0822,30.4251
42.2836,30.4791
42.4601,30.4946
42.5190,30.4997
42.5191,30.4997
42.5191,30.4997
42.5780,30.4946
42.7545,30.4791
42.9827,30.4180
43.1969,30.3181
43.3905,30.1825
43.5575,30.0155
43.6931,29.8219
43.7930,29.6077
43.8541,29.3795
43.8747,29.1441
43.8725,29.1191
43.8577,28.9500
43.8541,28.9086
43.7930,28.6804
43.6931,28.4662
43.6640,28.4246
43.5575,28.2726
43.3905,28.1056
43.3904,28.1056
43.2049,27.9756
43.1613,27.9210
43.1541,27.8515
43.1856,27.7892
43.2049,27.7725
43.3171,27.6939
43.3905,27.6425
43.5575,27.4755
43.6931,27.2819
43.7930,27.0677
43.8541,26.8395
43.8747,26.6040
43.8725,26.5791
43.8557,26.3869
43.8541,26.3686
43.7930,26.1404
43.6931,25.9262
43.6880,25.9190
43.5575,25.7326
43.3905,25.5656
43.3905,25.5656
43.2045,25.4353
43.1608,25.3807
43.1536,25.3112
43.1852,25.2489
43.2045,25.2322
43.3901,25.1022
43.5572,24.9351
43.6927,24.7416
43.7925,24.5275
43.7925,24.5275
43.8497,24.3140
42.9521,24.3140
42.9850,24.2570
43.0191,24.1299
43.0191,23.9982
42.9850,23.8711
42.9521,23.8140
43.8497,23.8140
43.8497,23.8140
43.7925,23.6006
43.7925,23.6006
43.6927,23.3865
43.6926,23.3865
43.5572,23.1930
43.5572,23.1930
43.3901,23.0259
43.1966,22.8904
42.9825,22.7906
42.9825,22.7906
42.7691,22.7334
42.7691,23.6310
42.7120,23.5981
42.5849,23.5640
42.4532,23.5640
42.3261,23.5981
42.2691,23.6310
42.2691,22.7334
42.2690,22.7334
42.0556,22.7906
42.0556,22.7906
41.8415,22.8904
41.8415,22.8904
41.6480,23.0259
41.6480,23.0259
41.4809,23.1930
41.4809,23.1930
41.3509,23.3786
41.2964,23.4223
41.2269,23.4295
41.1645,23.3979
41.1478,23.3786
41.0175,23.1926
40.8505,23.0256
40.8504,23.0256
40.6569,22.8900
40.6569,22.8900
40.5225,22.8273
40.4427,22.7901
40.4427,22.7901
40.4427,22.7901
40.2145,22.7290
40.2145,22.7290
39.9791,22.7084
39.9790,22.7084
39.7436,22.7290
39.7436,22.7290
39.5154,22.7901
39.5154,22.7901
39.3012,22.8900
39.3012,22.8900
39.1076,23.0256
38.9406,23.1926
38.8050,23.3862
38.8050,23.3862
38.7051,23.6004
38.7051,23.6004
38.6440,23.8286
38.6440,23.8286
38.6234,24.0640
38.6234,24.0640
38.6440,24.2995
38.6440,24.2995
38.7051,24.5277
38.7051,24.5277
38.7051,24.5277
38.7864,24.7019
38.8050,24.7419
38.8050,24.7419
38.8526,24.8098
38.9406,24.9354
38.9406,24.9355
39.1076,25.1025
39.1077,25.1025
39.2932,25.2325
39.3368,25.2871
39.3440,25.3565
39.3125,25.4189
39.2932,25.4356
39.1076,25.5656
38.9406,25.7326
38.8050,25.9262
38.8050,25.9262
38.7051,26.1404
38.7051,26.1404
38.6440,26.3686
38.6440,26.3686
38.6234,26.6040
38.6234,26.6040
36.9815,26.6040
36.9826,26.5791
37.0228,26.5220
37.0772,26.4972
37.2533,26.4642
37.4529,26.3869
37.6348,26.2743
37.7929,26.1302
37.9218,25.9594
38.0172,25.7679
38.0172,25.7679
38.0172,25.7679
38.0507,25.6501
38.0758,25.5621
38.0955,25.3490
38.0862,25.2484
38.0758,25.1360
38.0758,25.1360
38.0172,24.9302
38.0172,24.9302
37.9776,24.8506
37.9218,24.7387
37.7929,24.5679
37.6348,24.4238
37.6348,24.4238
37.6348,24.4238
37.4529,24.3112
37.4529,24.3112
37.4227,24.2995
37.2533,24.2339
37.0772,24.2009
37.0149,24.1693
36.9797,24.1090
36.9826,24.0391
37.0228,23.9820
37.0772,23.9572
37.2533,23.9242
37.4529,23.8469
37.6348,23.7343
37.7929,23.5902
37.9218,23.4194
38.0172,23.2279
38.0172,23.2279
38.0172,23.2279
38.0639,23.0637
38.0758,23.0221
38.0955,22.8090
38.0937,22.7901
38.0758,22.5960
38.0758,22.5960
38.0538,22.5190
38.0346,22.4515
38.0352,22.3816
38.0735,22.3232
38.1373,22.2947
38.1539,22.2935
49.2060,22.2935
49.2730,22.3132
49.3188,22.3660
49.3239,22.3792
49.3693,22.5190
49.3693,22.5190
49.3693,22.5190
49.4580,22.6725
49.4908,22.7090
49.5766,22.8043
49.5766,22.8043
49.7200,22.9085
49.8820,22.9806
49.8820,22.9806
49.8820,22.9806
50.0554,23.0175
50.2327,23.0175
50.4061,22.9806
50.4061,22.9806
50.4061,22.9806
50.4389,22.9660
50.5681,22.9085
50.7115,22.8043
50.8301,22.6725
50.9188,22.5190
50.9481,22.4287
50.9875,22.3711
51.0351,22.3482
51.0349,22.3476
51.0396,22.3461
51.0403,22.3458
51.0411,22.3456
51.2031,22.2735
51.3465,22.1693
51.4651,22.0375
51.5538,21.8840
51.6086,21.7154
51.6271,21.5390
51.6086,21.3627
51.5538,21.1941
51.5538,21.1941
51.5538,21.1941
51.5538,21.1941
51.5228,21.1405
51.4651,21.0406
51.4117,20.9813
51.3465,20.9088
51.2748,20.8567
51.2031,20.8046
51.2031,20.8046
51.2031,20.8046
51.0411,20.7325
51.0411,20.7325
50.8677,20.6957
50.7665,20.6957
50.7191,20.6862
50.7081,20.6817
50.7081,20.6817
50.5869,20.6576
50.5869,20.6576
38.1895,20.6576
38.1225,20.6379
38.0767,20.5851
38.0668,20.5159
38.0703,20.4996
38.0753,20.4820
38.0950,20.2691
38.0950,20.2690
38.0753,20.0561
38.0753,20.0561
38.0167,19.8504
38.0167,19.8504
37.9214,19.6590
37.9214,19.6589
37.9121,19.6466
37.3361,20.2226
37.3361,20.2164
37.3088,20.1147
37.2561,20.0234
37.1817,19.9490
37.0904,19.8963
36.9887,19.8690
36.9825,19.8690
37.5560,19.2956
37.4526,19.2316
37.4526,19.2316
37.2532,19.1543
37.0758,19.1212
37.0136,19.0895
36.9783,19.0292
36.9812,18.9594
37.0214,18.9023
37.0758,18.8774
37.2533,18.8442
37.4529,18.7669
37.6348,18.6543
37.7929,18.5102
37.9218,18.3394
38.0172,18.1479
38.0172,18.1479
38.0172,18.1479
38.0567,18.0090
38.0758,17.9421
38.0955,17.7291
38.0863,17.6296
38.0758,17.5160
38.0758,17.5160
38.0172,17.3102
38.0172,17.3102
37.9951,17.2658
37.9828,17.1970
38.0097,17.1325
38.0672,17.0928
38.1061,17.0865
40.6426,17.0865
40.7096,17.1062
40.7154,17.1102
40.8300,17.1935
40.9920,17.2656
40.9920,17.2656
40.9920,17.2656
41.1654,17.3025
41.3427,17.3025
41.5161,17.2656
41.5161,17.2656
41.5161,17.2656
41.5489,17.2510
41.6781,17.1935
41.8215,17.0893
41.9401,16.9575
42.0288,16.8040
42.0836,16.6354
42.1021,16.4590
42.0836,16.2827
42.0288,16.1141
42.0288,16.1141
42.0288,16.1141
42.0288,16.1141
41.9970,16.0590
41.9401,15.9606
41.8706,15.8834
41.8215,15.8288
41.7031,15.7428
41.6781,15.7246
41.6781,15.7246
41.6781,15.7246
41.5161,15.6525
41.5161,15.6525
41.3427,15.6156
41.1654,15.6156
40.9920,15.6525
40.9920,15.6525
40.8300,15.7246
40.7154,15.8079
40.6496,15.8313
40.6426,15.8316
36.1122,15.8316
35.9910,15.8557
35.9910,15.8557
35.9910,15.8557
35.9910,15.8557
35.9241,15.8834
35.9241,15.8834
35.8768,15.9030
35.7740,15.9716
35.1398,16.6058
35.0785,16.6393
35.0088,16.6343
34.9613,16.5988
34.9595,16.6004
34.9284,16.5659
34.8982,16.5029
34.8965,16.4829
34.8965,12.9603
34.9162,12.8933
34.9329,12.8727
35.1276,12.6779
35.1890,12.6444
35.2153,12.6415
36.8326,12.6415
36.8996,12.6612
36.9054,12.6652
37.0200,12.7485
37.1820,12.8206
37.1820,12.8206
37.1820,12.8206
37.3554,12.8575
37.5327,12.8575
37.7061,12.8206
37.7694,12.7924
37.8386,12.7831
37.9019,12.8128
37.9391,12.8719
37.9384,12.9418
37.9377,12.9440
37.8845,13.1077
37.8845,13.1077
37.8660,13.2840
37.8845,13.4604
37.8845,13.4604
37.9393,13.6290
37.9393,13.6290
37.9845,13.7072
38.0280,13.7825
38.0692,13.8283
38.1466,13.9143
38.1466,13.9143
38.2900,14.0185
38.4520,14.0906
38.4520,14.0906
38.4520,14.0906
38.6254,14.1274
38.8027,14.1274
38.9761,14.0906
38.9761,14.0906
38.9761,14.0906
39.0089,14.0760
39.1381,14.0185
39.2815,13.9143
39.4001,13.7825
39.4888,13.6290
39.5436,13.4604
39.5621,13.2840
39.5436,13.1077
39.4888,12.9391
39.4888,12.9391
39.4888,12.9391
39.4888,12.9391
39.4001,12.7856
39.4001,12.7856
39.3734,12.7559
39.3432,12.6929
39.3415,12.6729
39.3415,11.9522
39.3415,11.9522
39.3341,11.9146
39.3174,11.8310
39.2725,11.7224
39.2708,11.7178
39.2015,11.6140
39.2015,11.6140
39.1749,11.5874
39.1141,11.5266
38.8299,11.2425
38.4791,10.8916
38.4791,10.8916
38.3763,10.8230
38.3763,10.8230
38.3350,10.8059
38.2621,10.7757
38.2621,10.7757
38.1409,10.7515
38.1409,10.7515
38.0172,10.7515
38.0172,10.7515
37.8960,10.7757
37.8960,10.7757
37.8616,10.7899
37.7921,10.7974
37.7899,10.7970
37.7531,10.7896
34.8041,10.7896
34.8041,10.7896
34.6829,10.8138
34.6829,10.8138
34.5687,10.8611
34.4800,10.9204
34.4800,10.9204
34.4659,10.9297
34.4659,10.9297
33.8690,11.5266
32.5215,12.8742
32.4601,12.9077
32.4338,12.9105
27.2143,12.9105
27.1473,12.8909
27.1266,12.8742
26.8885,12.6361
26.8550,12.5748
26.8529,12.5614
26.8528,12.5609
26.8436,12.4727
26.7888,12.3041
26.7888,12.3041
26.7888,12.3041
26.7888,12.3041
26.7231,12.1904
26.7001,12.1506
26.6396,12.0834
26.5815,12.0188
26.4381,11.9146
26.4381,11.9146
26.4381,11.9146
26.4381,11.9146
26.2761,11.8425
26.2761,11.8425
26.1027,11.8056
25.9254,11.8056
25.7520,11.8425
25.7520,11.8425
25.5900,11.9146
25.4466,12.0188
25.3280,12.1506
25.2393,12.3041
25.2393,12.3041
25.1845,12.4727
25.1845,12.4727
25.1660,12.6490
25.1845,12.8254
25.1845,12.8254
25.2393,12.9940
25.2393,12.9940
25.2803,13.0649
25.3280,13.1475
25.3762,13.2011
25.4064,13.2641
25.3978,13.3334
25.3762,13.3670
25.3280,13.4206
25.3280,13.4206
25.3280,13.4206
25.2393,13.5741
25.2393,13.5741
25.1845,13.7427
25.1845,13.7427
25.1660,13.9190
6.0465,13.9190
6.2768,13.5210
6.2793,13.5169
6.8094,12.6789
6.8121,12.6749
7.2675,12.0140
19.4510,12.0140
19.4695,12.1904
19.4695,12.1904
19.5243,12.3590
19.5243,12.3590
19.5900,12.4727
19.6130,12.5125
19.6565,12.5609
19.7316,12.6443
19.7382,12.6490
19.8750,12.7485
20.0370,12.8206
20.0370,12.8206
20.0370,12.8206
20.2104,12.8575
20.3877,12.8575
20.5611,12.8206
20.5611,12.8206
20.5611,12.8206
20.5939,12.8060
20.7231,12.7485
20.8665,12.6443
20.9851,12.5125
21.0738,12.3590
21.1286,12.1904
21.1379,12.1017
21.1645,12.0371
21.1735,12.0270
22.4276,10.7729
22.4890,10.7394
22.5153,10.7365
27.3076,10.7365
27.3746,10.7562
27.3804,10.7602
27.4950,10.8435
27.6570,10.9156
27.6570,10.9156
27.6570,10.9156
27.8304,10.9524
28.0077,10.9524
28.1811,10.9156
28.1811,10.9156
28.1811,10.9156
28.2098,10.9028
28.2791,10.8935
28.3423,10.9231
28.3782,10.9778
28.4143,11.0890
28.4143,11.0890
28.4800,11.2027
28.5030,11.2425
28.5151,11.2560
28.6216,11.3743
28.6348,11.3838
28.7650,11.4785
28.9270,11.5506
28.9270,11.5506
28.9270,11.5506
29.1004,11.5874
29.2777,11.5874
29.4511,11.5506
29.4511,11.5506
29.4511,11.5506
29.5297,11.5156
29.6131,11.4785
29.7499,11.3790
30.8810,11.3790
30.8995,11.5554
30.8995,11.5554
30.9543,11.7240
30.9543,11.7240
31.0161,11.8310
31.0430,11.8775
31.0764,11.9146
31.1616,12.0093
31.1748,12.0188
31.3050,12.1135
31.4670,12.1856
31.4670,12.1856
31.4670,12.1856
31.6404,12.2225
31.8177,12.2225
31.9911,12.1856
31.9911,12.1856
31.9911,12.1856
32.0697,12.1506
32.1531,12.1135
32.2965,12.0093
32.4151,11.8775
32.5038,11.7240
32.5586,11.5554
32.5679,11.4667
32.5945,11.4021
32.6035,11.3920
34.2768,9.7187
34.3381,9.6853
34.3515,9.6831
34.3577,9.6824
34.3577,9.6824
34.5311,9.6456
34.5311,9.6456
34.5311,9.6456
34.5639,9.6310
34.6931,9.5735
34.8365,9.4693
34.9551,9.3375
35.0438,9.1840
35.0986,9.0154
35.1171,8.8391
35.0986,8.6627
35.0438,8.4941
35.0438,8.4941
35.0438,8.4941
35.0438,8.4941
35.0128,8.4405
34.9551,8.3406
34.9017,8.2813
34.8365,8.2088
34.7648,8.1567
34.6931,8.1046
34.6931,8.1046
34.6931,8.1046
34.5311,8.0325
34.5311,8.0325
34.3577,7.9956
34.1804,7.9956
34.0070,8.0325
34.0070,8.0325
33.8450,8.1046
33.7016,8.2088
33.5830,8.3406
33.4943,8.4941
33.4943,8.4941
33.4395,8.6627
33.4395,8.6627
33.4302,8.7514
33.4036,8.8160
33.3946,8.8261
31.7213,10.4994
31.6600,10.5328
31.6466,10.5350
31.6404,10.5356
31.4670,10.5725
31.4670,10.5725
31.3050,10.6446
31.1616,10.7488
31.0430,10.8806
30.9543,11.0341
30.9543,11.0341
30.8995,11.2027
30.8995,11.2027
30.8810,11.3790
29.7499,11.3790
29.7565,11.3743
29.8751,11.2425
29.9638,11.0890
30.0186,10.9204
30.0371,10.7440
30.0186,10.5677
29.9638,10.3991
29.9638,10.3991
29.9638,10.3991
29.9638,10.3991
29.8751,10.2456
29.8751,10.2456
29.8484,10.2159
29.8182,10.1529
29.8165,10.1329
29.8165,8.1802
29.8362,8.1131
29.8484,8.0972
29.8751,8.0675
29.9638,7.9140
30.0186,7.7454
30.0371,7.5690
30.0186,7.3927
29.9638,7.2241
29.9638,7.2241
29.9638,7.2241
29.9638,7.2241
29.9328,7.1705
29.8751,7.0706
29.8217,7.0113
29.7565,6.9388
29.6848,6.8867
29.6131,6.8346
29.6131,6.8346
29.6131,6.8346
29.4511,6.7625
29.4511,6.7625
29.2777,6.7256
29.1004,6.7256
28.9270,6.7625
28.9270,6.7625
28.7650,6.8346
28.6216,6.9388
28.5030,7.0706
28.4143,7.2241
28.4143,7.2241
28.3595,7.3927
28.3595,7.3927
28.3410,7.5690
28.3595,7.7454
28.3595,7.7454
28.4143,7.9140
28.4143,7.9140
28.5030,8.0675
28.5297,8.0972
28.5599,8.1602
28.5616,8.1802
28.5616,9.2900
28.5419,9.3570
28.4891,9.4028
28.4199,9.4127
28.3647,9.3903
28.3431,9.3746
28.3431,9.3746
28.1811,9.3025
28.1811,9.3025
28.0077,9.2656
27.8304,9.2656
27.6570,9.3025
27.6570,9.3025
27.4950,9.3746
27.3804,9.4579
27.3146,9.4813
27.3076,9.4816
22.1422,9.4816
22.0210,9.5057
22.0210,9.5057
22.0210,9.5057
22.0210,9.5057
21.9541,9.5334
21.9541,9.5334
21.9068,9.5530
21.8040,9.6216
21.8040,9.6216
20.2913,11.1344
20.2300,11.1678
20.2166,11.1700
20.2104,11.1706
20.0370,11.2075
20.0370,11.2075
19.8750,11.2796
19.7316,11.3838
19.6130,11.5156
19.5243,11.6691
19.5243,11.6691
19.4695,11.8377
19.4695,11.8377
19.4510,12.0140
7.2675,12.0140
7.3747,11.8585
7.3775,11.8546
7.9719,11.0609
7.9748,11.0572
8.6000,10.2875
8.6031,10.2838
9.2581,9.5395
9.2614,9.5359
9.2637,9.5334
9.9451,8.8178
9.9485,8.8144
10.6600,8.1239
10.6636,8.1206
10.6814,8.1046
11.4017,7.4586
11.4054,7.4554
12.1690,6.8231
12.1728,6.8200
12.9608,6.2182
12.9647,6.2153
13.7757,5.6450
13.7797,5.6423
14.6126,5.1043
14.6167,5.1018
15.4702,4.5970
15.4744,4.5947
16.3470,4.1239
16.3513,4.1217
17.2418,3.6857
17.2462,3.6836
18.1531,3.2830
18.1576,3.2811
19.0797,2.9165
19.0841,2.9149
20.0199,2.5868
20.0244,2.5853
20.9723,2.2944
20.9770,2.2931
21.9356,2.0397
21.9403,2.0386
22.9081,1.8232
22.9128,1.8222
23.8884,1.6451
23.8932,1.6443
24.8750,1.5057
24.8797,1.5052
25.8662,1.4054
25.8710,1.4050
26.8607,1.3441
26.8655,1.3439
27.8568,1.3220
27.8616,1.3220
Z" /> 
</g>
<g style="fill:#FFFFFF; fill-opacity:1.0000; stroke:none;">
<circle cx="29.1890" cy="7.5690" r="0.1651" /> 
</g>
<g style="fill:#FFFFFF; fill-opacity:1.0000; stroke:none;">
<circle cx="29.1890" cy="10.7440" r="0.1651" /> 
</g>
<g style="fill:#FFFFFF; fill-opacity:1.0000; stroke:none;">
<circle cx="8.8690" cy="12.6490" r="0.1651" /> 
</g>
<g style="fill:#FFFFFF; fill-opacity:1.0000; stroke:none;">
<circle cx="44.4290" cy="20.2691" r="0.1651" /> 
</g>
<g style="fill:#FFFFFF; fill-opacity:1.0000; stroke:none;">
<circle cx="24.1090" cy="4.3941" r="0.1651" /> 
</g>
<g style="fill:#FFFFFF; fill-opacity:1.0000; stroke:none;">
<circle cx="24.1090" cy="49.4791" r="0.1651" /> 
</g>
<g style="fill:#FFFFFF; fill-opacity:1.0000; stroke:none;">
<circle cx="5.0591" cy="29.1590" r="0.1651" /> 
</g>
<g style="fill:#FFFFFF; fill-opacity:1.0000; stroke:none;">
<circle cx="35.5390" cy="41.2240" r="0.1651" /> 
</g>
<g style="fill:#FFFFFF; fill-opacity:1.0000; stroke:none;">
<circle cx="45.6990" cy="34.8740" r="0.1651" /> 
</g>
<g style="fill:#FFFFFF; fill-opacity:1.0000; stroke:none;">
<circle cx="10.1390" cy="18.3640" r="0.1651" /> 
</g>
<g style="fill:#FFFFFF; fill-opacity:1.0000; stroke:none;">
<circle cx="22.2040" cy="43.1290" r="0.1651" /> 
</g>
<g style="fill:#FFFFFF; fill-opacity:1.0000; stroke:none;">
<circle cx="25.3790" cy="3.7590" r="0.1651" /> 
</g>
<g style="fill:#FFFFFF; fill-opacity:1.0000; stroke:none;">
<circle cx="33.6341" cy="19.6340" r="0.1651" /> 
</g>
<g style="fill:#FFFFFF; fill-opacity:1.0000; stroke:none;">
<circle cx="41.2540" cy="7.5690" r="0.1651" /> 
</g>
<g style="fill:#FFFFFF; fill-opacity:1.0000; stroke:none;">
<circle cx="13.9490" cy="7.5690" r="0.1651" /> 
</g>
<g style="fill:#FFFFFF; fill-opacity:1.0000; stroke:none;">
<circle cx="46.9690" cy="12.6490" r="0.1651" /> 
</g>
<g style="fill:#FFFFFF; fill-opacity:1.0000; stroke:none;">
<circle cx="31.7290" cy="4.3941" r="0.1651" /> 
</g>
<g style="fill:#FFFFFF; fill-opacity:1.0000; stroke:none;">
<circle cx="31.0940" cy="22.8090" r="0.1651" /> 
</g>
<g style="fill:#FFFFFF; fill-opacity:1.0000; stroke:none;">
<circle cx="29.8240" cy="22.8090" r="0.1651" /> 
</g>
<g style="fill:#FFFFFF; fill-opacity:1.0000; stroke:none;">
<circle cx="32.3640" cy="22.8090" r="0.1651" /> 
</g>
<g style="fill:#FFFFFF; fill-opacity:1.0000; stroke:none;">
<circle cx="21.5691" cy="17.7291" r="0.1651" /> 
</g>
<g style="fill:#FFFFFF; fill-opacity:1.0000; stroke:none;">
<circle cx="51.4140" cy="30.4291" r="0.1651" /> 
</g>
<g style="fill:#FFFFFF; fill-opacity:1.0000; stroke:none;">
<circle cx="34.2691" cy="21.5390" r="0.1651" /> 
</g>
<g style="fill:#FFFFFF; fill-opacity:1.0000; stroke:none;">
<circle cx="50.7790" cy="21.5390" r="0.1651" /> 
</g>
<g style="fill:#FFFFFF; fill-opacity:1.0000; stroke:none;">
<circle cx="50.1441" cy="31.0640" r="0.1651" /> 
</g>
<g style="fill:#FFFFFF; fill-opacity:1.0000; stroke:none;">
<circle cx="31.0940" cy="49.4791" r="0.1651" /> 
</g>
<g style="fill:#FFFFFF; fill-opacity:1.0000; stroke:none;">
<circle cx="33.6341" cy="22.1740" r="0.1651" /> 
</g>
<g style="fill:#FFFFFF; fill-opacity:1.0000; stroke:none;">
<circle cx="50.1441" cy="22.1740" r="0.1651" /> 
</g>
<g style="fill:#FFFFFF; fill-opacity:1.0000; stroke:none;">
<circle cx="6.3290" cy="25.3490" r="0.1651" /> 
</g>
<g style="fill:#FFFFFF; fill-opacity:1.0000; stroke:none;">
<circle cx="29.1890" cy="17.0940" r="0.1651" /> 
</g>
<g style="fill:#FFFFFF; fill-opacity:1.0000; stroke:none;">
<circle cx="9.5040" cy="33.6041" r="0.1651" /> 
</g>
<g style="fill:#FFFFFF; fill-opacity:1.0000; stroke:none;">
<circle cx="34.2691" cy="22.8090" r="0.1651" /> 
</g>
<g style="fill:#FFFFFF; fill-opacity:1.0000; stroke:none;">
<circle cx="33.6341" cy="29.7940" r="0.1651" /> 
</g>
<g style="fill:#FFFFFF; fill-opacity:1.0000; stroke:none;">
<circle cx="36.1741" cy="29.1590" r="0.1651" /> 
</g>
<g style="fill:#FFFFFF; fill-opacity:1.0000; stroke:none;">
<circle cx="31.7290" cy="11.3790" r="0.1651" /> 
</g>
<g style="fill:#FFFFFF; fill-opacity:1.0000; stroke:none;">
<circle cx="46.2295" cy="34.1345" r="0.1651" /> 
</g>
<g style="fill:#FFFFFF; fill-opacity:1.0000; stroke:none;">
<circle cx="34.2691" cy="8.8391" r="0.1651" /> 
</g>
<g style="fill:#FFFFFF; fill-opacity:1.0000; stroke:none;">
<circle cx="47.6041" cy="35.5090" r="0.1651" /> 
</g>
<g style="fill:#FFFFFF; fill-opacity:1.0000; stroke:none;">
<circle cx="41.2540" cy="16.4590" r="0.1651" /> 
</g>
<g style="fill:#FFFFFF; fill-opacity:1.0000; stroke:none;">
<circle cx="32.9990" cy="17.7291" r="0.1651" /> 
</g>
<g style="fill:#FFFFFF; fill-opacity:1.0000; stroke:none;">
<circle cx="37.4440" cy="12.0140" r="0.1651" /> 
</g>
<g style="fill:#FFFFFF; fill-opacity:1.0000; stroke:none;">
<circle cx="34.2691" cy="17.0940" r="0.1651" /> 
</g>
<g style="fill:#FFFFFF; fill-opacity:1.0000; stroke:none;">
<circle cx="10.1390" cy="32.3340" r="0.1651" /> 
</g>
<g style="fill:#FFFFFF; fill-opacity:1.0000; stroke:none;">
<circle cx="13.9490" cy="18.3640" r="0.1651" /> 
</g>
<g style="fill:#FFFFFF; fill-opacity:1.0000; stroke:none;">
<circle cx="45.6990" cy="32.3340" r="0.1651" /> 
</g>
<g style="fill:#FFFFFF; fill-opacity:1.0000; stroke:none;">
<circle cx="24.1090" cy="45.6690" r="0.1651" /> 
</g>
<g style="fill:#FFFFFF; fill-opacity:1.0000; stroke:none;">
<circle cx="22.2040" cy="15.1890" r="0.1651" /> 
</g>
<g style="fill:#FFFFFF; fill-opacity:1.0000; stroke:none;">
<circle cx="27.9190" cy="10.1090" r="0.1651" /> 
</g>
<g style="fill:#FFFFFF; fill-opacity:1.0000; stroke:none;">
<circle cx="20.2990" cy="12.0140" r="0.1651" /> 
</g>
<g style="fill:#FFFFFF; fill-opacity:1.0000; stroke:none;">
<circle cx="26.0140" cy="12.6490" r="0.1651" /> 
</g>
<g style="fill:#FFFFFF; fill-opacity:1.0000; stroke:none;">
<circle cx="38.7141" cy="13.2840" r="0.1651" /> 
</g>
<g style="fill:#FFFFFF; fill-opacity:1.0000; stroke:none;">
<circle cx="26.0140" cy="13.9190" r="0.1651" /> 
</g>
<g style="fill:#FFFFFF; fill-opacity:1.0000; stroke:none;">
<circle cx="31.7290" cy="17.7291" r="0.1651" /> 
</g>
<g style="fill:#FFFFFF; fill-opacity:1.0000; stroke:none;">
<circle cx="49.5079" cy="36.7558" r="0.4500" /> 
</g>
<g style="fill:#FFFFFF; fill-opacity:1.0000; stroke:none;">
<circle cx="50.6559" cy="33.9842" r="0.4500" /> 
</g>
<g style="fill:#FFFFFF; fill-opacity:1.0000; stroke:none;">
<circle cx="25.3790" cy="31.6990" r="0.5000" /> 
</g>
<g style="fill:#FFFFFF; fill-opacity:1.0000; stroke:none;">
<circle cx="27.9190" cy="31.6990" r="0.5000" /> 
</g>
<g style="fill:#FFFFFF; fill-opacity:1.0000; stroke:none;">
<circle cx="30.4590" cy="31.6990" r="0.5000" /> 
</g>
<g style="fill:#FFFFFF; fill-opacity:1.0000; stroke:none;">
<circle cx="5.1865" cy="34.0001" r="0.4500" /> 
</g>
<g style="fill:#FFFFFF; fill-opacity:1.0000; stroke:none;">
<circle cx="6.3345" cy="36.7717" r="0.4500" /> 
</g>
<g style="fill:#FFFFFF; fill-opacity:1.0000; stroke:none;">
<circle cx="39.7834" cy="42.5704" r="0.3250" /> 
</g>
<g style="fill:#FFFFFF; fill-opacity:1.0000; stroke:none;">
<circle cx="43.8704" cy="38.4834" r="0.3250" /> 
</g>
<g style="fill:none; 
stroke:#FFFFFF; stroke-width:0.6000; stroke-opacity:1; 
stroke-linecap:round; stroke-linejoin:round;">
<path d="M38.0297 42.8391
L38.8076 43.6170
" />
<path d="M44.1391 36.7297
L44.9170 37.5076
" />
<path d="M41.0915 45.9009
L41.6572 46.4666
" />
<path d="M47.2009 39.7915
L47.7666 40.3572
" />
</g>
<g style="fill:#FFFFFF; fill-opacity:1.0000; stroke:none;">
<circle cx="36.9361" cy="35.5090" r="0.4000" /> 
</g>
<g style="fill:#FFFFFF; fill-opacity:1.0000; stroke:none;">
<circle cx="36.9361" cy="32.9690" r="0.4000" /> 
</g>
<g style="fill:#FFFFFF; fill-opacity:1.0000; stroke:none;">
<circle cx="36.9361" cy="30.4291" r="0.4000" /> 
</g>
<g style="fill:#FFFFFF; fill-opacity:1.0000; stroke:none;">
<circle cx="36.9361" cy="27.8890" r="0.4000" /> 
</g>
<g style="fill:#FFFFFF; fill-opacity:1.0000; stroke:none;">
<circle cx="36.9361" cy="25.3490" r="0.4000" /> 
</g>
<g style="fill:#FFFFFF; fill-opacity:1.0000; stroke:none;">
<circle cx="36.9361" cy="22.8090" r="0.4000" /> 
</g>
<g style="fill:#FFFFFF; fill-opacity:1.0000; stroke:none;">
<circle cx="36.9361" cy="20.2691" r="0.4000" /> 
</g>
<g style="fill:#FFFFFF; fill-opacity:1.0000; stroke:none;">
<circle cx="36.9361" cy="17.7291" r="0.4000" /> 
</g>
<g style="fill:#FFFFFF; fill-opacity:1.0000; stroke:none;">
<circle cx="18.9020" cy="17.7291" r="0.4000" /> 
</g>
<g style="fill:#FFFFFF; fill-opacity:1.0000; stroke:none;">
<circle cx="18.9020" cy="20.2691" r="0.4000" /> 
</g>
<g style="fill:#FFFFFF; fill-opacity:1.0000; stroke:none;">
<circle cx="18.9020" cy="22.8090" r="0.4000" /> 
</g>
<g style="fill:#FFFFFF; fill-opacity:1.0000; stroke:none;">
<circle cx="18.9020" cy="25.3490" r="0.4000" /> 
</g>
<g style="fill:#FFFFFF; fill-opacity:1.0000; stroke:none;">
<circle cx="18.9020" cy="27.8890" r="0.4000" /> 
</g>
<g style="fill:#FFFFFF; fill-opacity:1.0000; stroke:none;">
<circle cx="18.9020" cy="30.4291" r="0.4000" /> 
</g>
<g style="fill:#FFFFFF; fill-opacity:1.0000; stroke:none;">
<circle cx="18.9020" cy="32.9690" r="0.4000" /> 
</g>
<g style="fill:#FFFFFF; fill-opacity:1.0000; stroke:none;">
<circle cx="18.9020" cy="35.5090" r="0.4000" /> 
</g>
<g style="fill:#FFFFFF; fill-opacity:1.0000; stroke:none;">
<circle cx="39.9791" cy="29.1441" r="0.5000" /> 
</g>
<g style="fill:#FFFFFF; fill-opacity:1.0000; stroke:none;">
<circle cx="42.5191" cy="29.1441" r="0.5000" /> 
</g>
<g style="fill:#FFFFFF; fill-opacity:1.0000; stroke:none;">
<circle cx="39.9791" cy="26.6040" r="0.5000" /> 
</g>
<g style="fill:#FFFFFF; fill-opacity:1.0000; stroke:none;">
<circle cx="42.5191" cy="26.6040" r="0.5000" /> 
</g>
<g style="fill:#FFFFFF; fill-opacity:1.0000; stroke:none;">
<circle cx="39.9791" cy="24.0640" r="0.5000" /> 
</g>
<g style="fill:#FFFFFF; fill-opacity:1.0000; stroke:none;">
<circle cx="42.5191" cy="24.0640" r="0.5000" /> 
</g>
<g style="fill:#FFFFFF; fill-opacity:1.0000; stroke:none;">
<circle cx="13.8118" cy="47.7974" r="0.6000" /> 
</g>
<g style="fill:#FFFFFF; fill-opacity:1.0000; stroke:none;">
<circle cx="15.5796" cy="46.0296" r="0.6000" /> 
</g>
<g style="fill:#FFFFFF; fill-opacity:1.0000; stroke:none;">
<circle cx="15.5796" cy="38.9585" r="0.6000" /> 
</g>
<g style="fill:#FFFFFF; fill-opacity:1.0000; stroke:none;">
<circle cx="6.7407" cy="40.7263" r="0.6000" /> 
</g>
<g style="fill:#FFFFFF; fill-opacity:1.0000; stroke:none;">
<circle cx="8.5085" cy="38.9585" r="0.6000" /> 
</g>
<g style="fill:none; 
stroke:#FFFFFF; stroke-width:0.8000; stroke-opacity:1; 
stroke-linecap:round; stroke-linejoin:round;">
<path d="M12.2915 42.7415
L11.7966 42.2466
" />
<path d="M11.7966 35.6705
L12.2915 35.1755
" />
<path d="M18.8676 42.7415
L19.3626 42.2466
" />
</g> 
</svg>
