<!DOCTYPE svg PUBLIC "-//W3C//DTD SVG 1.1//EN" "http://www.w3.org/Graphics/SVG/1.1/DTD/svg11.dtd">
<svg xmlns:svg="http://www.w3.org/2000/svg" xmlns="http://www.w3.org/2000/svg" xmlns:xlink="http://www.w3.org/1999/xlink" version="1.1" width="4.04mm" height="2.7501mm" viewBox="0.0000 0.0000 4.04 2.7501">
<title>SVG Image created as TSOT-23.svg date 2024/09/17 20:59:47 </title>
  <desc>Image generated by PCBNEW </desc>
<g style="fill:#000000; fill-opacity:1.0000;stroke:#000000; stroke-opacity:1.0000; stroke-linecap:round; stroke-linejoin:round;" transform="translate(0 0) scale(1 1)">
<path style="fill:#000000; fill-opacity:1.0000; stroke:none;fill-rule:evenodd;" d="M 0.10000000000000009,0.2625000000000002 0.11240000000000006,0.20040000000000013 0.14760000000000018,0.14760000000000018 0.20030000000000014,0.11240000000000006 0.2625000000000002,0.10000000000000009 1.1575000000000002,0.10000000000000009 1.2197,0.11240000000000006 1.2724000000000002,0.14760000000000018 1.3077,0.20040000000000013 1.3200000000000003,0.2625000000000002 1.3200000000000003,0.5874999999999999 1.3077,0.6497000000000002 1.2724000000000002,0.7025000000000001 1.2197,0.7377000000000002 1.1575000000000002,0.75 0.2625000000000002,0.75 0.20030000000000014,0.7377000000000002 0.14760000000000018,0.7025000000000001 0.11240000000000006,0.6497000000000002 0.10000000000000009,0.5874999999999999 Z"/> 
<path style="fill:#000000; fill-opacity:1.0000; stroke:none;fill-rule:evenodd;" d="M 0.10000000000000009,2.1624999999999996 0.11240000000000006,2.1004000000000005 0.14760000000000018,2.0476 0.20030000000000014,2.0124000000000004 0.2625000000000002,2.0 1.1575000000000002,2.0 1.2197,2.0124000000000004 1.2724000000000002,2.0476 1.3077,2.1004000000000005 1.3200000000000003,2.1624999999999996 1.3200000000000003,2.4875 1.3077,2.5496999999999996 1.2724000000000002,2.6025 1.2197,2.6376999999999997 1.1575000000000002,2.6501 0.2625000000000002,2.6501 0.20030000000000014,2.6376999999999997 0.14760000000000018,2.6025 0.11240000000000006,2.5496999999999996 0.10000000000000009,2.4875 Z"/> 
<path style="fill:#000000; fill-opacity:1.0000; stroke:none;fill-rule:evenodd;" d="M 2.7199999999999998,1.2125 2.7324,1.1503999999999999 2.7676,1.0976 2.8203000000000005,1.0624000000000002 2.8825000000000003,1.0500000000000003 3.7775,1.0500000000000003 3.8396999999999997,1.0624000000000002 3.8924000000000003,1.0976 3.9276999999999997,1.1503999999999999 3.9400000000000004,1.2125 3.9400000000000004,1.5375 3.9276999999999997,1.5997 3.8924000000000003,1.6524999999999999 3.8396999999999997,1.6877 3.7775,1.7000000000000002 2.8825000000000003,1.7000000000000002 2.8203000000000005,1.6877 2.7676,1.6524999999999999 2.7324,1.5997 2.7199999999999998,1.5375 Z"/> 
</g> 
</svg>