<!DOCTYPE svg PUBLIC "-//W3C//DTD SVG 1.1//EN" "http://www.w3.org/Graphics/SVG/1.1/DTD/svg11.dtd">
<svg xmlns:svg="http://www.w3.org/2000/svg" xmlns="http://www.w3.org/2000/svg" xmlns:xlink="http://www.w3.org/1999/xlink" version="1.1" width="7.3999999999999995mm" height="4.5mm" viewBox="0.0000 0.0000 7.3999999999999995 4.5">
<title>SVG Image created as TSSOP-14_4.4x5mm_P0.65mm.svg date 2024/09/10 15:33:46 </title>
  <desc>Image generated by PCBNEW </desc>
<g style="fill:#000000; fill-opacity:1.0000;stroke:#000000; stroke-opacity:1.0000; stroke-linecap:round; stroke-linejoin:round;" transform="translate(0 0) scale(1 1)">
<path style="fill:#000000; fill-opacity:1.0000; stroke:none;fill-rule:evenodd;" d="M 0.09999999999999964,0.20009999999999994 0.1075999999999997,0.16179999999999994 0.12929999999999886,0.1293000000000002 0.1617999999999995,0.1076999999999999 0.1999999999999993,0.10000000000000009 1.4749999999999996,0.10000000000000009 1.5132999999999992,0.1076999999999999 1.5456999999999983,0.1293000000000002 1.5673999999999992,0.16179999999999994 1.5749999999999993,0.20009999999999994 1.5749999999999993,0.3999999999999999 1.5673999999999992,0.4382999999999999 1.5456999999999983,0.4708000000000001 1.5132999999999992,0.49239999999999995 1.4749999999999996,0.5 0.1999999999999993,0.5 0.1617999999999995,0.49239999999999995 0.12929999999999886,0.4708000000000001 0.1075999999999997,0.4382999999999999 0.09999999999999964,0.3999999999999999 Z"/> 
<path style="fill:#000000; fill-opacity:1.0000; stroke:none;fill-rule:evenodd;" d="M 0.09999999999999964,0.8500000000000001 0.1075999999999997,0.8117999999999999 0.12929999999999886,0.7793000000000001 0.1617999999999995,0.7576999999999998 0.1999999999999993,0.75 1.4749999999999996,0.75 1.5132999999999992,0.7576999999999998 1.5456999999999983,0.7793000000000001 1.5673999999999992,0.8117999999999999 1.5749999999999993,0.8500000000000001 1.5749999999999993,1.0499999999999998 1.5673999999999992,1.0882999999999998 1.5456999999999983,1.1208 1.5132999999999992,1.1423999999999999 1.4749999999999996,1.15 0.1999999999999993,1.15 0.1617999999999995,1.1423999999999999 0.12929999999999886,1.1208 0.1075999999999997,1.0882999999999998 0.09999999999999964,1.0499999999999998 Z"/> 
<path style="fill:#000000; fill-opacity:1.0000; stroke:none;fill-rule:evenodd;" d="M 0.09999999999999964,1.5 0.1075999999999997,1.4617999999999998 0.12929999999999886,1.4293 0.1617999999999995,1.4077000000000002 0.1999999999999993,1.4 1.4749999999999996,1.4 1.5132999999999992,1.4077000000000002 1.5456999999999983,1.4293 1.5673999999999992,1.4617999999999998 1.5749999999999993,1.5 1.5749999999999993,1.7000000000000002 1.5673999999999992,1.7383000000000002 1.5456999999999983,1.7708 1.5132999999999992,1.7923999999999998 1.4749999999999996,1.7999999999999998 0.1999999999999993,1.7999999999999998 0.1617999999999995,1.7923999999999998 0.12929999999999886,1.7708 0.1075999999999997,1.7383000000000002 0.09999999999999964,1.7000000000000002 Z"/> 
<path style="fill:#000000; fill-opacity:1.0000; stroke:none;fill-rule:evenodd;" d="M 0.09999999999999964,2.15 0.1075999999999997,2.1118 0.12929999999999886,2.0793000000000004 0.1617999999999995,2.0577 0.1999999999999993,2.0501 1.4749999999999996,2.0501 1.5132999999999992,2.0577 1.5456999999999983,2.0793000000000004 1.5673999999999992,2.1118 1.5749999999999993,2.15 1.5749999999999993,2.35 1.5673999999999992,2.3882999999999996 1.5456999999999983,2.4208000000000003 1.5132999999999992,2.4423999999999997 1.4749999999999996,2.4499999999999997 0.1999999999999993,2.4499999999999997 0.1617999999999995,2.4423999999999997 0.12929999999999886,2.4208000000000003 0.1075999999999997,2.3882999999999996 0.09999999999999964,2.35 Z"/> 
<path style="fill:#000000; fill-opacity:1.0000; stroke:none;fill-rule:evenodd;" d="M 0.09999999999999964,2.8001 0.1075999999999997,2.7617999999999996 0.12929999999999886,2.7293 0.1617999999999995,2.7076999999999996 0.1999999999999993,2.6999999999999997 1.4749999999999996,2.6999999999999997 1.5132999999999992,2.7076999999999996 1.5456999999999983,2.7293 1.5673999999999992,2.7617999999999996 1.5749999999999993,2.8001 1.5749999999999993,2.9999999999999996 1.5673999999999992,3.0383 1.5456999999999983,3.0707999999999998 1.5132999999999992,3.0924 1.4749999999999996,3.1 0.1999999999999993,3.1 0.1617999999999995,3.0924 0.12929999999999886,3.0707999999999998 0.1075999999999997,3.0383 0.09999999999999964,2.9999999999999996 Z"/> 
<path style="fill:#000000; fill-opacity:1.0000; stroke:none;fill-rule:evenodd;" d="M 0.09999999999999964,3.4499999999999997 0.1075999999999997,3.4118 0.12929999999999886,3.3793 0.1617999999999995,3.3577 0.1999999999999993,3.35 1.4749999999999996,3.35 1.5132999999999992,3.3577 1.5456999999999983,3.3793 1.5673999999999992,3.4118 1.5749999999999993,3.4499999999999997 1.5749999999999993,3.65 1.5673999999999992,3.6883000000000004 1.5456999999999983,3.7208 1.5132999999999992,3.7424000000000004 1.4749999999999996,3.7499999999999996 0.1999999999999993,3.7499999999999996 0.1617999999999995,3.7424000000000004 0.12929999999999886,3.7208 0.1075999999999997,3.6883000000000004 0.09999999999999964,3.65 Z"/> 
<path style="fill:#000000; fill-opacity:1.0000; stroke:none;fill-rule:evenodd;" d="M 0.09999999999999964,4.1 0.1075999999999997,4.0618 0.12929999999999886,4.029299999999999 0.1617999999999995,4.0077 0.1999999999999993,3.9999999999999996 1.4749999999999996,3.9999999999999996 1.5132999999999992,4.0077 1.5456999999999983,4.029299999999999 1.5673999999999992,4.0618 1.5749999999999993,4.1 1.5749999999999993,4.300000000000001 1.5673999999999992,4.3383 1.5456999999999983,4.370799999999999 1.5132999999999992,4.3924 1.4749999999999996,4.4 0.1999999999999993,4.4 0.1617999999999995,4.3924 0.12929999999999886,4.370799999999999 0.1075999999999997,4.3383 0.09999999999999964,4.300000000000001 Z"/> 
<path style="fill:#000000; fill-opacity:1.0000; stroke:none;fill-rule:evenodd;" d="M 5.824999999999999,4.1 5.832599999999999,4.0618 5.8542999999999985,4.029299999999999 5.886799999999999,4.0077 5.924999999999999,3.9999999999999996 7.199999999999999,3.9999999999999996 7.238299999999999,4.0077 7.2707,4.029299999999999 7.292399999999999,4.0618 7.299999999999999,4.1 7.299999999999999,4.300000000000001 7.292399999999999,4.3383 7.2707,4.370799999999999 7.238299999999999,4.3924 7.199999999999999,4.4 5.924999999999999,4.4 5.886799999999999,4.3924 5.8542999999999985,4.370799999999999 5.832599999999999,4.3383 5.824999999999999,4.300000000000001 Z"/> 
<path style="fill:#000000; fill-opacity:1.0000; stroke:none;fill-rule:evenodd;" d="M 5.824999999999999,3.4499999999999997 5.832599999999999,3.4118 5.8542999999999985,3.3793 5.886799999999999,3.3577 5.924999999999999,3.35 7.199999999999999,3.35 7.238299999999999,3.3577 7.2707,3.3793 7.292399999999999,3.4118 7.299999999999999,3.4499999999999997 7.299999999999999,3.65 7.292399999999999,3.6883000000000004 7.2707,3.7208 7.238299999999999,3.7424000000000004 7.199999999999999,3.7499999999999996 5.924999999999999,3.7499999999999996 5.886799999999999,3.7424000000000004 5.8542999999999985,3.7208 5.832599999999999,3.6883000000000004 5.824999999999999,3.65 Z"/> 
<path style="fill:#000000; fill-opacity:1.0000; stroke:none;fill-rule:evenodd;" d="M 5.824999999999999,2.8001 5.832599999999999,2.7617999999999996 5.8542999999999985,2.7293 5.886799999999999,2.7076999999999996 5.924999999999999,2.6999999999999997 7.199999999999999,2.6999999999999997 7.238299999999999,2.7076999999999996 7.2707,2.7293 7.292399999999999,2.7617999999999996 7.299999999999999,2.8001 7.299999999999999,2.9999999999999996 7.292399999999999,3.0383 7.2707,3.0707999999999998 7.238299999999999,3.0924 7.199999999999999,3.1 5.924999999999999,3.1 5.886799999999999,3.0924 5.8542999999999985,3.0707999999999998 5.832599999999999,3.0383 5.824999999999999,2.9999999999999996 Z"/> 
<path style="fill:#000000; fill-opacity:1.0000; stroke:none;fill-rule:evenodd;" d="M 5.824999999999999,2.15 5.832599999999999,2.1118 5.8542999999999985,2.0793000000000004 5.886799999999999,2.0577 5.924999999999999,2.0501 7.199999999999999,2.0501 7.238299999999999,2.0577 7.2707,2.0793000000000004 7.292399999999999,2.1118 7.299999999999999,2.15 7.299999999999999,2.35 7.292399999999999,2.3882999999999996 7.2707,2.4208000000000003 7.238299999999999,2.4423999999999997 7.199999999999999,2.4499999999999997 5.924999999999999,2.4499999999999997 5.886799999999999,2.4423999999999997 5.8542999999999985,2.4208000000000003 5.832599999999999,2.3882999999999996 5.824999999999999,2.35 Z"/> 
<path style="fill:#000000; fill-opacity:1.0000; stroke:none;fill-rule:evenodd;" d="M 5.824999999999999,1.5 5.832599999999999,1.4617999999999998 5.8542999999999985,1.4293 5.886799999999999,1.4077000000000002 5.924999999999999,1.4 7.199999999999999,1.4 7.238299999999999,1.4077000000000002 7.2707,1.4293 7.292399999999999,1.4617999999999998 7.299999999999999,1.5 7.299999999999999,1.7000000000000002 7.292399999999999,1.7383000000000002 7.2707,1.7708 7.238299999999999,1.7923999999999998 7.199999999999999,1.7999999999999998 5.924999999999999,1.7999999999999998 5.886799999999999,1.7923999999999998 5.8542999999999985,1.7708 5.832599999999999,1.7383000000000002 5.824999999999999,1.7000000000000002 Z"/> 
<path style="fill:#000000; fill-opacity:1.0000; stroke:none;fill-rule:evenodd;" d="M 5.824999999999999,0.8500000000000001 5.832599999999999,0.8117999999999999 5.8542999999999985,0.7793000000000001 5.886799999999999,0.7576999999999998 5.924999999999999,0.75 7.199999999999999,0.75 7.238299999999999,0.7576999999999998 7.2707,0.7793000000000001 7.292399999999999,0.8117999999999999 7.299999999999999,0.8500000000000001 7.299999999999999,1.0499999999999998 7.292399999999999,1.0882999999999998 7.2707,1.1208 7.238299999999999,1.1423999999999999 7.199999999999999,1.15 5.924999999999999,1.15 5.886799999999999,1.1423999999999999 5.8542999999999985,1.1208 5.832599999999999,1.0882999999999998 5.824999999999999,1.0499999999999998 Z"/> 
<path style="fill:#000000; fill-opacity:1.0000; stroke:none;fill-rule:evenodd;" d="M 5.824999999999999,0.20009999999999994 5.832599999999999,0.16179999999999994 5.8542999999999985,0.1293000000000002 5.886799999999999,0.1076999999999999 5.924999999999999,0.10000000000000009 7.199999999999999,0.10000000000000009 7.238299999999999,0.1076999999999999 7.2707,0.1293000000000002 7.292399999999999,0.16179999999999994 7.299999999999999,0.20009999999999994 7.299999999999999,0.3999999999999999 7.292399999999999,0.4382999999999999 7.2707,0.4708000000000001 7.238299999999999,0.49239999999999995 7.199999999999999,0.5 5.924999999999999,0.5 5.886799999999999,0.49239999999999995 5.8542999999999985,0.4708000000000001 5.832599999999999,0.4382999999999999 5.824999999999999,0.3999999999999999 Z"/> 
</g> 
</svg>