<!DOCTYPE svg PUBLIC "-//W3C//DTD SVG 1.1//EN" "http://www.w3.org/Graphics/SVG/1.1/DTD/svg11.dtd">
<svg xmlns:svg="http://www.w3.org/2000/svg" xmlns="http://www.w3.org/2000/svg" xmlns:xlink="http://www.w3.org/1999/xlink" version="1.1" width="2.1mm" height="1.45mm" viewBox="0.0000 0.0000 2.1 1.45">
<title>SVG Image created as VSON_6.svg date 2024/09/05 13:32:29 </title>
  <desc>Image generated by PCBNEW </desc>
<g style="fill:#000000; fill-opacity:1.0000;stroke:#000000; stroke-opacity:1.0000; stroke-linecap:round; stroke-linejoin:round;" transform="translate(0 0) scale(1 1)">
<path style="fill:#000000; fill-opacity:1.0000; stroke:none;fill-rule:evenodd;" d="M 0.1,0.1625 0.1048,0.13860000000000003 0.1183,0.11830000000000002 0.1386,0.1048 0.1625,0.1 0.6375,0.1 0.6614,0.1048 0.6817,0.11830000000000002 0.6951999999999999,0.13860000000000003 0.7,0.1625 0.7,0.2875 0.6951999999999999,0.3114 0.6817,0.3317 0.6614,0.34520000000000006 0.6375,0.35 0.1625,0.35 0.1386,0.34520000000000006 0.1183,0.3317 0.1048,0.3114 0.1,0.2875 Z"/> 
<path style="fill:#000000; fill-opacity:1.0000; stroke:none;fill-rule:evenodd;" d="M 0.1,0.6625000000000001 0.1048,0.6386000000000001 0.1183,0.6183000000000001 0.1386,0.6048 0.1625,0.6000000000000001 0.6375,0.6000000000000001 0.6614,0.6048 0.6817,0.6183000000000001 0.6951999999999999,0.6386000000000001 0.7,0.6625000000000001 0.7,0.7875000000000001 0.6951999999999999,0.8114 0.6817,0.8317 0.6614,0.8452000000000001 0.6375,0.8500000000000001 0.1625,0.8500000000000001 0.1386,0.8452000000000001 0.1183,0.8317 0.1048,0.8114 0.1,0.7875000000000001 Z"/> 
<path style="fill:#000000; fill-opacity:1.0000; stroke:none;fill-rule:evenodd;" d="M 0.1,1.1625 0.1048,1.1386 0.1183,1.1183 0.1386,1.1048 0.1625,1.1 0.6375,1.1 0.6614,1.1048 0.6817,1.1183 0.6951999999999999,1.1386 0.7,1.1625 0.7,1.2875 0.6951999999999999,1.3114000000000001 0.6817,1.3317 0.6614,1.3452 0.6375,1.35 0.1625,1.35 0.1386,1.3452 0.1183,1.3317 0.1048,1.3114000000000001 0.1,1.2875 Z"/> 
<path style="fill:#000000; fill-opacity:1.0000; stroke:none;fill-rule:evenodd;" d="M 2.0,1.2750000000000001 1.9962000000000002,1.2941 1.9854,1.3104 1.9691,1.3212000000000002 1.9500000000000002,1.325 1.05,1.325 1.0309,1.3212000000000002 1.0146,1.3104 1.0038,1.2941 1.0,1.2750000000000001 1.0,1.175 1.0038,1.1559000000000001 1.0146,1.1396 1.0309,1.1288 1.05,1.125 1.9500000000000002,1.125 1.9691,1.1288 1.9854,1.1396 1.9962000000000002,1.1559000000000001 2.0,1.175 Z"/> 
<path style="fill:#000000; fill-opacity:1.0000; stroke:none;fill-rule:evenodd;" d="M 2.0,0.775 1.9962000000000002,0.7941 1.9854,0.8104 1.9691,0.8212 1.9500000000000002,0.8250000000000001 1.05,0.8250000000000001 1.0309,0.8212 1.0146,0.8104 1.0038,0.7941 1.0,0.775 1.0,0.675 1.0038,0.6559 1.0146,0.6396000000000001 1.0309,0.6288 1.05,0.625 1.9500000000000002,0.625 1.9691,0.6288 1.9854,0.6396000000000001 1.9962000000000002,0.6559 2.0,0.675 Z"/> 
<path style="fill:#000000; fill-opacity:1.0000; stroke:none;fill-rule:evenodd;" d="M 2.0,0.275 1.9962000000000002,0.29410000000000003 1.9854,0.3104 1.9691,0.32120000000000004 1.9500000000000002,0.32500000000000007 1.05,0.32500000000000007 1.0309,0.32120000000000004 1.0146,0.3104 1.0038,0.29410000000000003 1.0,0.275 1.0,0.17500000000000002 1.0038,0.1559 1.0146,0.1396 1.0309,0.12880000000000003 1.05,0.12500000000000003 1.9500000000000002,0.12500000000000003 1.9691,0.12880000000000003 1.9854,0.1396 1.9962000000000002,0.1559 2.0,0.17500000000000002 Z"/> 
</g> 
</svg>