M48
; DRILL file {KiCad 8.0.3} date 2024-09-09T20:33:33-0500
; FORMAT={-:-/ absolute / metric / decimal}
; #@! TF.CreationDate,2024-09-09T20:33:33-05:00
; #@! TF.GenerationSoftware,Kicad,Pcbnew,8.0.3
; #@! TF.FileFunction,MixedPlating,1,2
FMAT,2
METRIC
; #@! TA.AperFunction,Plated,PTH,ViaDrill
T1C0.300
; #@! TA.AperFunction,Plated,PTH,ComponentDrill
T2C1.000
; #@! TA.AperFunction,Plated,PTH,ComponentDrill
T3C1.550
%
G90
G05
T1
X114.0Y-93.2
X115.3Y-92.7
X115.723Y-94.63
X115.75Y-95.95
X117.5Y-93.55
X118.3Y-95.65
X118.7Y-91.85
X119.52Y-95.24
X122.25Y-95.3
X122.344Y-94.602
X122.45Y-97.225
X122.92Y-91.72
X122.97Y-93.07
X123.7Y-96.65
X124.55Y-94.15
X125.55Y-93.35
X125.55Y-96.2
X129.5Y-93.1
X129.55Y-94.5
X129.55Y-95.9
X129.7Y-97.6
X129.75Y-96.7
X130.92Y-93.62
X130.98Y-90.9
X131.5Y-98.92
X131.55Y-90.0
X131.9Y-98.47
X131.95Y-90.45
X132.25Y-98.92
X132.3Y-90.0
X132.65Y-98.47
X132.7Y-90.45
X133.0Y-98.92
X133.05Y-90.0
X133.4Y-98.47
X133.45Y-90.45
X133.75Y-98.92
X133.8Y-90.0
X134.15Y-98.47
X134.2Y-90.45
X134.5Y-98.92
X134.55Y-90.0
X134.9Y-98.47
X134.95Y-90.45
X135.25Y-98.92
X135.3Y-90.0
X135.65Y-98.47
X135.7Y-90.45
T2
X110.909Y-91.935
X110.909Y-94.475
X110.909Y-97.015
X112.383Y-91.94
X112.383Y-94.48
X112.383Y-97.02
X132.702Y-91.93
X132.702Y-94.47
X132.702Y-97.01
X136.38Y-91.93
X136.38Y-94.47
X136.38Y-97.01
T3
X134.85Y-91.93
X134.85Y-94.47
X134.85Y-97.01
M30
