M48
; DRILL file {KiCad 8.0.3} date 2024-08-20T19:34:38-0500
; FORMAT={-:-/ absolute / metric / decimal}
; #@! TF.CreationDate,2024-08-20T19:34:38-05:00
; #@! TF.GenerationSoftware,Kicad,Pcbnew,8.0.3
; #@! TF.FileFunction,MixedPlating,1,2
FMAT,2
METRIC
; #@! TA.AperFunction,Plated,PTH,ViaDrill
T1C0.330
; #@! TA.AperFunction,Plated,PTH,ViaDrill
T2C0.400
; #@! TA.AperFunction,Plated,PTH,ComponentDrill
T3C0.400
; #@! TA.AperFunction,Plated,PTH,ComponentDrill
T4C0.600
; #@! TA.AperFunction,Plated,PTH,ComponentDrill
T5C1.000
; #@! TA.AperFunction,NonPlated,NPTH,ComponentDrill
T6C0.900
; #@! TA.AperFunction,NonPlated,NPTH,ComponentDrill
T7C0.991
; #@! TA.AperFunction,NonPlated,NPTH,ComponentDrill
T8C2.375
%
G90
G05
T1
X101.727Y-88.392
X101.727Y-92.837
X103.632Y-94.996
X105.664Y-97.028
X109.728Y-98.552
X110.744Y-92.964
X111.506Y-108.458
X112.268Y-118.364
X112.268Y-121.92
X112.776Y-97.536
X113.284Y-92.456
X114.808Y-89.408
X115.316Y-106.172
X115.316Y-120.396
X116.069Y-100.076
X116.081Y-101.531
X116.332Y-97.028
X116.7Y-106.7
X117.348Y-90.932
X117.9Y-106.7
X119.252Y-83.692
X119.38Y-111.125
X119.61Y-116.435
X120.3Y-88.4
X122.985Y-106.68
X123.825Y-94.615
X123.825Y-111.125
X123.827Y-89.599
X123.952Y-118.364
X124.46Y-87.884
X124.46Y-107.188
X124.46Y-119.888
X124.968Y-93.98
X125.476Y-118.364
X125.73Y-93.345
X126.492Y-93.98
X126.492Y-95.504
X126.492Y-114.554
X127.3Y-97.455
X127.508Y-82.296
X128.905Y-106.045
X129.54Y-127.0
X130.048Y-120.308
X130.048Y-121.92
X130.556Y-89.916
X130.81Y-87.63
X131.064Y-118.872
X132.588Y-91.44
X132.715Y-90.17
X132.715Y-97.79
X133.096Y-121.92
X136.144Y-121.5
X136.652Y-125.984
X140.335Y-102.235
X140.716Y-111.76
X141.732Y-126.492
T2
X116.586Y-108.966
X119.38Y-98.552
X120.904Y-98.552
X120.904Y-100.838
X120.904Y-102.87
X122.682Y-98.552
X122.682Y-100.838
X122.682Y-102.87
X127.3Y-101.6
T3
X118.442Y-85.344
X118.442Y-86.694
X119.292Y-85.344
X119.292Y-86.694
X120.142Y-85.344
X120.142Y-86.694
X120.992Y-85.344
X120.992Y-86.694
X121.842Y-85.344
X121.842Y-86.694
X122.692Y-85.344
X122.692Y-86.694
X123.542Y-85.344
X123.542Y-86.694
X124.392Y-85.344
X124.392Y-86.694
T5
X117.856Y-123.952
X120.396Y-123.952
X122.936Y-123.952
X125.476Y-123.952
T6
X142.186Y-85.13
X142.186Y-88.13
T7
X104.14Y-119.38
X109.22Y-118.364
X109.22Y-120.396
X135.128Y-123.444
X140.208Y-122.428
X140.208Y-124.46
T8
X104.14Y-116.84
X104.14Y-121.92
X107.315Y-116.84
X107.315Y-121.92
T4
X117.092Y-82.734G85X117.092Y-81.934
G05
X117.092Y-86.464G85X117.092Y-84.964
G05
X125.742Y-82.734G85X125.742Y-81.934
G05
X125.742Y-86.464G85X125.742Y-84.964
G05
M30
