M48
; DRILL file {KiCad 8.0.3} date 2024-09-04T11:40:11-0500
; FORMAT={-:-/ absolute / metric / decimal}
; #@! TF.CreationDate,2024-09-04T11:40:11-05:00
; #@! TF.GenerationSoftware,Kicad,Pcbnew,8.0.3
; #@! TF.FileFunction,MixedPlating,1,2
FMAT,2
METRIC
; #@! TA.AperFunction,Plated,PTH,ViaDrill
T1C0.610
; #@! TA.AperFunction,Plated,PTH,ComponentDrill
T2C0.850
; #@! TA.AperFunction,Plated,PTH,ComponentDrill
T3C0.950
; #@! TA.AperFunction,Plated,PTH,ComponentDrill
T4C1.300
; #@! TA.AperFunction,Plated,PTH,ComponentDrill
T5C2.200
; #@! TA.AperFunction,NonPlated,NPTH,ComponentDrill
T6C3.200
%
G90
G05
T1
X116.751Y-110.084
X116.751Y-114.275
X116.751Y-118.339
X119.291Y-111.354
X119.291Y-117.069
X121.196Y-102.845
X121.196Y-107.544
X121.831Y-111.989
X121.831Y-116.434
X123.101Y-84.013
X123.101Y-110.084
X123.101Y-118.339
X123.228Y-88.875
X124.117Y-100.813
X124.625Y-81.763
X125.641Y-118.974
X126.276Y-100.305
X126.276Y-106.909
X126.276Y-110.211
X128.308Y-114.529
X129.197Y-89.764
X130.874Y-124.79
X131.102Y-119.99
X133.134Y-105.512
X133.134Y-110.592
X133.159Y-97.968
X135.801Y-128.854
X136.182Y-120.117
X136.436Y-90.653
X136.563Y-113.259
X136.817Y-85.065
X137.224Y-109.855
X139.103Y-103.988
X139.23Y-91.034
X139.357Y-94.082
X139.484Y-82.525
X139.738Y-88.494
X139.738Y-112.37
X140.043Y-107.137
X140.119Y-101.829
X141.135Y-110.211
X141.389Y-117.45
X142.024Y-123.673
X143.421Y-125.451
X144.183Y-108.306
X144.31Y-100.178
X144.437Y-102.337
X144.589Y-94.031
X144.844Y-97.358
X145.072Y-90.526
X145.326Y-121.133
X145.682Y-92.939
X145.682Y-95.987
X146.088Y-101.575
X146.596Y-106.782
X147.104Y-100.432
X147.739Y-105.639
X150.533Y-103.353
X151.93Y-115.291
X155.385Y-113.741
X157.543Y-100.152
X157.899Y-80.874
X161.265Y-106.083
X161.353Y-102.438
X162.471Y-123.419
X162.471Y-129.134
X163.043Y-105.956
X165.265Y-99.67
X165.646Y-110.084
X166.662Y-97.511
X168.821Y-82.525
X170.548Y-100.355
X170.853Y-96.622
X173.52Y-113.386
X173.647Y-103.734
X173.647Y-106.909
X175.425Y-98.781
X176.06Y-114.402
X178.879Y-84.277
X178.879Y-91.135
X181.419Y-120.98
X181.445Y-113.97
T2
X130.594Y-105.512
X133.007Y-80.874
X135.547Y-80.874
X135.674Y-105.512
X138.087Y-80.874
X140.627Y-80.874
X142.151Y-129.134
X143.167Y-80.874
X144.056Y-111.481
X144.056Y-119.101
X144.691Y-129.134
X145.707Y-80.874
X146.596Y-111.481
X146.596Y-119.101
X147.231Y-129.134
X148.247Y-80.874
X149.136Y-111.481
X149.136Y-119.101
X149.771Y-129.134
X150.787Y-80.874
X151.676Y-111.481
X151.676Y-119.101
X152.311Y-129.134
X153.327Y-80.874
X154.216Y-111.481
X154.216Y-119.101
X154.851Y-129.134
X155.867Y-80.874
X156.756Y-111.481
X156.756Y-119.101
X157.391Y-129.134
X159.296Y-111.481
X159.296Y-119.101
X159.931Y-80.874
X159.931Y-129.134
X161.836Y-111.481
X161.836Y-119.101
X162.471Y-80.874
X164.376Y-111.481
X164.376Y-119.101
X165.011Y-80.874
X165.011Y-129.134
X166.916Y-111.481
X166.916Y-119.101
X167.551Y-80.874
X167.551Y-129.134
X169.456Y-111.481
X169.456Y-119.101
X170.091Y-80.874
X170.091Y-129.134
X171.996Y-111.481
X171.996Y-119.101
X172.631Y-80.874
X172.631Y-129.134
X174.536Y-111.481
X174.536Y-119.101
X175.171Y-80.874
X175.171Y-129.134
X177.076Y-111.481
X177.076Y-119.101
X177.711Y-80.874
X177.711Y-129.134
T3
X120.731Y-92.324
X120.731Y-94.824
X122.731Y-92.324
X122.731Y-94.824
X129.959Y-84.176
X129.959Y-86.716
X132.499Y-84.176
X132.499Y-86.716
X132.499Y-89.256
X132.499Y-91.796
X135.039Y-84.176
X135.039Y-86.716
X135.039Y-89.256
X135.039Y-91.796
X177.838Y-101.194
X177.838Y-103.734
X177.838Y-106.274
X180.378Y-101.194
X180.378Y-103.734
X180.378Y-106.274
T4
X119.901Y-122.606
X119.901Y-123.368
X119.901Y-124.13
X122.136Y-128.372
X122.898Y-128.372
X123.66Y-128.372
X125.895Y-122.606
X125.895Y-123.368
X125.895Y-124.13
T5
X118.021Y-87.574
X118.021Y-99.574
T6
X128.181Y-129.134
X129.451Y-80.874
X180.251Y-96.114
X180.251Y-124.054
M30
